<svg xmlns="http://www.w3.org/2000/svg" xmlns:xlink="http://www.w3.org/1999/xlink" width="1280" zoomAndPan="magnify" viewBox="0 0 960 540.000001" height="720" preserveAspectRatio="xMidYMid meet" version="1.0"><defs><g/><clipPath id="9c2c6af739"><path d="M 196.035156 442.621094 L 267.15625 442.621094 L 267.15625 539 L 196.035156 539 Z M 196.035156 442.621094 " clip-rule="nonzero"/></clipPath></defs><path fill="#0a3757" d="M 218.753906 475.121094 C 218.753906 475.121094 218.746094 475.113281 218.753906 475.121094 Z M 218.753906 475.121094 " fill-opacity="1" fill-rule="nonzero"/><g clip-path="url(#9c2c6af739)"><path fill="#0a3757" d="M 197.457031 459.699219 C 197.625 460.042969 197.863281 460.324219 198.171875 460.542969 C 198.589844 460.71875 199.019531 460.792969 199.46875 460.769531 C 199.769531 460.773438 200.039062 460.683594 200.28125 460.507812 C 200.523438 460.332031 200.6875 460.097656 200.773438 459.8125 C 201.074219 459.34375 201.164062 458.835938 201.046875 458.292969 C 202.15625 457.902344 202.726562 456.902344 203.546875 455.917969 C 203.691406 455.746094 203.84375 455.570312 204.007812 455.414062 C 205.230469 455.554688 206.386719 455.921875 207.46875 456.511719 L 207.429688 456.511719 C 207.964844 456.773438 208.371094 457.207031 208.898438 457.480469 C 209.136719 457.691406 209.398438 457.871094 209.6875 458.015625 C 210.382812 458.660156 211.132812 459.238281 211.929688 459.753906 C 212.941406 460.464844 213.863281 461.289062 214.855469 462.023438 C 215.390625 462.394531 215.960938 462.652344 216.5 462.996094 C 216.734375 463.152344 216.960938 463.3125 217.183594 463.476562 C 216.585938 463.351562 215.980469 463.339844 215.375 463.441406 C 214.710938 463.59375 214.066406 463.804688 213.4375 464.070312 C 212.628906 464.277344 211.804688 464.359375 210.96875 464.316406 C 210.503906 464.296875 210.050781 464.214844 209.609375 464.078125 C 209.800781 463.140625 209.015625 462.332031 208.324219 461.816406 C 207.15625 461.28125 205.777344 462.699219 205.921875 463.863281 C 206.019531 464.253906 206.25 464.53125 206.617188 464.703125 C 207.097656 465.125 207.652344 465.261719 208.277344 465.113281 C 208.71875 464.972656 209.109375 464.746094 209.449219 464.429688 C 210.371094 464.894531 211.351562 465.074219 212.378906 464.964844 L 212.550781 464.964844 C 212.316406 465.144531 212.085938 465.34375 211.835938 465.5 C 211.300781 465.773438 210.8125 466.066406 210.28125 466.300781 L 210.015625 466.394531 C 209.734375 466.078125 209.390625 465.875 208.976562 465.789062 C 208.148438 465.527344 207.488281 466.324219 207.179688 466.988281 C 206.757812 467.976562 207.992188 468.828125 208.890625 468.59375 C 209.222656 468.492188 209.484375 468.292969 209.671875 468.003906 C 209.941406 467.695312 210.0625 467.339844 210.042969 466.933594 C 210.261719 466.90625 210.472656 466.847656 210.679688 466.761719 C 211.375 466.488281 211.976562 466.070312 212.476562 465.511719 C 212.683594 465.308594 212.851562 465.054688 213.046875 464.832031 C 213.828125 464.671875 214.589844 464.398438 215.355469 464.179688 C 216.109375 464.066406 216.855469 464.109375 217.589844 464.304688 C 217.914062 464.398438 218.246094 464.46875 218.570312 464.546875 L 219.828125 465.558594 C 221.402344 466.890625 223.070312 468.175781 224.222656 469.914062 C 225.515625 471.710938 226.582031 473.578125 227.875 475.359375 C 229.628906 478.035156 231.460938 480.769531 232.15625 483.921875 C 232.285156 484.742188 232.296875 485.566406 232.199219 486.390625 C 232.140625 488.367188 231.871094 490.355469 232.070312 492.332031 C 232.140625 493.9375 232.738281 495.425781 233.222656 496.929688 C 233.652344 498.386719 234.164062 499.8125 234.757812 501.210938 C 235.402344 502.605469 236.132812 503.945312 236.898438 505.289062 C 238.078125 507.347656 239.039062 509.523438 240.027344 511.671875 C 240.992188 513.566406 241.835938 515.511719 242.558594 517.515625 C 242.203125 517.011719 241.796875 516.546875 241.457031 516.03125 C 240.328125 514.566406 239.101562 513.195312 237.769531 511.910156 C 237.203125 511.375 236.625 510.902344 236.078125 510.359375 C 235.3125 509.734375 234.515625 509.15625 233.6875 508.621094 C 231.664062 507.476562 229.808594 506.085938 227.863281 504.8125 C 225.140625 503.054688 222.449219 501.140625 220.609375 498.433594 C 220 497.492188 219.238281 496.769531 218.644531 495.859375 C 218.128906 495.109375 217.773438 494.289062 217.574219 493.398438 C 217.363281 491.53125 217.339844 489.652344 216.875 487.800781 C 216.507812 486.359375 216.058594 484.941406 215.527344 483.554688 C 215.238281 482.703125 214.941406 481.851562 214.578125 481.027344 C 214.5625 480.761719 214.5625 480.492188 214.578125 480.226562 C 214.664062 480.054688 214.746094 479.882812 214.839844 479.691406 C 215.09375 479.347656 215.375 479.03125 215.679688 478.738281 C 216.039062 478.410156 216.359375 478.074219 216.75 477.769531 C 217.039062 477.605469 217.308594 477.410156 217.554688 477.183594 C 217.90625 476.898438 218.1875 476.554688 218.398438 476.152344 C 218.460938 476.171875 218.527344 476.179688 218.59375 476.183594 C 218.949219 476.222656 219.277344 476.144531 219.578125 475.945312 C 219.917969 475.714844 220.117188 475.398438 220.175781 474.992188 C 220.175781 474.214844 219.425781 473.386719 218.625 473.628906 C 218.460938 473.683594 218.316406 473.769531 218.183594 473.878906 C 218.054688 473.992188 217.945312 474.121094 217.863281 474.273438 C 217.78125 474.421875 217.730469 474.582031 217.707031 474.753906 C 217.683594 474.921875 217.691406 475.09375 217.730469 475.257812 C 217.765625 475.421875 217.835938 475.570312 217.945312 475.699219 C 218.007812 475.8125 218.078125 475.921875 218.160156 476.023438 C 218.0625 476.140625 217.953125 476.25 217.835938 476.351562 C 217.390625 476.699219 216.90625 476.980469 216.382812 477.203125 C 216.046875 477.417969 215.730469 477.660156 215.433594 477.929688 C 215.515625 477.753906 215.585938 477.578125 215.644531 477.394531 C 215.992188 476.828125 216.03125 476.246094 215.761719 475.640625 C 215.65625 475.316406 215.503906 475.019531 215.308594 474.746094 C 215.621094 474.410156 215.785156 474.015625 215.804688 473.558594 C 215.800781 473.238281 215.707031 472.945312 215.527344 472.679688 C 215.34375 472.414062 215.105469 472.21875 214.808594 472.097656 C 214.453125 471.976562 214.09375 471.976562 213.738281 472.097656 C 213.300781 472.324219 213.046875 472.679688 212.972656 473.167969 C 212.980469 473.414062 213.019531 473.65625 213.089844 473.894531 C 213.261719 474.34375 213.574219 474.640625 214.035156 474.78125 C 214.238281 474.890625 214.449219 474.90625 214.664062 474.824219 C 214.796875 474.789062 214.929688 474.765625 215.066406 474.75 C 215.246094 475.222656 215.355469 475.707031 215.390625 476.210938 C 214.980469 477.644531 214.082031 478.566406 213.953125 479.699219 C 212.847656 477.882812 211.378906 476.4375 209.550781 475.355469 C 209.652344 475.007812 209.667969 474.652344 209.597656 474.296875 C 209.53125 473.941406 209.382812 473.617188 209.160156 473.332031 C 208.625 472.691406 207.296875 472.621094 206.894531 473.425781 C 206.207031 474.761719 207.46875 475.972656 208.800781 475.910156 C 208.9375 475.90625 209.074219 475.890625 209.210938 475.863281 C 209.230469 475.980469 209.257812 476.09375 209.304688 476.199219 C 209.304688 476.082031 209.304688 475.964844 209.304688 475.847656 L 209.390625 475.847656 C 211.15625 477.414062 212.230469 478.449219 213.074219 479.792969 C 212.1875 479.121094 210.992188 479.113281 209.710938 478.953125 C 209.816406 478.816406 209.472656 478.136719 209.433594 478.03125 C 208.800781 476.425781 206.554688 476.558594 205.820312 478.03125 C 205.644531 478.40625 205.660156 478.777344 205.863281 479.136719 C 205.933594 479.347656 206.035156 479.539062 206.175781 479.710938 C 206.3125 479.882812 206.476562 480.027344 206.664062 480.140625 C 206.855469 480.253906 207.058594 480.332031 207.277344 480.375 C 207.492188 480.414062 207.710938 480.417969 207.929688 480.378906 C 208.507812 480.21875 208.984375 479.898438 209.355469 479.425781 C 211.222656 480.003906 212.507812 479.425781 213.734375 481.03125 C 214.148438 481.929688 214.503906 482.847656 214.804688 483.789062 C 215.371094 485.25 215.835938 486.746094 216.199219 488.273438 C 216.105469 488.121094 216.007812 487.972656 215.917969 487.824219 C 215.28125 487.105469 214.523438 486.542969 213.65625 486.136719 C 212.785156 485.726562 211.867188 485.511719 210.910156 485.484375 C 210.375 484.808594 209.898438 484.050781 209.007812 483.878906 C 207.9375 483.632812 206.679688 484.414062 206.804688 485.601562 C 206.894531 486.339844 207.625 486.84375 208.28125 487.0625 C 208.78125 487.15625 209.25 487.074219 209.6875 486.816406 C 210.097656 486.621094 210.472656 486.367188 210.808594 486.058594 C 210.867188 486.015625 210.921875 485.972656 210.976562 485.921875 C 211.621094 486.054688 212.234375 486.269531 212.820312 486.566406 C 213.523438 486.824219 214.167969 487.191406 214.746094 487.671875 C 214.957031 487.855469 215.152344 488.046875 215.339844 488.257812 C 215.476562 488.53125 215.652344 488.777344 215.875 488.996094 C 216.074219 489.210938 216.265625 489.4375 216.441406 489.675781 C 216.582031 490.746094 216.65625 491.765625 216.734375 492.816406 C 216.757812 493.460938 216.890625 494.082031 217.140625 494.675781 C 216.457031 493.988281 215.730469 493.347656 214.957031 492.757812 C 213.503906 491.8125 211.980469 490.996094 210.390625 490.3125 C 209.285156 489.777344 208.148438 489.328125 206.976562 488.960938 C 206.269531 488.808594 205.554688 488.699219 204.835938 488.636719 C 204.710938 488.148438 204.476562 487.722656 204.128906 487.355469 C 203.59375 486.40625 202.699219 486.285156 201.808594 486.820312 C 201.046875 487.296875 200.289062 488.421875 201.046875 489.214844 C 201.25 489.519531 201.523438 489.742188 201.867188 489.882812 C 202.332031 489.980469 202.804688 489.996094 203.277344 489.9375 C 203.796875 489.742188 204.226562 489.421875 204.5625 488.976562 C 205.5 489.273438 206.460938 489.511719 207.367188 489.808594 C 208.6875 490.34375 210 490.878906 211.277344 491.53125 C 210.914062 491.578125 210.554688 491.664062 210.207031 491.734375 C 209.378906 491.96875 208.578125 492.273438 207.804688 492.648438 C 207.445312 492.847656 207.078125 493.023438 206.703125 493.183594 C 206.585938 492.953125 206.519531 492.703125 206.382812 492.484375 C 206.246094 492.296875 206.082031 492.140625 205.890625 492.015625 C 205.699219 491.886719 205.488281 491.796875 205.265625 491.742188 C 205.042969 491.6875 204.816406 491.675781 204.589844 491.703125 C 204.359375 491.726562 204.140625 491.792969 203.9375 491.894531 C 203.617188 492.109375 203.390625 492.394531 203.253906 492.753906 C 203.113281 493.109375 203.09375 493.476562 203.1875 493.847656 C 203.359375 494.207031 203.613281 494.492188 203.953125 494.703125 C 204.292969 494.914062 204.660156 495.011719 205.058594 495.003906 C 205.863281 494.828125 206.4375 494.371094 206.789062 493.628906 C 207.859375 493.4375 208.816406 492.867188 209.828125 492.503906 C 210.464844 492.324219 211.113281 492.234375 211.773438 492.242188 C 212.21875 492.300781 212.65625 492.390625 213.085938 492.511719 C 213.503906 492.746094 213.914062 492.980469 214.316406 493.238281 C 215.011719 493.757812 215.667969 494.328125 216.28125 494.945312 C 217.089844 495.746094 217.820312 496.695312 218.78125 497.308594 C 219.117188 497.75 219.457031 498.175781 219.773438 498.605469 C 220.757812 500.050781 221.929688 501.324219 223.289062 502.417969 C 222.707031 502.285156 222.113281 502.1875 221.523438 502.113281 C 220.589844 501.992188 219.753906 502.410156 218.847656 502.601562 C 218.238281 502.714844 217.625 502.785156 217.003906 502.808594 C 216.03125 502.71875 215.074219 502.554688 214.128906 502.316406 C 214.039062 502.003906 213.929688 501.699219 213.804688 501.398438 C 213.742188 501.273438 213.664062 501.15625 213.574219 501.050781 C 213.484375 500.941406 213.382812 500.847656 213.265625 500.765625 C 213.152344 500.683594 213.03125 500.617188 212.902344 500.5625 C 212.773438 500.511719 212.636719 500.476562 212.5 500.457031 C 212.359375 500.433594 212.222656 500.433594 212.082031 500.445312 C 211.941406 500.460938 211.804688 500.492188 211.675781 500.539062 C 211.542969 500.585938 211.417969 500.648438 211.300781 500.726562 C 211.183594 500.804688 211.078125 500.894531 210.984375 500.996094 C 209.972656 502.285156 211.03125 503.585938 212.503906 503.515625 C 213.097656 503.367188 213.621094 503.09375 214.082031 502.6875 C 214.1875 502.742188 214.296875 502.804688 214.402344 502.851562 C 215.152344 503.148438 215.917969 503.324219 216.664062 503.542969 C 217.429688 503.589844 218.1875 503.535156 218.941406 503.378906 C 219.621094 503.171875 220.308594 503.007812 221.011719 502.886719 C 220.085938 503.351562 219.511719 504.492188 219.136719 505.558594 C 218.898438 506.035156 218.683594 506.535156 218.4375 507.003906 C 217.671875 507.597656 216.496094 507.386719 215.875 508.210938 C 215.027344 509.378906 216.46875 510.347656 217.582031 510 C 218.652344 509.769531 218.78125 508.578125 218.757812 507.667969 C 220.105469 506.222656 220.105469 503.488281 221.867188 502.953125 C 222.953125 503.167969 224.023438 503.445312 225.078125 503.789062 C 225.703125 504.226562 226.339844 504.652344 226.992188 505.058594 C 228.664062 506.09375 230.203125 507.292969 231.878906 508.359375 C 233.171875 509.121094 234.398438 509.984375 235.554688 510.949219 C 237.128906 512.367188 238.605469 513.878906 239.984375 515.484375 C 241.054688 516.78125 241.949219 518.21875 243.023438 519.492188 C 243.152344 520.109375 243.265625 520.722656 243.371094 521.339844 C 243.578125 522.542969 243.90625 523.714844 244.109375 524.925781 C 244.433594 527.027344 244.546875 529.140625 244.457031 531.265625 C 244.394531 534.335938 243.976562 537.355469 243.210938 540.328125 C 242.886719 542.042969 242.445312 543.726562 241.882812 545.375 C 241.375 546.980469 240.683594 548.585938 240.167969 550.191406 C 239.730469 551.078125 239.429688 552.007812 239.265625 552.984375 C 239.914062 552.121094 240.667969 551.304688 240.972656 550.246094 C 241.441406 548.742188 242.078125 547.296875 242.542969 545.792969 C 243.027344 544.359375 243.425781 542.902344 243.734375 541.421875 C 243.898438 541.136719 244.039062 540.84375 244.15625 540.539062 C 244.320312 540.039062 244.613281 539.605469 244.777344 539.113281 C 244.949219 538.652344 245.148438 538.199219 245.371094 537.761719 C 246.15625 536.6875 247.015625 535.679688 247.953125 534.738281 C 249.367188 533.503906 250.4375 532.023438 251.160156 530.292969 C 251.773438 528.746094 252.230469 527.152344 252.53125 525.519531 C 252.816406 525.1875 253.148438 524.890625 253.457031 524.582031 C 254.074219 523.972656 254.710938 523.40625 255.335938 522.820312 L 255.949219 522.472656 L 255.914062 522.472656 C 256.449219 522.207031 256.914062 521.878906 257.445312 521.617188 C 257.769531 521.582031 258.097656 521.542969 258.414062 521.53125 C 258.953125 521.503906 259.488281 521.542969 260.015625 521.648438 C 260.765625 521.800781 261.46875 522.226562 262.253906 522.121094 C 262.816406 522.113281 263.367188 522.027344 263.902344 521.859375 C 263.898438 521.96875 263.921875 522.078125 263.972656 522.175781 C 264.023438 522.277344 264.089844 522.359375 264.179688 522.425781 C 264.273438 522.492188 264.371094 522.535156 264.480469 522.550781 C 264.59375 522.566406 264.699219 522.558594 264.804688 522.523438 C 265.628906 522.371094 265.535156 521.328125 265.074219 520.847656 C 264.953125 520.746094 264.8125 520.691406 264.65625 520.6875 C 264.496094 520.683594 264.355469 520.726562 264.226562 520.824219 C 264.101562 520.917969 264.015625 521.039062 263.972656 521.191406 C 263.933594 521.34375 263.941406 521.492188 264.003906 521.640625 C 263.089844 521.753906 262.199219 521.65625 261.328125 521.351562 C 260.75 521.0625 260.136719 520.882812 259.492188 520.816406 C 259.792969 520.707031 260.085938 520.597656 260.371094 520.460938 C 261.535156 519.835938 262.4375 518.941406 263.078125 517.785156 C 263.296875 518.007812 263.675781 517.9375 263.960938 517.949219 C 264.367188 517.886719 264.6875 517.691406 264.929688 517.359375 C 265 517.230469 265.019531 517.082031 265.085938 516.953125 C 265.21875 516.371094 265.074219 515.867188 264.652344 515.449219 C 264.265625 515.175781 263.859375 515.132812 263.425781 515.324219 C 263.226562 515.433594 263.058594 515.578125 262.925781 515.761719 C 262.789062 515.941406 262.695312 516.144531 262.648438 516.363281 C 262.601562 516.585938 262.601562 516.804688 262.648438 517.027344 C 262.695312 517.25 262.789062 517.449219 262.921875 517.632812 C 262.15625 518.445312 261.277344 519.121094 260.296875 519.660156 C 259.335938 520.195312 258.230469 520.371094 257.257812 520.867188 L 257.054688 520.964844 C 257.324219 520.597656 257.554688 520.207031 257.808594 519.835938 C 258.050781 519.496094 258.273438 519.136719 258.464844 518.765625 C 258.777344 518.066406 258.953125 517.3125 259.195312 516.589844 C 259.558594 515.265625 259.925781 513.914062 260.261719 512.589844 C 261.949219 511.292969 264.253906 510.613281 265.03125 508.472656 C 265.0625 508.398438 265.089844 508.324219 265.109375 508.246094 L 265.144531 508.246094 C 265.351562 508.238281 265.558594 508.214844 265.765625 508.175781 C 266.09375 508.160156 266.386719 508.042969 266.640625 507.832031 C 266.894531 507.617188 267.058594 507.347656 267.132812 507.027344 C 267.179688 506.636719 267.105469 506.269531 266.90625 505.925781 C 266.707031 505.585938 266.425781 505.339844 266.0625 505.1875 C 265.417969 504.769531 264.597656 505.308594 264.3125 505.925781 C 264.148438 506.398438 264.148438 506.875 264.3125 507.347656 C 264.449219 507.648438 264.628906 507.925781 264.847656 508.171875 C 264.527344 508.6875 264.128906 509.136719 263.65625 509.519531 C 262.675781 510.230469 261.359375 510.777344 260.445312 511.660156 C 260.519531 511.332031 260.59375 511.007812 260.660156 510.679688 C 260.878906 509.386719 261.367188 508.167969 261.621094 506.882812 C 261.773438 505.8125 261.863281 504.742188 262.023438 503.671875 C 262.242188 503.777344 262.558594 503.582031 262.761719 503.496094 C 263.207031 503.355469 263.523438 503.070312 263.714844 502.644531 C 263.789062 502.441406 263.816406 502.230469 263.796875 502.011719 C 263.777344 501.796875 263.71875 501.59375 263.613281 501.402344 C 263.507812 501.214844 263.367188 501.054688 263.191406 500.921875 C 263.019531 500.792969 262.824219 500.707031 262.613281 500.660156 C 262.320312 500.496094 262.027344 500.496094 261.734375 500.660156 C 261.449219 500.828125 261.230469 501.058594 261.082031 501.359375 C 260.9375 501.65625 260.882812 501.972656 260.925781 502.300781 C 261.015625 502.835938 261.289062 503.246094 261.75 503.527344 C 261.679688 503.769531 261.613281 504.003906 261.535156 504.21875 C 261.300781 505.003906 261.121094 505.804688 261 506.621094 C 260.695312 507.957031 260.210938 509.261719 260.015625 510.613281 C 259.765625 511.597656 259.53125 512.574219 259.277344 513.550781 C 259.128906 511.816406 258.257812 510.339844 257.796875 508.304688 C 257.5625 506.738281 257.453125 505.160156 257.476562 503.574219 C 257.476562 503.039062 257.476562 502.503906 257.4375 502.003906 L 257.496094 502.003906 C 257.804688 501.917969 258.070312 501.753906 258.289062 501.519531 C 258.515625 501.386719 258.710938 501.214844 258.871094 501.003906 C 259.03125 500.796875 259.148438 500.566406 259.222656 500.3125 C 259.292969 500.058594 259.316406 499.800781 259.289062 499.535156 C 259.261719 499.273438 259.1875 499.027344 259.066406 498.792969 C 258.53125 497.722656 256.597656 496.972656 255.78125 498.105469 C 255.5625 498.308594 255.425781 498.554688 255.367188 498.84375 C 255.242188 499.136719 255.164062 499.441406 255.132812 499.761719 C 255.121094 500.195312 255.226562 500.597656 255.449219 500.972656 C 255.671875 501.34375 255.980469 501.628906 256.367188 501.824219 C 256.566406 501.910156 256.773438 501.953125 256.988281 501.960938 C 256.929688 502.25 256.871094 502.539062 256.816406 502.835938 C 256.765625 503.597656 256.765625 504.355469 256.816406 505.117188 C 256.828125 506.238281 256.945312 507.351562 257.175781 508.449219 C 257.539062 510.253906 258.246094 511.867188 258.675781 513.640625 C 258.777344 514.191406 258.820312 514.75 258.804688 515.308594 C 258.753906 515.46875 258.710938 515.636719 258.664062 515.796875 C 258.425781 516.742188 258.125 517.667969 257.753906 518.566406 C 257.433594 519.171875 256.976562 519.75 256.621094 520.316406 C 255.816406 521.421875 254.71875 522.253906 253.769531 523.195312 C 253.367188 523.507812 253.007812 523.863281 252.699219 524.265625 C 253.058594 521.746094 253.234375 519.214844 253.234375 516.667969 C 253.183594 515.597656 253.121094 514.527344 253.019531 513.5 C 252.675781 511.316406 252.140625 509.160156 251.652344 507.019531 C 251.15625 504.507812 251.605469 501.949219 251.808594 499.429688 C 251.960938 498.082031 252.097656 496.683594 252.34375 495.367188 C 252.597656 494.167969 252.917969 492.988281 253.308594 491.824219 C 253.785156 491.316406 254.226562 490.78125 254.632812 490.21875 C 255.507812 489.203125 256.558594 488.429688 257.792969 487.902344 C 258.269531 487.714844 258.78125 487.65625 259.257812 487.46875 C 259.734375 487.28125 260.152344 487.035156 260.578125 486.804688 C 260.472656 487.527344 261.746094 488.132812 262.339844 488.113281 C 264.398438 488.25 264.84375 485.4375 263.371094 484.367188 C 263.070312 484.207031 262.753906 484.089844 262.417969 484.007812 C 261.894531 484 261.441406 484.179688 261.0625 484.542969 C 260.828125 484.804688 260.667969 485.109375 260.582031 485.453125 C 260.5 485.796875 260.5 486.136719 260.585938 486.480469 C 260.355469 486.539062 260.125 486.597656 259.910156 486.671875 C 259.253906 486.925781 258.585938 487.132812 257.902344 487.296875 C 256.511719 487.757812 255.324219 488.53125 254.34375 489.625 C 254.644531 489.089844 254.972656 488.597656 255.296875 488.113281 C 256.4375 486.203125 257.765625 484.417969 259.042969 482.628906 C 259.484375 482.386719 259.90625 482.121094 260.3125 481.828125 C 261.015625 481.265625 261.773438 480.78125 262.582031 480.375 C 263.046875 480.140625 263.539062 479.960938 264.046875 479.839844 C 264.078125 480.082031 264.320312 480.230469 264.484375 480.375 C 264.765625 480.648438 265.101562 480.75 265.484375 480.683594 C 265.6875 480.660156 265.878906 480.59375 266.050781 480.484375 C 266.222656 480.375 266.367188 480.230469 266.476562 480.058594 C 266.585938 479.886719 266.652344 479.699219 266.679688 479.496094 C 266.703125 479.292969 266.683594 479.09375 266.621094 478.898438 C 266.53125 478.699219 266.402344 478.53125 266.230469 478.394531 C 266.058594 478.257812 265.863281 478.171875 265.648438 478.136719 C 265.433594 478.097656 265.222656 478.117188 265.015625 478.183594 C 264.808594 478.253906 264.628906 478.367188 264.480469 478.527344 C 264.175781 478.847656 264.015625 479.226562 264 479.667969 C 263.4375 479.667969 262.886719 479.753906 262.351562 479.917969 C 261.546875 480.171875 260.800781 480.542969 260.117188 481.039062 C 260.402344 480.503906 260.652344 479.886719 260.910156 479.316406 C 261.324219 478.5 261.820312 477.710938 262.265625 476.929688 C 262.570312 476.390625 262.839844 475.832031 263.066406 475.253906 C 263.628906 475.207031 264.25 475.292969 264.746094 474.96875 C 264.9375 474.851562 265.097656 474.699219 265.21875 474.511719 C 265.34375 474.320312 265.421875 474.117188 265.453125 473.894531 C 265.488281 473.671875 265.472656 473.453125 265.410156 473.234375 C 265.34375 473.019531 265.238281 472.828125 265.089844 472.660156 C 264.769531 472.277344 264.449219 471.867188 263.917969 471.9375 C 263.566406 471.96875 263.253906 472.09375 262.972656 472.308594 C 262.691406 472.519531 262.488281 472.789062 262.359375 473.117188 C 262.191406 473.589844 262.210938 474.046875 262.425781 474.5 C 262.539062 474.738281 262.699219 474.933594 262.90625 475.09375 C 262.019531 476.3125 260.980469 477.472656 260.300781 478.808594 C 259.941406 479.667969 259.539062 480.503906 259.089844 481.320312 C 258.824219 481.664062 258.554688 482.011719 258.304688 482.359375 C 258.546875 481.207031 258.570312 480.050781 258.386719 478.886719 C 258.289062 478.351562 258.175781 477.816406 258.085938 477.320312 C 258.039062 476.992188 257.941406 476.667969 257.859375 476.335938 L 257.984375 476.285156 C 258.375 476.097656 258.667969 475.808594 258.855469 475.414062 C 259.675781 474.546875 258.898438 473.382812 258 472.953125 C 257.554688 472.710938 257.089844 472.671875 256.609375 472.835938 C 255.824219 473.3125 255.253906 474.101562 255.628906 475.023438 C 255.890625 475.851562 256.769531 476.265625 257.582031 476.398438 C 257.582031 477.863281 257.769531 479.316406 257.753906 480.769531 C 257.753906 481.949219 257.28125 483.042969 256.996094 484.164062 C 256.933594 484.25 256.871094 484.328125 256.816406 484.414062 C 256.960938 483.566406 256.765625 482.804688 256.234375 482.128906 C 255.761719 481.402344 254.992188 481.058594 254.269531 480.664062 C 254.378906 480.363281 254.414062 480.054688 254.371094 479.738281 C 254.523438 478.667969 253.09375 478.265625 252.332031 478.742188 C 252.089844 478.929688 251.914062 479.167969 251.804688 479.460938 C 251.699219 479.75 251.675781 480.046875 251.738281 480.347656 C 251.847656 480.667969 252.042969 480.921875 252.328125 481.101562 C 252.613281 481.285156 252.921875 481.359375 253.257812 481.320312 C 253.539062 481.285156 253.816406 481.230469 254.089844 481.15625 C 254.785156 481.765625 255.582031 482.226562 256.105469 483.035156 C 256.34375 483.683594 256.4375 484.355469 256.382812 485.046875 C 255.582031 486.210938 254.777344 487.40625 254.046875 488.605469 C 253.300781 489.761719 252.765625 491.011719 252.441406 492.347656 C 251.882812 494.011719 251.515625 495.71875 251.34375 497.464844 C 251.117188 499.878906 250.722656 502.28125 250.734375 504.703125 C 250.402344 503.707031 249.941406 502.777344 249.347656 501.910156 C 248.566406 500.605469 248.011719 499.171875 247.257812 497.855469 C 247.058594 497.511719 246.867188 497.179688 246.679688 496.84375 C 246.761719 496.46875 246.808594 496.089844 246.8125 495.703125 C 246.722656 494.109375 247.046875 492.601562 247.785156 491.183594 C 247.988281 490.855469 248.214844 490.542969 248.464844 490.246094 C 248.574219 490.347656 248.695312 490.425781 248.835938 490.476562 C 248.976562 490.523438 249.117188 490.550781 249.265625 490.5625 C 249.414062 490.570312 249.5625 490.5625 249.707031 490.53125 C 249.851562 490.503906 249.992188 490.457031 250.125 490.390625 C 250.257812 490.328125 250.378906 490.246094 250.492188 490.148438 C 250.605469 490.050781 250.703125 489.941406 250.785156 489.820312 C 250.867188 489.699219 250.933594 489.566406 250.984375 489.425781 C 251.035156 489.289062 251.0625 489.144531 251.078125 488.996094 C 251.089844 488.847656 251.082031 488.703125 251.054688 488.554688 C 250.925781 488.148438 250.691406 487.816406 250.351562 487.5625 C 250.011719 487.304688 249.628906 487.171875 249.203125 487.160156 C 248.894531 487.230469 248.621094 487.371094 248.386719 487.589844 C 248.152344 487.804688 247.988281 488.0625 247.894531 488.367188 C 247.808594 488.847656 247.871094 489.3125 248.074219 489.753906 L 248.1875 490.023438 C 247.988281 490.210938 247.789062 490.390625 247.605469 490.558594 C 247.132812 491.152344 246.773438 491.808594 246.527344 492.527344 C 246.246094 493.515625 246.109375 494.527344 246.121094 495.558594 C 245.40625 493.417969 244.835938 489.335938 245.277344 487.535156 C 245.480469 486.835938 245.742188 486.164062 246.058594 485.511719 C 246.308594 484.917969 246.5 484.300781 246.738281 483.703125 C 247.527344 481.839844 247.925781 479.898438 247.925781 477.875 C 247.925781 477.746094 247.925781 477.613281 247.925781 477.480469 C 248.214844 477.480469 248.460938 477.125 248.667969 476.945312 C 250.082031 475.875 248.9375 473.707031 247.347656 473.660156 C 247.015625 473.6875 246.710938 473.796875 246.4375 473.988281 C 246.167969 474.179688 245.960938 474.425781 245.820312 474.730469 C 245.707031 475.105469 245.679688 475.488281 245.746094 475.875 C 245.949219 476.546875 246.628906 477.570312 247.40625 477.542969 C 247.480469 477.542969 247.550781 477.496094 247.621094 477.480469 C 247.527344 477.972656 247.410156 478.476562 247.316406 478.953125 C 247.011719 480.15625 246.78125 481.390625 246.378906 482.558594 C 245.992188 483.453125 245.710938 484.296875 245.382812 485.15625 C 244.996094 485.914062 244.6875 486.699219 244.460938 487.519531 L 244.460938 487.628906 C 244.285156 487.09375 244.03125 486.597656 243.703125 486.136719 C 243.554688 485.949219 243.398438 485.761719 243.242188 485.601562 C 243.242188 485.410156 243.242188 485.222656 243.242188 485.066406 C 243.300781 484.835938 243.402344 484.625 243.546875 484.4375 C 244.128906 483.570312 244.378906 482.617188 244.292969 481.578125 C 244.847656 481.28125 245.179688 480.824219 245.292969 480.203125 C 245.300781 479.988281 245.261719 479.78125 245.175781 479.582031 C 245.089844 479.382812 244.964844 479.210938 244.800781 479.070312 C 244.640625 478.925781 244.453125 478.828125 244.246094 478.769531 C 244.035156 478.710938 243.824219 478.699219 243.613281 478.738281 C 243.445312 478.773438 243.292969 478.839844 243.148438 478.933594 C 243.007812 479.023438 242.886719 479.140625 242.789062 479.28125 C 242.6875 479.417969 242.617188 479.570312 242.574219 479.734375 C 242.535156 479.898438 242.523438 480.066406 242.542969 480.234375 C 242.605469 480.558594 242.75 480.839844 242.976562 481.082031 C 243.199219 481.320312 243.472656 481.484375 243.789062 481.574219 C 243.671875 482.195312 243.453125 482.792969 243.300781 483.410156 C 243.152344 484.023438 242.722656 484.515625 242.832031 485.082031 C 242.703125 484.917969 242.574219 484.746094 242.460938 484.546875 C 242.097656 484.011719 241.835938 483.402344 241.5 482.847656 C 241.375 482.652344 241.269531 482.445312 241.15625 482.238281 C 241.230469 482.101562 241.316406 481.96875 241.378906 481.828125 C 241.996094 480.710938 241.160156 479.011719 239.777344 479.199219 C 239.308594 479.246094 239.027344 479.65625 238.742188 479.980469 C 238.652344 480.15625 238.601562 480.34375 238.582031 480.539062 C 238.566406 480.738281 238.585938 480.929688 238.640625 481.121094 C 238.695312 481.3125 238.785156 481.484375 238.90625 481.640625 C 239.027344 481.796875 239.171875 481.925781 239.34375 482.027344 C 239.6875 482.242188 240.066406 482.367188 240.472656 482.402344 C 240.570312 482.386719 240.667969 482.359375 240.761719 482.320312 C 240.828125 482.773438 240.953125 483.207031 241.132812 483.628906 C 241.566406 484.820312 242.515625 485.710938 243.273438 486.699219 C 243.734375 487.3125 244.082031 487.988281 244.308594 488.722656 C 244.304688 490.527344 244.5 492.308594 244.890625 494.074219 C 244.453125 492.972656 243.863281 491.964844 243.121094 491.042969 C 242.519531 490.375 241.808594 489.867188 240.980469 489.519531 C 241.097656 489.246094 241.125 488.960938 241.058594 488.671875 C 240.988281 488.378906 240.839844 488.136719 240.613281 487.941406 C 240.386719 487.75 240.125 487.640625 239.824219 487.621094 C 239.527344 487.601562 239.25 487.671875 239 487.832031 C 238.800781 487.996094 238.695312 488.203125 238.679688 488.460938 C 238.605469 488.628906 238.570312 488.808594 238.570312 488.996094 C 238.554688 489.160156 238.578125 489.324219 238.640625 489.480469 C 238.699219 489.636719 238.792969 489.769531 238.917969 489.882812 C 239.039062 489.996094 239.183594 490.078125 239.34375 490.121094 C 239.507812 490.167969 239.667969 490.175781 239.835938 490.144531 C 240.152344 490.132812 240.4375 490.027344 240.683594 489.828125 C 241.625 490.5 242.449219 491.289062 243.164062 492.195312 C 243.777344 493.121094 244.234375 494.140625 244.769531 495.117188 C 244.921875 495.347656 245.089844 495.570312 245.269531 495.777344 C 244.378906 495.261719 243.429688 494.90625 242.417969 494.710938 C 241.921875 494.582031 241.464844 494.367188 241.050781 494.066406 C 241.253906 493.855469 241.375 493.605469 241.414062 493.316406 C 241.457031 493.027344 241.40625 492.753906 241.269531 492.492188 C 240.882812 491.734375 239.894531 491.667969 239.175781 491.957031 C 238.957031 492.042969 238.78125 492.183594 238.65625 492.378906 C 238.527344 492.578125 238.472656 492.792969 238.484375 493.027344 C 238.511719 493.285156 238.574219 493.53125 238.671875 493.765625 C 238.875 494.019531 239.128906 494.203125 239.433594 494.316406 C 239.734375 494.429688 240.046875 494.457031 240.363281 494.398438 C 240.523438 494.367188 240.683594 494.328125 240.828125 494.285156 C 241.898438 495.542969 243.902344 495.6875 245.195312 496.714844 C 245.558594 497.015625 245.902344 497.335938 246.265625 497.664062 C 246.585938 498.199219 246.917969 498.734375 247.191406 499.328125 C 247.671875 500.355469 248.1875 501.46875 248.757812 502.425781 C 249.675781 503.785156 250.15625 505.378906 250.898438 506.800781 C 251.035156 507.574219 251.242188 508.328125 251.433594 509.09375 C 251.722656 510.347656 252.003906 511.519531 252.242188 512.761719 C 252.65625 515.9375 252.667969 519.109375 252.273438 522.285156 C 251.925781 525.496094 251.414062 528.832031 249.734375 531.644531 C 248.753906 533.171875 247.304688 534.289062 246.152344 535.675781 C 245.617188 536.269531 245.125 536.898438 244.671875 537.558594 L 244.625 537.660156 C 245.171875 534.453125 245.382812 531.222656 245.253906 527.96875 C 245.097656 525.792969 244.738281 523.652344 244.179688 521.542969 C 243.949219 519.902344 243.566406 518.296875 243.027344 516.726562 C 242.246094 514.585938 241.175781 512.480469 240.242188 510.46875 C 239.304688 508.457031 238.359375 506.375 237.230469 504.421875 C 236.339844 502.867188 235.554688 501.261719 234.878906 499.605469 C 234.53125 498.636719 234.242188 497.648438 233.925781 496.667969 C 233.332031 494.917969 232.773438 493.195312 232.78125 491.347656 C 232.738281 489.871094 232.90625 488.394531 232.9375 486.925781 C 233.046875 485.960938 233.046875 484.996094 232.9375 484.035156 C 232.769531 483.019531 232.484375 482.039062 232.082031 481.089844 C 231.722656 480.289062 231.328125 479.484375 230.898438 478.742188 C 230.878906 478.382812 230.902344 478.027344 230.96875 477.671875 C 231 476.945312 231.117188 476.230469 231.320312 475.53125 C 231.617188 474.644531 232.332031 473.96875 232.617188 473.070312 C 232.675781 472.949219 232.730469 472.820312 232.78125 472.691406 C 233.136719 472.289062 233.464844 471.863281 233.765625 471.421875 C 234.484375 470.566406 235.308594 469.824219 236.234375 469.195312 C 236.429688 469.476562 236.679688 469.699219 236.976562 469.867188 C 237.273438 470.035156 237.59375 470.132812 237.933594 470.160156 C 238.277344 470.1875 238.605469 470.140625 238.925781 470.019531 C 239.246094 469.898438 239.527344 469.714844 239.765625 469.46875 C 239.933594 469.195312 240.003906 468.894531 239.980469 468.570312 C 239.910156 467.851562 239.683594 467.183594 239.300781 466.570312 C 238.957031 466.144531 238.511719 465.9375 237.96875 465.953125 C 237.269531 465.972656 236.710938 466.261719 236.296875 466.828125 C 236.027344 467.316406 235.933594 467.835938 236.019531 468.390625 C 236.023438 468.523438 236.042969 468.660156 236.078125 468.789062 C 235.609375 468.960938 235.167969 469.1875 234.757812 469.46875 C 234.195312 469.839844 233.691406 470.269531 233.238281 470.765625 C 233.242188 470.675781 233.242188 470.589844 233.238281 470.503906 C 233.238281 469.5625 233.09375 468.59375 233.167969 467.675781 C 233.269531 466.699219 233.488281 465.75 233.824219 464.824219 C 234.558594 464.695312 235.359375 464.621094 235.902344 464.078125 C 236.550781 463.507812 236.972656 462.429688 236.3125 461.707031 C 236.046875 461.371094 235.714844 461.132812 235.316406 460.984375 C 234.914062 460.839844 234.507812 460.804688 234.085938 460.886719 C 232.675781 461.636719 232.550781 463.027344 233.433594 464.261719 C 233.5 464.335938 233.554688 464.410156 233.605469 464.492188 C 233.386719 464.847656 233.195312 465.214844 233.027344 465.597656 C 232.417969 466.871094 232.238281 468.207031 232.492188 469.597656 C 232.539062 470.148438 232.519531 470.699219 232.429688 471.246094 C 232.246094 471.902344 232.011719 472.539062 231.722656 473.15625 C 231.226562 474.019531 230.59375 474.832031 230.390625 475.832031 C 230.300781 476.21875 230.25 476.613281 230.234375 477.007812 C 230.113281 476.441406 229.957031 475.886719 229.765625 475.339844 C 229.203125 473.25 228.90625 471.121094 228.871094 468.957031 C 228.785156 467.097656 228.871094 465.265625 228.664062 463.421875 C 228.625 462.921875 228.578125 462.453125 228.511719 462.011719 C 228.558594 461.394531 228.652344 460.789062 228.789062 460.1875 C 229.121094 459.441406 229.367188 458.667969 229.527344 457.871094 C 229.566406 457.574219 229.574219 457.277344 229.554688 456.980469 C 230.4375 456.601562 231.472656 456.601562 232.273438 456.019531 C 232.78125 455.730469 233.195312 455.339844 233.511719 454.847656 C 233.578125 454.761719 233.636719 454.664062 233.703125 454.574219 C 234.398438 454.867188 235.09375 454.867188 235.789062 454.574219 C 236.078125 454.496094 236.335938 454.363281 236.5625 454.171875 C 236.789062 453.984375 236.96875 453.753906 237.09375 453.484375 C 237.222656 453.214844 237.285156 452.933594 237.289062 452.636719 C 237.289062 452.339844 237.230469 452.054688 237.105469 451.785156 C 236.628906 450.8125 235.46875 450.03125 234.429688 450.613281 C 233.648438 451.085938 233.167969 451.769531 232.980469 452.664062 C 232.992188 453.238281 233.144531 453.773438 233.441406 454.269531 C 233.089844 454.605469 232.714844 454.914062 232.316406 455.195312 C 231.4375 455.695312 230.273438 455.863281 229.523438 456.527344 C 229.476562 456.023438 229.382812 455.519531 229.316406 455.023438 C 229.234375 454.121094 229.292969 453.230469 229.496094 452.347656 C 231.011719 452.257812 232.472656 451.074219 231.871094 449.441406 C 231.570312 448.675781 231.035156 448.140625 230.265625 447.835938 C 229.121094 447.558594 228.050781 448.597656 227.929688 449.683594 C 227.847656 450.316406 228.007812 450.878906 228.40625 451.378906 C 228.582031 451.730469 228.832031 452.023438 229.15625 452.25 C 229.03125 452.5625 228.917969 452.882812 228.8125 453.203125 C 228.628906 453.734375 228.539062 454.277344 228.535156 454.835938 C 228.535156 455.824219 228.914062 456.808594 228.757812 457.804688 C 228.589844 458.519531 228.347656 459.210938 228.035156 459.875 C 228.035156 459.941406 228 460.007812 227.984375 460.074219 C 227.707031 459.414062 227.335938 458.8125 226.871094 458.269531 C 225.855469 456.929688 224.699219 455.722656 223.398438 454.660156 C 223.28125 454.566406 223.167969 454.464844 223.050781 454.371094 C 222.402344 453.03125 221.957031 451.632812 221.71875 450.164062 C 221.621094 449.378906 221.511719 448.558594 221.480469 447.792969 C 222.371094 447.257812 223.296875 446.289062 223.085938 445.195312 C 222.980469 443.792969 221.144531 443.054688 220.019531 443.820312 C 219.757812 444 219.566406 444.238281 219.445312 444.535156 C 219.324219 444.832031 219.296875 445.136719 219.355469 445.449219 C 219.351562 445.941406 219.488281 446.386719 219.773438 446.789062 C 220.15625 447.152344 220.59375 447.425781 221.089844 447.601562 C 220.796875 449.503906 221.015625 451.347656 221.738281 453.132812 C 221.332031 452.734375 220.925781 452.332031 220.492188 451.960938 C 219.550781 451.316406 219 450.3125 218.351562 449.414062 C 218.023438 448.9375 217.484375 448.34375 217.109375 447.691406 C 217.535156 447.414062 217.847656 447.039062 218.042969 446.566406 C 218.238281 446.097656 218.285156 445.613281 218.179688 445.113281 C 217.847656 443.199219 215.492188 442.800781 213.980469 443.550781 C 212.636719 444.277344 212.820312 446.257812 213.738281 447.253906 C 214.054688 447.589844 214.429688 447.832031 214.867188 447.976562 C 215.304688 448.117188 215.753906 448.148438 216.207031 448.066406 C 216.394531 448.058594 216.574219 448.011719 216.742188 447.921875 C 216.789062 448.046875 216.832031 448.175781 216.878906 448.292969 C 217.433594 449.378906 218.074219 450.414062 218.804688 451.390625 C 219.050781 451.699219 219.324219 451.984375 219.628906 452.234375 C 219.03125 452.085938 218.421875 451.980469 217.804688 451.917969 C 216.714844 451.851562 215.644531 451.660156 214.59375 451.351562 C 214.59375 450.035156 213.144531 448.625 211.855469 449.625 C 211.746094 449.683594 211.648438 449.757812 211.558594 449.839844 C 211.46875 449.925781 211.394531 450.019531 211.328125 450.125 C 211.261719 450.226562 211.210938 450.339844 211.171875 450.457031 C 211.136719 450.574219 211.113281 450.691406 211.105469 450.816406 C 211.097656 450.9375 211.105469 451.0625 211.128906 451.183594 C 211.152344 451.304688 211.191406 451.417969 211.242188 451.53125 C 211.292969 451.640625 211.359375 451.746094 211.4375 451.839844 C 211.515625 451.933594 211.605469 452.019531 211.707031 452.089844 C 211.902344 452.304688 212.140625 452.453125 212.417969 452.535156 C 212.695312 452.621094 212.976562 452.628906 213.257812 452.5625 C 213.796875 452.421875 214.183594 452.105469 214.425781 451.605469 C 214.789062 451.820312 215.167969 452 215.570312 452.140625 C 216.5 452.4375 217.453125 452.632812 218.425781 452.726562 C 219.320312 452.886719 220.1875 453.140625 221.027344 453.492188 C 221.695312 454.179688 222.410156 454.816406 223.167969 455.402344 C 223.886719 455.976562 224.539062 456.621094 225.125 457.335938 C 226.054688 458.40625 227.050781 459.476562 227.480469 460.867188 C 227.777344 462.253906 227.945312 463.660156 227.976562 465.082031 C 227.710938 464.625 227.417969 464.183594 227.105469 463.753906 C 226.355469 462.75 225.464844 461.898438 224.429688 461.191406 C 223.777344 460.816406 223.109375 460.46875 222.429688 460.152344 C 222.492188 459.164062 222.214844 457.9375 221.054688 457.773438 C 220.351562 457.632812 219.421875 457.902344 219.191406 458.644531 C 219.074219 458.988281 219.066406 459.332031 219.164062 459.679688 C 219.261719 460.027344 219.453125 460.316406 219.730469 460.542969 C 220.125 460.839844 220.554688 460.925781 221.03125 460.8125 C 221.289062 460.753906 221.535156 460.664062 221.769531 460.542969 C 221.867188 460.449219 221.96875 460.359375 222.074219 460.277344 C 223.144531 461.105469 224.285156 461.882812 225.285156 462.769531 C 225.980469 463.460938 226.585938 464.222656 227.101562 465.054688 C 227.390625 465.472656 227.703125 465.886719 227.988281 466.3125 C 227.988281 467.382812 227.988281 468.421875 228.058594 469.46875 C 228.105469 471.214844 228.339844 472.9375 228.765625 474.632812 C 228.84375 475.007812 228.933594 475.394531 229.042969 475.765625 C 228.507812 474.964844 227.972656 474.164062 227.4375 473.375 C 226.050781 471.34375 224.875 469.09375 223.082031 467.410156 C 221.894531 466.308594 220.671875 465.269531 219.40625 464.246094 C 218.371094 463.335938 217.253906 462.535156 216.054688 461.851562 C 215.109375 461.273438 214.214844 460.621094 213.378906 459.890625 C 212.429688 459.105469 211.351562 458.472656 210.425781 457.65625 C 209.5 456.835938 208.945312 455.644531 208.167969 454.660156 C 207.75 454.097656 207.335938 453.535156 206.933594 452.960938 C 206.371094 450.738281 207.402344 449.21875 206.761719 447.078125 C 207.007812 446.851562 207.222656 446.59375 207.402344 446.3125 C 208.539062 444.96875 207.5 442.640625 205.675781 442.886719 C 204.542969 443.203125 204.390625 444.492188 204.472656 445.503906 C 204.621094 445.917969 204.867188 446.269531 205.203125 446.558594 C 205.539062 446.84375 205.925781 447.027344 206.359375 447.109375 C 206.386719 447.339844 206.398438 447.570312 206.398438 447.804688 C 206.355469 448.964844 205.949219 450.3125 206.019531 451.511719 C 205.875 451.257812 205.734375 450.976562 205.605469 450.730469 C 205.167969 449.761719 204.972656 448.6875 204.347656 447.808594 C 203.976562 447.292969 203.546875 446.828125 203.0625 446.414062 C 203.242188 445.691406 203.472656 444.894531 203.089844 444.191406 C 202.554688 443.121094 200.816406 442.625 200.007812 443.65625 C 199.238281 444.855469 199.777344 447.242188 201.542969 447.042969 C 202.003906 447.050781 202.4375 446.957031 202.855469 446.765625 C 203.25 447.289062 203.59375 447.84375 203.886719 448.429688 C 204.257812 449.308594 204.515625 450.191406 204.898438 451.042969 C 205.652344 452.722656 206.835938 454.15625 207.917969 455.632812 C 208.03125 455.789062 208.136719 455.949219 208.242188 456.109375 C 206.453125 454.921875 204.257812 454.660156 202.175781 454.460938 C 201.601562 454.320312 201.035156 454.144531 200.484375 453.925781 L 200.328125 453.878906 C 200.289062 453.515625 200.230469 453.160156 200.148438 452.808594 C 199.855469 451.316406 197.835938 450.378906 196.628906 451.382812 C 196.433594 451.628906 196.324219 451.90625 196.300781 452.21875 C 196.164062 452.75 196.226562 453.257812 196.492188 453.738281 C 196.585938 453.96875 196.714844 454.175781 196.886719 454.351562 C 197.058594 454.53125 197.257812 454.671875 197.484375 454.773438 C 197.710938 454.871094 197.949219 454.925781 198.199219 454.933594 C 198.445312 454.9375 198.6875 454.898438 198.917969 454.808594 C 199.3125 454.65625 199.683594 454.460938 200.03125 454.21875 C 200.160156 454.296875 200.289062 454.359375 200.414062 454.429688 C 201.015625 454.816406 201.660156 455.082031 202.359375 455.226562 C 202.742188 455.257812 203.125 455.296875 203.503906 455.34375 C 203.414062 455.40625 203.332031 455.476562 203.25 455.546875 C 202.625 456.082031 202.019531 456.707031 201.449219 457.3125 C 201.230469 457.484375 201.003906 457.648438 200.769531 457.792969 C 200.417969 457.480469 200.015625 457.273438 199.554688 457.179688 C 199.09375 457.082031 198.640625 457.109375 198.195312 457.257812 C 197.429688 457.632812 197.183594 458.941406 197.457031 459.699219 Z M 200.167969 453.8125 C 199.726562 453.671875 199.296875 453.496094 198.886719 453.277344 C 198.8125 453.234375 198.734375 453.199219 198.65625 453.171875 C 198.65625 453.171875 198.65625 453.207031 198.65625 453.21875 C 198.65625 453.207031 198.65625 453.199219 198.65625 453.1875 C 199.007812 453.546875 199.402344 453.859375 199.832031 454.125 C 199.363281 454.210938 198.886719 454.265625 198.410156 454.296875 C 198.074219 454.285156 197.777344 454.175781 197.515625 453.96875 C 197.253906 453.761719 197.082031 453.496094 196.996094 453.171875 C 196.886719 452.769531 196.902344 452.375 197.042969 451.984375 C 197.09375 451.863281 197.179688 451.785156 197.300781 451.742188 C 197.613281 451.632812 197.929688 451.601562 198.257812 451.65625 C 198.582031 451.710938 198.875 451.84375 199.132812 452.046875 C 199.726562 452.488281 199.898438 453.199219 200.167969 453.835938 Z M 202.988281 446.324219 L 202.363281 445.789062 C 202.292969 445.722656 202.199219 445.820312 202.246094 445.894531 C 202.425781 446.15625 202.621094 446.429688 202.78125 446.675781 C 202.699219 446.683594 202.621094 446.683594 202.539062 446.675781 C 201.902344 446.511719 201.074219 446.53125 200.65625 445.949219 C 200.46875 445.644531 200.375 445.3125 200.371094 444.953125 C 200.371094 444.597656 200.457031 444.265625 200.640625 443.957031 C 200.875 443.792969 201.136719 443.730469 201.421875 443.769531 C 202.851562 443.921875 203.054688 445.144531 202.988281 446.332031 Z M 206.734375 446.960938 C 206.566406 446.429688 206.335938 445.929688 206.042969 445.457031 C 205.976562 445.371094 206.042969 445.6875 206.042969 445.71875 C 206.144531 446.101562 206.238281 446.488281 206.300781 446.878906 C 205.765625 446.480469 205.390625 445.964844 205.183594 445.328125 C 205.128906 444.683594 205.128906 443.765625 205.867188 443.550781 C 206.71875 443.507812 207.234375 444.320312 207.394531 445.027344 C 207.371094 445.742188 207.15625 446.386719 206.738281 446.96875 Z M 222.328125 460.058594 L 222.261719 460.058594 C 221.921875 459.902344 221.574219 459.753906 221.21875 459.617188 C 221.4375 459.800781 221.667969 459.964844 221.902344 460.121094 C 221.707031 460.210938 221.503906 460.242188 221.289062 460.222656 C 220.449219 460.367188 219.5 459.601562 219.847656 458.71875 C 220.042969 458.5 220.285156 458.359375 220.574219 458.300781 C 220.863281 458.242188 221.140625 458.277344 221.40625 458.40625 C 222.046875 458.726562 222.175781 459.4375 222.328125 460.058594 Z M 222.328125 460.105469 Z M 214.550781 451.347656 C 214.179688 451.238281 213.808594 451.128906 213.445312 451.003906 C 213.503906 451.0625 213.574219 451.113281 213.648438 451.148438 C 213.882812 451.277344 214.113281 451.417969 214.347656 451.554688 C 213.515625 452.316406 211.753906 452.019531 211.769531 450.738281 C 211.808594 450.578125 211.890625 450.445312 212.015625 450.335938 C 212.996094 449.191406 214.183594 450.234375 214.550781 451.347656 Z M 217.054688 447.601562 C 216.773438 447.1875 216.652344 446.730469 216.699219 446.230469 C 216.699219 446.230469 216.765625 446.28125 216.785156 446.269531 C 216.800781 446.257812 216.703125 446.167969 216.648438 446.210938 C 216.628906 446.230469 216.609375 446.253906 216.597656 446.28125 C 216.449219 446.804688 216.480469 447.316406 216.691406 447.820312 C 216.074219 447.726562 215.480469 447.550781 214.910156 447.285156 C 214.207031 446.894531 213.785156 446.300781 213.652344 445.503906 C 213.589844 444.292969 214.425781 443.808594 215.554688 443.84375 C 215.832031 443.832031 216.105469 443.871094 216.367188 443.96875 C 216.628906 444.0625 216.863281 444.207031 217.070312 444.398438 C 217.273438 444.589844 217.433594 444.8125 217.546875 445.070312 C 217.660156 445.324219 217.71875 445.59375 217.726562 445.875 C 217.71875 446.539062 217.496094 447.117188 217.054688 447.617188 Z M 221.476562 447.632812 C 221.457031 447.179688 221.46875 446.722656 221.511719 446.269531 C 221.578125 445.734375 221.242188 446.757812 221.234375 446.859375 C 221.1875 447.035156 221.148438 447.210938 221.117188 447.394531 C 220.972656 447.207031 220.8125 447.039062 220.636719 446.882812 C 220.21875 446.429688 220.015625 445.894531 220.03125 445.277344 C 219.984375 444.886719 220.117188 444.570312 220.433594 444.332031 C 220.75 444.09375 221.089844 444.054688 221.453125 444.210938 C 221.796875 444.320312 222.066406 444.527344 222.265625 444.828125 C 222.464844 445.125 222.550781 445.457031 222.523438 445.8125 C 222.359375 446.53125 222.011719 447.144531 221.476562 447.648438 Z M 233.757812 454.480469 C 234.035156 454.09375 234.285156 453.6875 234.5 453.261719 C 234.5 453.261719 234.539062 453.1875 234.5 453.171875 C 234.460938 453.15625 234.429688 453.171875 234.410156 453.171875 C 234.386719 453.171875 234.457031 453.171875 234.472656 453.171875 C 234.167969 453.503906 233.851562 453.835938 233.519531 454.152344 C 233.5 453.707031 233.519531 453.265625 233.574219 452.824219 C 233.875 452.074219 234.4375 450.917969 235.410156 451.078125 C 236.507812 451.382812 237.105469 452.855469 236.210938 453.707031 C 235.761719 454.085938 235.253906 454.339844 234.683594 454.472656 C 234.375 454.511719 234.066406 454.515625 233.757812 454.480469 Z M 229.519531 452.21875 C 229.609375 451.78125 229.699219 451.363281 229.78125 450.988281 C 229.570312 451.328125 229.390625 451.683594 229.246094 452.058594 C 229.0625 451.683594 228.925781 451.292969 228.832031 450.886719 C 228.675781 450.492188 228.628906 450.082031 228.6875 449.660156 C 228.8125 448.992188 229.484375 448.324219 230.199219 448.511719 C 230.578125 448.703125 230.871094 448.984375 231.082031 449.355469 C 231.289062 449.722656 231.378906 450.121094 231.347656 450.542969 C 231.210938 451.417969 230.308594 451.929688 229.519531 452.21875 Z M 233.851562 464.753906 C 233.988281 464.363281 234.148438 463.984375 234.328125 463.609375 C 234.328125 463.609375 234.328125 463.636719 234.328125 463.609375 C 234.328125 463.582031 234.328125 463.5625 234.328125 463.546875 C 234.082031 463.796875 233.867188 464.070312 233.6875 464.371094 C 233.636719 464.078125 233.585938 463.777344 233.546875 463.480469 C 233.449219 462.75 233.675781 461.742188 234.453125 461.492188 C 236.007812 461.652344 236.464844 462.886719 235.328125 463.96875 C 234.875 464.300781 234.382812 464.5625 233.851562 464.753906 Z M 236.265625 469.144531 C 236.597656 468.898438 236.929688 468.660156 237.253906 468.414062 C 237.296875 468.382812 237.390625 468.3125 237.378906 468.25 C 237.375 468.207031 237.351562 468.195312 237.3125 468.21875 C 236.972656 468.414062 236.613281 468.585938 236.242188 468.726562 C 236.441406 468.007812 236.675781 467.226562 237.363281 466.832031 C 237.570312 466.699219 237.796875 466.636719 238.042969 466.636719 C 238.289062 466.636719 238.515625 466.699219 238.722656 466.832031 C 238.957031 467.15625 239.121094 467.511719 239.214844 467.902344 C 239.359375 468.308594 239.34375 468.710938 239.164062 469.105469 C 239.015625 469.273438 238.835938 469.40625 238.628906 469.5 C 237.902344 469.933594 237.023438 469.652344 236.394531 469.222656 Z M 240.953125 493.972656 C 240.773438 493.828125 240.613281 493.667969 240.472656 493.488281 C 240.429688 493.453125 240.363281 493.316406 240.304688 493.339844 C 240.410156 493.625 240.554688 493.890625 240.742188 494.132812 C 240.339844 494.0625 239.960938 493.925781 239.605469 493.71875 C 239.277344 493.574219 239.097656 493.324219 239.070312 492.96875 C 239.039062 492.777344 239.191406 492.632812 239.257812 492.46875 C 239.4375 492.300781 239.792969 492.371094 240.011719 492.289062 C 240.144531 492.277344 240.277344 492.292969 240.40625 492.335938 C 240.535156 492.378906 240.652344 492.445312 240.753906 492.535156 C 240.855469 492.625 240.933594 492.730469 240.992188 492.855469 C 241.046875 492.976562 241.078125 493.105469 241.082031 493.242188 C 241.128906 493.5 241.085938 493.742188 240.953125 493.972656 Z M 240.910156 489.511719 C 240.683594 489.425781 240.457031 489.355469 240.21875 489.304688 C 240.15625 489.289062 240.09375 489.265625 240.039062 489.234375 C 240.039062 489.285156 240.105469 489.332031 240.148438 489.375 L 240.53125 489.675781 C 240.433594 489.675781 240.34375 489.707031 240.25 489.710938 C 239.375 489.757812 239 489.019531 239.34375 488.261719 C 239.457031 488.179688 239.578125 488.125 239.714844 488.09375 C 239.851562 488.066406 239.988281 488.066406 240.125 488.09375 C 240.261719 488.121094 240.386719 488.175781 240.5 488.257812 C 240.613281 488.339844 240.707031 488.441406 240.777344 488.5625 C 240.921875 488.863281 240.96875 489.183594 240.910156 489.511719 Z M 241.140625 482.1875 C 241.003906 481.917969 240.835938 481.667969 240.636719 481.4375 C 240.683594 481.695312 240.722656 481.972656 240.769531 482.210938 C 240.589844 482.210938 240.429688 482.152344 240.292969 482.035156 C 239.71875 481.742188 239.375 481.28125 239.257812 480.648438 C 239.160156 480.300781 239.480469 480.011719 239.738281 479.828125 C 240.023438 479.710938 240.300781 479.726562 240.574219 479.871094 C 241.433594 480.410156 241.40625 481.335938 241.140625 482.1875 Z M 244.25 481.476562 C 244.199219 481.171875 244.09375 480.890625 243.9375 480.625 C 243.84375 480.351562 243.875 481.070312 243.863281 481.128906 C 243.851562 481.242188 243.832031 481.351562 243.808594 481.460938 C 243.273438 480.882812 242.832031 479.957031 243.53125 479.320312 C 243.726562 479.234375 243.925781 479.214844 244.128906 479.265625 C 244.335938 479.3125 244.503906 479.417969 244.640625 479.582031 C 245.21875 480.144531 244.703125 481.023438 244.25 481.476562 Z M 247.882812 477.457031 C 247.894531 477.089844 247.84375 476.734375 247.722656 476.386719 C 247.703125 476.746094 247.660156 477.105469 247.59375 477.457031 L 247.339844 477.410156 C 247.285156 477.382812 247.234375 477.351562 247.191406 477.308594 C 246.921875 477.046875 246.730469 476.734375 246.613281 476.378906 C 246.46875 476.089844 246.394531 475.785156 246.398438 475.460938 C 246.363281 474.296875 247.597656 473.964844 248.292969 474.777344 C 248.554688 475.015625 248.710938 475.304688 248.769531 475.652344 C 248.828125 476 248.769531 476.328125 248.597656 476.632812 C 248.414062 476.957031 248.175781 477.230469 247.882812 477.457031 Z M 248.460938 490.203125 C 248.757812 489.851562 249.023438 489.472656 249.25 489.070312 C 249.25 489.03125 249.203125 489.039062 249.175781 489.039062 L 249.226562 489.039062 L 248.222656 489.980469 C 248.21875 489.519531 248.28125 489.070312 248.40625 488.628906 C 248.636719 488.265625 248.871094 487.808594 249.3125 487.722656 C 250.160156 487.890625 250.847656 488.792969 250.414062 489.609375 C 250.269531 489.808594 250.09375 489.960938 249.878906 490.074219 C 249.671875 490.226562 249.441406 490.3125 249.1875 490.335938 C 248.933594 490.359375 248.691406 490.3125 248.460938 490.203125 Z M 254.265625 480.617188 C 254.023438 480.484375 253.792969 480.335938 253.570312 480.171875 C 253.484375 480.101562 253.402344 480.011719 253.328125 479.945312 C 253.445312 480.339844 253.652344 480.679688 253.953125 480.957031 C 253.164062 480.867188 252.121094 480.464844 252.496094 479.492188 C 252.601562 479.160156 252.867188 479.074219 253.183594 479.003906 C 253.5 479.054688 253.914062 479.101562 254.082031 479.40625 C 254.222656 479.796875 254.285156 480.199219 254.265625 480.617188 Z M 257.878906 476.261719 C 257.789062 475.945312 257.753906 475.628906 257.769531 475.300781 L 257.8125 475.300781 C 257.664062 475.195312 257.625 475.804688 257.625 475.835938 C 257.625 475.871094 257.625 476.105469 257.625 476.238281 C 257.332031 476.0625 257.0625 475.851562 256.824219 475.605469 C 256.222656 474.835938 255.925781 473.925781 256.914062 473.324219 C 257.304688 473.289062 257.667969 473.367188 258.003906 473.5625 C 258.34375 473.761719 258.59375 474.035156 258.753906 474.390625 C 258.808594 474.710938 258.742188 475.007812 258.5625 475.273438 C 258.480469 475.4375 258.464844 475.582031 258.375 475.726562 C 258.226562 475.921875 258.0625 476.097656 257.878906 476.261719 Z M 263.121094 475.15625 C 263.300781 474.699219 263.386719 474.402344 263.210938 474.660156 C 263.21875 474.648438 263.230469 474.640625 263.242188 474.632812 C 263.164062 474.75 263.078125 474.863281 262.992188 474.980469 C 262.894531 474.761719 262.84375 474.53125 262.835938 474.289062 C 262.808594 473.933594 262.882812 473.605469 263.0625 473.296875 C 263.242188 472.988281 263.496094 472.761719 263.820312 472.617188 C 264.25 472.488281 264.585938 473.035156 264.832031 473.328125 C 264.945312 473.617188 264.941406 473.902344 264.828125 474.191406 C 264.714844 474.476562 264.523438 474.691406 264.246094 474.824219 C 263.964844 474.945312 263.65625 474.996094 263.371094 475.089844 C 263.296875 475.121094 263.199219 475.128906 263.117188 475.15625 Z M 264.074219 479.808594 L 264.480469 479.679688 C 264.523438 479.652344 264.640625 479.625 264.652344 479.578125 C 264.46875 479.605469 264.289062 479.625 264.117188 479.636719 C 264.160156 479.589844 264.191406 479.527344 264.234375 479.484375 C 264.347656 479.257812 264.511719 479.074219 264.730469 478.941406 C 264.945312 478.804688 265.183594 478.738281 265.4375 478.738281 C 265.710938 478.769531 266.085938 478.902344 266.097656 479.222656 C 266.125 479.425781 266.09375 479.613281 266.003906 479.796875 C 265.914062 479.976562 265.78125 480.117188 265.605469 480.214844 C 265.320312 480.355469 265.03125 480.367188 264.738281 480.25 C 264.5 480.128906 264.203125 480.039062 264.066406 479.800781 C 264.0625 479.808594 264.066406 479.808594 264.074219 479.808594 Z M 260.722656 486.816406 C 260.90625 486.71875 261.082031 486.617188 261.257812 486.507812 C 261.351562 486.421875 261.851562 486.0625 261.597656 486.023438 C 261.597656 486.023438 261.632812 486.023438 261.644531 486.0625 C 261.382812 486.265625 261.09375 486.40625 260.773438 486.484375 C 260.789062 486.328125 260.824219 486.179688 260.878906 486.03125 C 261 485.785156 261.15625 485.566406 261.34375 485.367188 C 261.441406 485.222656 261.5625 485.101562 261.707031 485.007812 C 261.851562 484.910156 262.007812 484.847656 262.179688 484.816406 C 262.351562 484.785156 262.519531 484.785156 262.691406 484.820312 C 262.859375 484.859375 263.015625 484.925781 263.160156 485.023438 C 263.445312 485.308594 263.609375 485.65625 263.648438 486.058594 C 263.6875 486.460938 263.59375 486.828125 263.367188 487.164062 C 263.023438 487.507812 262.605469 487.675781 262.121094 487.667969 C 261.636719 487.609375 260.761719 487.394531 260.722656 486.816406 Z M 257.476562 501.953125 C 257.449219 501.601562 257.390625 501.257812 257.292969 500.921875 C 257.207031 501.242188 257.128906 501.546875 257.0625 501.859375 C 256.859375 501.75 256.683594 501.613281 256.527344 501.441406 C 256.257812 501.132812 256.078125 500.78125 255.992188 500.378906 C 255.90625 499.980469 255.925781 499.582031 256.046875 499.191406 C 256.097656 498.796875 256.296875 498.496094 256.636719 498.289062 C 257.132812 498.167969 257.59375 498.246094 258.023438 498.53125 C 258.460938 498.875 258.722656 499.324219 258.804688 499.878906 C 258.765625 500.21875 258.683594 500.546875 258.554688 500.863281 C 258.417969 501.050781 258.265625 501.230469 258.101562 501.398438 C 257.945312 501.640625 257.738281 501.828125 257.476562 501.953125 Z M 262.078125 503.648438 C 262.140625 503.265625 262.207031 502.878906 262.296875 502.503906 C 262.082031 502.789062 261.925781 503.101562 261.835938 503.445312 C 261.714844 503.21875 261.617188 502.980469 261.554688 502.730469 C 261.503906 502.4375 261.539062 502.152344 261.65625 501.878906 C 261.773438 501.605469 261.953125 501.382812 262.199219 501.214844 C 262.453125 501.296875 262.734375 501.285156 262.945312 501.476562 C 263.066406 501.582031 263.175781 501.695312 263.28125 501.816406 C 263.335938 501.957031 263.363281 502.105469 263.363281 502.257812 C 263.410156 502.851562 262.871094 503.234375 262.4375 503.523438 C 262.328125 503.597656 262.210938 503.640625 262.078125 503.648438 Z M 265.148438 508.167969 C 265.222656 507.90625 265.316406 507.648438 265.425781 507.402344 C 265.320312 507.496094 265.234375 507.605469 265.164062 507.726562 L 264.941406 508.070312 C 264.824219 507.722656 264.765625 507.367188 264.761719 507 C 264.816406 506.464844 264.960938 505.78125 265.566406 505.683594 C 265.898438 505.75 266.167969 505.917969 266.371094 506.1875 C 266.574219 506.460938 266.664062 506.761719 266.636719 507.101562 C 266.464844 507.796875 265.726562 508.015625 265.148438 508.167969 Z M 263.117188 517.796875 L 263.210938 517.652344 C 263.328125 517.484375 263.429688 517.304688 263.511719 517.117188 L 262.976562 517.621094 C 262.972656 517.570312 262.972656 517.515625 262.976562 517.464844 C 262.976562 517.238281 263.003906 517.011719 263.054688 516.792969 C 263.238281 516.257812 263.8125 515.722656 264.378906 516.054688 C 264.433594 516.214844 264.59375 516.359375 264.609375 516.511719 C 264.664062 516.742188 264.652344 516.964844 264.578125 517.1875 C 264.398438 517.527344 264.125 517.726562 263.746094 517.792969 C 263.550781 517.796875 263.296875 517.90625 263.117188 517.796875 Z M 263.964844 521.863281 C 264.191406 521.804688 264.414062 521.746094 264.644531 521.707031 C 264.449219 521.652344 264.246094 521.636719 264.042969 521.65625 L 264.007812 521.65625 C 264.027344 521.394531 264.152344 521.207031 264.382812 521.089844 C 264.511719 521.089844 264.71875 521.089844 264.761719 521.210938 C 264.785156 521.253906 264.804688 521.296875 264.824219 521.339844 C 264.863281 521.527344 264.929688 521.757812 264.785156 521.914062 C 264.734375 521.976562 264.671875 522.027344 264.597656 522.058594 C 264.523438 522.09375 264.449219 522.105469 264.367188 522.101562 C 264.285156 522.097656 264.210938 522.070312 264.140625 522.027344 C 264.074219 521.984375 264.015625 521.929688 263.976562 521.859375 Z M 218.3125 507.257812 C 218.066406 507.722656 217.753906 508.132812 217.367188 508.488281 C 217.792969 508.390625 218.171875 508.203125 218.507812 507.921875 C 218.351562 508.476562 218.039062 508.921875 217.566406 509.253906 C 217.457031 509.324219 217.335938 509.371094 217.207031 509.390625 C 217.078125 509.410156 216.949219 509.402344 216.824219 509.367188 C 216.695312 509.332031 216.582031 509.273438 216.484375 509.1875 C 216.382812 509.105469 216.304688 509 216.25 508.882812 C 216.265625 507.808594 217.6875 507.894531 218.324219 507.25 Z M 214.082031 502.3125 L 213.890625 502.28125 C 213.589844 502.183594 213.289062 502.085938 212.988281 501.980469 C 212.964844 501.980469 212.945312 502.011719 212.988281 502.027344 C 213.332031 502.273438 213.6875 502.492188 214.058594 502.683594 C 213.789062 502.753906 213.519531 502.804688 213.242188 502.835938 C 212.59375 502.996094 211.636719 502.90625 211.308594 502.265625 C 211.269531 502.03125 211.300781 501.8125 211.40625 501.601562 C 211.511719 501.390625 211.667969 501.230469 211.875 501.125 C 212.984375 500.5625 213.59375 501.429688 214.09375 502.308594 Z M 206.632812 493.183594 C 206.03125 493.4375 205.414062 493.496094 204.777344 493.367188 L 204.746094 493.367188 C 205.296875 493.65625 205.882812 493.761719 206.503906 493.6875 C 206.375 493.785156 206.238281 493.871094 206.09375 493.945312 C 205.558594 494.195312 204.933594 494.480469 204.371094 494.167969 C 204.148438 494.03125 203.972656 493.855469 203.835938 493.632812 C 203.773438 493.460938 203.757812 493.28125 203.785156 493.097656 C 204.109375 491.976562 205.316406 491.804688 206.152344 492.503906 C 206.328125 492.707031 206.457031 492.960938 206.632812 493.183594 Z M 204.75 488.640625 C 204.273438 488.59375 203.796875 488.550781 203.320312 488.492188 C 203.320312 488.492188 203.359375 488.492188 203.347656 488.492188 C 203.304688 488.492188 203.257812 488.492188 203.226562 488.492188 C 203.191406 488.492188 203.289062 488.554688 203.316406 488.566406 C 203.664062 488.714844 204.023438 488.84375 204.386719 488.957031 C 204.027344 489.085938 203.632812 489.261719 203.261719 489.351562 C 202.632812 489.292969 201.832031 489.351562 201.5 488.695312 C 201.121094 487.949219 202.476562 487.015625 203.15625 487.144531 C 203.496094 487.21875 203.691406 487.507812 203.953125 487.726562 C 204.28125 487.972656 204.546875 488.269531 204.75 488.625 Z M 210.746094 485.480469 C 210.335938 485.476562 209.929688 485.511719 209.523438 485.585938 C 209.351562 485.597656 209.183594 485.585938 209.015625 485.554688 C 209.332031 485.71875 209.671875 485.800781 210.03125 485.800781 C 210.203125 485.800781 210.367188 485.832031 210.535156 485.855469 L 210.441406 485.890625 C 210.148438 486.03125 209.839844 486.132812 209.515625 486.195312 C 209.25 486.316406 208.972656 486.378906 208.683594 486.390625 C 208.207031 486.335938 207.398438 485.9375 207.5 485.363281 C 207.515625 485.195312 207.566406 485.035156 207.648438 484.890625 C 208.03125 484.519531 208.484375 484.359375 209.015625 484.410156 C 209.730469 484.480469 210.210938 485.03125 210.746094 485.464844 Z M 209.679688 478.945312 C 209.292969 478.898438 208.914062 478.828125 208.539062 478.738281 C 208.324219 478.6875 208.097656 478.65625 207.886719 478.628906 C 208.277344 478.902344 208.691406 479.144531 209.121094 479.351562 C 208.238281 479.785156 206.980469 480 206.535156 478.914062 C 206.476562 478.769531 206.425781 478.617188 206.390625 478.464844 C 206.441406 478.261719 206.539062 478.082031 206.679688 477.929688 C 207.945312 476.949219 208.921875 477.515625 209.613281 478.785156 C 209.644531 478.839844 209.671875 478.898438 209.6875 478.957031 Z M 209.441406 475.3125 L 209.289062 475.214844 C 209.148438 475.121094 209.023438 474.902344 208.859375 475.066406 C 208.691406 475.234375 208.992188 475.445312 209.105469 475.601562 C 209.105469 475.601562 209.105469 475.601562 209.105469 475.640625 C 208.234375 475.410156 206.992188 474.742188 207.5 473.71875 C 207.613281 473.527344 207.910156 473.492188 208.121094 473.464844 C 208.507812 473.484375 208.816406 473.652344 209.046875 473.964844 C 209.316406 474.367188 209.453125 474.8125 209.449219 475.296875 Z M 215.265625 474.691406 C 215.121094 474.472656 214.96875 474.257812 214.835938 474.039062 C 214.8125 474.019531 214.785156 474.003906 214.753906 473.992188 C 214.71875 473.964844 214.753906 474.027344 214.792969 474.039062 C 214.832031 474.050781 214.792969 474.128906 214.824219 474.179688 C 214.878906 474.324219 214.9375 474.472656 214.992188 474.621094 L 214.707031 474.542969 C 214.570312 474.539062 214.441406 474.503906 214.320312 474.433594 C 214.160156 474.320312 214.015625 474.183594 213.890625 474.027344 C 213.703125 473.605469 213.53125 473.015625 213.984375 472.707031 C 214.101562 472.621094 214.234375 472.59375 214.375 472.625 C 214.5625 472.652344 214.773438 472.625 214.910156 472.769531 C 215.054688 472.878906 215.171875 473.011719 215.265625 473.164062 C 215.359375 473.316406 215.421875 473.480469 215.453125 473.65625 C 215.488281 473.832031 215.488281 474.007812 215.457031 474.183594 C 215.425781 474.359375 215.363281 474.523438 215.269531 474.675781 Z M 218.40625 476.125 C 218.566406 475.824219 218.679688 475.503906 218.742188 475.167969 C 218.578125 475.429688 218.398438 475.683594 218.207031 475.929688 C 218.074219 475.46875 218.128906 475.03125 218.378906 474.621094 C 218.453125 474.488281 218.558594 474.390625 218.699219 474.324219 C 218.835938 474.261719 218.980469 474.246094 219.132812 474.273438 C 219.324219 474.347656 219.472656 474.472656 219.574219 474.652344 C 219.675781 474.832031 219.707031 475.023438 219.667969 475.226562 C 219.578125 475.433594 219.460938 475.625 219.3125 475.800781 C 219.171875 475.914062 219.015625 476 218.84375 476.054688 C 218.703125 476.097656 218.558594 476.113281 218.410156 476.109375 Z M 209.964844 466.367188 C 209.550781 466.476562 209.171875 466.652344 208.820312 466.902344 C 209.179688 466.902344 209.542969 466.902344 209.890625 466.902344 C 209.707031 467.289062 209.417969 467.578125 209.03125 467.769531 C 208.589844 467.964844 207.726562 467.769531 207.75 467.195312 C 207.929688 466.742188 208.210938 466.171875 208.730469 466.0625 C 209.175781 466.035156 209.585938 466.136719 209.964844 466.367188 Z M 209.511719 464.050781 C 209.125 463.9375 208.753906 463.820312 208.378906 463.738281 C 208.308594 463.839844 208.523438 463.890625 208.574219 463.949219 C 208.792969 464.078125 209.023438 464.199219 209.261719 464.3125 C 208.558594 464.605469 207.875 464.578125 207.199219 464.226562 C 207.003906 464.042969 206.617188 463.957031 206.585938 463.652344 C 206.632812 462.929688 207.65625 461.914062 208.367188 462.449219 C 208.890625 462.84375 209.542969 463.355469 209.511719 464.050781 Z M 198.273438 458.023438 C 198.601562 457.285156 200.003906 457.488281 200.714844 457.835938 C 200.339844 458.066406 199.949219 458.269531 199.554688 458.464844 C 199.714844 458.472656 199.878906 458.472656 200.042969 458.464844 C 200.34375 458.460938 200.636719 458.417969 200.925781 458.328125 C 200.890625 458.503906 200.835938 458.675781 200.761719 458.835938 C 200.632812 459.085938 200.464844 459.308594 200.265625 459.507812 C 200.078125 459.785156 199.828125 459.972656 199.507812 460.074219 C 199.1875 460.175781 198.871094 460.164062 198.558594 460.042969 C 198.34375 459.886719 198.179688 459.6875 198.070312 459.441406 C 197.941406 458.945312 198.003906 458.472656 198.257812 458.023438 Z M 198.273438 458.023438 " fill-opacity="1" fill-rule="nonzero"/></g><g fill="#0a3757" fill-opacity="1"><g transform="translate(259.940838, 158.157978)"><g><path d="M -0.328125 -3.40625 C -0.859375 -3.320312 -1.191406 -3.597656 -1.328125 -4.234375 C -1.421875 -4.804688 -1.394531 -5.4375 -1.25 -6.125 C -1.113281 -6.820312 -0.898438 -7.5 -0.609375 -8.15625 C -0.328125 -8.820312 -0.0195312 -9.390625 0.3125 -9.859375 C 0.394531 -9.992188 0.566406 -10.191406 0.828125 -10.453125 C 1.191406 -10.859375 1.597656 -11.097656 2.046875 -11.171875 C 2.441406 -11.234375 2.859375 -11.132812 3.296875 -10.875 C 3.523438 -10.78125 3.648438 -10.734375 3.671875 -10.734375 C 3.753906 -10.753906 3.859375 -10.878906 3.984375 -11.109375 C 4.085938 -11.265625 4.1875 -11.425781 4.28125 -11.59375 C 4.382812 -11.769531 4.472656 -11.945312 4.546875 -12.125 C 4.628906 -12.300781 4.71875 -12.476562 4.8125 -12.65625 C 4.90625 -12.832031 4.992188 -13.007812 5.078125 -13.1875 C 5.117188 -13.25 5.160156 -13.316406 5.203125 -13.390625 C 5.242188 -13.472656 5.28125 -13.5625 5.3125 -13.65625 C 5.363281 -13.71875 5.398438 -13.789062 5.421875 -13.875 C 5.453125 -13.957031 5.492188 -14.03125 5.546875 -14.09375 C 5.691406 -14.300781 5.832031 -14.414062 5.96875 -14.4375 C 5.96875 -14.4375 6.054688 -14.425781 6.234375 -14.40625 C 6.503906 -14.289062 6.601562 -14.035156 6.53125 -13.640625 C 6.519531 -13.535156 6.5 -13.441406 6.46875 -13.359375 C 6.445312 -13.273438 6.421875 -13.1875 6.390625 -13.09375 C 6.304688 -12.894531 6.238281 -12.695312 6.1875 -12.5 C 6.03125 -11.96875 5.851562 -11.3125 5.65625 -10.53125 C 5.457031 -9.75 5.300781 -8.960938 5.1875 -8.171875 C 5.082031 -7.390625 5.078125 -6.710938 5.171875 -6.140625 C 5.203125 -5.898438 5.296875 -5.789062 5.453125 -5.8125 C 5.535156 -5.832031 5.585938 -5.851562 5.609375 -5.875 C 5.785156 -5.988281 5.953125 -6.097656 6.109375 -6.203125 C 6.265625 -6.304688 6.425781 -6.425781 6.59375 -6.5625 C 6.8125 -6.757812 7.023438 -6.960938 7.234375 -7.171875 C 7.453125 -7.378906 7.664062 -7.601562 7.875 -7.84375 C 8.039062 -8.007812 8.191406 -8.179688 8.328125 -8.359375 C 8.460938 -8.546875 8.597656 -8.710938 8.734375 -8.859375 C 8.972656 -9.191406 9.242188 -9.519531 9.546875 -9.84375 C 9.585938 -9.90625 9.632812 -9.960938 9.6875 -10.015625 C 9.75 -10.078125 9.800781 -10.140625 9.84375 -10.203125 C 9.882812 -10.265625 9.984375 -10.363281 10.140625 -10.5 C 10.179688 -10.53125 10.210938 -10.554688 10.234375 -10.578125 C 10.265625 -10.597656 10.289062 -10.609375 10.3125 -10.609375 C 10.425781 -10.628906 10.523438 -10.601562 10.609375 -10.53125 C 10.804688 -10.457031 10.890625 -10.269531 10.859375 -9.96875 C 10.847656 -9.9375 10.84375 -9.914062 10.84375 -9.90625 C 10.84375 -9.894531 10.828125 -9.875 10.796875 -9.84375 C 10.785156 -9.8125 10.769531 -9.78125 10.75 -9.75 C 10.726562 -9.71875 10.703125 -9.6875 10.671875 -9.65625 C 10.347656 -9.226562 9.894531 -8.648438 9.3125 -7.921875 C 8.738281 -7.203125 8.128906 -6.535156 7.484375 -5.921875 C 6.835938 -5.304688 6.25 -4.90625 5.71875 -4.71875 C 5.664062 -4.6875 5.546875 -4.660156 5.359375 -4.640625 C 4.703125 -4.535156 4.3125 -4.863281 4.1875 -5.625 C 4.113281 -6.15625 4.085938 -6.6875 4.109375 -7.21875 C 4.140625 -7.757812 4.175781 -8.304688 4.21875 -8.859375 C 3.945312 -8.671875 3.769531 -8.503906 3.6875 -8.359375 C 3.644531 -8.273438 3.585938 -8.1875 3.515625 -8.09375 C 3.453125 -8 3.398438 -7.921875 3.359375 -7.859375 C 2.992188 -7.265625 2.628906 -6.691406 2.265625 -6.140625 C 1.898438 -5.585938 1.5 -5.046875 1.0625 -4.515625 C 0.90625 -4.335938 0.695312 -4.117188 0.4375 -3.859375 C 0.1875 -3.597656 -0.0664062 -3.445312 -0.328125 -3.40625 Z M -0.1875 -4.890625 C -0.0390625 -4.910156 0.0664062 -4.96875 0.140625 -5.0625 C 0.691406 -5.695312 1.191406 -6.367188 1.640625 -7.078125 C 2.085938 -7.785156 2.523438 -8.507812 2.953125 -9.25 C 2.984375 -9.269531 3.007812 -9.296875 3.03125 -9.328125 C 3.050781 -9.367188 3.066406 -9.421875 3.078125 -9.484375 C 3.109375 -9.753906 3.03125 -9.925781 2.84375 -10 C 2.613281 -10.101562 2.414062 -10.140625 2.25 -10.109375 C 2.125 -10.097656 1.96875 -10.023438 1.78125 -9.890625 C 1.601562 -9.753906 1.46875 -9.625 1.375 -9.5 C 0.300781 -8.21875 -0.25 -6.703125 -0.28125 -4.953125 L -0.25 -4.921875 C -0.21875 -4.929688 -0.195312 -4.921875 -0.1875 -4.890625 Z M -0.1875 -4.890625 "/></g></g></g><g fill="#0a3757" fill-opacity="1"><g transform="translate(270.137005, 156.560746)"><g><path d="M -0.265625 -0.375 C -0.566406 -0.320312 -0.769531 -0.472656 -0.875 -0.828125 C -0.925781 -0.898438 -0.972656 -1.066406 -1.015625 -1.328125 C -1.035156 -2.023438 -1.007812 -2.71875 -0.9375 -3.40625 C -0.863281 -4.09375 -0.765625 -4.78125 -0.640625 -5.46875 C -0.535156 -5.988281 -0.429688 -6.503906 -0.328125 -7.015625 C -0.234375 -7.535156 -0.128906 -8.054688 -0.015625 -8.578125 C 0.0859375 -9.117188 0.191406 -9.644531 0.296875 -10.15625 C 0.410156 -10.664062 0.519531 -11.179688 0.625 -11.703125 C 0.726562 -11.910156 0.832031 -12.21875 0.9375 -12.625 C 1.050781 -13.03125 1.210938 -13.25 1.421875 -13.28125 C 1.421875 -13.28125 1.503906 -13.269531 1.671875 -13.25 C 1.960938 -13.132812 2.066406 -12.925781 1.984375 -12.625 L 1.8125 -12.09375 C 1.707031 -11.582031 1.597656 -11.0625 1.484375 -10.53125 C 1.367188 -10 1.253906 -9.460938 1.140625 -8.921875 C 1.035156 -8.398438 0.925781 -7.863281 0.8125 -7.3125 C 0.695312 -6.769531 0.570312 -6.238281 0.4375 -5.71875 C 0.425781 -5.613281 0.410156 -5.492188 0.390625 -5.359375 C 0.367188 -5.234375 0.34375 -5.101562 0.3125 -4.96875 C 0.238281 -4.738281 0.285156 -4.492188 0.453125 -4.234375 C 0.566406 -4.585938 0.78125 -5.113281 1.09375 -5.8125 C 1.414062 -6.507812 1.785156 -7.238281 2.203125 -8 C 2.628906 -8.769531 3.066406 -9.429688 3.515625 -9.984375 C 3.960938 -10.546875 4.382812 -10.859375 4.78125 -10.921875 C 5.226562 -10.984375 5.546875 -10.835938 5.734375 -10.484375 C 5.921875 -10.140625 6.070312 -9.804688 6.1875 -9.484375 C 6.238281 -9.296875 6.28125 -9.125 6.3125 -8.96875 C 6.351562 -8.820312 6.398438 -8.664062 6.453125 -8.5 C 6.472656 -8.34375 6.503906 -8.1875 6.546875 -8.03125 C 6.585938 -7.882812 6.628906 -7.734375 6.671875 -7.578125 C 6.773438 -7.140625 6.957031 -6.75 7.21875 -6.40625 C 7.332031 -6.21875 7.503906 -6.140625 7.734375 -6.171875 C 7.785156 -6.179688 7.820312 -6.195312 7.84375 -6.21875 C 7.84375 -6.21875 7.847656 -6.21875 7.859375 -6.21875 C 7.878906 -6.226562 7.90625 -6.234375 7.9375 -6.234375 C 8.164062 -6.359375 8.367188 -6.507812 8.546875 -6.6875 C 8.734375 -6.863281 8.921875 -7.0625 9.109375 -7.28125 C 9.265625 -7.457031 9.410156 -7.640625 9.546875 -7.828125 C 9.679688 -8.015625 9.820312 -8.210938 9.96875 -8.421875 C 10.101562 -8.609375 10.242188 -8.789062 10.390625 -8.96875 C 10.535156 -9.144531 10.6875 -9.332031 10.84375 -9.53125 C 11.03125 -9.75 11.1875 -9.929688 11.3125 -10.078125 C 11.4375 -10.234375 11.519531 -10.335938 11.5625 -10.390625 C 11.601562 -10.453125 11.644531 -10.507812 11.6875 -10.5625 C 11.738281 -10.625 11.773438 -10.675781 11.796875 -10.71875 C 11.859375 -10.8125 11.945312 -10.867188 12.0625 -10.890625 C 12.15625 -10.898438 12.242188 -10.867188 12.328125 -10.796875 C 12.546875 -10.671875 12.632812 -10.5 12.59375 -10.28125 C 12.539062 -10.0625 12.445312 -9.859375 12.3125 -9.671875 C 12.226562 -9.546875 12.054688 -9.320312 11.796875 -9 C 11.535156 -8.6875 11.253906 -8.335938 10.953125 -7.953125 C 10.648438 -7.566406 10.367188 -7.21875 10.109375 -6.90625 C 9.847656 -6.59375 9.671875 -6.375 9.578125 -6.25 C 9.179688 -5.738281 8.703125 -5.382812 8.140625 -5.1875 C 8.117188 -5.175781 8.09375 -5.164062 8.0625 -5.15625 C 8.03125 -5.15625 8.003906 -5.15625 7.984375 -5.15625 C 7.929688 -5.125 7.863281 -5.101562 7.78125 -5.09375 C 7.257812 -5.007812 6.800781 -5.210938 6.40625 -5.703125 C 6.101562 -6.128906 5.882812 -6.597656 5.75 -7.109375 C 5.6875 -7.316406 5.628906 -7.515625 5.578125 -7.703125 C 5.535156 -7.898438 5.488281 -8.085938 5.4375 -8.265625 C 5.382812 -8.441406 5.328125 -8.628906 5.265625 -8.828125 C 5.210938 -9.023438 5.160156 -9.207031 5.109375 -9.375 C 5.023438 -9.59375 4.914062 -9.691406 4.78125 -9.671875 C 4.675781 -9.648438 4.585938 -9.59375 4.515625 -9.5 C 3.648438 -8.414062 2.914062 -7.234375 2.3125 -5.953125 C 1.71875 -4.679688 1.210938 -3.382812 0.796875 -2.0625 C 0.765625 -1.945312 0.722656 -1.820312 0.671875 -1.6875 C 0.628906 -1.5625 0.585938 -1.429688 0.546875 -1.296875 C 0.515625 -1.160156 0.460938 -1.03125 0.390625 -0.90625 C 0.328125 -0.78125 0.238281 -0.660156 0.125 -0.546875 C 0.03125 -0.453125 -0.0976562 -0.394531 -0.265625 -0.375 Z M -0.265625 -0.375 "/></g></g></g><g fill="#0a3757" fill-opacity="1"><g transform="translate(282.065337, 154.69217)"><g><path d="M -1.65625 2 C -1.6875 2.007812 -1.785156 2 -1.953125 1.96875 C -2.117188 1.875 -2.195312 1.722656 -2.1875 1.515625 C -2.15625 1.347656 -2.125 1.203125 -2.09375 1.078125 C -2.039062 1.015625 -1.992188 0.953125 -1.953125 0.890625 C -1.910156 0.828125 -1.867188 0.765625 -1.828125 0.703125 L 1.140625 -3.890625 C 1.285156 -4.097656 1.488281 -4.425781 1.75 -4.875 C 2.019531 -5.320312 2.164062 -5.640625 2.1875 -5.828125 C 2.1875 -6.046875 2.09375 -6.242188 1.90625 -6.421875 C 1.800781 -6.515625 1.703125 -6.601562 1.609375 -6.6875 C 1.523438 -6.769531 1.445312 -6.859375 1.375 -6.953125 C 1.226562 -7.140625 1.085938 -7.320312 0.953125 -7.5 C 0.816406 -7.6875 0.6875 -7.863281 0.5625 -8.03125 C 0.425781 -8.226562 0.296875 -8.421875 0.171875 -8.609375 C 0.046875 -8.804688 -0.0546875 -9.007812 -0.140625 -9.21875 C -0.265625 -9.457031 -0.328125 -9.660156 -0.328125 -9.828125 C -0.335938 -9.929688 -0.25 -10.066406 -0.0625 -10.234375 C -0.0507812 -10.253906 -0.015625 -10.269531 0.046875 -10.28125 C 0.203125 -10.3125 0.3125 -10.265625 0.375 -10.140625 C 0.570312 -9.910156 0.742188 -9.671875 0.890625 -9.421875 C 0.960938 -9.347656 1.125 -9.109375 1.375 -8.703125 C 1.625 -8.304688 1.898438 -7.921875 2.203125 -7.546875 C 2.503906 -7.179688 2.734375 -7.007812 2.890625 -7.03125 C 2.972656 -7.039062 3.070312 -7.117188 3.1875 -7.265625 C 3.332031 -7.484375 3.46875 -7.703125 3.59375 -7.921875 C 3.71875 -8.148438 3.859375 -8.363281 4.015625 -8.5625 C 4.140625 -8.8125 4.265625 -9.046875 4.390625 -9.265625 C 4.515625 -9.484375 4.65625 -9.695312 4.8125 -9.90625 C 4.863281 -9.96875 4.921875 -10.039062 4.984375 -10.125 C 5.046875 -10.21875 5.097656 -10.3125 5.140625 -10.40625 C 5.253906 -10.5625 5.394531 -10.6875 5.5625 -10.78125 C 5.613281 -10.789062 5.65625 -10.8125 5.6875 -10.84375 C 5.707031 -10.851562 5.71875 -10.859375 5.71875 -10.859375 C 5.71875 -10.859375 5.734375 -10.859375 5.765625 -10.859375 C 5.867188 -10.878906 5.96875 -10.859375 6.0625 -10.796875 C 6.207031 -10.679688 6.253906 -10.53125 6.203125 -10.34375 C 6.140625 -10.207031 6.078125 -10.085938 6.015625 -9.984375 C 5.953125 -9.890625 5.875 -9.773438 5.78125 -9.640625 C 5.519531 -9.117188 5.210938 -8.601562 4.859375 -8.09375 C 4.722656 -7.832031 4.570312 -7.566406 4.40625 -7.296875 C 4.25 -7.023438 4.09375 -6.765625 3.9375 -6.515625 C 3.800781 -6.296875 3.742188 -6.132812 3.765625 -6.03125 C 3.773438 -5.925781 3.878906 -5.785156 4.078125 -5.609375 C 4.304688 -5.390625 4.53125 -5.179688 4.75 -4.984375 C 4.96875 -4.796875 5.21875 -4.632812 5.5 -4.5 C 5.707031 -4.394531 5.910156 -4.3125 6.109375 -4.25 C 6.304688 -4.1875 6.519531 -4.175781 6.75 -4.21875 C 6.9375 -4.238281 7.101562 -4.289062 7.25 -4.375 C 7.40625 -4.46875 7.539062 -4.578125 7.65625 -4.703125 C 8.082031 -5.035156 8.5 -5.53125 8.90625 -6.1875 C 9.300781 -6.789062 9.671875 -7.398438 10.015625 -8.015625 C 10.367188 -8.640625 10.707031 -9.273438 11.03125 -9.921875 C 11.113281 -10.066406 11.191406 -10.195312 11.265625 -10.3125 C 11.347656 -10.4375 11.429688 -10.554688 11.515625 -10.671875 C 11.554688 -10.765625 11.617188 -10.816406 11.703125 -10.828125 C 11.804688 -10.847656 11.898438 -10.820312 11.984375 -10.75 C 12.191406 -10.613281 12.28125 -10.484375 12.25 -10.359375 C 12.226562 -10.296875 12.210938 -10.222656 12.203125 -10.140625 C 12.203125 -10.066406 12.175781 -9.96875 12.125 -9.84375 C 11.71875 -8.976562 11.285156 -8.128906 10.828125 -7.296875 C 10.367188 -6.472656 9.847656 -5.664062 9.265625 -4.875 C 8.953125 -4.507812 8.609375 -4.15625 8.234375 -3.8125 C 7.859375 -3.46875 7.40625 -3.253906 6.875 -3.171875 C 6.269531 -3.078125 5.648438 -3.191406 5.015625 -3.515625 C 4.710938 -3.691406 4.441406 -3.878906 4.203125 -4.078125 C 3.960938 -4.285156 3.710938 -4.503906 3.453125 -4.734375 C 3.328125 -4.816406 3.210938 -4.851562 3.109375 -4.84375 C 3.023438 -4.832031 2.925781 -4.753906 2.8125 -4.609375 C 2.300781 -3.816406 1.785156 -3.015625 1.265625 -2.203125 C 0.753906 -1.398438 0.238281 -0.597656 -0.28125 0.203125 C -0.351562 0.316406 -0.476562 0.515625 -0.65625 0.796875 C -0.832031 1.085938 -1.019531 1.359375 -1.21875 1.609375 C -1.414062 1.859375 -1.5625 1.988281 -1.65625 2 Z M -1.65625 2 "/></g></g></g><g fill="#0a3757" fill-opacity="1"><g transform="translate(293.639368, 152.879095)"><g><path d="M 1.484375 -1.6875 C 0.742188 -1.570312 0.164062 -1.875 -0.25 -2.59375 C -0.351562 -2.78125 -0.429688 -2.984375 -0.484375 -3.203125 C -0.535156 -3.429688 -0.582031 -3.691406 -0.625 -3.984375 C -0.613281 -4.578125 -0.601562 -5.28125 -0.59375 -6.09375 C -0.582031 -6.914062 -0.519531 -7.703125 -0.40625 -8.453125 C -0.300781 -9.210938 -0.109375 -9.789062 0.171875 -10.1875 C 0.285156 -10.28125 0.382812 -10.335938 0.46875 -10.359375 C 0.488281 -10.359375 0.582031 -10.34375 0.75 -10.3125 C 0.945312 -10.269531 1.039062 -10.140625 1.03125 -9.921875 C 0.820312 -9.003906 0.660156 -8.046875 0.546875 -7.046875 C 0.429688 -6.046875 0.378906 -5.078125 0.390625 -4.140625 C 0.410156 -3.847656 0.488281 -3.507812 0.625 -3.125 C 0.726562 -2.925781 0.847656 -2.8125 0.984375 -2.78125 C 1.117188 -2.75 1.289062 -2.75 1.5 -2.78125 C 1.769531 -2.875 2.015625 -3.003906 2.234375 -3.171875 C 2.453125 -3.335938 2.664062 -3.53125 2.875 -3.75 C 3.332031 -4.28125 3.769531 -4.816406 4.1875 -5.359375 C 4.601562 -5.910156 4.988281 -6.484375 5.34375 -7.078125 C 5.46875 -7.285156 5.597656 -7.492188 5.734375 -7.703125 C 5.867188 -7.921875 5.984375 -8.128906 6.078125 -8.328125 C 6.171875 -8.535156 6.285156 -8.742188 6.421875 -8.953125 C 6.554688 -9.160156 6.6875 -9.367188 6.8125 -9.578125 C 6.875 -9.679688 6.941406 -9.78125 7.015625 -9.875 C 7.097656 -9.976562 7.1875 -10.078125 7.28125 -10.171875 C 7.320312 -10.234375 7.382812 -10.269531 7.46875 -10.28125 C 7.570312 -10.289062 7.671875 -10.269531 7.765625 -10.21875 C 7.941406 -10.125 8.019531 -9.972656 8 -9.765625 C 7.988281 -9.609375 7.929688 -9.453125 7.828125 -9.296875 C 7.285156 -8.285156 6.71875 -7.304688 6.125 -6.359375 C 5.53125 -5.410156 4.859375 -4.503906 4.109375 -3.640625 C 3.796875 -3.234375 3.410156 -2.828125 2.953125 -2.421875 C 2.492188 -2.015625 2.003906 -1.769531 1.484375 -1.6875 Z M 0.921875 -11.875 C 0.535156 -11.757812 0.273438 -11.976562 0.140625 -12.53125 C 0.0664062 -13 0.269531 -13.269531 0.75 -13.34375 C 1.238281 -13.414062 1.53125 -13.25 1.625 -12.84375 C 1.65625 -12.632812 1.597656 -12.425781 1.453125 -12.21875 C 1.304688 -12.019531 1.128906 -11.90625 0.921875 -11.875 Z M 0.921875 -11.875 "/></g></g></g><g fill="#0a3757" fill-opacity="1"><g transform="translate(300.961716, 151.732048)"><g><path d="M 1.59375 -1.953125 C 0.507812 -1.773438 -0.234375 -2.148438 -0.640625 -3.078125 C -0.753906 -3.273438 -0.851562 -3.488281 -0.9375 -3.71875 C -1.03125 -3.957031 -1.085938 -4.179688 -1.109375 -4.390625 C -1.179688 -4.722656 -1.203125 -5.035156 -1.171875 -5.328125 C -1.148438 -5.628906 -1.128906 -5.929688 -1.109375 -6.234375 C -0.960938 -6.898438 -0.742188 -7.628906 -0.453125 -8.421875 C -0.160156 -9.210938 0.222656 -9.925781 0.703125 -10.5625 C 1.191406 -11.195312 1.765625 -11.617188 2.421875 -11.828125 C 2.503906 -11.835938 2.554688 -11.859375 2.578125 -11.890625 C 2.597656 -11.898438 2.617188 -11.90625 2.640625 -11.90625 C 2.671875 -11.914062 2.695312 -11.921875 2.71875 -11.921875 C 3.113281 -11.984375 3.441406 -11.898438 3.703125 -11.671875 C 3.972656 -11.453125 4.117188 -11.109375 4.140625 -10.640625 C 4.140625 -9.992188 3.9375 -9.296875 3.53125 -8.546875 C 3.125 -7.804688 2.613281 -7.148438 2 -6.578125 C 1.382812 -6.015625 0.769531 -5.644531 0.15625 -5.46875 C -0.0195312 -5.382812 -0.113281 -5.25 -0.125 -5.0625 C -0.144531 -4.632812 -0.03125 -4.179688 0.21875 -3.703125 C 0.375 -3.273438 0.566406 -3.035156 0.796875 -2.984375 C 1.035156 -2.941406 1.335938 -2.945312 1.703125 -3 C 2.460938 -3.289062 3.210938 -3.765625 3.953125 -4.421875 C 4.703125 -5.085938 5.328125 -5.734375 5.828125 -6.359375 C 6.035156 -6.609375 6.234375 -6.867188 6.421875 -7.140625 C 6.617188 -7.410156 6.820312 -7.671875 7.03125 -7.921875 C 7.195312 -8.160156 7.378906 -8.410156 7.578125 -8.671875 C 7.785156 -8.929688 7.992188 -9.1875 8.203125 -9.4375 C 8.253906 -9.488281 8.3125 -9.554688 8.375 -9.640625 C 8.4375 -9.722656 8.492188 -9.796875 8.546875 -9.859375 C 8.585938 -9.910156 8.632812 -9.972656 8.6875 -10.046875 C 8.738281 -10.117188 8.785156 -10.1875 8.828125 -10.25 C 8.953125 -10.351562 9.054688 -10.410156 9.140625 -10.421875 C 9.242188 -10.441406 9.34375 -10.414062 9.4375 -10.34375 C 9.664062 -10.1875 9.726562 -10 9.625 -9.78125 C 9.625 -9.695312 9.546875 -9.546875 9.390625 -9.328125 C 8.992188 -8.765625 8.492188 -8.082031 7.890625 -7.28125 C 7.285156 -6.488281 6.625 -5.707031 5.90625 -4.9375 C 5.195312 -4.164062 4.46875 -3.5 3.71875 -2.9375 C 2.976562 -2.382812 2.269531 -2.054688 1.59375 -1.953125 Z M 0.484375 -6.734375 C 0.785156 -6.972656 1.148438 -7.3125 1.578125 -7.75 C 2.003906 -8.195312 2.375 -8.664062 2.6875 -9.15625 C 3 -9.644531 3.125 -10.097656 3.0625 -10.515625 C 3 -10.773438 2.867188 -10.863281 2.671875 -10.78125 C 2.253906 -10.65625 1.863281 -10.363281 1.5 -9.90625 C 1.144531 -9.457031 0.847656 -8.957031 0.609375 -8.40625 C 0.378906 -7.851562 0.222656 -7.359375 0.140625 -6.921875 C 0.160156 -6.785156 0.195312 -6.722656 0.25 -6.734375 C 0.375 -6.703125 0.453125 -6.703125 0.484375 -6.734375 Z M 0.484375 -6.734375 "/></g></g></g><g fill="#0a3757" fill-opacity="1"><g transform="translate(309.937493, 150.32599)"><g><path d="M 1.140625 2.6875 C 0.640625 2.757812 0.257812 2.535156 0 2.015625 C -0.257812 1.492188 -0.421875 1.015625 -0.484375 0.578125 C -0.679688 -0.691406 -0.738281 -2.117188 -0.65625 -3.703125 C -0.570312 -5.285156 -0.414062 -6.863281 -0.1875 -8.4375 C 0.03125 -10.007812 0.253906 -11.414062 0.484375 -12.65625 C 0.546875 -13.039062 0.609375 -13.40625 0.671875 -13.75 C 0.742188 -14.101562 0.820312 -14.460938 0.90625 -14.828125 C 0.957031 -15.117188 0.957031 -15.320312 0.90625 -15.4375 C 0.851562 -15.550781 0.707031 -15.585938 0.46875 -15.546875 L 0.140625 -15.5 C -0.109375 -15.4375 -0.359375 -15.367188 -0.609375 -15.296875 C -0.867188 -15.234375 -1.128906 -15.148438 -1.390625 -15.046875 C -1.640625 -14.992188 -1.898438 -14.921875 -2.171875 -14.828125 C -2.453125 -14.742188 -2.71875 -14.675781 -2.96875 -14.625 C -3.125 -14.570312 -3.285156 -14.519531 -3.453125 -14.46875 C -3.617188 -14.414062 -3.78125 -14.375 -3.9375 -14.34375 C -4.144531 -14.3125 -4.289062 -14.304688 -4.375 -14.328125 C -4.507812 -14.328125 -4.613281 -14.382812 -4.6875 -14.5 C -4.78125 -14.757812 -4.738281 -14.914062 -4.5625 -14.96875 C -4.457031 -15.019531 -4.367188 -15.0625 -4.296875 -15.09375 C -4.234375 -15.132812 -4.160156 -15.171875 -4.078125 -15.203125 C -3.984375 -15.253906 -3.890625 -15.289062 -3.796875 -15.3125 C -3.703125 -15.34375 -3.601562 -15.378906 -3.5 -15.421875 C -3.144531 -15.535156 -2.789062 -15.644531 -2.4375 -15.75 C -2.09375 -15.863281 -1.753906 -15.960938 -1.421875 -16.046875 C -1.054688 -16.148438 -0.707031 -16.242188 -0.375 -16.328125 C -0.0390625 -16.410156 0.296875 -16.5 0.640625 -16.59375 C 1.097656 -16.695312 1.390625 -16.96875 1.515625 -17.40625 L 2.203125 -19.9375 C 2.285156 -20.125 2.351562 -20.300781 2.40625 -20.46875 C 2.457031 -20.632812 2.523438 -20.804688 2.609375 -20.984375 C 2.648438 -21.148438 2.707031 -21.316406 2.78125 -21.484375 C 2.851562 -21.660156 2.925781 -21.835938 3 -22.015625 C 3.21875 -22.523438 3.457031 -22.800781 3.71875 -22.84375 C 3.875 -22.875 4.007812 -22.800781 4.125 -22.625 C 4.21875 -22.375 4.195312 -22.078125 4.0625 -21.734375 C 3.925781 -21.179688 3.773438 -20.617188 3.609375 -20.046875 C 3.441406 -19.484375 3.265625 -18.914062 3.078125 -18.34375 C 3.066406 -18.289062 3.054688 -18.222656 3.046875 -18.140625 C 3.035156 -18.054688 3.019531 -17.988281 3 -17.9375 C 2.945312 -17.769531 2.941406 -17.578125 2.984375 -17.359375 C 3.085938 -17.347656 3.175781 -17.34375 3.25 -17.34375 C 3.320312 -17.34375 3.398438 -17.347656 3.484375 -17.359375 C 3.585938 -17.367188 3.664062 -17.394531 3.71875 -17.4375 C 3.769531 -17.445312 3.804688 -17.453125 3.828125 -17.453125 C 3.859375 -17.460938 3.890625 -17.46875 3.921875 -17.46875 C 4.453125 -17.601562 5.007812 -17.75 5.59375 -17.90625 C 6.175781 -18.070312 6.789062 -18.234375 7.4375 -18.390625 C 8.09375 -18.546875 8.707031 -18.695312 9.28125 -18.84375 C 9.863281 -18.988281 10.425781 -19.128906 10.96875 -19.265625 L 11.4375 -19.34375 L 12.390625 -19.484375 C 12.578125 -19.515625 12.703125 -19.398438 12.765625 -19.140625 C 12.796875 -18.921875 12.738281 -18.773438 12.59375 -18.703125 C 12.5 -18.660156 12.410156 -18.625 12.328125 -18.59375 C 12.242188 -18.570312 12.171875 -18.554688 12.109375 -18.546875 C 12.023438 -18.515625 11.941406 -18.488281 11.859375 -18.46875 C 11.785156 -18.457031 11.695312 -18.429688 11.59375 -18.390625 L 3.25 -16.328125 C 2.675781 -16.179688 2.332031 -15.859375 2.21875 -15.359375 C 2.070312 -14.816406 1.910156 -14.050781 1.734375 -13.0625 C 1.554688 -12.082031 1.367188 -11.023438 1.171875 -9.890625 C 0.984375 -8.765625 0.820312 -7.691406 0.6875 -6.671875 C 0.550781 -5.660156 0.460938 -4.859375 0.421875 -4.265625 C 0.367188 -3.578125 0.347656 -2.90625 0.359375 -2.25 C 0.367188 -1.601562 0.398438 -0.929688 0.453125 -0.234375 C 0.472656 0.0664062 0.503906 0.378906 0.546875 0.703125 C 0.585938 1.035156 0.765625 1.300781 1.078125 1.5 C 1.367188 1.414062 1.613281 1.238281 1.8125 0.96875 C 1.894531 0.8125 1.972656 0.664062 2.046875 0.53125 C 2.117188 0.394531 2.195312 0.273438 2.28125 0.171875 C 2.625 -0.421875 3.019531 -1.175781 3.46875 -2.09375 C 3.925781 -3.019531 4.394531 -3.960938 4.875 -4.921875 C 5.363281 -5.890625 5.816406 -6.765625 6.234375 -7.546875 C 6.648438 -8.335938 6.976562 -8.90625 7.21875 -9.25 C 7.257812 -9.332031 7.3125 -9.421875 7.375 -9.515625 C 7.445312 -9.609375 7.503906 -9.691406 7.546875 -9.765625 C 7.660156 -9.921875 7.800781 -10.050781 7.96875 -10.15625 C 8 -10.164062 8.019531 -10.179688 8.03125 -10.203125 C 8.0625 -10.210938 8.078125 -10.21875 8.078125 -10.21875 C 8.078125 -10.21875 8.09375 -10.21875 8.125 -10.21875 C 8.144531 -10.21875 8.234375 -10.207031 8.390625 -10.1875 C 8.640625 -10.0625 8.710938 -9.875 8.609375 -9.625 C 8.617188 -9.539062 8.59375 -9.453125 8.53125 -9.359375 C 8.21875 -8.828125 7.804688 -8.078125 7.296875 -7.109375 C 6.785156 -6.140625 6.316406 -5.226562 5.890625 -4.375 C 5.367188 -3.382812 4.835938 -2.382812 4.296875 -1.375 C 3.753906 -0.375 3.226562 0.550781 2.71875 1.40625 C 2.5625 1.65625 2.335938 1.914062 2.046875 2.1875 C 1.765625 2.46875 1.460938 2.632812 1.140625 2.6875 Z M 1.140625 2.6875 "/></g></g></g><g fill="#0a3757" fill-opacity="1"><g transform="translate(317.850353, 149.086439)"><g><path d="M 6.53125 6.96875 C 6.1875 7.019531 5.878906 6.863281 5.609375 6.5 C 5.179688 5.945312 5.039062 5.367188 5.1875 4.765625 C 5.34375 3.765625 5.59375 2.800781 5.9375 1.875 C 6.28125 0.945312 6.660156 0.0195312 7.078125 -0.90625 C 7.273438 -1.375 7.382812 -1.875 7.40625 -2.40625 C 7.382812 -2.863281 7.363281 -3.3125 7.34375 -3.75 C 7.332031 -4.195312 7.328125 -4.628906 7.328125 -5.046875 C 7.304688 -5.503906 7.289062 -5.953125 7.28125 -6.390625 C 7.28125 -6.835938 7.273438 -7.289062 7.265625 -7.75 L 7.15625 -10.59375 C 7.1875 -10.65625 7.179688 -10.789062 7.140625 -11 C 7.128906 -11.101562 7.082031 -11.148438 7 -11.140625 C 6.914062 -11.171875 6.84375 -11.140625 6.78125 -11.046875 L 6.109375 -9.953125 C 5.578125 -9.035156 5.007812 -8.179688 4.40625 -7.390625 C 3.8125 -6.597656 3.125 -5.84375 2.34375 -5.125 C 2.207031 -4.988281 2.0625 -4.890625 1.90625 -4.828125 C 1.75 -4.773438 1.597656 -4.722656 1.453125 -4.671875 C 0.929688 -4.585938 0.550781 -4.679688 0.3125 -4.953125 C 0.0820312 -5.222656 -0.0703125 -5.59375 -0.15625 -6.0625 C -0.289062 -6.925781 -0.304688 -7.851562 -0.203125 -8.84375 C -0.0976562 -9.84375 0.1875 -10.734375 0.65625 -11.515625 C 0.757812 -11.660156 0.894531 -11.742188 1.0625 -11.765625 C 1.082031 -11.773438 1.113281 -11.773438 1.15625 -11.765625 C 1.207031 -11.765625 1.269531 -11.753906 1.34375 -11.734375 C 1.632812 -11.617188 1.703125 -11.40625 1.546875 -11.09375 C 1.242188 -10.53125 1.050781 -9.953125 0.96875 -9.359375 C 0.882812 -8.773438 0.820312 -8.164062 0.78125 -7.53125 C 0.78125 -7.332031 0.785156 -7.125 0.796875 -6.90625 C 0.816406 -6.6875 0.84375 -6.472656 0.875 -6.265625 C 0.882812 -5.890625 1.03125 -5.726562 1.3125 -5.78125 C 1.414062 -5.789062 1.539062 -5.851562 1.6875 -5.96875 C 1.789062 -6.03125 1.878906 -6.101562 1.953125 -6.1875 C 2.035156 -6.28125 2.125 -6.363281 2.21875 -6.4375 C 2.3125 -6.5 2.394531 -6.578125 2.46875 -6.671875 C 2.550781 -6.765625 2.640625 -6.847656 2.734375 -6.921875 C 3.179688 -7.367188 3.582031 -7.863281 3.9375 -8.40625 C 4.300781 -8.945312 4.65625 -9.507812 5 -10.09375 C 5.15625 -10.332031 5.300781 -10.582031 5.4375 -10.84375 C 5.582031 -11.113281 5.726562 -11.378906 5.875 -11.640625 C 6.03125 -11.890625 6.175781 -12.144531 6.3125 -12.40625 C 6.445312 -12.664062 6.585938 -12.914062 6.734375 -13.15625 C 6.773438 -13.21875 6.820312 -13.289062 6.875 -13.375 C 6.9375 -13.46875 6.988281 -13.546875 7.03125 -13.609375 C 7.144531 -13.753906 7.28125 -13.835938 7.4375 -13.859375 C 7.457031 -13.859375 7.46875 -13.859375 7.46875 -13.859375 C 7.46875 -13.859375 7.484375 -13.863281 7.515625 -13.875 C 7.546875 -13.851562 7.570312 -13.84375 7.59375 -13.84375 C 7.9375 -13.820312 8.109375 -13.472656 8.109375 -12.796875 C 8.140625 -12.296875 8.160156 -11.789062 8.171875 -11.28125 C 8.191406 -10.769531 8.210938 -10.265625 8.234375 -9.765625 C 8.265625 -9.253906 8.28125 -8.734375 8.28125 -8.203125 C 8.28125 -7.679688 8.296875 -7.171875 8.328125 -6.671875 L 8.421875 -4.34375 C 8.453125 -4.351562 8.550781 -4.34375 8.71875 -4.3125 C 9.007812 -4.832031 9.3125 -5.359375 9.625 -5.890625 C 9.9375 -6.429688 10.238281 -6.972656 10.53125 -7.515625 C 10.820312 -8.003906 11.117188 -8.515625 11.421875 -9.046875 C 11.734375 -9.578125 12.0625 -10.097656 12.40625 -10.609375 C 12.519531 -10.796875 12.644531 -10.960938 12.78125 -11.109375 C 12.90625 -11.210938 13.003906 -11.269531 13.078125 -11.28125 C 13.191406 -11.300781 13.285156 -11.273438 13.359375 -11.203125 C 13.578125 -11.046875 13.644531 -10.867188 13.5625 -10.671875 C 13.5 -10.484375 13.40625 -10.296875 13.28125 -10.109375 C 13.164062 -9.921875 13.054688 -9.722656 12.953125 -9.515625 C 12.253906 -8.421875 11.585938 -7.304688 10.953125 -6.171875 C 10.316406 -5.046875 9.695312 -3.894531 9.09375 -2.71875 C 8.601562 -1.863281 8.359375 -0.960938 8.359375 -0.015625 C 8.359375 0.359375 8.332031 0.921875 8.28125 1.671875 C 8.238281 2.421875 8.15625 3.1875 8.03125 3.96875 C 7.914062 4.75 7.734375 5.425781 7.484375 6 C 7.242188 6.582031 6.925781 6.90625 6.53125 6.96875 Z M 6.453125 5.4375 C 6.566406 5.425781 6.628906 5.375 6.640625 5.28125 C 6.660156 5.207031 6.679688 5.113281 6.703125 5 L 7.03125 3.21875 C 7.113281 2.820312 7.054688 2.503906 6.859375 2.265625 C 6.804688 2.472656 6.75 2.6875 6.6875 2.90625 C 6.625 3.125 6.554688 3.347656 6.484375 3.578125 L 6.203125 4.84375 C 6.160156 4.945312 6.144531 5.054688 6.15625 5.171875 C 6.164062 5.296875 6.226562 5.375 6.34375 5.40625 C 6.363281 5.4375 6.398438 5.445312 6.453125 5.4375 Z M 6.453125 5.4375 "/></g></g></g></svg>