<svg xmlns="http://www.w3.org/2000/svg" xmlns:xlink="http://www.w3.org/1999/xlink" width="1280" zoomAndPan="magnify" viewBox="0 0 960 540.000001" height="720" preserveAspectRatio="xMidYMid meet" version="1.0"><defs><g/><clipPath id="88d91567b0"><path d="M 196.035156 442.621094 L 267 442.621094 L 267 539 L 196.035156 539 Z M 196.035156 442.621094 " clip-rule="nonzero"/></clipPath></defs><g clip-path="url(#88d91567b0)"><path fill="#000000" d="M 197.453125 459.648438 C 197.621094 459.988281 197.859375 460.269531 198.167969 460.488281 C 198.582031 460.664062 199.011719 460.738281 199.457031 460.714844 C 199.757812 460.714844 200.027344 460.628906 200.265625 460.453125 C 200.507812 460.277344 200.671875 460.042969 200.757812 459.757812 C 201.058594 459.289062 201.148438 458.785156 201.03125 458.242188 C 202.136719 457.855469 202.707031 456.855469 203.523438 455.875 C 203.667969 455.703125 203.820312 455.527344 203.980469 455.375 C 205.203125 455.515625 206.351562 455.878906 207.433594 456.46875 L 207.394531 456.46875 C 207.929688 456.730469 208.332031 457.160156 208.855469 457.433594 C 209.09375 457.648438 209.359375 457.824219 209.644531 457.964844 C 210.339844 458.609375 211.085938 459.1875 211.882812 459.699219 C 212.890625 460.410156 213.804688 461.230469 214.796875 461.960938 C 215.332031 462.335938 215.898438 462.589844 216.4375 462.933594 C 216.671875 463.085938 216.894531 463.246094 217.117188 463.414062 C 216.519531 463.289062 215.917969 463.273438 215.316406 463.375 C 214.65625 463.53125 214.011719 463.738281 213.386719 464.003906 C 212.578125 464.210938 211.753906 464.292969 210.921875 464.25 C 210.457031 464.226562 210.007812 464.148438 209.566406 464.011719 C 209.757812 463.078125 208.972656 462.269531 208.285156 461.757812 C 207.121094 461.226562 205.746094 462.640625 205.890625 463.796875 C 205.988281 464.1875 206.21875 464.464844 206.585938 464.632812 C 207.066406 465.054688 207.617188 465.191406 208.238281 465.046875 C 208.679688 464.90625 209.066406 464.675781 209.40625 464.363281 C 210.328125 464.824219 211.300781 465.003906 212.328125 464.894531 L 212.5 464.894531 C 212.265625 465.078125 212.035156 465.273438 211.785156 465.429688 C 211.25 465.703125 210.765625 465.996094 210.238281 466.230469 L 209.972656 466.320312 C 209.691406 466.007812 209.347656 465.804688 208.9375 465.71875 C 208.109375 465.457031 207.453125 466.25 207.144531 466.914062 C 206.722656 467.898438 207.953125 468.746094 208.851562 468.511719 C 209.183594 468.410156 209.441406 468.214844 209.628906 467.925781 C 209.898438 467.621094 210.019531 467.265625 209.996094 466.859375 C 210.21875 466.832031 210.429688 466.773438 210.632812 466.6875 C 211.328125 466.414062 211.925781 465.996094 212.425781 465.441406 C 212.632812 465.238281 212.796875 464.988281 212.996094 464.761719 C 213.773438 464.601562 214.53125 464.332031 215.292969 464.113281 C 216.046875 464 216.789062 464.042969 217.523438 464.238281 C 217.84375 464.332031 218.175781 464.398438 218.5 464.480469 L 219.753906 465.488281 C 221.320312 466.816406 222.988281 468.097656 224.132812 469.828125 C 225.425781 471.621094 226.484375 473.484375 227.777344 475.261719 C 229.527344 477.925781 231.351562 480.652344 232.042969 483.796875 C 232.171875 484.613281 232.183594 485.433594 232.085938 486.253906 C 232.027344 488.226562 231.761719 490.207031 231.957031 492.179688 C 232.027344 493.78125 232.625 495.265625 233.105469 496.761719 C 233.535156 498.214844 234.046875 499.636719 234.636719 501.03125 C 235.28125 502.421875 236.007812 503.757812 236.769531 505.09375 C 237.949219 507.148438 238.902344 509.320312 239.890625 511.457031 C 240.851562 513.347656 241.695312 515.289062 242.414062 517.285156 C 242.0625 516.78125 241.65625 516.316406 241.3125 515.804688 C 240.191406 514.347656 238.964844 512.976562 237.640625 511.699219 C 237.074219 511.164062 236.496094 510.691406 235.953125 510.152344 C 235.191406 509.53125 234.394531 508.953125 233.570312 508.417969 C 231.554688 507.277344 229.703125 505.890625 227.765625 504.621094 C 225.050781 502.871094 222.367188 500.960938 220.53125 498.261719 C 219.925781 497.324219 219.167969 496.601562 218.574219 495.695312 C 218.058594 494.949219 217.703125 494.128906 217.507812 493.242188 C 217.296875 491.378906 217.273438 489.507812 216.808594 487.664062 C 216.445312 486.226562 215.996094 484.8125 215.464844 483.425781 C 215.175781 482.578125 214.882812 481.730469 214.519531 480.910156 C 214.503906 480.644531 214.503906 480.375 214.519531 480.109375 C 214.605469 479.9375 214.6875 479.769531 214.78125 479.574219 C 215.035156 479.234375 215.3125 478.917969 215.621094 478.625 C 215.976562 478.300781 216.296875 477.964844 216.6875 477.660156 C 216.976562 477.496094 217.242188 477.300781 217.488281 477.078125 C 217.839844 476.792969 218.121094 476.449219 218.328125 476.050781 C 218.394531 476.066406 218.457031 476.078125 218.523438 476.082031 C 218.878906 476.121094 219.203125 476.039062 219.503906 475.839844 C 219.839844 475.613281 220.039062 475.296875 220.101562 474.890625 C 220.101562 474.117188 219.355469 473.292969 218.554688 473.53125 C 218.390625 473.589844 218.246094 473.671875 218.117188 473.78125 C 217.984375 473.894531 217.878906 474.023438 217.796875 474.175781 C 217.714844 474.324219 217.660156 474.484375 217.636719 474.65625 C 217.617188 474.824219 217.625 474.992188 217.664062 475.160156 C 217.699219 475.320312 217.769531 475.46875 217.875 475.597656 C 217.941406 475.710938 218.011719 475.816406 218.089844 475.921875 C 217.992188 476.039062 217.886719 476.148438 217.769531 476.246094 C 217.324219 476.59375 216.839844 476.875 216.320312 477.09375 C 215.984375 477.3125 215.667969 477.554688 215.375 477.820312 C 215.457031 477.648438 215.523438 477.46875 215.582031 477.289062 C 215.929688 476.726562 215.96875 476.140625 215.699219 475.539062 C 215.59375 475.21875 215.445312 474.921875 215.246094 474.648438 C 215.558594 474.3125 215.726562 473.917969 215.742188 473.460938 C 215.738281 473.140625 215.644531 472.851562 215.464844 472.585938 C 215.285156 472.320312 215.046875 472.128906 214.75 472.007812 C 214.394531 471.886719 214.039062 471.886719 213.683594 472.007812 C 213.246094 472.230469 212.992188 472.585938 212.921875 473.074219 C 212.929688 473.320312 212.96875 473.5625 213.039062 473.796875 C 213.207031 474.246094 213.519531 474.542969 213.976562 474.683594 C 214.179688 474.792969 214.390625 474.808594 214.605469 474.726562 C 214.738281 474.691406 214.871094 474.667969 215.007812 474.652344 C 215.1875 475.121094 215.296875 475.605469 215.332031 476.109375 C 214.921875 477.539062 214.023438 478.457031 213.898438 479.585938 C 212.796875 477.777344 211.332031 476.332031 209.507812 475.253906 C 209.609375 474.90625 209.625 474.554688 209.554688 474.199219 C 209.488281 473.84375 209.339844 473.523438 209.117188 473.238281 C 208.585938 472.597656 207.261719 472.527344 206.863281 473.328125 C 206.171875 474.664062 207.433594 475.867188 208.761719 475.808594 C 208.898438 475.804688 209.035156 475.789062 209.171875 475.761719 C 209.1875 475.878906 209.21875 475.988281 209.261719 476.097656 C 209.261719 475.980469 209.261719 475.863281 209.261719 475.746094 L 209.347656 475.746094 C 211.109375 477.308594 212.179688 478.339844 213.023438 479.675781 C 212.136719 479.011719 210.949219 479 209.667969 478.839844 C 209.773438 478.707031 209.433594 478.027344 209.390625 477.921875 C 208.761719 476.320312 206.519531 476.457031 205.789062 477.921875 C 205.617188 478.296875 205.628906 478.664062 205.832031 479.027344 C 205.902344 479.234375 206.003906 479.425781 206.144531 479.597656 C 206.28125 479.769531 206.445312 479.914062 206.632812 480.027344 C 206.820312 480.140625 207.023438 480.214844 207.242188 480.257812 C 207.457031 480.296875 207.675781 480.300781 207.890625 480.265625 C 208.46875 480.101562 208.941406 479.785156 209.316406 479.3125 C 211.175781 479.890625 212.457031 479.3125 213.679688 480.914062 C 214.089844 481.808594 214.445312 482.722656 214.746094 483.660156 C 215.308594 485.121094 215.773438 486.609375 216.136719 488.132812 C 216.042969 487.984375 215.945312 487.832031 215.855469 487.683594 C 215.21875 486.96875 214.46875 486.40625 213.601562 486 C 212.730469 485.597656 211.820312 485.378906 210.863281 485.351562 C 210.328125 484.679688 209.855469 483.921875 208.96875 483.753906 C 207.902344 483.507812 206.648438 484.285156 206.769531 485.46875 C 206.863281 486.207031 207.585938 486.707031 208.242188 486.925781 C 208.742188 487.019531 209.210938 486.9375 209.644531 486.679688 C 210.054688 486.484375 210.425781 486.230469 210.761719 485.921875 C 210.820312 485.882812 210.875 485.835938 210.929688 485.789062 C 211.570312 485.921875 212.183594 486.136719 212.765625 486.429688 C 213.472656 486.6875 214.109375 487.054688 214.6875 487.535156 C 214.898438 487.714844 215.09375 487.910156 215.277344 488.117188 C 215.414062 488.390625 215.59375 488.636719 215.8125 488.851562 C 216.015625 489.066406 216.203125 489.292969 216.378906 489.53125 C 216.515625 490.597656 216.589844 491.613281 216.671875 492.660156 C 216.691406 493.304688 216.828125 493.921875 217.078125 494.515625 C 216.394531 493.828125 215.667969 493.191406 214.898438 492.601562 C 213.449219 491.660156 211.933594 490.847656 210.34375 490.164062 C 209.242188 489.632812 208.109375 489.183594 206.941406 488.820312 C 206.238281 488.667969 205.527344 488.558594 204.808594 488.496094 C 204.6875 488.007812 204.449219 487.582031 204.105469 487.21875 C 203.570312 486.269531 202.679688 486.152344 201.789062 486.6875 C 201.03125 487.160156 200.273438 488.28125 201.03125 489.070312 C 201.234375 489.375 201.507812 489.597656 201.847656 489.738281 C 202.3125 489.832031 202.785156 489.851562 203.253906 489.789062 C 203.773438 489.597656 204.199219 489.277344 204.535156 488.835938 C 205.46875 489.128906 206.429688 489.371094 207.332031 489.664062 C 208.648438 490.195312 209.957031 490.730469 211.230469 491.378906 C 210.867188 491.429688 210.511719 491.515625 210.164062 491.582031 C 209.339844 491.816406 208.539062 492.121094 207.769531 492.496094 C 207.410156 492.691406 207.042969 492.871094 206.667969 493.027344 C 206.550781 492.800781 206.488281 492.546875 206.347656 492.328125 C 206.214844 492.144531 206.050781 491.988281 205.859375 491.863281 C 205.667969 491.734375 205.460938 491.644531 205.238281 491.59375 C 205.015625 491.539062 204.789062 491.523438 204.5625 491.550781 C 204.332031 491.578125 204.117188 491.640625 203.910156 491.742188 C 203.59375 491.957031 203.367188 492.242188 203.230469 492.597656 C 203.09375 492.957031 203.070312 493.320312 203.164062 493.691406 C 203.335938 494.050781 203.589844 494.335938 203.925781 494.542969 C 204.265625 494.753906 204.632812 494.851562 205.03125 494.84375 C 205.832031 494.667969 206.40625 494.210938 206.753906 493.472656 C 207.820312 493.28125 208.777344 492.714844 209.785156 492.351562 C 210.417969 492.171875 211.066406 492.082031 211.726562 492.089844 C 212.167969 492.148438 212.605469 492.238281 213.03125 492.355469 C 213.449219 492.589844 213.859375 492.824219 214.261719 493.082031 C 214.953125 493.601562 215.605469 494.167969 216.21875 494.785156 C 217.023438 495.582031 217.753906 496.527344 218.707031 497.140625 C 219.042969 497.578125 219.386719 498.003906 219.699219 498.433594 C 220.679688 499.875 221.847656 501.144531 223.207031 502.234375 C 222.625 502.101562 222.03125 502.007812 221.445312 501.933594 C 220.511719 501.808594 219.679688 502.226562 218.777344 502.417969 C 218.167969 502.53125 217.554688 502.601562 216.9375 502.625 C 215.96875 502.535156 215.015625 502.371094 214.074219 502.132812 C 213.984375 501.820312 213.875 501.515625 213.746094 501.21875 C 213.6875 501.089844 213.609375 500.976562 213.519531 500.871094 C 213.429688 500.761719 213.328125 500.667969 213.214844 500.585938 C 213.101562 500.503906 212.980469 500.4375 212.847656 500.386719 C 212.71875 500.332031 212.585938 500.296875 212.449219 500.277344 C 212.308594 500.257812 212.171875 500.253906 212.03125 500.269531 C 211.890625 500.28125 211.757812 500.3125 211.625 500.359375 C 211.492188 500.40625 211.371094 500.46875 211.253906 500.546875 C 211.136719 500.625 211.03125 500.714844 210.9375 500.816406 C 209.929688 502.101562 210.984375 503.398438 212.453125 503.328125 C 213.042969 503.183594 213.566406 502.90625 214.023438 502.503906 C 214.132812 502.554688 214.238281 502.621094 214.34375 502.667969 C 215.09375 502.960938 215.855469 503.136719 216.601562 503.355469 C 217.363281 503.402344 218.121094 503.347656 218.867188 503.191406 C 219.546875 502.984375 220.234375 502.820312 220.933594 502.699219 C 220.011719 503.164062 219.4375 504.300781 219.066406 505.367188 C 218.824219 505.839844 218.613281 506.335938 218.367188 506.808594 C 217.605469 507.398438 216.429688 507.1875 215.8125 508.007812 C 214.96875 509.175781 216.402344 510.140625 217.515625 509.792969 C 218.582031 509.566406 218.707031 508.375 218.6875 507.46875 C 220.03125 506.027344 220.03125 503.300781 221.785156 502.769531 C 222.871094 502.984375 223.9375 503.261719 224.988281 503.601562 C 225.609375 504.039062 226.246094 504.460938 226.894531 504.867188 C 228.558594 505.902344 230.097656 507.09375 231.765625 508.15625 C 233.058594 508.917969 234.277344 509.777344 235.429688 510.738281 C 237 512.152344 238.472656 513.660156 239.847656 515.261719 C 240.914062 516.554688 241.804688 517.988281 242.878906 519.257812 C 243.003906 519.871094 243.117188 520.484375 243.222656 521.097656 C 243.433594 522.296875 243.757812 523.464844 243.960938 524.671875 C 244.28125 526.765625 244.398438 528.875 244.304688 530.992188 C 244.242188 534.054688 243.828125 537.066406 243.0625 540.027344 C 242.742188 541.738281 242.300781 543.414062 241.742188 545.058594 C 241.234375 546.660156 240.546875 548.261719 240.027344 549.859375 C 239.59375 550.746094 239.292969 551.671875 239.132812 552.644531 C 239.777344 551.785156 240.53125 550.96875 240.835938 549.914062 C 241.296875 548.414062 241.933594 546.972656 242.398438 545.476562 C 242.882812 544.046875 243.277344 542.59375 243.585938 541.117188 C 243.746094 540.832031 243.886719 540.539062 244.007812 540.238281 C 244.167969 539.742188 244.460938 539.308594 244.625 538.816406 C 244.796875 538.355469 244.992188 537.90625 245.21875 537.46875 C 246 536.398438 246.855469 535.394531 247.789062 534.453125 C 249.203125 533.226562 250.269531 531.75 250.988281 530.023438 C 251.597656 528.480469 252.054688 526.894531 252.355469 525.265625 C 252.636719 524.933594 252.96875 524.640625 253.277344 524.332031 C 253.890625 523.722656 254.527344 523.15625 255.152344 522.574219 L 255.765625 522.230469 L 255.726562 522.230469 C 256.261719 521.960938 256.722656 521.636719 257.253906 521.375 C 257.578125 521.335938 257.902344 521.300781 258.21875 521.289062 C 258.757812 521.261719 259.289062 521.300781 259.816406 521.40625 C 260.566406 521.554688 261.261719 521.984375 262.046875 521.875 C 262.609375 521.871094 263.15625 521.785156 263.691406 521.613281 C 263.6875 521.726562 263.710938 521.832031 263.761719 521.933594 C 263.808594 522.03125 263.878906 522.113281 263.96875 522.179688 C 264.058594 522.246094 264.160156 522.289062 264.269531 522.304688 C 264.378906 522.320312 264.488281 522.3125 264.59375 522.277344 C 265.414062 522.128906 265.316406 521.085938 264.859375 520.605469 C 264.738281 520.507812 264.597656 520.453125 264.441406 520.449219 C 264.285156 520.445312 264.140625 520.488281 264.015625 520.582031 C 263.886719 520.675781 263.804688 520.796875 263.761719 520.949219 C 263.722656 521.101562 263.730469 521.25 263.792969 521.398438 C 262.878906 521.507812 261.992188 521.414062 261.125 521.109375 C 260.546875 520.820312 259.9375 520.640625 259.296875 520.574219 C 259.59375 520.46875 259.886719 520.355469 260.171875 520.222656 C 261.332031 519.597656 262.230469 518.707031 262.871094 517.554688 C 263.085938 517.773438 263.464844 517.707031 263.75 517.714844 C 264.152344 517.65625 264.476562 517.460938 264.714844 517.128906 C 264.785156 517 264.804688 516.851562 264.871094 516.722656 C 265.003906 516.144531 264.859375 515.644531 264.4375 515.226562 C 264.054688 514.953125 263.644531 514.910156 263.214844 515.101562 C 263.019531 515.210938 262.851562 515.355469 262.714844 515.535156 C 262.582031 515.714844 262.488281 515.917969 262.441406 516.136719 C 262.390625 516.359375 262.390625 516.578125 262.441406 516.800781 C 262.488281 517.019531 262.578125 517.21875 262.714844 517.402344 C 261.949219 518.214844 261.074219 518.886719 260.09375 519.421875 C 259.140625 519.957031 258.035156 520.132812 257.066406 520.628906 L 256.863281 520.722656 C 257.136719 520.355469 257.363281 519.96875 257.613281 519.597656 C 257.859375 519.257812 258.078125 518.902344 258.269531 518.53125 C 258.582031 517.832031 258.757812 517.082031 258.996094 516.359375 C 259.359375 515.042969 259.726562 513.695312 260.0625 512.375 C 261.742188 511.078125 264.042969 510.402344 264.816406 508.269531 C 264.847656 508.195312 264.875 508.121094 264.894531 508.042969 L 264.929688 508.042969 C 265.136719 508.035156 265.34375 508.011719 265.546875 507.976562 C 265.875 507.957031 266.167969 507.84375 266.421875 507.628906 C 266.675781 507.417969 266.839844 507.152344 266.914062 506.828125 C 266.957031 506.4375 266.882812 506.074219 266.683594 505.734375 C 266.488281 505.394531 266.207031 505.148438 265.84375 504.992188 C 265.199219 504.578125 264.382812 505.117188 264.101562 505.730469 C 263.933594 506.203125 263.933594 506.675781 264.101562 507.148438 C 264.238281 507.449219 264.414062 507.722656 264.632812 507.96875 C 264.3125 508.484375 263.914062 508.933594 263.445312 509.3125 C 262.46875 510.023438 261.15625 510.566406 260.246094 511.449219 C 260.320312 511.121094 260.394531 510.796875 260.457031 510.472656 C 260.675781 509.179688 261.164062 507.964844 261.417969 506.683594 C 261.566406 505.617188 261.660156 504.550781 261.816406 503.484375 C 262.035156 503.589844 262.351562 503.394531 262.554688 503.308594 C 262.996094 503.167969 263.3125 502.882812 263.503906 502.460938 C 263.578125 502.253906 263.601562 502.046875 263.585938 501.828125 C 263.566406 501.613281 263.507812 501.410156 263.402344 501.222656 C 263.296875 501.03125 263.15625 500.875 262.984375 500.746094 C 262.808594 500.613281 262.617188 500.527344 262.40625 500.480469 C 262.113281 500.316406 261.820312 500.316406 261.53125 500.480469 C 261.242188 500.648438 261.027344 500.878906 260.882812 501.179688 C 260.734375 501.476562 260.683594 501.789062 260.726562 502.117188 C 260.8125 502.652344 261.085938 503.058594 261.546875 503.339844 C 261.476562 503.578125 261.40625 503.816406 261.332031 504.027344 C 261.097656 504.8125 260.917969 505.613281 260.800781 506.421875 C 260.496094 507.757812 260.011719 509.058594 259.816406 510.402344 C 259.566406 511.382812 259.332031 512.359375 259.082031 513.332031 C 258.933594 511.601562 258.0625 510.128906 257.605469 508.101562 C 257.371094 506.539062 257.261719 504.96875 257.285156 503.386719 C 257.285156 502.855469 257.285156 502.320312 257.246094 501.820312 L 257.304688 501.820312 C 257.613281 501.734375 257.878906 501.574219 258.09375 501.339844 C 258.320312 501.207031 258.515625 501.035156 258.675781 500.824219 C 258.835938 500.617188 258.953125 500.386719 259.023438 500.132812 C 259.097656 499.878906 259.121094 499.625 259.09375 499.363281 C 259.066406 499.101562 258.992188 498.851562 258.867188 498.617188 C 258.335938 497.550781 256.410156 496.804688 255.59375 497.9375 C 255.378906 498.136719 255.242188 498.382812 255.183594 498.671875 C 255.058594 498.964844 254.980469 499.269531 254.949219 499.585938 C 254.9375 500.019531 255.042969 500.421875 255.265625 500.792969 C 255.488281 501.164062 255.792969 501.449219 256.179688 501.644531 C 256.378906 501.726562 256.585938 501.769531 256.800781 501.777344 C 256.742188 502.066406 256.683594 502.351562 256.628906 502.652344 C 256.578125 503.410156 256.578125 504.167969 256.628906 504.925781 C 256.636719 506.042969 256.757812 507.152344 256.984375 508.246094 C 257.347656 510.046875 258.050781 511.65625 258.480469 513.421875 C 258.582031 513.972656 258.625 514.527344 258.605469 515.085938 C 258.558594 515.246094 258.515625 515.410156 258.46875 515.570312 C 258.234375 516.515625 257.929688 517.433594 257.5625 518.335938 C 257.242188 518.9375 256.789062 519.511719 256.429688 520.078125 C 255.628906 521.179688 254.539062 522.011719 253.589844 522.949219 C 253.1875 523.257812 252.832031 523.613281 252.519531 524.015625 C 252.878906 521.503906 253.058594 518.980469 253.054688 516.441406 C 253.007812 515.375 252.941406 514.308594 252.839844 513.28125 C 252.5 511.105469 251.964844 508.957031 251.480469 506.824219 C 250.984375 504.316406 251.433594 501.765625 251.636719 499.253906 C 251.785156 497.910156 251.921875 496.515625 252.167969 495.207031 C 252.421875 494.011719 252.742188 492.832031 253.128906 491.675781 C 253.605469 491.167969 254.042969 490.636719 254.453125 490.074219 C 255.324219 489.058594 256.371094 488.289062 257.597656 487.765625 C 258.074219 487.578125 258.585938 487.519531 259.0625 487.332031 C 259.535156 487.144531 259.953125 486.898438 260.378906 486.671875 C 260.269531 487.390625 261.539062 487.992188 262.132812 487.972656 C 264.1875 488.109375 264.628906 485.304688 263.164062 484.238281 C 262.859375 484.078125 262.542969 483.960938 262.214844 483.878906 C 261.6875 483.871094 261.238281 484.050781 260.859375 484.414062 C 260.625 484.675781 260.464844 484.980469 260.382812 485.320312 C 260.296875 485.664062 260.296875 486.003906 260.382812 486.34375 C 260.152344 486.402344 259.925781 486.460938 259.710938 486.535156 C 259.058594 486.789062 258.390625 486.996094 257.710938 487.160156 C 256.320312 487.617188 255.140625 488.390625 254.164062 489.480469 C 254.460938 488.949219 254.789062 488.457031 255.113281 487.972656 C 256.25 486.066406 257.574219 484.292969 258.847656 482.503906 C 259.285156 482.265625 259.707031 482 260.113281 481.710938 C 260.8125 481.144531 261.566406 480.664062 262.375 480.257812 C 262.839844 480.023438 263.328125 479.847656 263.835938 479.726562 C 263.867188 479.964844 264.105469 480.113281 264.273438 480.257812 C 264.550781 480.53125 264.886719 480.632812 265.269531 480.566406 C 265.472656 480.542969 265.660156 480.476562 265.832031 480.367188 C 266.003906 480.257812 266.144531 480.117188 266.257812 479.945312 C 266.367188 479.773438 266.433594 479.585938 266.457031 479.382812 C 266.484375 479.179688 266.464844 478.980469 266.398438 478.785156 C 266.3125 478.585938 266.183594 478.417969 266.011719 478.285156 C 265.839844 478.148438 265.648438 478.0625 265.433594 478.027344 C 265.21875 477.992188 265.007812 478.007812 264.800781 478.074219 C 264.59375 478.144531 264.414062 478.257812 264.265625 478.417969 C 263.964844 478.734375 263.804688 479.113281 263.785156 479.554688 C 263.226562 479.554688 262.679688 479.636719 262.144531 479.804688 C 261.339844 480.054688 260.601562 480.425781 259.917969 480.921875 C 260.203125 480.386719 260.453125 479.773438 260.707031 479.203125 C 261.121094 478.390625 261.617188 477.601562 262.058594 476.824219 C 262.363281 476.285156 262.628906 475.730469 262.859375 475.152344 C 263.417969 475.105469 264.039062 475.191406 264.535156 474.871094 C 264.722656 474.753906 264.882812 474.601562 265.003906 474.414062 C 265.128906 474.226562 265.207031 474.019531 265.238281 473.796875 C 265.269531 473.574219 265.257812 473.355469 265.191406 473.140625 C 265.128906 472.925781 265.023438 472.734375 264.875 472.566406 C 264.554688 472.1875 264.234375 471.777344 263.707031 471.847656 C 263.355469 471.878906 263.042969 472.003906 262.761719 472.214844 C 262.484375 472.429688 262.28125 472.699219 262.15625 473.023438 C 261.984375 473.492188 262.003906 473.953125 262.21875 474.402344 C 262.328125 474.636719 262.488281 474.835938 262.699219 474.992188 C 261.8125 476.210938 260.777344 477.367188 260.101562 478.695312 C 259.742188 479.550781 259.339844 480.386719 258.894531 481.203125 C 258.628906 481.542969 258.363281 481.890625 258.109375 482.238281 C 258.351562 481.089844 258.375 479.933594 258.191406 478.777344 C 258.09375 478.242188 257.984375 477.707031 257.890625 477.210938 C 257.84375 476.886719 257.75 476.5625 257.667969 476.230469 L 257.792969 476.183594 C 258.183594 475.996094 258.472656 475.707031 258.660156 475.3125 C 259.476562 474.449219 258.703125 473.285156 257.808594 472.859375 C 257.363281 472.617188 256.898438 472.578125 256.421875 472.742188 C 255.636719 473.21875 255.070312 474.007812 255.445312 474.925781 C 255.707031 475.75 256.582031 476.160156 257.390625 476.296875 C 257.390625 477.757812 257.578125 479.203125 257.5625 480.652344 C 257.5625 481.828125 257.09375 482.921875 256.804688 484.035156 C 256.746094 484.121094 256.683594 484.199219 256.628906 484.285156 C 256.773438 483.441406 256.578125 482.679688 256.046875 482.007812 C 255.578125 481.28125 254.808594 480.941406 254.089844 480.546875 C 254.195312 480.246094 254.230469 479.9375 254.191406 479.625 C 254.339844 478.558594 252.914062 478.15625 252.160156 478.632812 C 251.914062 478.820312 251.738281 479.058594 251.632812 479.347656 C 251.523438 479.636719 251.503906 479.929688 251.566406 480.230469 C 251.671875 480.550781 251.867188 480.800781 252.152344 480.984375 C 252.4375 481.167969 252.746094 481.238281 253.082031 481.203125 C 253.359375 481.167969 253.636719 481.113281 253.90625 481.039062 C 254.601562 481.644531 255.394531 482.105469 255.917969 482.910156 C 256.15625 483.558594 256.25 484.226562 256.195312 484.914062 C 255.394531 486.078125 254.597656 487.269531 253.867188 488.460938 C 253.121094 489.617188 252.589844 490.863281 252.265625 492.195312 C 251.707031 493.855469 251.34375 495.554688 251.171875 497.296875 C 250.949219 499.703125 250.554688 502.097656 250.5625 504.511719 C 250.234375 503.519531 249.773438 502.59375 249.183594 501.730469 C 248.402344 500.425781 247.847656 498.996094 247.097656 497.6875 C 246.898438 497.34375 246.707031 497.011719 246.519531 496.675781 C 246.605469 496.304688 246.648438 495.925781 246.652344 495.542969 C 246.566406 493.949219 246.890625 492.449219 247.625 491.035156 C 247.828125 490.707031 248.054688 490.394531 248.300781 490.101562 C 248.410156 490.203125 248.53125 490.277344 248.667969 490.328125 C 248.808594 490.375 248.953125 490.40625 249.101562 490.414062 C 249.25 490.421875 249.394531 490.414062 249.539062 490.386719 C 249.683594 490.355469 249.824219 490.308594 249.957031 490.246094 C 250.089844 490.179688 250.210938 490.097656 250.320312 490.003906 C 250.433594 489.90625 250.53125 489.796875 250.613281 489.675781 C 250.699219 489.550781 250.765625 489.421875 250.8125 489.28125 C 250.863281 489.144531 250.894531 489 250.90625 488.851562 C 250.917969 488.707031 250.910156 488.558594 250.882812 488.414062 C 250.757812 488.007812 250.523438 487.679688 250.183594 487.421875 C 249.84375 487.167969 249.460938 487.035156 249.039062 487.023438 C 248.726562 487.09375 248.457031 487.234375 248.222656 487.449219 C 247.988281 487.664062 247.824219 487.925781 247.730469 488.226562 C 247.648438 488.707031 247.707031 489.167969 247.914062 489.609375 L 248.023438 489.875 C 247.828125 490.0625 247.628906 490.246094 247.441406 490.410156 C 246.972656 491.003906 246.617188 491.65625 246.371094 492.371094 C 246.089844 493.359375 245.953125 494.371094 245.964844 495.398438 C 245.25 493.261719 244.683594 489.195312 245.121094 487.394531 C 245.324219 486.703125 245.585938 486.03125 245.902344 485.378906 C 246.152344 484.789062 246.34375 484.175781 246.578125 483.578125 C 247.367188 481.71875 247.761719 479.785156 247.761719 477.765625 C 247.761719 477.640625 247.761719 477.507812 247.761719 477.371094 C 248.050781 477.371094 248.296875 477.019531 248.503906 476.839844 C 249.914062 475.773438 248.769531 473.613281 247.1875 473.5625 C 246.855469 473.589844 246.554688 473.699219 246.28125 473.890625 C 246.011719 474.082031 245.804688 474.328125 245.667969 474.632812 C 245.550781 475.003906 245.527344 475.386719 245.59375 475.773438 C 245.792969 476.445312 246.472656 477.464844 247.246094 477.4375 C 247.320312 477.4375 247.390625 477.390625 247.460938 477.371094 C 247.367188 477.863281 247.25 478.363281 247.15625 478.839844 C 246.851562 480.039062 246.621094 481.273438 246.222656 482.433594 C 245.835938 483.324219 245.554688 484.167969 245.230469 485.027344 C 244.84375 485.78125 244.539062 486.5625 244.3125 487.378906 L 244.3125 487.492188 C 244.132812 486.957031 243.882812 486.460938 243.554688 486.003906 C 243.40625 485.816406 243.25 485.628906 243.097656 485.46875 C 243.097656 485.277344 243.097656 485.089844 243.097656 484.9375 C 243.152344 484.707031 243.253906 484.496094 243.398438 484.308594 C 243.980469 483.445312 244.226562 482.496094 244.140625 481.457031 C 244.695312 481.164062 245.027344 480.707031 245.140625 480.085938 C 245.148438 479.871094 245.109375 479.664062 245.023438 479.46875 C 244.9375 479.269531 244.8125 479.097656 244.648438 478.957031 C 244.488281 478.816406 244.300781 478.714844 244.09375 478.65625 C 243.886719 478.597656 243.675781 478.589844 243.464844 478.625 C 243.296875 478.664062 243.144531 478.726562 243.003906 478.820312 C 242.859375 478.914062 242.742188 479.027344 242.640625 479.167969 C 242.542969 479.304688 242.472656 479.457031 242.429688 479.621094 C 242.386719 479.785156 242.378906 479.953125 242.398438 480.121094 C 242.460938 480.441406 242.605469 480.722656 242.828125 480.960938 C 243.054688 481.203125 243.324219 481.367188 243.640625 481.453125 C 243.523438 482.070312 243.304688 482.667969 243.15625 483.28125 C 243.003906 483.898438 242.578125 484.386719 242.683594 484.953125 C 242.558594 484.789062 242.429688 484.617188 242.316406 484.417969 C 241.953125 483.886719 241.691406 483.277344 241.355469 482.722656 C 241.234375 482.53125 241.128906 482.324219 241.015625 482.113281 C 241.089844 481.980469 241.175781 481.847656 241.238281 481.710938 C 241.851562 480.59375 241.019531 478.898438 239.640625 479.085938 C 239.175781 479.132812 238.890625 479.542969 238.609375 479.863281 C 238.519531 480.039062 238.46875 480.226562 238.449219 480.421875 C 238.433594 480.621094 238.453125 480.8125 238.507812 481.003906 C 238.5625 481.191406 238.652344 481.363281 238.773438 481.519531 C 238.890625 481.675781 239.039062 481.804688 239.207031 481.90625 C 239.554688 482.121094 239.929688 482.246094 240.332031 482.28125 C 240.433594 482.265625 240.527344 482.238281 240.621094 482.199219 C 240.691406 482.648438 240.8125 483.082031 240.996094 483.5 C 241.425781 484.691406 242.371094 485.578125 243.128906 486.5625 C 243.585938 487.175781 243.929688 487.847656 244.15625 488.578125 C 244.152344 490.378906 244.347656 492.15625 244.738281 493.914062 C 244.304688 492.816406 243.714844 491.8125 242.972656 490.894531 C 242.375 490.226562 241.664062 489.722656 240.839844 489.375 C 240.957031 489.101562 240.984375 488.820312 240.917969 488.527344 C 240.847656 488.238281 240.703125 487.996094 240.476562 487.804688 C 240.246094 487.609375 239.984375 487.503906 239.6875 487.484375 C 239.390625 487.464844 239.117188 487.535156 238.867188 487.695312 C 238.667969 487.855469 238.5625 488.066406 238.546875 488.320312 C 238.472656 488.488281 238.4375 488.667969 238.4375 488.851562 C 238.421875 489.019531 238.445312 489.179688 238.507812 489.335938 C 238.566406 489.492188 238.660156 489.625 238.78125 489.738281 C 238.90625 489.851562 239.050781 489.929688 239.210938 489.976562 C 239.371094 490.023438 239.535156 490.03125 239.699219 490 C 240.015625 489.988281 240.296875 489.882812 240.546875 489.683594 C 241.480469 490.351562 242.304688 491.136719 243.015625 492.042969 C 243.628906 492.964844 244.082031 493.984375 244.617188 494.953125 C 244.769531 495.183594 244.9375 495.40625 245.117188 495.617188 C 244.230469 495.101562 243.28125 494.746094 242.273438 494.550781 C 241.777344 494.421875 241.324219 494.210938 240.910156 493.910156 C 241.113281 493.699219 241.234375 493.449219 241.273438 493.160156 C 241.3125 492.871094 241.265625 492.597656 241.128906 492.339844 C 240.742188 491.582031 239.757812 491.519531 239.042969 491.808594 C 238.824219 491.890625 238.648438 492.03125 238.523438 492.226562 C 238.394531 492.425781 238.339844 492.640625 238.355469 492.875 C 238.378906 493.128906 238.441406 493.375 238.539062 493.609375 C 238.742188 493.863281 238.996094 494.042969 239.296875 494.15625 C 239.597656 494.269531 239.910156 494.296875 240.226562 494.238281 C 240.386719 494.207031 240.546875 494.171875 240.691406 494.128906 C 241.757812 495.382812 243.75 495.523438 245.042969 496.550781 C 245.40625 496.847656 245.746094 497.167969 246.109375 497.492188 C 246.429688 498.027344 246.761719 498.558594 247.03125 499.152344 C 247.511719 500.175781 248.023438 501.285156 248.59375 502.242188 C 249.507812 503.597656 249.988281 505.1875 250.730469 506.605469 C 250.863281 507.371094 251.070312 508.125 251.261719 508.886719 C 251.550781 510.140625 251.828125 511.308594 252.066406 512.546875 C 252.480469 515.710938 252.492188 518.875 252.101562 522.042969 C 251.753906 525.242188 251.242188 528.566406 249.566406 531.371094 C 248.589844 532.890625 247.144531 534.007812 245.996094 535.386719 C 245.464844 535.980469 244.972656 536.609375 244.519531 537.265625 L 244.472656 537.367188 C 245.019531 534.167969 245.230469 530.949219 245.101562 527.707031 C 244.945312 525.539062 244.585938 523.402344 244.027344 521.300781 C 243.796875 519.664062 243.417969 518.0625 242.882812 516.5 C 242.105469 514.367188 241.035156 512.265625 240.101562 510.257812 C 239.171875 508.253906 238.226562 506.179688 237.101562 504.230469 C 236.214844 502.683594 235.433594 501.082031 234.757812 499.429688 C 234.410156 498.464844 234.125 497.476562 233.808594 496.5 C 233.21875 494.757812 232.65625 493.039062 232.667969 491.199219 C 232.625 489.726562 232.789062 488.253906 232.824219 486.789062 C 232.933594 485.828125 232.933594 484.867188 232.824219 483.90625 C 232.65625 482.894531 232.371094 481.917969 231.96875 480.972656 C 231.613281 480.171875 231.21875 479.371094 230.789062 478.632812 C 230.773438 478.273438 230.796875 477.917969 230.859375 477.566406 C 230.890625 476.839844 231.007812 476.128906 231.210938 475.429688 C 231.503906 474.546875 232.21875 473.875 232.503906 472.976562 C 232.5625 472.855469 232.613281 472.726562 232.667969 472.597656 C 233.019531 472.195312 233.347656 471.773438 233.648438 471.335938 C 234.363281 470.480469 235.183594 469.738281 236.109375 469.113281 C 236.304688 469.394531 236.554688 469.617188 236.851562 469.785156 C 237.144531 469.953125 237.464844 470.050781 237.804688 470.074219 C 238.144531 470.101562 238.472656 470.054688 238.792969 469.933594 C 239.113281 469.8125 239.390625 469.632812 239.628906 469.386719 C 239.796875 469.113281 239.867188 468.8125 239.84375 468.492188 C 239.773438 467.773438 239.550781 467.105469 239.164062 466.496094 C 238.824219 466.070312 238.378906 465.867188 237.835938 465.882812 C 237.140625 465.902344 236.585938 466.191406 236.171875 466.753906 C 235.902344 467.238281 235.808594 467.757812 235.894531 468.308594 C 235.898438 468.445312 235.917969 468.578125 235.953125 468.710938 C 235.484375 468.882812 235.046875 469.105469 234.636719 469.386719 C 234.078125 469.753906 233.574219 470.1875 233.121094 470.679688 C 233.125 470.589844 233.125 470.503906 233.121094 470.417969 C 233.121094 469.476562 232.976562 468.511719 233.050781 467.601562 C 233.152344 466.625 233.371094 465.675781 233.707031 464.757812 C 234.4375 464.628906 235.238281 464.554688 235.777344 464.011719 C 236.421875 463.445312 236.84375 462.367188 236.1875 461.648438 C 235.921875 461.316406 235.589844 461.074219 235.191406 460.929688 C 234.792969 460.78125 234.386719 460.75 233.96875 460.832031 C 232.5625 461.578125 232.4375 462.964844 233.320312 464.195312 C 233.382812 464.269531 233.441406 464.34375 233.488281 464.425781 C 233.269531 464.777344 233.078125 465.144531 232.914062 465.523438 C 232.304688 466.796875 232.125 468.128906 232.378906 469.515625 C 232.425781 470.066406 232.402344 470.613281 232.316406 471.160156 C 232.132812 471.8125 231.898438 472.445312 231.613281 473.0625 C 231.117188 473.921875 230.484375 474.730469 230.285156 475.730469 C 230.191406 476.117188 230.140625 476.507812 230.128906 476.902344 C 230.007812 476.339844 229.851562 475.785156 229.660156 475.238281 C 229.101562 473.15625 228.804688 471.03125 228.769531 468.875 C 228.683594 467.023438 228.769531 465.195312 228.558594 463.359375 C 228.523438 462.859375 228.476562 462.394531 228.410156 461.953125 C 228.457031 461.339844 228.550781 460.730469 228.6875 460.132812 C 229.019531 459.390625 229.265625 458.621094 229.425781 457.824219 C 229.460938 457.527344 229.46875 457.234375 229.453125 456.9375 C 230.332031 456.558594 231.359375 456.558594 232.160156 455.976562 C 232.667969 455.6875 233.078125 455.300781 233.394531 454.808594 C 233.460938 454.722656 233.519531 454.628906 233.585938 454.535156 C 234.277344 454.832031 234.972656 454.832031 235.664062 454.535156 C 235.953125 454.460938 236.207031 454.328125 236.4375 454.136719 C 236.664062 453.949219 236.839844 453.71875 236.96875 453.453125 C 237.09375 453.183594 237.15625 452.902344 237.160156 452.605469 C 237.160156 452.308594 237.101562 452.027344 236.976562 451.757812 C 236.503906 450.785156 235.34375 450.007812 234.3125 450.589844 C 233.53125 451.0625 233.050781 451.742188 232.863281 452.632812 C 232.875 453.207031 233.027344 453.738281 233.324219 454.234375 C 232.972656 454.570312 232.601562 454.875 232.203125 455.15625 C 231.328125 455.65625 230.167969 455.820312 229.417969 456.484375 C 229.371094 455.980469 229.28125 455.480469 229.210938 454.984375 C 229.128906 454.085938 229.191406 453.195312 229.394531 452.316406 C 230.902344 452.226562 232.359375 451.046875 231.761719 449.421875 C 231.457031 448.65625 230.925781 448.125 230.160156 447.820312 C 229.019531 447.542969 227.953125 448.578125 227.828125 449.660156 C 227.75 450.292969 227.90625 450.855469 228.304688 451.351562 C 228.480469 451.703125 228.730469 451.992188 229.050781 452.222656 C 228.929688 452.53125 228.816406 452.851562 228.710938 453.171875 C 228.527344 453.699219 228.4375 454.242188 228.433594 454.796875 C 228.433594 455.785156 228.8125 456.765625 228.65625 457.757812 C 228.488281 458.472656 228.25 459.160156 227.9375 459.824219 C 227.9375 459.886719 227.898438 459.957031 227.882812 460.019531 C 227.605469 459.363281 227.238281 458.765625 226.773438 458.222656 C 225.761719 456.882812 224.609375 455.683594 223.3125 454.621094 C 223.195312 454.53125 223.082031 454.429688 222.964844 454.332031 C 222.320312 453 221.875 451.601562 221.636719 450.140625 C 221.539062 449.355469 221.433594 448.539062 221.402344 447.777344 C 222.289062 447.246094 223.210938 446.277344 223.003906 445.1875 C 222.894531 443.789062 221.066406 443.050781 219.945312 443.816406 C 219.683594 443.996094 219.492188 444.234375 219.371094 444.53125 C 219.253906 444.824219 219.222656 445.128906 219.285156 445.441406 C 219.277344 445.929688 219.417969 446.375 219.699219 446.773438 C 220.078125 447.140625 220.515625 447.410156 221.011719 447.585938 C 220.722656 449.484375 220.9375 451.324219 221.660156 453.101562 C 221.253906 452.703125 220.847656 452.300781 220.414062 451.933594 C 219.476562 451.289062 218.925781 450.289062 218.28125 449.394531 C 217.957031 448.917969 217.417969 448.328125 217.042969 447.675781 C 217.46875 447.398438 217.777344 447.023438 217.972656 446.554688 C 218.167969 446.085938 218.214844 445.601562 218.109375 445.105469 C 217.78125 443.195312 215.433594 442.800781 213.925781 443.546875 C 212.585938 444.273438 212.765625 446.246094 213.683594 447.238281 C 214 447.574219 214.375 447.8125 214.808594 447.957031 C 215.246094 448.101562 215.691406 448.132812 216.144531 448.050781 C 216.332031 448.042969 216.507812 447.996094 216.675781 447.90625 C 216.722656 448.027344 216.765625 448.15625 216.816406 448.273438 C 217.367188 449.359375 218.007812 450.390625 218.734375 451.363281 C 218.980469 451.671875 219.253906 451.953125 219.554688 452.207031 C 218.957031 452.054688 218.351562 451.953125 217.738281 451.890625 C 216.648438 451.824219 215.582031 451.632812 214.539062 451.324219 C 214.539062 450.011719 213.089844 448.605469 211.804688 449.601562 C 211.699219 449.660156 211.601562 449.734375 211.511719 449.820312 C 211.421875 449.902344 211.34375 449.996094 211.28125 450.101562 C 211.214844 450.203125 211.164062 450.316406 211.125 450.433594 C 211.085938 450.550781 211.066406 450.667969 211.058594 450.792969 C 211.050781 450.914062 211.058594 451.035156 211.082031 451.15625 C 211.105469 451.277344 211.140625 451.390625 211.195312 451.503906 C 211.246094 451.613281 211.3125 451.714844 211.390625 451.8125 C 211.46875 451.90625 211.558594 451.988281 211.65625 452.0625 C 211.851562 452.273438 212.089844 452.421875 212.367188 452.507812 C 212.644531 452.589844 212.921875 452.597656 213.203125 452.53125 C 213.738281 452.394531 214.128906 452.074219 214.367188 451.574219 C 214.730469 451.792969 215.109375 451.96875 215.507812 452.109375 C 216.4375 452.40625 217.386719 452.601562 218.355469 452.695312 C 219.25 452.855469 220.113281 453.109375 220.949219 453.460938 C 221.617188 454.144531 222.328125 454.777344 223.082031 455.363281 C 223.800781 455.9375 224.453125 456.578125 225.035156 457.289062 C 225.960938 458.355469 226.953125 459.421875 227.382812 460.808594 C 227.679688 462.195312 227.84375 463.597656 227.878906 465.011719 C 227.609375 464.558594 227.320312 464.117188 227.007812 463.691406 C 226.261719 462.691406 225.371094 461.839844 224.339844 461.136719 C 223.691406 460.761719 223.023438 460.414062 222.347656 460.101562 C 222.410156 459.113281 222.132812 457.890625 220.976562 457.726562 C 220.277344 457.585938 219.347656 457.855469 219.121094 458.597656 C 219.003906 458.9375 218.992188 459.28125 219.089844 459.628906 C 219.191406 459.972656 219.378906 460.261719 219.65625 460.488281 C 220.046875 460.78125 220.480469 460.871094 220.953125 460.757812 C 221.210938 460.699219 221.457031 460.609375 221.691406 460.488281 C 221.785156 460.394531 221.886719 460.304688 221.996094 460.222656 C 223.0625 461.050781 224.195312 461.824219 225.195312 462.707031 C 225.886719 463.398438 226.488281 464.15625 227.003906 464.988281 C 227.289062 465.402344 227.605469 465.8125 227.886719 466.238281 C 227.886719 467.308594 227.886719 468.339844 227.957031 469.386719 C 228.007812 471.128906 228.242188 472.84375 228.660156 474.535156 C 228.742188 474.910156 228.832031 475.292969 228.9375 475.664062 C 228.40625 474.867188 227.871094 474.066406 227.339844 473.28125 C 225.957031 471.253906 224.785156 469.015625 222.996094 467.332031 C 221.8125 466.234375 220.597656 465.199219 219.332031 464.179688 C 218.300781 463.273438 217.1875 462.476562 215.992188 461.792969 C 215.046875 461.214844 214.160156 460.566406 213.328125 459.839844 C 212.378906 459.054688 211.304688 458.425781 210.382812 457.609375 C 209.460938 456.792969 208.90625 455.601562 208.132812 454.621094 C 207.714844 454.0625 207.300781 453.5 206.898438 452.929688 C 206.339844 450.710938 207.367188 449.195312 206.726562 447.0625 C 206.976562 446.835938 207.1875 446.582031 207.367188 446.300781 C 208.5 444.960938 207.464844 442.640625 205.644531 442.886719 C 204.515625 443.203125 204.363281 444.488281 204.445312 445.496094 C 204.59375 445.910156 204.839844 446.257812 205.175781 446.546875 C 205.511719 446.832031 205.894531 447.015625 206.328125 447.09375 C 206.355469 447.324219 206.367188 447.558594 206.367188 447.789062 C 206.324219 448.945312 205.917969 450.289062 205.988281 451.484375 C 205.84375 451.230469 205.703125 450.953125 205.574219 450.707031 C 205.136719 449.742188 204.945312 448.667969 204.324219 447.792969 C 203.953125 447.277344 203.523438 446.816406 203.042969 446.402344 C 203.21875 445.683594 203.449219 444.886719 203.070312 444.1875 C 202.535156 443.121094 200.800781 442.625 199.996094 443.65625 C 199.230469 444.847656 199.765625 447.230469 201.527344 447.03125 C 201.984375 447.035156 202.417969 446.941406 202.835938 446.753906 C 203.230469 447.273438 203.570312 447.828125 203.863281 448.414062 C 204.230469 449.289062 204.488281 450.167969 204.871094 451.015625 C 205.625 452.691406 206.804688 454.121094 207.878906 455.59375 C 207.992188 455.746094 208.097656 455.90625 208.207031 456.066406 C 206.417969 454.882812 204.230469 454.621094 202.15625 454.425781 C 201.582031 454.285156 201.019531 454.109375 200.472656 453.890625 L 200.316406 453.84375 C 200.277344 453.484375 200.214844 453.128906 200.136719 452.777344 C 199.84375 451.289062 197.832031 450.355469 196.625 451.355469 C 196.433594 451.601562 196.324219 451.878906 196.300781 452.191406 C 196.164062 452.71875 196.226562 453.226562 196.492188 453.703125 C 196.582031 453.933594 196.714844 454.140625 196.886719 454.316406 C 197.054688 454.496094 197.253906 454.636719 197.480469 454.734375 C 197.707031 454.835938 197.945312 454.886719 198.191406 454.894531 C 198.4375 454.898438 198.675781 454.859375 198.910156 454.769531 C 199.300781 454.621094 199.671875 454.425781 200.019531 454.183594 C 200.144531 454.257812 200.273438 454.324219 200.402344 454.394531 C 201 454.777344 201.644531 455.042969 202.339844 455.1875 C 202.722656 455.21875 203.101562 455.257812 203.480469 455.304688 C 203.390625 455.367188 203.308594 455.433594 203.230469 455.507812 C 202.605469 456.039062 202.003906 456.664062 201.429688 457.269531 C 201.214844 457.441406 200.988281 457.601562 200.753906 457.746094 C 200.40625 457.433594 200.003906 457.230469 199.542969 457.132812 C 199.085938 457.039062 198.632812 457.066406 198.1875 457.214844 C 197.425781 457.585938 197.179688 458.890625 197.453125 459.648438 Z M 200.15625 453.777344 C 199.714844 453.640625 199.289062 453.460938 198.875 453.246094 C 198.804688 453.203125 198.726562 453.167969 198.648438 453.140625 C 198.648438 453.140625 198.648438 453.175781 198.648438 453.1875 C 198.648438 453.175781 198.648438 453.164062 198.648438 453.15625 C 199 453.515625 199.390625 453.824219 199.820312 454.089844 C 199.351562 454.175781 198.878906 454.230469 198.402344 454.257812 C 198.070312 454.25 197.773438 454.140625 197.511719 453.933594 C 197.25 453.726562 197.078125 453.460938 196.992188 453.140625 C 196.882812 452.738281 196.898438 452.34375 197.042969 451.953125 C 197.089844 451.835938 197.175781 451.753906 197.296875 451.714844 C 197.609375 451.605469 197.925781 451.574219 198.25 451.628906 C 198.574219 451.683594 198.863281 451.8125 199.121094 452.019531 C 199.714844 452.457031 199.882812 453.164062 200.15625 453.800781 Z M 202.96875 446.3125 L 202.34375 445.777344 C 202.273438 445.714844 202.179688 445.808594 202.226562 445.882812 C 202.40625 446.144531 202.601562 446.417969 202.757812 446.664062 C 202.679688 446.671875 202.601562 446.671875 202.519531 446.664062 C 201.886719 446.496094 201.058594 446.519531 200.640625 445.9375 C 200.457031 445.632812 200.363281 445.304688 200.359375 444.949219 C 200.355469 444.589844 200.445312 444.261719 200.625 443.953125 C 200.863281 443.789062 201.121094 443.726562 201.40625 443.765625 C 202.828125 443.917969 203.03125 445.136719 202.96875 446.320312 Z M 206.703125 446.945312 C 206.535156 446.417969 206.304688 445.917969 206.011719 445.445312 C 205.945312 445.363281 206.011719 445.675781 206.011719 445.707031 C 206.113281 446.09375 206.207031 446.476562 206.269531 446.867188 C 205.734375 446.46875 205.363281 445.953125 205.15625 445.320312 C 205.101562 444.679688 205.101562 443.761719 205.835938 443.546875 C 206.683594 443.503906 207.199219 444.316406 207.359375 445.019531 C 207.335938 445.730469 207.121094 446.378906 206.707031 446.957031 Z M 222.246094 460.003906 L 222.179688 460.003906 C 221.839844 459.847656 221.492188 459.699219 221.140625 459.566406 C 221.359375 459.746094 221.585938 459.914062 221.824219 460.066406 C 221.628906 460.15625 221.421875 460.191406 221.210938 460.167969 C 220.371094 460.3125 219.429688 459.550781 219.773438 458.671875 C 219.96875 458.453125 220.210938 458.3125 220.5 458.253906 C 220.785156 458.195312 221.0625 458.230469 221.328125 458.355469 C 221.96875 458.675781 222.09375 459.386719 222.246094 460.003906 Z M 222.246094 460.050781 Z M 214.496094 451.320312 C 214.121094 451.214844 213.753906 451.101562 213.390625 450.980469 C 213.449219 451.039062 213.519531 451.085938 213.59375 451.121094 C 213.828125 451.25 214.058594 451.390625 214.292969 451.527344 C 213.460938 452.285156 211.703125 451.992188 211.722656 450.710938 C 211.761719 450.554688 211.84375 450.417969 211.964844 450.3125 C 212.941406 449.171875 214.125 450.210938 214.496094 451.320312 Z M 216.992188 447.585938 C 216.707031 447.171875 216.589844 446.71875 216.632812 446.21875 C 216.632812 446.21875 216.703125 446.269531 216.71875 446.257812 C 216.734375 446.246094 216.640625 446.15625 216.585938 446.199219 C 216.566406 446.21875 216.546875 446.242188 216.53125 446.269531 C 216.386719 446.792969 216.417969 447.304688 216.628906 447.804688 C 216.011719 447.710938 215.417969 447.535156 214.851562 447.269531 C 214.148438 446.878906 213.730469 446.289062 213.597656 445.496094 C 213.535156 444.289062 214.367188 443.804688 215.492188 443.839844 C 215.769531 443.828125 216.042969 443.867188 216.304688 443.964844 C 216.566406 444.058594 216.800781 444.203125 217.003906 444.390625 C 217.207031 444.582031 217.367188 444.804688 217.480469 445.0625 C 217.59375 445.316406 217.652344 445.582031 217.65625 445.863281 C 217.652344 446.527344 217.429688 447.105469 216.992188 447.601562 Z M 221.398438 447.617188 C 221.378906 447.164062 221.390625 446.710938 221.433594 446.257812 C 221.5 445.722656 221.164062 446.742188 221.15625 446.84375 C 221.105469 447.019531 221.066406 447.199219 221.039062 447.378906 C 220.894531 447.195312 220.734375 447.027344 220.558594 446.871094 C 220.144531 446.417969 219.941406 445.886719 219.957031 445.269531 C 219.910156 444.878906 220.042969 444.566406 220.359375 444.328125 C 220.671875 444.089844 221.011719 444.050781 221.375 444.203125 C 221.714844 444.316406 221.984375 444.523438 222.183594 444.820312 C 222.382812 445.117188 222.46875 445.445312 222.441406 445.804688 C 222.277344 446.519531 221.929688 447.128906 221.398438 447.632812 Z M 233.636719 454.445312 C 233.917969 454.058594 234.164062 453.65625 234.378906 453.230469 C 234.378906 453.230469 234.417969 453.15625 234.378906 453.140625 C 234.34375 453.121094 234.3125 453.140625 234.289062 453.140625 C 234.269531 453.140625 234.335938 453.140625 234.351562 453.140625 C 234.050781 453.46875 233.734375 453.800781 233.402344 454.113281 C 233.382812 453.671875 233.402344 453.230469 233.457031 452.792969 C 233.757812 452.046875 234.316406 450.894531 235.285156 451.054688 C 236.378906 451.355469 236.976562 452.824219 236.085938 453.671875 C 235.640625 454.050781 235.132812 454.304688 234.5625 454.433594 C 234.253906 454.476562 233.945312 454.480469 233.636719 454.445312 Z M 229.414062 452.191406 C 229.503906 451.753906 229.59375 451.335938 229.675781 450.960938 C 229.464844 451.300781 229.285156 451.65625 229.140625 452.03125 C 228.960938 451.65625 228.824219 451.265625 228.730469 450.859375 C 228.574219 450.46875 228.527344 450.058594 228.585938 449.640625 C 228.710938 448.972656 229.382812 448.304688 230.089844 448.492188 C 230.46875 448.683594 230.761719 448.964844 230.972656 449.332031 C 231.179688 449.703125 231.269531 450.097656 231.238281 450.519531 C 231.097656 451.390625 230.203125 451.902344 229.414062 452.191406 Z M 233.734375 464.6875 C 233.871094 464.296875 234.027344 463.917969 234.210938 463.546875 C 234.210938 463.546875 234.210938 463.574219 234.210938 463.546875 C 234.210938 463.519531 234.210938 463.5 234.210938 463.480469 C 233.964844 463.730469 233.75 464.003906 233.570312 464.304688 C 233.519531 464.011719 233.46875 463.710938 233.429688 463.417969 C 233.335938 462.6875 233.558594 461.683594 234.332031 461.433594 C 235.882812 461.59375 236.335938 462.824219 235.207031 463.902344 C 234.753906 464.234375 234.261719 464.496094 233.734375 464.6875 Z M 236.140625 469.0625 C 236.472656 468.816406 236.800781 468.582031 237.128906 468.335938 C 237.167969 468.304688 237.261719 468.234375 237.25 468.171875 C 237.246094 468.128906 237.222656 468.117188 237.1875 468.140625 C 236.84375 468.335938 236.488281 468.503906 236.117188 468.644531 C 236.316406 467.929688 236.550781 467.152344 237.234375 466.757812 C 237.441406 466.625 237.667969 466.5625 237.910156 466.5625 C 238.15625 466.5625 238.382812 466.625 238.589844 466.757812 C 238.824219 467.078125 238.988281 467.433594 239.078125 467.824219 C 239.226562 468.230469 239.210938 468.632812 239.03125 469.023438 C 238.878906 469.191406 238.703125 469.324219 238.496094 469.417969 C 237.773438 469.851562 236.898438 469.570312 236.269531 469.140625 Z M 240.8125 493.8125 C 240.632812 493.671875 240.472656 493.511719 240.332031 493.332031 C 240.289062 493.296875 240.226562 493.164062 240.167969 493.183594 C 240.269531 493.46875 240.417969 493.734375 240.605469 493.972656 C 240.199219 493.90625 239.824219 493.769531 239.46875 493.5625 C 239.140625 493.417969 238.964844 493.171875 238.933594 492.816406 C 238.902344 492.625 239.058594 492.480469 239.121094 492.3125 C 239.304688 492.148438 239.65625 492.21875 239.875 492.136719 C 240.007812 492.125 240.140625 492.140625 240.269531 492.183594 C 240.398438 492.222656 240.511719 492.289062 240.613281 492.378906 C 240.714844 492.472656 240.792969 492.578125 240.851562 492.699219 C 240.90625 492.824219 240.9375 492.953125 240.941406 493.085938 C 240.988281 493.34375 240.945312 493.585938 240.8125 493.8125 Z M 240.769531 489.371094 C 240.546875 489.28125 240.316406 489.210938 240.082031 489.160156 C 240.019531 489.144531 239.957031 489.125 239.902344 489.09375 C 239.902344 489.140625 239.96875 489.1875 240.011719 489.230469 L 240.390625 489.53125 C 240.296875 489.53125 240.203125 489.5625 240.113281 489.566406 C 239.238281 489.613281 238.867188 488.878906 239.207031 488.121094 C 239.320312 488.039062 239.445312 487.984375 239.578125 487.957031 C 239.714844 487.925781 239.851562 487.925781 239.988281 487.953125 C 240.125 487.984375 240.25 488.039062 240.363281 488.117188 C 240.472656 488.199219 240.566406 488.300781 240.636719 488.421875 C 240.785156 488.722656 240.828125 489.039062 240.769531 489.371094 Z M 241 482.066406 C 240.863281 481.796875 240.695312 481.550781 240.5 481.320312 C 240.546875 481.574219 240.582031 481.851562 240.632812 482.089844 C 240.449219 482.089844 240.292969 482.03125 240.15625 481.914062 C 239.585938 481.621094 239.238281 481.160156 239.121094 480.53125 C 239.027344 480.183594 239.347656 479.894531 239.601562 479.714844 C 239.886719 479.597656 240.164062 479.609375 240.433594 479.757812 C 241.292969 480.296875 241.265625 481.21875 241 482.066406 Z M 244.097656 481.355469 C 244.050781 481.054688 243.945312 480.773438 243.789062 480.507812 C 243.691406 480.238281 243.726562 480.953125 243.714844 481.011719 C 243.703125 481.121094 243.683594 481.230469 243.660156 481.339844 C 243.128906 480.765625 242.683594 479.84375 243.382812 479.207031 C 243.578125 479.121094 243.773438 479.101562 243.980469 479.152344 C 244.183594 479.199219 244.355469 479.304688 244.488281 479.46875 C 245.0625 480.027344 244.550781 480.902344 244.097656 481.355469 Z M 247.71875 477.351562 C 247.734375 476.984375 247.679688 476.628906 247.558594 476.285156 C 247.542969 476.644531 247.5 477 247.433594 477.351562 L 247.183594 477.304688 C 247.125 477.277344 247.078125 477.242188 247.03125 477.203125 C 246.765625 476.941406 246.570312 476.628906 246.457031 476.273438 C 246.308594 475.988281 246.238281 475.683594 246.242188 475.363281 C 246.207031 474.199219 247.4375 473.867188 248.132812 474.679688 C 248.390625 474.914062 248.546875 475.207031 248.605469 475.550781 C 248.664062 475.898438 248.605469 476.222656 248.433594 476.53125 C 248.25 476.851562 248.011719 477.125 247.71875 477.351562 Z M 248.296875 490.058594 C 248.59375 489.703125 248.859375 489.328125 249.085938 488.925781 C 249.085938 488.890625 249.039062 488.894531 249.011719 488.894531 L 249.058594 488.894531 L 248.0625 489.832031 C 248.058594 489.375 248.117188 488.929688 248.242188 488.488281 C 248.472656 488.125 248.707031 487.667969 249.144531 487.582031 C 249.992188 487.753906 250.675781 488.648438 250.242188 489.464844 C 250.101562 489.660156 249.925781 489.816406 249.710938 489.929688 C 249.503906 490.078125 249.273438 490.164062 249.019531 490.1875 C 248.765625 490.210938 248.527344 490.167969 248.296875 490.058594 Z M 254.082031 480.5 C 253.84375 480.367188 253.609375 480.21875 253.390625 480.054688 C 253.304688 479.988281 253.226562 479.894531 253.152344 479.832031 C 253.265625 480.226562 253.472656 480.5625 253.773438 480.839844 C 252.984375 480.75 251.945312 480.347656 252.320312 479.378906 C 252.425781 479.046875 252.691406 478.960938 253.007812 478.894531 C 253.320312 478.941406 253.730469 478.988281 253.902344 479.292969 C 254.042969 479.683594 254.105469 480.085938 254.082031 480.5 Z M 257.683594 476.15625 C 257.597656 475.84375 257.5625 475.527344 257.578125 475.203125 L 257.621094 475.203125 C 257.472656 475.09375 257.433594 475.703125 257.433594 475.734375 C 257.433594 475.765625 257.433594 476 257.433594 476.136719 C 257.140625 475.960938 256.871094 475.75 256.632812 475.503906 C 256.035156 474.738281 255.738281 473.832031 256.722656 473.226562 C 257.113281 473.191406 257.476562 473.273438 257.8125 473.46875 C 258.148438 473.664062 258.398438 473.941406 258.558594 474.292969 C 258.613281 474.613281 258.546875 474.90625 258.367188 475.175781 C 258.289062 475.335938 258.269531 475.480469 258.179688 475.621094 C 258.035156 475.816406 257.867188 475.996094 257.683594 476.15625 Z M 262.910156 475.058594 C 263.09375 474.597656 263.179688 474.304688 263.003906 474.5625 C 263.011719 474.550781 263.019531 474.539062 263.035156 474.535156 C 262.953125 474.652344 262.871094 474.765625 262.785156 474.882812 C 262.6875 474.664062 262.636719 474.433594 262.628906 474.195312 C 262.597656 473.839844 262.675781 473.507812 262.855469 473.203125 C 263.035156 472.894531 263.285156 472.667969 263.609375 472.523438 C 264.039062 472.394531 264.375 472.941406 264.617188 473.234375 C 264.730469 473.519531 264.726562 473.808594 264.613281 474.09375 C 264.503906 474.378906 264.308594 474.589844 264.03125 474.726562 C 263.753906 474.84375 263.445312 474.898438 263.164062 474.988281 C 263.085938 475.019531 262.992188 475.03125 262.90625 475.058594 Z M 263.859375 479.691406 L 264.265625 479.566406 C 264.308594 479.539062 264.425781 479.511719 264.4375 479.464844 C 264.257812 479.492188 264.074219 479.511719 263.902344 479.523438 C 263.945312 479.472656 263.980469 479.414062 264.019531 479.371094 C 264.132812 479.144531 264.296875 478.964844 264.515625 478.828125 C 264.730469 478.695312 264.964844 478.625 265.222656 478.625 C 265.492188 478.660156 265.867188 478.792969 265.878906 479.113281 C 265.90625 479.3125 265.875 479.5 265.785156 479.679688 C 265.695312 479.859375 265.5625 480 265.386719 480.097656 C 265.105469 480.238281 264.816406 480.25 264.523438 480.136719 C 264.289062 480.011719 263.988281 479.921875 263.855469 479.6875 C 263.851562 479.691406 263.855469 479.691406 263.859375 479.691406 Z M 260.523438 486.679688 C 260.703125 486.585938 260.878906 486.484375 261.054688 486.371094 C 261.144531 486.285156 261.648438 485.929688 261.390625 485.890625 C 261.390625 485.890625 261.429688 485.890625 261.441406 485.929688 C 261.179688 486.132812 260.890625 486.273438 260.570312 486.351562 C 260.589844 486.195312 260.625 486.042969 260.675781 485.898438 C 260.800781 485.652344 260.953125 485.433594 261.140625 485.234375 C 261.238281 485.089844 261.359375 484.972656 261.503906 484.878906 C 261.644531 484.78125 261.804688 484.71875 261.972656 484.6875 C 262.144531 484.652344 262.3125 484.65625 262.480469 484.691406 C 262.652344 484.726562 262.808594 484.796875 262.949219 484.894531 C 263.234375 485.179688 263.398438 485.523438 263.4375 485.921875 C 263.476562 486.324219 263.382812 486.691406 263.15625 487.027344 C 262.8125 487.371094 262.398438 487.539062 261.914062 487.527344 C 261.433594 487.46875 260.558594 487.257812 260.523438 486.679688 Z M 257.285156 501.773438 C 257.257812 501.421875 257.199219 501.078125 257.101562 500.742188 C 257.019531 501.0625 256.9375 501.367188 256.875 501.675781 C 256.671875 501.570312 256.492188 501.429688 256.339844 501.257812 C 256.070312 500.953125 255.890625 500.601562 255.804688 500.203125 C 255.71875 499.804688 255.738281 499.410156 255.859375 499.019531 C 255.914062 498.625 256.109375 498.324219 256.445312 498.117188 C 256.941406 497.996094 257.402344 498.074219 257.828125 498.359375 C 258.265625 498.703125 258.527344 499.148438 258.605469 499.703125 C 258.566406 500.039062 258.488281 500.367188 258.363281 500.683594 C 258.222656 500.871094 258.070312 501.046875 257.910156 501.21875 C 257.753906 501.460938 257.542969 501.644531 257.285156 501.773438 Z M 261.871094 503.460938 C 261.9375 503.078125 262 502.695312 262.089844 502.320312 C 261.875 502.605469 261.722656 502.917969 261.632812 503.261719 C 261.507812 503.035156 261.414062 502.796875 261.347656 502.546875 C 261.300781 502.253906 261.335938 501.96875 261.453125 501.695312 C 261.570312 501.421875 261.75 501.203125 261.996094 501.035156 C 262.246094 501.117188 262.527344 501.105469 262.734375 501.296875 C 262.855469 501.402344 262.96875 501.511719 263.070312 501.632812 C 263.125 501.777344 263.152344 501.921875 263.152344 502.074219 C 263.199219 502.667969 262.660156 503.046875 262.230469 503.335938 C 262.121094 503.410156 262.003906 503.453125 261.871094 503.460938 Z M 264.933594 507.964844 C 265.007812 507.703125 265.101562 507.449219 265.210938 507.203125 C 265.105469 507.296875 265.019531 507.402344 264.949219 507.527344 L 264.726562 507.867188 C 264.609375 507.523438 264.550781 507.167969 264.550781 506.800781 C 264.601562 506.269531 264.746094 505.585938 265.347656 505.488281 C 265.679688 505.554688 265.949219 505.722656 266.152344 505.992188 C 266.355469 506.261719 266.441406 506.566406 266.417969 506.902344 C 266.246094 507.597656 265.507812 507.816406 264.933594 507.964844 Z M 262.90625 517.566406 L 263.003906 517.421875 C 263.121094 517.253906 263.21875 517.078125 263.300781 516.890625 L 262.769531 517.390625 C 262.761719 517.339844 262.761719 517.289062 262.769531 517.234375 C 262.769531 517.007812 262.796875 516.785156 262.847656 516.5625 C 263.027344 516.03125 263.601562 515.496094 264.164062 515.828125 C 264.21875 515.988281 264.378906 516.132812 264.394531 516.285156 C 264.449219 516.511719 264.4375 516.738281 264.363281 516.957031 C 264.1875 517.296875 263.910156 517.496094 263.535156 517.5625 C 263.339844 517.566406 263.085938 517.671875 262.90625 517.566406 Z M 263.753906 521.621094 C 263.980469 521.5625 264.203125 521.503906 264.433594 521.464844 C 264.234375 521.410156 264.035156 521.394531 263.828125 521.414062 L 263.796875 521.414062 C 263.816406 521.152344 263.941406 520.964844 264.171875 520.847656 C 264.296875 520.847656 264.507812 520.847656 264.550781 520.96875 C 264.570312 521.011719 264.589844 521.054688 264.609375 521.097656 C 264.652344 521.285156 264.714844 521.515625 264.570312 521.667969 C 264.519531 521.734375 264.460938 521.78125 264.386719 521.816406 C 264.3125 521.847656 264.234375 521.863281 264.152344 521.855469 C 264.074219 521.851562 263.996094 521.828125 263.929688 521.785156 C 263.859375 521.742188 263.804688 521.683594 263.765625 521.613281 Z M 218.246094 507.058594 C 218 507.519531 217.683594 507.929688 217.300781 508.285156 C 217.726562 508.1875 218.105469 508 218.4375 507.71875 C 218.28125 508.273438 217.96875 508.71875 217.496094 509.046875 C 217.386719 509.121094 217.269531 509.164062 217.140625 509.1875 C 217.011719 509.207031 216.882812 509.199219 216.757812 509.164062 C 216.632812 509.128906 216.519531 509.066406 216.417969 508.984375 C 216.320312 508.898438 216.242188 508.796875 216.183594 508.679688 C 216.203125 507.605469 217.621094 507.691406 218.253906 507.050781 Z M 214.023438 502.128906 L 213.832031 502.097656 C 213.535156 502 213.234375 501.90625 212.9375 501.796875 C 212.910156 501.796875 212.894531 501.832031 212.9375 501.847656 C 213.277344 502.089844 213.632812 502.304688 214.003906 502.496094 C 213.734375 502.566406 213.464844 502.621094 213.1875 502.652344 C 212.542969 502.8125 211.585938 502.722656 211.261719 502.082031 C 211.222656 501.851562 211.253906 501.628906 211.359375 501.417969 C 211.460938 501.210938 211.617188 501.050781 211.828125 500.945312 C 212.933594 500.386719 213.539062 501.25 214.035156 502.125 Z M 206.601562 493.027344 C 206.003906 493.28125 205.386719 493.339844 204.75 493.210938 L 204.71875 493.210938 C 205.269531 493.5 205.855469 493.605469 206.472656 493.53125 C 206.34375 493.625 206.207031 493.710938 206.0625 493.785156 C 205.527344 494.035156 204.902344 494.320312 204.34375 494.011719 C 204.125 493.875 203.945312 493.695312 203.808594 493.476562 C 203.75 493.304688 203.730469 493.125 203.761719 492.945312 C 204.082031 491.824219 205.289062 491.652344 206.121094 492.351562 C 206.296875 492.554688 206.425781 492.804688 206.601562 493.027344 Z M 204.722656 488.5 C 204.246094 488.453125 203.773438 488.410156 203.296875 488.351562 C 203.296875 488.351562 203.335938 488.351562 203.324219 488.351562 C 203.28125 488.351562 203.234375 488.351562 203.203125 488.351562 C 203.171875 488.351562 203.265625 488.414062 203.292969 488.425781 C 203.640625 488.574219 203.996094 488.703125 204.359375 488.816406 C 204.003906 488.941406 203.609375 489.117188 203.238281 489.210938 C 202.609375 489.152344 201.816406 489.210938 201.484375 488.554688 C 201.105469 487.8125 202.457031 486.878906 203.132812 487.007812 C 203.472656 487.082031 203.667969 487.367188 203.929688 487.585938 C 204.253906 487.832031 204.519531 488.132812 204.722656 488.484375 Z M 210.703125 485.347656 C 210.292969 485.347656 209.882812 485.382812 209.480469 485.453125 C 209.308594 485.464844 209.140625 485.453125 208.972656 485.421875 C 209.292969 485.585938 209.628906 485.667969 209.988281 485.667969 C 210.15625 485.667969 210.324219 485.699219 210.488281 485.722656 L 210.398438 485.757812 C 210.101562 485.898438 209.796875 486 209.476562 486.0625 C 209.210938 486.183594 208.933594 486.246094 208.644531 486.253906 C 208.167969 486.199219 207.363281 485.804688 207.464844 485.230469 C 207.480469 485.0625 207.53125 484.90625 207.613281 484.761719 C 207.992188 484.390625 208.445312 484.230469 208.972656 484.28125 C 209.6875 484.351562 210.167969 484.898438 210.703125 485.332031 Z M 209.636719 478.835938 C 209.253906 478.785156 208.875 478.714844 208.5 478.625 C 208.285156 478.578125 208.0625 478.546875 207.847656 478.519531 C 208.242188 478.789062 208.652344 479.03125 209.082031 479.238281 C 208.199219 479.671875 206.945312 479.886719 206.503906 478.800781 C 206.441406 478.65625 206.394531 478.507812 206.359375 478.355469 C 206.410156 478.152344 206.507812 477.972656 206.648438 477.820312 C 207.90625 476.84375 208.882812 477.410156 209.570312 478.675781 C 209.601562 478.726562 209.628906 478.785156 209.644531 478.84375 Z M 209.402344 475.210938 L 209.246094 475.117188 C 209.105469 475.019531 208.984375 474.800781 208.820312 474.96875 C 208.652344 475.132812 208.953125 475.34375 209.066406 475.5 C 209.066406 475.5 209.066406 475.5 209.066406 475.539062 C 208.195312 475.308594 206.957031 474.640625 207.464844 473.621094 C 207.578125 473.429688 207.875 473.398438 208.082031 473.371094 C 208.46875 473.390625 208.777344 473.554688 209.007812 473.867188 C 209.277344 474.269531 209.410156 474.710938 209.40625 475.195312 Z M 215.203125 474.59375 C 215.058594 474.375 214.910156 474.160156 214.777344 473.941406 C 214.753906 473.921875 214.726562 473.90625 214.699219 473.894531 C 214.660156 473.867188 214.699219 473.933594 214.734375 473.941406 C 214.773438 473.953125 214.734375 474.035156 214.765625 474.082031 C 214.820312 474.226562 214.878906 474.375 214.933594 474.523438 L 214.648438 474.445312 C 214.511719 474.441406 214.382812 474.40625 214.265625 474.335938 C 214.101562 474.222656 213.960938 474.085938 213.832031 473.933594 C 213.648438 473.511719 213.476562 472.925781 213.929688 472.613281 C 214.046875 472.53125 214.175781 472.503906 214.320312 472.535156 C 214.503906 472.5625 214.714844 472.535156 214.851562 472.679688 C 214.992188 472.785156 215.109375 472.917969 215.203125 473.070312 C 215.296875 473.21875 215.363281 473.382812 215.394531 473.558594 C 215.425781 473.734375 215.429688 473.910156 215.394531 474.085938 C 215.363281 474.261719 215.300781 474.425781 215.210938 474.578125 Z M 218.335938 476.023438 C 218.496094 475.722656 218.609375 475.402344 218.671875 475.066406 C 218.507812 475.328125 218.328125 475.582031 218.136719 475.824219 C 218.003906 475.367188 218.0625 474.933594 218.308594 474.523438 C 218.382812 474.390625 218.488281 474.292969 218.628906 474.230469 C 218.765625 474.164062 218.910156 474.148438 219.0625 474.175781 C 219.253906 474.25 219.398438 474.375 219.5 474.554688 C 219.601562 474.734375 219.632812 474.925781 219.59375 475.128906 C 219.503906 475.332031 219.386719 475.523438 219.242188 475.699219 C 219.101562 475.8125 218.945312 475.898438 218.773438 475.953125 C 218.632812 475.992188 218.488281 476.011719 218.339844 476.007812 Z M 209.921875 466.292969 C 209.511719 466.402344 209.128906 466.578125 208.78125 466.828125 C 209.140625 466.828125 209.5 466.828125 209.847656 466.828125 C 209.664062 467.214844 209.375 467.503906 208.988281 467.691406 C 208.550781 467.886719 207.6875 467.691406 207.714844 467.121094 C 207.890625 466.667969 208.171875 466.101562 208.691406 465.988281 C 209.132812 465.964844 209.542969 466.066406 209.921875 466.292969 Z M 209.46875 463.984375 C 209.085938 463.871094 208.710938 463.753906 208.339844 463.675781 C 208.269531 463.777344 208.484375 463.824219 208.535156 463.882812 C 208.753906 464.011719 208.984375 464.132812 209.21875 464.246094 C 208.519531 464.539062 207.835938 464.507812 207.164062 464.160156 C 206.96875 463.976562 206.585938 463.894531 206.550781 463.589844 C 206.601562 462.867188 207.617188 461.855469 208.328125 462.390625 C 208.851562 462.785156 209.5 463.289062 209.46875 463.984375 Z M 198.269531 457.976562 C 198.59375 457.242188 199.992188 457.445312 200.699219 457.789062 C 200.328125 458.019531 199.9375 458.222656 199.542969 458.414062 C 199.703125 458.425781 199.867188 458.425781 200.027344 458.414062 C 200.328125 458.414062 200.621094 458.367188 200.910156 458.28125 C 200.875 458.457031 200.820312 458.625 200.75 458.789062 C 200.617188 459.035156 200.453125 459.257812 200.253906 459.453125 C 200.066406 459.730469 199.8125 459.921875 199.496094 460.019531 C 199.175781 460.121094 198.863281 460.109375 198.550781 459.988281 C 198.335938 459.832031 198.171875 459.632812 198.066406 459.390625 C 197.9375 458.894531 198 458.421875 198.253906 457.976562 Z M 198.269531 457.976562 " fill-opacity="1" fill-rule="nonzero"/></g><g fill="#0a3757" fill-opacity="1"><g transform="translate(259.940838, 158.157978)"><g><path d="M -0.328125 -3.40625 C -0.859375 -3.320312 -1.191406 -3.597656 -1.328125 -4.234375 C -1.421875 -4.804688 -1.394531 -5.4375 -1.25 -6.125 C -1.113281 -6.820312 -0.898438 -7.5 -0.609375 -8.15625 C -0.328125 -8.820312 -0.0195312 -9.390625 0.3125 -9.859375 C 0.394531 -9.992188 0.566406 -10.191406 0.828125 -10.453125 C 1.191406 -10.859375 1.597656 -11.097656 2.046875 -11.171875 C 2.441406 -11.234375 2.859375 -11.132812 3.296875 -10.875 C 3.523438 -10.78125 3.648438 -10.734375 3.671875 -10.734375 C 3.753906 -10.753906 3.859375 -10.878906 3.984375 -11.109375 C 4.085938 -11.265625 4.1875 -11.425781 4.28125 -11.59375 C 4.382812 -11.769531 4.472656 -11.945312 4.546875 -12.125 C 4.628906 -12.300781 4.71875 -12.476562 4.8125 -12.65625 C 4.90625 -12.832031 4.992188 -13.007812 5.078125 -13.1875 C 5.117188 -13.25 5.160156 -13.316406 5.203125 -13.390625 C 5.242188 -13.472656 5.28125 -13.5625 5.3125 -13.65625 C 5.363281 -13.71875 5.398438 -13.789062 5.421875 -13.875 C 5.453125 -13.957031 5.492188 -14.03125 5.546875 -14.09375 C 5.691406 -14.300781 5.832031 -14.414062 5.96875 -14.4375 C 5.96875 -14.4375 6.054688 -14.425781 6.234375 -14.40625 C 6.503906 -14.289062 6.601562 -14.035156 6.53125 -13.640625 C 6.519531 -13.535156 6.5 -13.441406 6.46875 -13.359375 C 6.445312 -13.273438 6.421875 -13.1875 6.390625 -13.09375 C 6.304688 -12.894531 6.238281 -12.695312 6.1875 -12.5 C 6.03125 -11.96875 5.851562 -11.3125 5.65625 -10.53125 C 5.457031 -9.75 5.300781 -8.960938 5.1875 -8.171875 C 5.082031 -7.390625 5.078125 -6.710938 5.171875 -6.140625 C 5.203125 -5.898438 5.296875 -5.789062 5.453125 -5.8125 C 5.535156 -5.832031 5.585938 -5.851562 5.609375 -5.875 C 5.785156 -5.988281 5.953125 -6.097656 6.109375 -6.203125 C 6.265625 -6.304688 6.425781 -6.425781 6.59375 -6.5625 C 6.8125 -6.757812 7.023438 -6.960938 7.234375 -7.171875 C 7.453125 -7.378906 7.664062 -7.601562 7.875 -7.84375 C 8.039062 -8.007812 8.191406 -8.179688 8.328125 -8.359375 C 8.460938 -8.546875 8.597656 -8.710938 8.734375 -8.859375 C 8.972656 -9.191406 9.242188 -9.519531 9.546875 -9.84375 C 9.585938 -9.90625 9.632812 -9.960938 9.6875 -10.015625 C 9.75 -10.078125 9.800781 -10.140625 9.84375 -10.203125 C 9.882812 -10.265625 9.984375 -10.363281 10.140625 -10.5 C 10.179688 -10.53125 10.210938 -10.554688 10.234375 -10.578125 C 10.265625 -10.597656 10.289062 -10.609375 10.3125 -10.609375 C 10.425781 -10.628906 10.523438 -10.601562 10.609375 -10.53125 C 10.804688 -10.457031 10.890625 -10.269531 10.859375 -9.96875 C 10.847656 -9.9375 10.84375 -9.914062 10.84375 -9.90625 C 10.84375 -9.894531 10.828125 -9.875 10.796875 -9.84375 C 10.785156 -9.8125 10.769531 -9.78125 10.75 -9.75 C 10.726562 -9.71875 10.703125 -9.6875 10.671875 -9.65625 C 10.347656 -9.226562 9.894531 -8.648438 9.3125 -7.921875 C 8.738281 -7.203125 8.128906 -6.535156 7.484375 -5.921875 C 6.835938 -5.304688 6.25 -4.90625 5.71875 -4.71875 C 5.664062 -4.6875 5.546875 -4.660156 5.359375 -4.640625 C 4.703125 -4.535156 4.3125 -4.863281 4.1875 -5.625 C 4.113281 -6.15625 4.085938 -6.6875 4.109375 -7.21875 C 4.140625 -7.757812 4.175781 -8.304688 4.21875 -8.859375 C 3.945312 -8.671875 3.769531 -8.503906 3.6875 -8.359375 C 3.644531 -8.273438 3.585938 -8.1875 3.515625 -8.09375 C 3.453125 -8 3.398438 -7.921875 3.359375 -7.859375 C 2.992188 -7.265625 2.628906 -6.691406 2.265625 -6.140625 C 1.898438 -5.585938 1.5 -5.046875 1.0625 -4.515625 C 0.90625 -4.335938 0.695312 -4.117188 0.4375 -3.859375 C 0.1875 -3.597656 -0.0664062 -3.445312 -0.328125 -3.40625 Z M -0.1875 -4.890625 C -0.0390625 -4.910156 0.0664062 -4.96875 0.140625 -5.0625 C 0.691406 -5.695312 1.191406 -6.367188 1.640625 -7.078125 C 2.085938 -7.785156 2.523438 -8.507812 2.953125 -9.25 C 2.984375 -9.269531 3.007812 -9.296875 3.03125 -9.328125 C 3.050781 -9.367188 3.066406 -9.421875 3.078125 -9.484375 C 3.109375 -9.753906 3.03125 -9.925781 2.84375 -10 C 2.613281 -10.101562 2.414062 -10.140625 2.25 -10.109375 C 2.125 -10.097656 1.96875 -10.023438 1.78125 -9.890625 C 1.601562 -9.753906 1.46875 -9.625 1.375 -9.5 C 0.300781 -8.21875 -0.25 -6.703125 -0.28125 -4.953125 L -0.25 -4.921875 C -0.21875 -4.929688 -0.195312 -4.921875 -0.1875 -4.890625 Z M -0.1875 -4.890625 "/></g></g></g><g fill="#0a3757" fill-opacity="1"><g transform="translate(270.137005, 156.560746)"><g><path d="M -0.265625 -0.375 C -0.566406 -0.320312 -0.769531 -0.472656 -0.875 -0.828125 C -0.925781 -0.898438 -0.972656 -1.066406 -1.015625 -1.328125 C -1.035156 -2.023438 -1.007812 -2.71875 -0.9375 -3.40625 C -0.863281 -4.09375 -0.765625 -4.78125 -0.640625 -5.46875 C -0.535156 -5.988281 -0.429688 -6.503906 -0.328125 -7.015625 C -0.234375 -7.535156 -0.128906 -8.054688 -0.015625 -8.578125 C 0.0859375 -9.117188 0.191406 -9.644531 0.296875 -10.15625 C 0.410156 -10.664062 0.519531 -11.179688 0.625 -11.703125 C 0.726562 -11.910156 0.832031 -12.21875 0.9375 -12.625 C 1.050781 -13.03125 1.210938 -13.25 1.421875 -13.28125 C 1.421875 -13.28125 1.503906 -13.269531 1.671875 -13.25 C 1.960938 -13.132812 2.066406 -12.925781 1.984375 -12.625 L 1.8125 -12.09375 C 1.707031 -11.582031 1.597656 -11.0625 1.484375 -10.53125 C 1.367188 -10 1.253906 -9.460938 1.140625 -8.921875 C 1.035156 -8.398438 0.925781 -7.863281 0.8125 -7.3125 C 0.695312 -6.769531 0.570312 -6.238281 0.4375 -5.71875 C 0.425781 -5.613281 0.410156 -5.492188 0.390625 -5.359375 C 0.367188 -5.234375 0.34375 -5.101562 0.3125 -4.96875 C 0.238281 -4.738281 0.285156 -4.492188 0.453125 -4.234375 C 0.566406 -4.585938 0.78125 -5.113281 1.09375 -5.8125 C 1.414062 -6.507812 1.785156 -7.238281 2.203125 -8 C 2.628906 -8.769531 3.066406 -9.429688 3.515625 -9.984375 C 3.960938 -10.546875 4.382812 -10.859375 4.78125 -10.921875 C 5.226562 -10.984375 5.546875 -10.835938 5.734375 -10.484375 C 5.921875 -10.140625 6.070312 -9.804688 6.1875 -9.484375 C 6.238281 -9.296875 6.28125 -9.125 6.3125 -8.96875 C 6.351562 -8.820312 6.398438 -8.664062 6.453125 -8.5 C 6.472656 -8.34375 6.503906 -8.1875 6.546875 -8.03125 C 6.585938 -7.882812 6.628906 -7.734375 6.671875 -7.578125 C 6.773438 -7.140625 6.957031 -6.75 7.21875 -6.40625 C 7.332031 -6.21875 7.503906 -6.140625 7.734375 -6.171875 C 7.785156 -6.179688 7.820312 -6.195312 7.84375 -6.21875 C 7.84375 -6.21875 7.847656 -6.21875 7.859375 -6.21875 C 7.878906 -6.226562 7.90625 -6.234375 7.9375 -6.234375 C 8.164062 -6.359375 8.367188 -6.507812 8.546875 -6.6875 C 8.734375 -6.863281 8.921875 -7.0625 9.109375 -7.28125 C 9.265625 -7.457031 9.410156 -7.640625 9.546875 -7.828125 C 9.679688 -8.015625 9.820312 -8.210938 9.96875 -8.421875 C 10.101562 -8.609375 10.242188 -8.789062 10.390625 -8.96875 C 10.535156 -9.144531 10.6875 -9.332031 10.84375 -9.53125 C 11.03125 -9.75 11.1875 -9.929688 11.3125 -10.078125 C 11.4375 -10.234375 11.519531 -10.335938 11.5625 -10.390625 C 11.601562 -10.453125 11.644531 -10.507812 11.6875 -10.5625 C 11.738281 -10.625 11.773438 -10.675781 11.796875 -10.71875 C 11.859375 -10.8125 11.945312 -10.867188 12.0625 -10.890625 C 12.15625 -10.898438 12.242188 -10.867188 12.328125 -10.796875 C 12.546875 -10.671875 12.632812 -10.5 12.59375 -10.28125 C 12.539062 -10.0625 12.445312 -9.859375 12.3125 -9.671875 C 12.226562 -9.546875 12.054688 -9.320312 11.796875 -9 C 11.535156 -8.6875 11.253906 -8.335938 10.953125 -7.953125 C 10.648438 -7.566406 10.367188 -7.21875 10.109375 -6.90625 C 9.847656 -6.59375 9.671875 -6.375 9.578125 -6.25 C 9.179688 -5.738281 8.703125 -5.382812 8.140625 -5.1875 C 8.117188 -5.175781 8.09375 -5.164062 8.0625 -5.15625 C 8.03125 -5.15625 8.003906 -5.15625 7.984375 -5.15625 C 7.929688 -5.125 7.863281 -5.101562 7.78125 -5.09375 C 7.257812 -5.007812 6.800781 -5.210938 6.40625 -5.703125 C 6.101562 -6.128906 5.882812 -6.597656 5.75 -7.109375 C 5.6875 -7.316406 5.628906 -7.515625 5.578125 -7.703125 C 5.535156 -7.898438 5.488281 -8.085938 5.4375 -8.265625 C 5.382812 -8.441406 5.328125 -8.628906 5.265625 -8.828125 C 5.210938 -9.023438 5.160156 -9.207031 5.109375 -9.375 C 5.023438 -9.59375 4.914062 -9.691406 4.78125 -9.671875 C 4.675781 -9.648438 4.585938 -9.59375 4.515625 -9.5 C 3.648438 -8.414062 2.914062 -7.234375 2.3125 -5.953125 C 1.71875 -4.679688 1.210938 -3.382812 0.796875 -2.0625 C 0.765625 -1.945312 0.722656 -1.820312 0.671875 -1.6875 C 0.628906 -1.5625 0.585938 -1.429688 0.546875 -1.296875 C 0.515625 -1.160156 0.460938 -1.03125 0.390625 -0.90625 C 0.328125 -0.78125 0.238281 -0.660156 0.125 -0.546875 C 0.03125 -0.453125 -0.0976562 -0.394531 -0.265625 -0.375 Z M -0.265625 -0.375 "/></g></g></g><g fill="#0a3757" fill-opacity="1"><g transform="translate(282.065337, 154.69217)"><g><path d="M -1.65625 2 C -1.6875 2.007812 -1.785156 2 -1.953125 1.96875 C -2.117188 1.875 -2.195312 1.722656 -2.1875 1.515625 C -2.15625 1.347656 -2.125 1.203125 -2.09375 1.078125 C -2.039062 1.015625 -1.992188 0.953125 -1.953125 0.890625 C -1.910156 0.828125 -1.867188 0.765625 -1.828125 0.703125 L 1.140625 -3.890625 C 1.285156 -4.097656 1.488281 -4.425781 1.75 -4.875 C 2.019531 -5.320312 2.164062 -5.640625 2.1875 -5.828125 C 2.1875 -6.046875 2.09375 -6.242188 1.90625 -6.421875 C 1.800781 -6.515625 1.703125 -6.601562 1.609375 -6.6875 C 1.523438 -6.769531 1.445312 -6.859375 1.375 -6.953125 C 1.226562 -7.140625 1.085938 -7.320312 0.953125 -7.5 C 0.816406 -7.6875 0.6875 -7.863281 0.5625 -8.03125 C 0.425781 -8.226562 0.296875 -8.421875 0.171875 -8.609375 C 0.046875 -8.804688 -0.0546875 -9.007812 -0.140625 -9.21875 C -0.265625 -9.457031 -0.328125 -9.660156 -0.328125 -9.828125 C -0.335938 -9.929688 -0.25 -10.066406 -0.0625 -10.234375 C -0.0507812 -10.253906 -0.015625 -10.269531 0.046875 -10.28125 C 0.203125 -10.3125 0.3125 -10.265625 0.375 -10.140625 C 0.570312 -9.910156 0.742188 -9.671875 0.890625 -9.421875 C 0.960938 -9.347656 1.125 -9.109375 1.375 -8.703125 C 1.625 -8.304688 1.898438 -7.921875 2.203125 -7.546875 C 2.503906 -7.179688 2.734375 -7.007812 2.890625 -7.03125 C 2.972656 -7.039062 3.070312 -7.117188 3.1875 -7.265625 C 3.332031 -7.484375 3.46875 -7.703125 3.59375 -7.921875 C 3.71875 -8.148438 3.859375 -8.363281 4.015625 -8.5625 C 4.140625 -8.8125 4.265625 -9.046875 4.390625 -9.265625 C 4.515625 -9.484375 4.65625 -9.695312 4.8125 -9.90625 C 4.863281 -9.96875 4.921875 -10.039062 4.984375 -10.125 C 5.046875 -10.21875 5.097656 -10.3125 5.140625 -10.40625 C 5.253906 -10.5625 5.394531 -10.6875 5.5625 -10.78125 C 5.613281 -10.789062 5.65625 -10.8125 5.6875 -10.84375 C 5.707031 -10.851562 5.71875 -10.859375 5.71875 -10.859375 C 5.71875 -10.859375 5.734375 -10.859375 5.765625 -10.859375 C 5.867188 -10.878906 5.96875 -10.859375 6.0625 -10.796875 C 6.207031 -10.679688 6.253906 -10.53125 6.203125 -10.34375 C 6.140625 -10.207031 6.078125 -10.085938 6.015625 -9.984375 C 5.953125 -9.890625 5.875 -9.773438 5.78125 -9.640625 C 5.519531 -9.117188 5.210938 -8.601562 4.859375 -8.09375 C 4.722656 -7.832031 4.570312 -7.566406 4.40625 -7.296875 C 4.25 -7.023438 4.09375 -6.765625 3.9375 -6.515625 C 3.800781 -6.296875 3.742188 -6.132812 3.765625 -6.03125 C 3.773438 -5.925781 3.878906 -5.785156 4.078125 -5.609375 C 4.304688 -5.390625 4.53125 -5.179688 4.75 -4.984375 C 4.96875 -4.796875 5.21875 -4.632812 5.5 -4.5 C 5.707031 -4.394531 5.910156 -4.3125 6.109375 -4.25 C 6.304688 -4.1875 6.519531 -4.175781 6.75 -4.21875 C 6.9375 -4.238281 7.101562 -4.289062 7.25 -4.375 C 7.40625 -4.46875 7.539062 -4.578125 7.65625 -4.703125 C 8.082031 -5.035156 8.5 -5.53125 8.90625 -6.1875 C 9.300781 -6.789062 9.671875 -7.398438 10.015625 -8.015625 C 10.367188 -8.640625 10.707031 -9.273438 11.03125 -9.921875 C 11.113281 -10.066406 11.191406 -10.195312 11.265625 -10.3125 C 11.347656 -10.4375 11.429688 -10.554688 11.515625 -10.671875 C 11.554688 -10.765625 11.617188 -10.816406 11.703125 -10.828125 C 11.804688 -10.847656 11.898438 -10.820312 11.984375 -10.75 C 12.191406 -10.613281 12.28125 -10.484375 12.25 -10.359375 C 12.226562 -10.296875 12.210938 -10.222656 12.203125 -10.140625 C 12.203125 -10.066406 12.175781 -9.96875 12.125 -9.84375 C 11.71875 -8.976562 11.285156 -8.128906 10.828125 -7.296875 C 10.367188 -6.472656 9.847656 -5.664062 9.265625 -4.875 C 8.953125 -4.507812 8.609375 -4.15625 8.234375 -3.8125 C 7.859375 -3.46875 7.40625 -3.253906 6.875 -3.171875 C 6.269531 -3.078125 5.648438 -3.191406 5.015625 -3.515625 C 4.710938 -3.691406 4.441406 -3.878906 4.203125 -4.078125 C 3.960938 -4.285156 3.710938 -4.503906 3.453125 -4.734375 C 3.328125 -4.816406 3.210938 -4.851562 3.109375 -4.84375 C 3.023438 -4.832031 2.925781 -4.753906 2.8125 -4.609375 C 2.300781 -3.816406 1.785156 -3.015625 1.265625 -2.203125 C 0.753906 -1.398438 0.238281 -0.597656 -0.28125 0.203125 C -0.351562 0.316406 -0.476562 0.515625 -0.65625 0.796875 C -0.832031 1.085938 -1.019531 1.359375 -1.21875 1.609375 C -1.414062 1.859375 -1.5625 1.988281 -1.65625 2 Z M -1.65625 2 "/></g></g></g><g fill="#0a3757" fill-opacity="1"><g transform="translate(293.639368, 152.879095)"><g><path d="M 1.484375 -1.6875 C 0.742188 -1.570312 0.164062 -1.875 -0.25 -2.59375 C -0.351562 -2.78125 -0.429688 -2.984375 -0.484375 -3.203125 C -0.535156 -3.429688 -0.582031 -3.691406 -0.625 -3.984375 C -0.613281 -4.578125 -0.601562 -5.28125 -0.59375 -6.09375 C -0.582031 -6.914062 -0.519531 -7.703125 -0.40625 -8.453125 C -0.300781 -9.210938 -0.109375 -9.789062 0.171875 -10.1875 C 0.285156 -10.28125 0.382812 -10.335938 0.46875 -10.359375 C 0.488281 -10.359375 0.582031 -10.34375 0.75 -10.3125 C 0.945312 -10.269531 1.039062 -10.140625 1.03125 -9.921875 C 0.820312 -9.003906 0.660156 -8.046875 0.546875 -7.046875 C 0.429688 -6.046875 0.378906 -5.078125 0.390625 -4.140625 C 0.410156 -3.847656 0.488281 -3.507812 0.625 -3.125 C 0.726562 -2.925781 0.847656 -2.8125 0.984375 -2.78125 C 1.117188 -2.75 1.289062 -2.75 1.5 -2.78125 C 1.769531 -2.875 2.015625 -3.003906 2.234375 -3.171875 C 2.453125 -3.335938 2.664062 -3.53125 2.875 -3.75 C 3.332031 -4.28125 3.769531 -4.816406 4.1875 -5.359375 C 4.601562 -5.910156 4.988281 -6.484375 5.34375 -7.078125 C 5.46875 -7.285156 5.597656 -7.492188 5.734375 -7.703125 C 5.867188 -7.921875 5.984375 -8.128906 6.078125 -8.328125 C 6.171875 -8.535156 6.285156 -8.742188 6.421875 -8.953125 C 6.554688 -9.160156 6.6875 -9.367188 6.8125 -9.578125 C 6.875 -9.679688 6.941406 -9.78125 7.015625 -9.875 C 7.097656 -9.976562 7.1875 -10.078125 7.28125 -10.171875 C 7.320312 -10.234375 7.382812 -10.269531 7.46875 -10.28125 C 7.570312 -10.289062 7.671875 -10.269531 7.765625 -10.21875 C 7.941406 -10.125 8.019531 -9.972656 8 -9.765625 C 7.988281 -9.609375 7.929688 -9.453125 7.828125 -9.296875 C 7.285156 -8.285156 6.71875 -7.304688 6.125 -6.359375 C 5.53125 -5.410156 4.859375 -4.503906 4.109375 -3.640625 C 3.796875 -3.234375 3.410156 -2.828125 2.953125 -2.421875 C 2.492188 -2.015625 2.003906 -1.769531 1.484375 -1.6875 Z M 0.921875 -11.875 C 0.535156 -11.757812 0.273438 -11.976562 0.140625 -12.53125 C 0.0664062 -13 0.269531 -13.269531 0.75 -13.34375 C 1.238281 -13.414062 1.53125 -13.25 1.625 -12.84375 C 1.65625 -12.632812 1.597656 -12.425781 1.453125 -12.21875 C 1.304688 -12.019531 1.128906 -11.90625 0.921875 -11.875 Z M 0.921875 -11.875 "/></g></g></g><g fill="#0a3757" fill-opacity="1"><g transform="translate(300.961716, 151.732048)"><g><path d="M 1.59375 -1.953125 C 0.507812 -1.773438 -0.234375 -2.148438 -0.640625 -3.078125 C -0.753906 -3.273438 -0.851562 -3.488281 -0.9375 -3.71875 C -1.03125 -3.957031 -1.085938 -4.179688 -1.109375 -4.390625 C -1.179688 -4.722656 -1.203125 -5.035156 -1.171875 -5.328125 C -1.148438 -5.628906 -1.128906 -5.929688 -1.109375 -6.234375 C -0.960938 -6.898438 -0.742188 -7.628906 -0.453125 -8.421875 C -0.160156 -9.210938 0.222656 -9.925781 0.703125 -10.5625 C 1.191406 -11.195312 1.765625 -11.617188 2.421875 -11.828125 C 2.503906 -11.835938 2.554688 -11.859375 2.578125 -11.890625 C 2.597656 -11.898438 2.617188 -11.90625 2.640625 -11.90625 C 2.671875 -11.914062 2.695312 -11.921875 2.71875 -11.921875 C 3.113281 -11.984375 3.441406 -11.898438 3.703125 -11.671875 C 3.972656 -11.453125 4.117188 -11.109375 4.140625 -10.640625 C 4.140625 -9.992188 3.9375 -9.296875 3.53125 -8.546875 C 3.125 -7.804688 2.613281 -7.148438 2 -6.578125 C 1.382812 -6.015625 0.769531 -5.644531 0.15625 -5.46875 C -0.0195312 -5.382812 -0.113281 -5.25 -0.125 -5.0625 C -0.144531 -4.632812 -0.03125 -4.179688 0.21875 -3.703125 C 0.375 -3.273438 0.566406 -3.035156 0.796875 -2.984375 C 1.035156 -2.941406 1.335938 -2.945312 1.703125 -3 C 2.460938 -3.289062 3.210938 -3.765625 3.953125 -4.421875 C 4.703125 -5.085938 5.328125 -5.734375 5.828125 -6.359375 C 6.035156 -6.609375 6.234375 -6.867188 6.421875 -7.140625 C 6.617188 -7.410156 6.820312 -7.671875 7.03125 -7.921875 C 7.195312 -8.160156 7.378906 -8.410156 7.578125 -8.671875 C 7.785156 -8.929688 7.992188 -9.1875 8.203125 -9.4375 C 8.253906 -9.488281 8.3125 -9.554688 8.375 -9.640625 C 8.4375 -9.722656 8.492188 -9.796875 8.546875 -9.859375 C 8.585938 -9.910156 8.632812 -9.972656 8.6875 -10.046875 C 8.738281 -10.117188 8.785156 -10.1875 8.828125 -10.25 C 8.953125 -10.351562 9.054688 -10.410156 9.140625 -10.421875 C 9.242188 -10.441406 9.34375 -10.414062 9.4375 -10.34375 C 9.664062 -10.1875 9.726562 -10 9.625 -9.78125 C 9.625 -9.695312 9.546875 -9.546875 9.390625 -9.328125 C 8.992188 -8.765625 8.492188 -8.082031 7.890625 -7.28125 C 7.285156 -6.488281 6.625 -5.707031 5.90625 -4.9375 C 5.195312 -4.164062 4.46875 -3.5 3.71875 -2.9375 C 2.976562 -2.382812 2.269531 -2.054688 1.59375 -1.953125 Z M 0.484375 -6.734375 C 0.785156 -6.972656 1.148438 -7.3125 1.578125 -7.75 C 2.003906 -8.195312 2.375 -8.664062 2.6875 -9.15625 C 3 -9.644531 3.125 -10.097656 3.0625 -10.515625 C 3 -10.773438 2.867188 -10.863281 2.671875 -10.78125 C 2.253906 -10.65625 1.863281 -10.363281 1.5 -9.90625 C 1.144531 -9.457031 0.847656 -8.957031 0.609375 -8.40625 C 0.378906 -7.851562 0.222656 -7.359375 0.140625 -6.921875 C 0.160156 -6.785156 0.195312 -6.722656 0.25 -6.734375 C 0.375 -6.703125 0.453125 -6.703125 0.484375 -6.734375 Z M 0.484375 -6.734375 "/></g></g></g><g fill="#0a3757" fill-opacity="1"><g transform="translate(309.937493, 150.32599)"><g><path d="M 1.140625 2.6875 C 0.640625 2.757812 0.257812 2.535156 0 2.015625 C -0.257812 1.492188 -0.421875 1.015625 -0.484375 0.578125 C -0.679688 -0.691406 -0.738281 -2.117188 -0.65625 -3.703125 C -0.570312 -5.285156 -0.414062 -6.863281 -0.1875 -8.4375 C 0.03125 -10.007812 0.253906 -11.414062 0.484375 -12.65625 C 0.546875 -13.039062 0.609375 -13.40625 0.671875 -13.75 C 0.742188 -14.101562 0.820312 -14.460938 0.90625 -14.828125 C 0.957031 -15.117188 0.957031 -15.320312 0.90625 -15.4375 C 0.851562 -15.550781 0.707031 -15.585938 0.46875 -15.546875 L 0.140625 -15.5 C -0.109375 -15.4375 -0.359375 -15.367188 -0.609375 -15.296875 C -0.867188 -15.234375 -1.128906 -15.148438 -1.390625 -15.046875 C -1.640625 -14.992188 -1.898438 -14.921875 -2.171875 -14.828125 C -2.453125 -14.742188 -2.71875 -14.675781 -2.96875 -14.625 C -3.125 -14.570312 -3.285156 -14.519531 -3.453125 -14.46875 C -3.617188 -14.414062 -3.78125 -14.375 -3.9375 -14.34375 C -4.144531 -14.3125 -4.289062 -14.304688 -4.375 -14.328125 C -4.507812 -14.328125 -4.613281 -14.382812 -4.6875 -14.5 C -4.78125 -14.757812 -4.738281 -14.914062 -4.5625 -14.96875 C -4.457031 -15.019531 -4.367188 -15.0625 -4.296875 -15.09375 C -4.234375 -15.132812 -4.160156 -15.171875 -4.078125 -15.203125 C -3.984375 -15.253906 -3.890625 -15.289062 -3.796875 -15.3125 C -3.703125 -15.34375 -3.601562 -15.378906 -3.5 -15.421875 C -3.144531 -15.535156 -2.789062 -15.644531 -2.4375 -15.75 C -2.09375 -15.863281 -1.753906 -15.960938 -1.421875 -16.046875 C -1.054688 -16.148438 -0.707031 -16.242188 -0.375 -16.328125 C -0.0390625 -16.410156 0.296875 -16.5 0.640625 -16.59375 C 1.097656 -16.695312 1.390625 -16.96875 1.515625 -17.40625 L 2.203125 -19.9375 C 2.285156 -20.125 2.351562 -20.300781 2.40625 -20.46875 C 2.457031 -20.632812 2.523438 -20.804688 2.609375 -20.984375 C 2.648438 -21.148438 2.707031 -21.316406 2.78125 -21.484375 C 2.851562 -21.660156 2.925781 -21.835938 3 -22.015625 C 3.21875 -22.523438 3.457031 -22.800781 3.71875 -22.84375 C 3.875 -22.875 4.007812 -22.800781 4.125 -22.625 C 4.21875 -22.375 4.195312 -22.078125 4.0625 -21.734375 C 3.925781 -21.179688 3.773438 -20.617188 3.609375 -20.046875 C 3.441406 -19.484375 3.265625 -18.914062 3.078125 -18.34375 C 3.066406 -18.289062 3.054688 -18.222656 3.046875 -18.140625 C 3.035156 -18.054688 3.019531 -17.988281 3 -17.9375 C 2.945312 -17.769531 2.941406 -17.578125 2.984375 -17.359375 C 3.085938 -17.347656 3.175781 -17.34375 3.25 -17.34375 C 3.320312 -17.34375 3.398438 -17.347656 3.484375 -17.359375 C 3.585938 -17.367188 3.664062 -17.394531 3.71875 -17.4375 C 3.769531 -17.445312 3.804688 -17.453125 3.828125 -17.453125 C 3.859375 -17.460938 3.890625 -17.46875 3.921875 -17.46875 C 4.453125 -17.601562 5.007812 -17.75 5.59375 -17.90625 C 6.175781 -18.070312 6.789062 -18.234375 7.4375 -18.390625 C 8.09375 -18.546875 8.707031 -18.695312 9.28125 -18.84375 C 9.863281 -18.988281 10.425781 -19.128906 10.96875 -19.265625 L 11.4375 -19.34375 L 12.390625 -19.484375 C 12.578125 -19.515625 12.703125 -19.398438 12.765625 -19.140625 C 12.796875 -18.921875 12.738281 -18.773438 12.59375 -18.703125 C 12.5 -18.660156 12.410156 -18.625 12.328125 -18.59375 C 12.242188 -18.570312 12.171875 -18.554688 12.109375 -18.546875 C 12.023438 -18.515625 11.941406 -18.488281 11.859375 -18.46875 C 11.785156 -18.457031 11.695312 -18.429688 11.59375 -18.390625 L 3.25 -16.328125 C 2.675781 -16.179688 2.332031 -15.859375 2.21875 -15.359375 C 2.070312 -14.816406 1.910156 -14.050781 1.734375 -13.0625 C 1.554688 -12.082031 1.367188 -11.023438 1.171875 -9.890625 C 0.984375 -8.765625 0.820312 -7.691406 0.6875 -6.671875 C 0.550781 -5.660156 0.460938 -4.859375 0.421875 -4.265625 C 0.367188 -3.578125 0.347656 -2.90625 0.359375 -2.25 C 0.367188 -1.601562 0.398438 -0.929688 0.453125 -0.234375 C 0.472656 0.0664062 0.503906 0.378906 0.546875 0.703125 C 0.585938 1.035156 0.765625 1.300781 1.078125 1.5 C 1.367188 1.414062 1.613281 1.238281 1.8125 0.96875 C 1.894531 0.8125 1.972656 0.664062 2.046875 0.53125 C 2.117188 0.394531 2.195312 0.273438 2.28125 0.171875 C 2.625 -0.421875 3.019531 -1.175781 3.46875 -2.09375 C 3.925781 -3.019531 4.394531 -3.960938 4.875 -4.921875 C 5.363281 -5.890625 5.816406 -6.765625 6.234375 -7.546875 C 6.648438 -8.335938 6.976562 -8.90625 7.21875 -9.25 C 7.257812 -9.332031 7.3125 -9.421875 7.375 -9.515625 C 7.445312 -9.609375 7.503906 -9.691406 7.546875 -9.765625 C 7.660156 -9.921875 7.800781 -10.050781 7.96875 -10.15625 C 8 -10.164062 8.019531 -10.179688 8.03125 -10.203125 C 8.0625 -10.210938 8.078125 -10.21875 8.078125 -10.21875 C 8.078125 -10.21875 8.09375 -10.21875 8.125 -10.21875 C 8.144531 -10.21875 8.234375 -10.207031 8.390625 -10.1875 C 8.640625 -10.0625 8.710938 -9.875 8.609375 -9.625 C 8.617188 -9.539062 8.59375 -9.453125 8.53125 -9.359375 C 8.21875 -8.828125 7.804688 -8.078125 7.296875 -7.109375 C 6.785156 -6.140625 6.316406 -5.226562 5.890625 -4.375 C 5.367188 -3.382812 4.835938 -2.382812 4.296875 -1.375 C 3.753906 -0.375 3.226562 0.550781 2.71875 1.40625 C 2.5625 1.65625 2.335938 1.914062 2.046875 2.1875 C 1.765625 2.46875 1.460938 2.632812 1.140625 2.6875 Z M 1.140625 2.6875 "/></g></g></g><g fill="#0a3757" fill-opacity="1"><g transform="translate(317.850353, 149.086439)"><g><path d="M 6.53125 6.96875 C 6.1875 7.019531 5.878906 6.863281 5.609375 6.5 C 5.179688 5.945312 5.039062 5.367188 5.1875 4.765625 C 5.34375 3.765625 5.59375 2.800781 5.9375 1.875 C 6.28125 0.945312 6.660156 0.0195312 7.078125 -0.90625 C 7.273438 -1.375 7.382812 -1.875 7.40625 -2.40625 C 7.382812 -2.863281 7.363281 -3.3125 7.34375 -3.75 C 7.332031 -4.195312 7.328125 -4.628906 7.328125 -5.046875 C 7.304688 -5.503906 7.289062 -5.953125 7.28125 -6.390625 C 7.28125 -6.835938 7.273438 -7.289062 7.265625 -7.75 L 7.15625 -10.59375 C 7.1875 -10.65625 7.179688 -10.789062 7.140625 -11 C 7.128906 -11.101562 7.082031 -11.148438 7 -11.140625 C 6.914062 -11.171875 6.84375 -11.140625 6.78125 -11.046875 L 6.109375 -9.953125 C 5.578125 -9.035156 5.007812 -8.179688 4.40625 -7.390625 C 3.8125 -6.597656 3.125 -5.84375 2.34375 -5.125 C 2.207031 -4.988281 2.0625 -4.890625 1.90625 -4.828125 C 1.75 -4.773438 1.597656 -4.722656 1.453125 -4.671875 C 0.929688 -4.585938 0.550781 -4.679688 0.3125 -4.953125 C 0.0820312 -5.222656 -0.0703125 -5.59375 -0.15625 -6.0625 C -0.289062 -6.925781 -0.304688 -7.851562 -0.203125 -8.84375 C -0.0976562 -9.84375 0.1875 -10.734375 0.65625 -11.515625 C 0.757812 -11.660156 0.894531 -11.742188 1.0625 -11.765625 C 1.082031 -11.773438 1.113281 -11.773438 1.15625 -11.765625 C 1.207031 -11.765625 1.269531 -11.753906 1.34375 -11.734375 C 1.632812 -11.617188 1.703125 -11.40625 1.546875 -11.09375 C 1.242188 -10.53125 1.050781 -9.953125 0.96875 -9.359375 C 0.882812 -8.773438 0.820312 -8.164062 0.78125 -7.53125 C 0.78125 -7.332031 0.785156 -7.125 0.796875 -6.90625 C 0.816406 -6.6875 0.84375 -6.472656 0.875 -6.265625 C 0.882812 -5.890625 1.03125 -5.726562 1.3125 -5.78125 C 1.414062 -5.789062 1.539062 -5.851562 1.6875 -5.96875 C 1.789062 -6.03125 1.878906 -6.101562 1.953125 -6.1875 C 2.035156 -6.28125 2.125 -6.363281 2.21875 -6.4375 C 2.3125 -6.5 2.394531 -6.578125 2.46875 -6.671875 C 2.550781 -6.765625 2.640625 -6.847656 2.734375 -6.921875 C 3.179688 -7.367188 3.582031 -7.863281 3.9375 -8.40625 C 4.300781 -8.945312 4.65625 -9.507812 5 -10.09375 C 5.15625 -10.332031 5.300781 -10.582031 5.4375 -10.84375 C 5.582031 -11.113281 5.726562 -11.378906 5.875 -11.640625 C 6.03125 -11.890625 6.175781 -12.144531 6.3125 -12.40625 C 6.445312 -12.664062 6.585938 -12.914062 6.734375 -13.15625 C 6.773438 -13.21875 6.820312 -13.289062 6.875 -13.375 C 6.9375 -13.46875 6.988281 -13.546875 7.03125 -13.609375 C 7.144531 -13.753906 7.28125 -13.835938 7.4375 -13.859375 C 7.457031 -13.859375 7.46875 -13.859375 7.46875 -13.859375 C 7.46875 -13.859375 7.484375 -13.863281 7.515625 -13.875 C 7.546875 -13.851562 7.570312 -13.84375 7.59375 -13.84375 C 7.9375 -13.820312 8.109375 -13.472656 8.109375 -12.796875 C 8.140625 -12.296875 8.160156 -11.789062 8.171875 -11.28125 C 8.191406 -10.769531 8.210938 -10.265625 8.234375 -9.765625 C 8.265625 -9.253906 8.28125 -8.734375 8.28125 -8.203125 C 8.28125 -7.679688 8.296875 -7.171875 8.328125 -6.671875 L 8.421875 -4.34375 C 8.453125 -4.351562 8.550781 -4.34375 8.71875 -4.3125 C 9.007812 -4.832031 9.3125 -5.359375 9.625 -5.890625 C 9.9375 -6.429688 10.238281 -6.972656 10.53125 -7.515625 C 10.820312 -8.003906 11.117188 -8.515625 11.421875 -9.046875 C 11.734375 -9.578125 12.0625 -10.097656 12.40625 -10.609375 C 12.519531 -10.796875 12.644531 -10.960938 12.78125 -11.109375 C 12.90625 -11.210938 13.003906 -11.269531 13.078125 -11.28125 C 13.191406 -11.300781 13.285156 -11.273438 13.359375 -11.203125 C 13.578125 -11.046875 13.644531 -10.867188 13.5625 -10.671875 C 13.5 -10.484375 13.40625 -10.296875 13.28125 -10.109375 C 13.164062 -9.921875 13.054688 -9.722656 12.953125 -9.515625 C 12.253906 -8.421875 11.585938 -7.304688 10.953125 -6.171875 C 10.316406 -5.046875 9.695312 -3.894531 9.09375 -2.71875 C 8.601562 -1.863281 8.359375 -0.960938 8.359375 -0.015625 C 8.359375 0.359375 8.332031 0.921875 8.28125 1.671875 C 8.238281 2.421875 8.15625 3.1875 8.03125 3.96875 C 7.914062 4.75 7.734375 5.425781 7.484375 6 C 7.242188 6.582031 6.925781 6.90625 6.53125 6.96875 Z M 6.453125 5.4375 C 6.566406 5.425781 6.628906 5.375 6.640625 5.28125 C 6.660156 5.207031 6.679688 5.113281 6.703125 5 L 7.03125 3.21875 C 7.113281 2.820312 7.054688 2.503906 6.859375 2.265625 C 6.804688 2.472656 6.75 2.6875 6.6875 2.90625 C 6.625 3.125 6.554688 3.347656 6.484375 3.578125 L 6.203125 4.84375 C 6.160156 4.945312 6.144531 5.054688 6.15625 5.171875 C 6.164062 5.296875 6.226562 5.375 6.34375 5.40625 C 6.363281 5.4375 6.398438 5.445312 6.453125 5.4375 Z M 6.453125 5.4375 "/></g></g></g></svg>