<svg xmlns="http://www.w3.org/2000/svg" xmlns:xlink="http://www.w3.org/1999/xlink" width="1280" zoomAndPan="magnify" viewBox="0 0 960 540.000001" height="720" preserveAspectRatio="xMidYMid meet" version="1.0"><defs><g/><clipPath id="e6c7d115ae"><path d="M 868.152344 0 L 940.765625 0 L 940.765625 121.277344 L 868.152344 121.277344 Z M 868.152344 0 " clip-rule="nonzero"/></clipPath><clipPath id="d2187edb7a"><path d="M 709 435 L 740 435 L 740 467 L 709 467 Z M 709 435 " clip-rule="nonzero"/></clipPath><clipPath id="abb71ef228"><path d="M 705.414062 437.804688 L 733.984375 431.777344 L 740.933594 464.742188 L 712.367188 470.765625 Z M 705.414062 437.804688 " clip-rule="nonzero"/></clipPath><clipPath id="afcefdc214"><path d="M 705.414062 437.804688 L 733.984375 431.777344 L 740.933594 464.742188 L 712.367188 470.765625 Z M 705.414062 437.804688 " clip-rule="nonzero"/></clipPath><clipPath id="691c3a2b1b"><path d="M 705.414062 437.804688 L 733.984375 431.777344 L 740.933594 464.742188 L 712.367188 470.765625 Z M 705.414062 437.804688 " clip-rule="nonzero"/></clipPath><clipPath id="7bf7bacc17"><path d="M 442.148438 503.691406 L 483.738281 503.691406 L 483.738281 539 L 442.148438 539 Z M 442.148438 503.691406 " clip-rule="nonzero"/></clipPath><clipPath id="e11add3e32"><path d="M 390.910156 495.089844 L 430.640625 495.089844 L 430.640625 539 L 390.910156 539 Z M 390.910156 495.089844 " clip-rule="nonzero"/></clipPath></defs><g clip-path="url(#e6c7d115ae)"><path fill="#000000" d="M 939.417969 76.972656 C 936.339844 74.976562 932.769531 74.285156 929.855469 75.023438 C 930.132812 73.933594 930.316406 72.8125 930.4375 71.675781 C 930.578125 71.769531 930.699219 71.859375 930.835938 71.9375 C 932.261719 72.8125 933.917969 73.273438 935.570312 73.273438 C 936 73.273438 936.414062 73.242188 936.84375 73.179688 C 937.992188 73.011719 938.957031 72.167969 939.28125 71.046875 C 939.601562 69.941406 939.21875 68.683594 938.332031 67.945312 C 936.0625 66.042969 932.996094 65.242188 930.101562 65.65625 C 930.011719 65.597656 929.902344 65.566406 929.78125 65.566406 C 929.289062 65.566406 928.785156 65.566406 928.292969 65.566406 C 928.109375 64.921875 927.925781 64.292969 927.742188 63.648438 C 930.578125 63.417969 933.289062 62.066406 935.25 59.824219 C 935.632812 59.394531 935.800781 58.824219 935.742188 58.195312 C 935.679688 57.476562 935.296875 56.769531 934.730469 56.324219 C 933.933594 55.710938 932.796875 55.464844 931.464844 55.632812 C 929.425781 55.894531 927.558594 56.921875 926.179688 58.410156 C 921.859375 44.285156 916.632812 30.4375 910.597656 17.128906 C 912.679688 16.914062 914.578125 15.253906 914.949219 13.152344 C 915.332031 10.878906 913.828125 8.5 911.652344 7.777344 L 912.480469 0.746094 C 912.527344 0.40625 912.28125 0.101562 911.945312 0.0703125 C 911.605469 0.0234375 911.300781 0.269531 911.269531 0.605469 L 910.457031 7.5625 C 908.234375 7.5 906.058594 9.097656 905.554688 11.292969 C 905.050781 13.550781 906.414062 16.007812 908.542969 16.835938 C 901.953125 29.457031 896.238281 42.597656 891.503906 56.046875 C 890.996094 56.109375 890.492188 56.214844 889.988281 56.339844 C 889.972656 56.308594 889.972656 56.292969 889.957031 56.277344 C 888.164062 53.054688 884.011719 51.363281 880.484375 52.425781 C 879.460938 52.730469 878.753906 53.820312 878.878906 54.894531 C 879.015625 55.96875 879.949219 56.84375 881.039062 56.890625 C 883.105469 56.984375 885.234375 57.089844 887.625 57.152344 C 886.21875 57.765625 884.867188 58.597656 883.65625 59.609375 C 883.644531 59.578125 883.644531 59.5625 883.628906 59.53125 C 883.535156 59.378906 883.382812 59.269531 883.199219 59.242188 C 879.183594 58.566406 874.953125 59.992188 872.179688 62.988281 C 871.492188 63.722656 871.324219 64.875 871.753906 65.78125 C 872.164062 66.640625 873.085938 67.207031 874.019531 67.207031 C 874.082031 67.207031 874.128906 67.207031 874.1875 67.207031 C 875.90625 67.085938 877.574219 66.519531 879.0625 65.613281 C 878.738281 66.257812 878.464844 66.917969 878.21875 67.578125 C 878.15625 67.578125 878.082031 67.578125 878.019531 67.59375 C 874.464844 68.542969 871.507812 71.308594 870.3125 74.792969 C 870.097656 75.421875 870.296875 76.160156 870.800781 76.574219 C 871.09375 76.820312 871.476562 76.957031 871.859375 76.957031 C 872.136719 76.957031 872.394531 76.898438 872.640625 76.757812 C 874.355469 75.820312 875.8125 74.484375 876.886719 72.921875 C 876.703125 74.226562 876.609375 75.46875 876.59375 76.558594 C 873.054688 77.710938 870.128906 80.441406 868.75 83.898438 C 868.472656 84.589844 868.152344 85.617188 868.488281 86.601562 C 868.703125 87.183594 869.191406 87.691406 869.789062 87.90625 C 869.988281 87.980469 870.203125 88.011719 870.402344 88.011719 C 870.695312 88.011719 870.984375 87.933594 871.230469 87.78125 C 873.789062 86.214844 875.722656 83.757812 876.730469 80.875 C 876.871094 82.578125 877.113281 84.28125 877.390625 86 C 874.003906 87.382812 871.460938 90.589844 870.894531 94.230469 C 870.816406 94.753906 871.078125 95.289062 871.566406 95.597656 C 871.8125 95.75 872.089844 95.828125 872.363281 95.828125 C 872.625 95.828125 872.871094 95.75 873.085938 95.613281 C 875.382812 94.046875 877.113281 91.667969 877.910156 89.054688 C 877.972656 89.410156 878.035156 89.761719 878.097656 90.132812 C 878.171875 90.578125 878.25 91.035156 878.339844 91.480469 C 876.6875 93.9375 876.488281 97.285156 877.867188 99.910156 C 878.171875 100.480469 878.785156 100.832031 879.414062 100.832031 C 879.519531 100.832031 879.628906 100.816406 879.734375 100.800781 C 880.472656 100.648438 881.054688 100.003906 881.128906 99.25 C 881.359375 96.65625 880.824219 93.96875 879.597656 91.667969 C 879.597656 91.621094 879.597656 91.558594 879.597656 91.511719 C 879.503906 90.976562 879.414062 90.4375 879.304688 89.902344 C 879.230469 89.457031 879.152344 89.011719 879.078125 88.582031 C 881.097656 90.300781 883.671875 91.359375 886.324219 91.496094 C 886.355469 91.496094 886.386719 91.496094 886.429688 91.496094 C 887.273438 91.496094 888.070312 90.960938 888.378906 90.175781 C 888.699219 89.363281 888.46875 88.378906 887.796875 87.8125 C 885.128906 85.523438 881.527344 84.710938 878.585938 85.664062 C 878.28125 83.699219 878.019531 81.777344 877.898438 79.84375 C 879.6875 81.855469 882.09375 83.328125 884.699219 83.972656 C 884.851562 84.003906 885.007812 84.035156 885.144531 84.035156 C 886.09375 84.035156 887.042969 83.34375 887.367188 82.378906 C 887.671875 81.457031 887.425781 80.335938 886.738281 79.445312 C 886.09375 78.617188 885.160156 78.09375 884.53125 77.789062 C 882.402344 76.742188 880.058594 76.28125 877.820312 76.480469 C 877.867188 74.746094 878.066406 72.691406 878.585938 70.539062 C 879.335938 72.136719 880.441406 73.566406 881.804688 74.671875 C 882.15625 74.945312 882.601562 75.101562 883.058594 75.101562 C 883.257812 75.101562 883.457031 75.070312 883.65625 75.023438 C 884.425781 74.824219 885.082031 74.257812 885.359375 73.566406 C 885.878906 72.246094 885.265625 70.832031 884.425781 70.003906 C 883.535156 69.144531 882.386719 68.714844 881.359375 68.421875 C 880.671875 68.222656 879.964844 68.054688 879.382812 67.945312 C 880.027344 66.242188 880.898438 64.554688 882.09375 63.003906 C 882.140625 62.941406 882.203125 62.863281 882.25 62.800781 C 882.203125 64.199219 882.308594 65.597656 882.585938 66.949219 C 882.722656 67.640625 882.953125 68.40625 883.582031 68.914062 C 883.902344 69.175781 884.316406 69.3125 884.730469 69.3125 C 884.851562 69.3125 884.992188 69.296875 885.113281 69.265625 C 885.558594 69.175781 885.910156 68.898438 886.109375 68.515625 C 886.261719 68.191406 886.402344 67.839844 886.492188 67.5 C 886.125 71.261719 886.753906 75.132812 888.378906 78.769531 C 890.140625 82.730469 892.898438 86.03125 896.332031 88.304688 C 896.789062 88.609375 897.265625 88.886719 897.738281 89.148438 C 894.964844 90.160156 892.789062 92.617188 892.175781 95.519531 C 892.054688 96.089844 892.332031 96.6875 892.882812 97.023438 C 893.144531 97.179688 893.433594 97.269531 893.695312 97.269531 C 894 97.269531 894.292969 97.179688 894.539062 96.976562 C 895.65625 96.058594 896.589844 94.9375 897.324219 93.664062 C 897.003906 95.167969 896.726562 96.671875 896.515625 98.175781 C 893.203125 98.527344 890.324219 101.230469 889.773438 104.53125 C 889.632812 105.316406 890.03125 106.160156 890.707031 106.558594 C 891.011719 106.742188 891.367188 106.835938 891.703125 106.835938 C 892.148438 106.835938 892.574219 106.695312 892.929688 106.421875 C 894.152344 105.453125 895.195312 104.164062 895.976562 102.675781 C 895.886719 103.78125 895.808594 104.886719 895.777344 106.007812 C 895.6875 106.019531 895.609375 106.050781 895.535156 106.097656 C 893.34375 107.585938 891.976562 110.152344 891.992188 112.808594 C 891.992188 113.390625 892.390625 113.882812 892.988281 114.082031 C 893.160156 114.144531 893.328125 114.160156 893.480469 114.160156 C 893.910156 114.160156 894.292969 113.972656 894.539062 113.636719 C 895.027344 112.960938 895.441406 112.238281 895.746094 111.472656 C 895.777344 112.453125 895.839844 113.4375 895.917969 114.417969 C 895.917969 114.511719 895.945312 114.589844 895.992188 114.664062 C 896.132812 115.140625 896.238281 115.617188 896.34375 116.125 C 896.4375 116.585938 896.542969 117.046875 896.667969 117.503906 C 897.035156 118.824219 897.585938 119.777344 898.351562 120.421875 C 898.996094 120.960938 899.792969 121.25 900.558594 121.25 C 901.035156 121.25 901.492188 121.144531 901.890625 120.914062 C 902.519531 120.5625 902.980469 119.871094 903.070312 119.117188 C 903.164062 118.441406 902.964844 117.796875 902.535156 117.351562 C 900.789062 115.585938 899.011719 114.449219 897.097656 113.882812 C 896.882812 110.917969 896.851562 107.957031 897.019531 105.023438 C 897.3125 105.636719 897.648438 106.207031 898.03125 106.757812 C 898.75 107.757812 899.503906 108.308594 900.328125 108.445312 C 900.4375 108.460938 900.527344 108.476562 900.636719 108.476562 C 901.1875 108.476562 901.753906 108.246094 902.152344 107.847656 C 902.550781 107.449219 902.734375 106.925781 902.644531 106.421875 C 902.105469 103.152344 900.222656 100.265625 897.632812 98.699219 C 897.753906 97.882812 897.894531 97.070312 898.03125 96.257812 C 898.246094 97.054688 898.535156 97.855469 898.90625 98.652344 C 899.210938 99.28125 899.886719 99.679688 900.574219 99.679688 C 900.652344 99.679688 900.726562 99.679688 900.804688 99.664062 C 901.570312 99.558594 902.214844 98.929688 902.351562 98.160156 C 902.84375 95.304688 901.890625 92.28125 899.886719 90.207031 C 901.601562 90.914062 903.410156 91.390625 905.292969 91.652344 C 905.292969 91.695312 905.292969 91.742188 905.308594 91.804688 C 905.449219 92.496094 905.585938 93.1875 905.738281 93.878906 C 905.644531 93.90625 905.554688 93.96875 905.492188 94.046875 C 903.609375 96.117188 902.796875 99.097656 903.378906 101.84375 C 903.425781 102.03125 903.441406 102.230469 903.46875 102.429688 C 903.515625 102.765625 903.5625 103.105469 903.667969 103.457031 C 903.898438 104.242188 904.390625 104.824219 905.003906 105.054688 C 905.1875 105.132812 905.386719 105.160156 905.570312 105.160156 C 905.84375 105.160156 906.136719 105.085938 906.382812 104.945312 C 906.765625 104.730469 907.011719 104.410156 907.085938 104.011719 C 907.363281 102.660156 907.484375 101.292969 907.453125 99.941406 C 907.914062 101.277344 908.40625 102.582031 908.957031 103.886719 C 907.238281 105.652344 906.257812 108.09375 906.257812 110.566406 C 906.257812 111.042969 906.304688 111.761719 906.613281 112.410156 C 906.949219 113.128906 907.5625 113.636719 908.25 113.757812 C 908.359375 113.773438 908.480469 113.789062 908.589844 113.789062 C 909.339844 113.789062 910.027344 113.328125 910.257812 112.625 C 910.75 111.042969 910.949219 109.445312 910.839844 107.878906 C 911.4375 109.046875 912.066406 110.199219 912.742188 111.316406 C 912.695312 111.363281 912.632812 111.410156 912.601562 111.472656 C 911.332031 113.375 910.671875 115.679688 910.78125 117.964844 C 910.824219 118.902344 911.605469 119.714844 912.542969 119.792969 C 912.585938 119.792969 912.632812 119.792969 912.695312 119.792969 C 913.570312 119.792969 914.394531 119.132812 914.578125 118.273438 C 914.871094 116.921875 914.886719 115.554688 914.65625 114.28125 C 914.808594 114.496094 914.949219 114.710938 915.101562 114.925781 C 915.101562 115.09375 915.160156 115.25 915.269531 115.355469 C 915.484375 115.570312 915.714844 115.816406 915.914062 116.046875 C 916.265625 116.429688 916.632812 116.828125 917.03125 117.199219 C 917.8125 117.933594 918.5625 118.410156 919.328125 118.6875 C 919.804688 118.855469 920.308594 118.949219 920.785156 118.949219 C 921.304688 118.949219 921.796875 118.839844 922.242188 118.640625 C 923.253906 118.179688 923.957031 117.167969 923.972656 116.140625 C 923.988281 114.957031 923.054688 113.867188 921.933594 113.773438 C 920.265625 113.621094 918.132812 113.542969 916.050781 114.175781 C 914.441406 111.886719 913 109.476562 911.746094 106.957031 C 913.355469 108.09375 915.269531 108.785156 917.214844 108.890625 C 917.246094 108.890625 917.292969 108.890625 917.324219 108.890625 C 918.378906 108.890625 919.375 108.125 919.621094 107.097656 C 919.882812 106.035156 919.300781 104.855469 918.304688 104.394531 C 915.898438 103.304688 913.230469 102.75 910.597656 102.765625 C 910.382812 102.765625 910.136719 102.8125 909.890625 102.90625 C 909.230469 101.292969 908.632812 99.632812 908.113281 97.960938 C 909.9375 99.527344 912.328125 100.464844 914.71875 100.464844 C 914.886719 100.464844 915.039062 100.464844 915.207031 100.449219 C 916.050781 100.402344 916.816406 99.804688 917.0625 98.988281 C 917.308594 98.175781 917.015625 97.253906 916.34375 96.734375 C 913.570312 94.613281 910.210938 93.617188 907.011719 93.90625 C 906.839844 93.203125 906.6875 92.480469 906.550781 91.773438 C 907.085938 91.820312 907.625 91.851562 908.160156 91.851562 C 908.265625 91.851562 908.375 91.851562 908.496094 91.851562 C 912.710938 91.851562 916.726562 90.730469 920.140625 88.609375 C 923.375 86.601562 925.964844 83.742188 927.742188 80.398438 C 927.636719 81.933594 927.558594 83.484375 927.605469 85.035156 C 927.621094 85.664062 927.664062 86.277344 927.726562 86.875 C 927.710938 86.875 927.695312 86.875 927.679688 86.890625 C 925.273438 87.707031 923.296875 89.625 922.425781 92.019531 C 922.101562 92.894531 921.996094 93.664062 922.089844 94.367188 C 922.226562 95.320312 922.761719 96.132812 923.527344 96.519531 C 923.851562 96.671875 924.1875 96.75 924.523438 96.75 C 925.183594 96.75 925.8125 96.457031 926.195312 95.933594 C 927.375 94.261719 928.140625 92.433594 928.445312 90.605469 C 928.800781 91.851562 929.273438 93.003906 929.855469 94.0625 C 929.824219 94.152344 929.824219 94.246094 929.839844 94.335938 C 929.121094 96.210938 929.382812 98.46875 930.53125 100.109375 C 930.914062 100.664062 931.574219 100.96875 932.230469 100.96875 C 932.523438 100.96875 932.828125 100.910156 933.105469 100.769531 C 933.980469 100.339844 934.453125 99.265625 934.164062 98.34375 C 933.640625 96.625 932.597656 95.121094 931.207031 94.015625 C 931.191406 93.953125 931.175781 93.878906 931.128906 93.832031 C 930.46875 92.726562 929.964844 91.511719 929.582031 90.175781 C 930.285156 90.792969 931.082031 91.296875 931.925781 91.636719 C 932.875 92.019531 933.886719 92.21875 934.914062 92.21875 C 935.910156 92.21875 936.90625 92.035156 937.824219 91.667969 C 938.542969 91.375 939.050781 90.699219 939.128906 89.929688 C 939.203125 89.164062 938.835938 88.394531 938.191406 87.964844 C 935.496094 86.183594 932.015625 85.679688 928.90625 86.554688 C 928.859375 86.046875 928.832031 85.539062 928.816406 85.019531 C 928.753906 83.128906 928.90625 81.179688 929.042969 79.308594 C 929.074219 78.90625 929.105469 78.492188 929.136719 78.09375 C 930.578125 79.691406 932.414062 80.917969 934.453125 81.625 C 935.3125 81.917969 936.0625 82.070312 936.765625 82.070312 C 937.011719 82.070312 937.242188 82.054688 937.472656 82.023438 C 938.683594 81.839844 939.679688 81.164062 940.152344 80.214844 C 940.765625 79.09375 940.414062 77.617188 939.417969 76.972656 Z M 937.550781 68.914062 C 938.054688 69.34375 938.285156 70.09375 938.101562 70.738281 C 937.917969 71.386719 937.335938 71.890625 936.660156 72 C 934.882812 72.246094 932.996094 71.859375 931.464844 70.925781 C 931.144531 70.726562 930.820312 70.496094 930.53125 70.25 C 930.578125 69.144531 930.546875 68.023438 930.453125 66.902344 C 932.96875 66.578125 935.632812 67.300781 937.550781 68.914062 Z M 870.585938 86.800781 C 870.464844 86.875 870.3125 86.84375 870.203125 86.816406 C 869.960938 86.722656 869.730469 86.507812 869.636719 86.261719 C 869.421875 85.679688 869.667969 84.925781 869.867188 84.417969 C 871.015625 81.546875 873.332031 79.230469 876.164062 78.078125 C 875.660156 81.71875 873.621094 84.941406 870.585938 86.800781 Z M 872.042969 75.730469 C 871.90625 75.804688 871.707031 75.792969 871.582031 75.683594 C 871.460938 75.578125 871.414062 75.390625 871.460938 75.238281 C 872.394531 72.503906 874.648438 70.203125 877.328125 69.144531 C 876.5625 71.890625 874.648438 74.316406 872.042969 75.730469 Z M 872.378906 94.660156 C 872.363281 94.675781 872.289062 94.660156 872.210938 94.613281 C 872.136719 94.566406 872.089844 94.492188 872.105469 94.476562 C 872.5625 91.574219 874.449219 88.964844 877.023438 87.582031 C 876.503906 90.375 874.800781 93.015625 872.378906 94.660156 Z M 886.984375 88.8125 C 887.242188 89.039062 887.351562 89.472656 887.226562 89.792969 C 887.105469 90.117188 886.722656 90.359375 886.386719 90.332031 C 883.597656 90.191406 880.898438 88.917969 879 86.875 C 881.511719 86.109375 884.683594 86.84375 886.984375 88.8125 Z M 878.878906 93.046875 C 879.734375 94.96875 880.101562 97.117188 879.917969 99.203125 C 879.902344 99.417969 879.71875 99.621094 879.503906 99.664062 C 879.289062 99.710938 879.046875 99.589844 878.953125 99.402344 C 877.910156 97.453125 877.910156 95.027344 878.878906 93.046875 Z M 883.980469 78.9375 C 884.515625 79.199219 885.265625 79.613281 885.757812 80.257812 C 886.203125 80.828125 886.355469 81.503906 886.1875 82.054688 C 886.019531 82.59375 885.433594 82.960938 884.976562 82.855469 C 882.09375 82.148438 879.476562 80.289062 877.804688 77.816406 C 877.804688 77.800781 877.804688 77.789062 877.804688 77.773438 C 879.84375 77.570312 882.019531 77.972656 883.980469 78.9375 Z M 881.023438 69.648438 C 881.894531 69.910156 882.875 70.25 883.566406 70.925781 C 884.101562 71.445312 884.53125 72.367188 884.210938 73.152344 C 884.070312 73.488281 883.734375 73.78125 883.335938 73.871094 C 883.152344 73.917969 882.832031 73.964844 882.554688 73.75 C 881.097656 72.566406 879.964844 70.984375 879.320312 69.21875 C 879.84375 69.34375 880.425781 69.480469 881.023438 69.648438 Z M 874.097656 66.027344 C 873.589844 66.058594 873.070312 65.75 872.855469 65.304688 C 872.640625 64.84375 872.734375 64.246094 873.070312 63.878906 C 875.136719 61.652344 878.21875 60.363281 881.269531 60.363281 C 881.589844 60.363281 881.910156 60.375 882.234375 60.40625 C 880.855469 63.417969 877.484375 65.78125 874.097656 66.027344 Z M 893.753906 96.058594 C 893.726562 96.089844 893.617188 96.074219 893.511719 96.011719 C 893.402344 95.949219 893.359375 95.859375 893.359375 95.8125 C 893.832031 93.617188 895.335938 91.710938 897.3125 90.699219 C 896.652344 92.832031 895.410156 94.691406 893.753906 96.058594 Z M 892.175781 105.5 C 891.949219 105.683594 891.578125 105.699219 891.335938 105.5625 C 891.089844 105.40625 890.9375 105.085938 890.980469 104.792969 C 891.394531 102.320312 893.480469 100.171875 895.902344 99.589844 C 895.273438 101.984375 893.941406 104.117188 892.175781 105.5 Z M 893.585938 112.945312 C 893.570312 112.960938 893.496094 112.976562 893.402344 112.945312 C 893.296875 112.914062 893.25 112.855469 893.25 112.839844 C 893.234375 111.011719 894.03125 109.183594 895.335938 107.894531 C 895.273438 109.691406 894.660156 111.488281 893.585938 112.945312 Z M 901.707031 118.273438 C 901.9375 118.503906 901.9375 118.839844 901.90625 119.011719 C 901.863281 119.394531 901.632812 119.746094 901.339844 119.914062 C 900.667969 120.300781 899.746094 120.023438 899.195312 119.5625 C 898.628906 119.070312 898.199219 118.320312 897.894531 117.246094 C 897.769531 116.816406 897.679688 116.382812 897.585938 115.925781 C 897.539062 115.738281 897.511719 115.539062 897.464844 115.339844 C 898.917969 115.894531 900.3125 116.859375 901.707031 118.273438 Z M 901.480469 106.652344 C 901.507812 106.804688 901.417969 106.925781 901.324219 107.003906 C 901.125 107.203125 900.820312 107.3125 900.558594 107.265625 C 900.070312 107.1875 899.578125 106.789062 899.058594 106.066406 C 898.136719 104.792969 897.539062 103.289062 897.296875 101.738281 C 897.355469 101.183594 897.417969 100.632812 897.480469 100.0625 C 899.546875 101.523438 901.035156 103.933594 901.480469 106.652344 Z M 921.875 115.035156 C 922.363281 115.078125 922.792969 115.617188 922.792969 116.167969 C 922.777344 116.738281 922.363281 117.304688 921.78125 117.582031 C 921.214844 117.84375 920.496094 117.84375 919.789062 117.582031 C 919.175781 117.367188 918.5625 116.953125 917.90625 116.339844 C 917.550781 116 917.214844 115.648438 916.863281 115.28125 C 918.625 114.835938 920.433594 114.910156 921.875 115.035156 Z M 913.414062 118.074219 C 913.355469 118.378906 913 118.640625 912.679688 118.625 C 912.359375 118.59375 912.050781 118.289062 912.050781 117.964844 C 911.976562 116.308594 912.34375 114.648438 913.109375 113.175781 C 913.660156 114.664062 913.769531 116.371094 913.414062 118.074219 Z M 910.640625 104.039062 C 913.109375 104.027344 915.589844 104.546875 917.84375 105.5625 C 918.304688 105.777344 918.59375 106.359375 918.472656 106.851562 C 918.347656 107.339844 917.828125 107.742188 917.324219 107.710938 C 914.671875 107.585938 912.082031 106.191406 910.488281 104.054688 C 910.535156 104.054688 910.582031 104.039062 910.640625 104.039062 Z M 910.351562 103.886719 C 910.367188 103.886719 910.367188 103.886719 910.351562 103.886719 L 910.335938 103.917969 C 910.335938 103.917969 910.335938 103.902344 910.335938 103.902344 Z M 909.125 112.300781 C 909.0625 112.5 908.773438 112.636719 908.527344 112.59375 C 908.234375 112.53125 907.945312 112.285156 907.777344 111.933594 C 907.625 111.59375 907.546875 111.195312 907.546875 110.613281 C 907.546875 108.800781 908.144531 107.019531 909.230469 105.578125 C 909.859375 107.726562 909.828125 110.027344 909.125 112.300781 Z M 915.652344 97.777344 C 915.914062 97.976562 916.050781 98.375 915.945312 98.683594 C 915.851562 99.003906 915.515625 99.25 915.191406 99.265625 C 912.160156 99.417969 909.109375 97.855469 907.410156 95.351562 C 907.394531 95.289062 907.378906 95.226562 907.363281 95.183594 C 910.199219 94.96875 913.171875 95.886719 915.652344 97.777344 Z M 925.246094 95.273438 C 925.03125 95.566406 924.523438 95.65625 924.140625 95.472656 C 923.742188 95.273438 923.4375 94.796875 923.359375 94.246094 C 923.28125 93.738281 923.375 93.171875 923.636719 92.496094 C 924.292969 90.730469 925.703125 89.210938 927.40625 88.410156 C 927.511719 90.699219 926.761719 93.109375 925.246094 95.273438 Z M 931.617188 56.890625 C 932.324219 56.800781 933.304688 56.800781 933.980469 57.335938 C 934.285156 57.566406 934.484375 57.964844 934.53125 58.351562 C 934.546875 58.550781 934.53125 58.824219 934.332031 59.039062 C 932.507812 61.113281 929.996094 62.328125 927.390625 62.464844 C 927.128906 61.605469 926.882812 60.730469 926.625 59.871094 C 927.835938 58.273438 929.65625 57.136719 931.617188 56.890625 Z M 926.484375 63.707031 C 926.5625 63.953125 926.625 64.183594 926.699219 64.429688 C 926.515625 64.167969 926.316406 63.921875 926.117188 63.691406 C 926.226562 63.691406 926.363281 63.691406 926.484375 63.707031 Z M 926.453125 67.867188 C 925.121094 71.277344 922.011719 73.949219 918.332031 74.808594 C 918.132812 74.855469 917.964844 74.761719 917.859375 74.6875 C 917.613281 74.5 917.429688 74.195312 917.398438 73.886719 C 917.351562 73.351562 917.597656 72.734375 918.148438 72 C 920.050781 69.433594 923.222656 67.882812 926.394531 67.882812 C 926.425781 67.867188 926.441406 67.867188 926.453125 67.867188 Z M 925.765625 61.28125 C 925.886719 61.683594 925.996094 62.066406 926.117188 62.464844 C 925.871094 62.449219 925.613281 62.417969 925.367188 62.371094 C 925.460938 61.988281 925.597656 61.636719 925.765625 61.28125 Z M 925.996094 65.582031 C 922.042969 65.566406 918.042969 65.566406 914.027344 65.582031 C 914.609375 63.1875 917.335938 61.34375 920.066406 61.621094 C 922.363281 61.867188 924.554688 63.339844 925.996094 65.582031 Z M 924.355469 56.644531 C 924.664062 57.644531 924.96875 58.640625 925.273438 59.625 C 924.816406 60.332031 924.449219 61.113281 924.21875 61.941406 C 923.390625 61.359375 922.488281 60.914062 921.550781 60.652344 C 922.792969 59.945312 923.695312 58.824219 924.171875 57.320312 C 924.234375 57.105469 924.292969 56.875 924.355469 56.644531 Z M 922.6875 52.101562 C 923.390625 53.605469 923.511719 55.371094 923.007812 56.953125 C 922.472656 58.609375 921.367188 59.671875 919.726562 60.085938 C 918.792969 57.949219 918.839844 55.386719 919.867188 53.300781 C 920.265625 52.484375 920.738281 51.964844 921.261719 51.734375 C 921.414062 51.671875 921.597656 51.640625 921.765625 51.640625 C 922.148438 51.625 922.53125 51.777344 922.6875 52.101562 Z M 922.347656 50.472656 C 921.828125 50.351562 921.246094 50.398438 920.769531 50.597656 C 919.957031 50.949219 919.300781 51.640625 918.761719 52.746094 C 917.597656 55.109375 917.523438 57.996094 918.546875 60.4375 C 915.714844 60.835938 913.261719 62.941406 912.785156 65.582031 C 911.730469 65.582031 910.671875 65.597656 909.601562 65.597656 L 910.226562 19.292969 C 914.75 29.425781 918.792969 39.851562 922.347656 50.472656 Z M 906.75 11.617188 C 907.132812 9.925781 908.941406 8.683594 910.640625 8.851562 C 910.71875 8.898438 910.808594 8.945312 910.917969 8.960938 C 910.949219 8.960938 910.964844 8.960938 910.996094 8.960938 C 911.039062 8.960938 911.085938 8.960938 911.132812 8.945312 C 912.800781 9.40625 914.042969 11.261719 913.753906 12.996094 C 913.476562 14.625 911.882812 15.929688 910.257812 15.976562 C 910.210938 15.761719 910.042969 15.578125 909.8125 15.515625 C 909.554688 15.453125 909.261719 15.5625 909.140625 15.808594 C 907.484375 15.238281 906.382812 13.304688 906.75 11.617188 Z M 909.003906 18.664062 L 908.558594 51.640625 C 908.265625 51.148438 907.824219 50.75 907.300781 50.535156 C 906.472656 50.199219 905.476562 50.304688 904.742188 50.84375 C 902.289062 52.625 900.789062 55.695312 900.804688 58.734375 C 899.546875 57.691406 898.09375 56.921875 896.574219 56.460938 C 898.382812 55.324219 899.546875 53.175781 899.792969 50.472656 C 899.855469 49.828125 899.625 49.183594 899.164062 48.648438 C 898.660156 48.0625 897.921875 47.710938 897.1875 47.695312 C 896.726562 47.679688 896.253906 47.789062 895.824219 47.988281 C 899.6875 37.960938 904.097656 28.164062 909.003906 18.664062 Z M 897.617188 58.152344 C 900.726562 59.578125 903.101562 62.464844 903.546875 65.644531 C 901.785156 65.65625 900.007812 65.6875 898.230469 65.71875 C 898.507812 65.457031 898.707031 65.121094 898.796875 64.753906 C 899.304688 62.542969 898.84375 60.101562 897.617188 58.152344 Z M 897.601562 64.476562 C 897.523438 64.78125 897.21875 65.042969 896.914062 65.042969 C 896.605469 65.058594 896.269531 64.828125 896.175781 64.523438 C 895.503906 62.433594 895.472656 60.175781 896.070312 58.074219 C 897.496094 59.839844 898.109375 62.296875 897.601562 64.476562 Z M 905.476562 51.824219 C 905.859375 51.546875 906.414062 51.488281 906.839844 51.671875 C 907.269531 51.855469 907.609375 52.285156 907.683594 52.746094 C 907.945312 54.449219 907.378906 56.292969 906.183594 57.550781 C 905.09375 58.703125 903.515625 59.332031 902.0625 59.242188 C 901.863281 56.414062 903.195312 53.484375 905.476562 51.824219 Z M 902.550781 60.46875 C 904.191406 60.421875 905.859375 59.6875 907.070312 58.394531 C 907.699219 57.734375 908.175781 56.953125 908.496094 56.09375 L 908.375 65.613281 C 907.179688 65.628906 905.984375 65.628906 904.789062 65.644531 C 904.558594 63.800781 903.792969 62.003906 902.550781 60.46875 Z M 895.148438 50.273438 C 895.535156 49.460938 896.332031 48.90625 897.097656 48.90625 C 897.113281 48.90625 897.125 48.90625 897.140625 48.90625 C 897.539062 48.921875 897.953125 49.121094 898.246094 49.445312 C 898.492188 49.722656 898.597656 50.042969 898.582031 50.351562 C 898.367188 52.625 897.449219 54.417969 896.007812 55.371094 C 895.609375 54.621094 895.242188 53.867188 895.042969 53.070312 C 894.75 52.023438 894.796875 51.027344 895.148438 50.273438 Z M 893.816406 53.269531 C 893.832031 53.300781 893.832031 53.34375 893.847656 53.375 C 894.109375 54.359375 894.550781 55.234375 895.011719 56.09375 C 894.875 56.078125 894.722656 56.046875 894.582031 56.03125 C 894.015625 55.96875 893.433594 55.953125 892.867188 55.96875 C 893.171875 55.078125 893.496094 54.175781 893.816406 53.269531 Z M 892.40625 57.230469 C 893.082031 57.183594 893.769531 57.183594 894.445312 57.261719 C 894.628906 57.277344 894.828125 57.304688 895.011719 57.335938 C 894.230469 59.777344 894.214844 62.449219 895.011719 64.90625 C 895.121094 65.242188 895.320312 65.535156 895.578125 65.765625 C 894.492188 65.78125 893.402344 65.8125 892.316406 65.84375 C 892.699219 65.628906 893.019531 65.335938 893.28125 64.953125 C 893.679688 64.351562 893.800781 63.664062 893.617188 63.03125 C 893.21875 61.589844 892.589844 60.269531 891.777344 59.101562 C 891.976562 58.472656 892.191406 57.859375 892.40625 57.230469 Z M 892.421875 63.371094 C 892.53125 63.753906 892.363281 64.109375 892.238281 64.277344 C 892.007812 64.628906 891.625 64.890625 891.242188 64.9375 C 890.8125 64.996094 890.355469 64.84375 889.957031 64.566406 C 890.386719 63.246094 890.8125 61.910156 891.257812 60.589844 C 891.75 61.4375 892.148438 62.371094 892.421875 63.371094 Z M 891.042969 57.414062 C 890.980469 57.597656 890.921875 57.78125 890.859375 57.964844 C 890.722656 57.8125 890.597656 57.675781 890.445312 57.535156 C 890.644531 57.492188 890.84375 57.445312 891.042969 57.414062 Z M 889.988281 58.824219 C 890.125 58.980469 890.261719 59.148438 890.398438 59.316406 C 889.941406 60.652344 889.496094 61.988281 889.066406 63.339844 C 888.835938 62.648438 888.835938 61.820312 889.066406 60.945312 C 889.265625 60.207031 889.617188 59.5 889.988281 58.824219 Z M 889.832031 65.902344 C 889.726562 65.902344 889.617188 65.902344 889.527344 65.917969 C 889.542969 65.875 889.558594 65.828125 889.574219 65.78125 C 889.648438 65.828125 889.742188 65.859375 889.832031 65.902344 Z M 881.082031 55.710938 C 880.609375 55.695312 880.148438 55.265625 880.085938 54.789062 C 880.027344 54.3125 880.363281 53.789062 880.824219 53.652344 C 881.421875 53.46875 882.050781 53.390625 882.675781 53.390625 C 884.777344 53.390625 886.90625 54.375 888.238281 56 C 885.621094 55.925781 883.320312 55.816406 881.082031 55.710938 Z M 885.007812 68.039062 C 884.976562 68.082031 884.914062 68.113281 884.851562 68.128906 C 884.683594 68.160156 884.484375 68.113281 884.363281 68.023438 C 884.042969 67.761719 883.902344 67.253906 883.796875 66.75 C 883.429688 64.996094 883.367188 63.140625 883.613281 61.359375 C 884.394531 61.941406 885.023438 62.878906 885.328125 63.9375 C 885.726562 65.273438 885.605469 66.761719 885.007812 68.039062 Z M 886.753906 66.210938 C 886.828125 65.320312 886.753906 64.429688 886.507812 63.570312 C 886.140625 62.328125 885.433594 61.25 884.546875 60.515625 C 885.925781 59.378906 887.472656 58.503906 889.066406 57.9375 C 888.605469 58.78125 888.148438 59.640625 887.886719 60.605469 C 887.519531 61.941406 887.609375 63.230469 888.117188 64.246094 C 888.238281 64.492188 888.378906 64.707031 888.546875 64.90625 C 888.4375 65.242188 888.332031 65.597656 888.222656 65.933594 C 887.886719 65.949219 887.550781 65.949219 887.199219 65.964844 C 887.027344 65.980469 886.859375 66.074219 886.753906 66.210938 Z M 901.203125 97.992188 C 901.15625 98.238281 900.925781 98.453125 900.695312 98.484375 C 900.453125 98.515625 900.175781 98.359375 900.070312 98.144531 C 899.316406 96.578125 898.597656 94.246094 899.089844 91.589844 C 899.117188 91.464844 899.148438 91.34375 899.179688 91.222656 C 900.835938 93.015625 901.617188 95.566406 901.203125 97.992188 Z M 905.9375 103.8125 C 905.921875 103.855469 905.859375 103.902344 905.84375 103.902344 C 905.738281 103.964844 905.601562 103.980469 905.492188 103.933594 C 905.25 103.839844 905.019531 103.535156 904.894531 103.136719 C 904.820312 102.875 904.773438 102.582031 904.726562 102.273438 C 904.695312 102.058594 904.664062 101.828125 904.621094 101.613281 C 904.207031 99.632812 904.636719 97.5 905.738281 95.8125 C 906.398438 98.46875 906.472656 101.15625 905.9375 103.8125 Z M 928.109375 75.285156 C 924.277344 75.652344 920.617188 77.664062 918.257812 80.71875 C 917.859375 81.242188 917.734375 81.949219 917.921875 82.652344 C 918.148438 83.46875 918.746094 84.160156 919.484375 84.449219 C 919.867188 84.605469 920.234375 84.664062 920.617188 84.664062 C 921.628906 84.664062 922.609375 84.1875 923.28125 83.636719 C 924.433594 82.699219 925.445312 81.65625 926.347656 80.550781 C 924.691406 83.421875 922.378906 85.863281 919.558594 87.628906 C 916.25 89.6875 912.34375 90.746094 908.25 90.683594 C 904.160156 90.621094 900.269531 89.457031 897.019531 87.320312 C 893.769531 85.1875 891.167969 82.054688 889.511719 78.308594 C 887.917969 74.714844 887.320312 70.894531 887.78125 67.195312 C 887.808594 67.195312 887.839844 67.195312 887.871094 67.195312 C 887.824219 67.484375 887.996094 67.777344 888.300781 67.867188 C 888.363281 67.882812 888.421875 67.898438 888.484375 67.898438 C 888.746094 67.898438 888.992188 67.730469 889.066406 67.46875 C 889.097656 67.363281 889.128906 67.269531 889.160156 67.164062 C 894.183594 67.023438 899.164062 66.933594 904.113281 66.886719 C 904.175781 66.902344 904.222656 66.902344 904.28125 66.902344 C 904.328125 66.902344 904.359375 66.886719 904.40625 66.886719 C 905.875 66.871094 907.363281 66.855469 908.816406 66.855469 C 908.863281 66.871094 908.925781 66.886719 908.972656 66.886719 C 908.972656 66.886719 908.972656 66.886719 908.988281 66.886719 C 909.046875 66.886719 909.109375 66.871094 909.15625 66.855469 C 914.335938 66.824219 919.46875 66.824219 924.539062 66.839844 C 921.644531 67.332031 918.929688 68.929688 917.167969 71.292969 C 916.695312 71.921875 916.082031 72.90625 916.1875 74.027344 C 916.25 74.671875 916.601562 75.316406 917.140625 75.699219 C 917.476562 75.945312 917.859375 76.066406 918.226562 76.066406 C 918.347656 76.066406 918.488281 76.050781 918.609375 76.023438 C 922.515625 75.117188 925.859375 72.335938 927.421875 68.773438 C 927.941406 70.570312 928.171875 72.707031 928.109375 75.285156 Z M 927.4375 76.605469 C 926.300781 78.878906 924.617188 80.949219 922.515625 82.683594 C 921.890625 83.191406 920.847656 83.667969 919.957031 83.300781 C 919.574219 83.144531 919.238281 82.761719 919.117188 82.316406 C 919.070312 82.117188 919.007812 81.761719 919.238281 81.457031 C 921.214844 78.890625 924.234375 77.125 927.4375 76.605469 Z M 930.867188 95.335938 C 931.878906 96.242188 932.644531 97.421875 933.042969 98.742188 C 933.152344 99.097656 932.953125 99.558594 932.613281 99.710938 C 932.277344 99.878906 931.804688 99.757812 931.589844 99.449219 C 930.761719 98.285156 930.515625 96.71875 930.867188 95.335938 Z M 937.578125 89.039062 C 937.839844 89.210938 937.992188 89.546875 937.960938 89.855469 C 937.933594 90.160156 937.71875 90.453125 937.425781 90.5625 C 935.832031 91.191406 934.023438 91.191406 932.429688 90.546875 C 931.160156 90.023438 929.964844 89.039062 929.121094 87.84375 C 931.957031 86.96875 935.128906 87.414062 937.578125 89.039062 Z M 929.214844 71.691406 C 929.167969 71.292969 929.121094 70.910156 929.058594 70.523438 C 929.136719 70.601562 929.214844 70.679688 929.289062 70.753906 C 929.273438 71.0625 929.242188 71.386719 929.214844 71.691406 Z M 928.617188 67.882812 C 928.769531 67.730469 928.84375 67.5 928.785156 67.285156 C 928.785156 67.269531 928.785156 67.269531 928.785156 67.253906 C 928.953125 67.207031 929.105469 67.148438 929.273438 67.117188 C 929.335938 67.746094 929.351562 68.359375 929.367188 68.988281 C 929.074219 68.636719 928.832031 68.269531 928.617188 67.882812 Z M 939.113281 79.691406 C 938.820312 80.273438 938.144531 80.71875 937.351562 80.84375 C 936.660156 80.949219 935.878906 80.84375 934.914062 80.503906 C 932.738281 79.753906 930.820312 78.355469 929.441406 76.511719 C 929.441406 76.480469 929.457031 76.464844 929.457031 76.4375 C 932.125 75.4375 935.679688 76.023438 938.742188 78.003906 C 939.234375 78.308594 939.402344 79.109375 939.113281 79.691406 Z M 939.113281 79.691406 " fill-opacity="1" fill-rule="nonzero"/></g><g clip-path="url(#d2187edb7a)"><g clip-path="url(#abb71ef228)"><g clip-path="url(#afcefdc214)"><g clip-path="url(#691c3a2b1b)"><path fill="#000000" d="M 711.855469 436.457031 C 711.550781 436.554688 711.308594 436.75 711.09375 437.066406 C 710.964844 437.257812 710.875 437.425781 710.769531 437.695312 C 710.472656 438.441406 710.296875 439.382812 710.234375 440.582031 C 710.152344 442.140625 710.285156 443.535156 710.644531 444.945312 C 711.230469 447.246094 712.265625 449.546875 713.578125 451.46875 C 713.9375 451.996094 714.226562 452.386719 714.691406 452.96875 C 715.914062 454.496094 717.285156 455.925781 718.4375 456.871094 C 718.960938 457.304688 719.378906 457.578125 719.613281 457.65625 C 719.960938 457.769531 720.1875 457.582031 720.207031 457.164062 C 720.21875 456.914062 720.195312 456.726562 720.058594 456.035156 C 719.878906 455.136719 719.789062 454.597656 719.710938 453.988281 C 719.542969 452.628906 719.457031 450.921875 719.484375 449.523438 C 719.527344 447.695312 719.75 445.578125 720.0625 444.023438 C 720.53125 441.691406 721.351562 439.847656 722.582031 438.363281 C 723.339844 437.445312 724.207031 436.691406 724.964844 436.289062 C 725.523438 435.992188 726.035156 435.863281 726.464844 435.90625 C 726.914062 435.949219 727.285156 436.179688 727.578125 436.597656 C 727.875 437.015625 728.050781 437.605469 728.15625 438.542969 C 728.167969 438.664062 728.207031 439.050781 728.242188 439.40625 C 728.335938 440.410156 728.382812 440.753906 728.480469 441.21875 C 728.644531 442.007812 728.882812 442.597656 729.257812 443.15625 C 729.386719 443.351562 729.691406 443.730469 730.074219 444.171875 C 730.90625 445.136719 731.21875 445.582031 731.484375 446.199219 C 731.621094 446.511719 731.671875 446.675781 731.75 447.058594 C 731.828125 447.421875 731.84375 447.53125 731.863281 447.859375 C 731.941406 449.269531 731.554688 450.609375 730.671875 451.988281 C 730.324219 452.527344 729.949219 453.011719 729.628906 453.335938 C 728.820312 454.148438 728.425781 454.53125 728.160156 454.78125 C 727.964844 454.960938 727.617188 455.242188 727.359375 455.429688 C 726.3125 456.195312 724.96875 456.902344 723.785156 457.304688 C 723.363281 457.449219 722.992188 457.550781 722.261719 457.726562 C 721.058594 458.007812 720.933594 458.046875 720.828125 458.191406 C 720.777344 458.261719 720.761719 458.324219 720.78125 458.40625 C 720.820312 458.59375 721.054688 458.71875 721.445312 458.757812 C 721.765625 458.792969 722.121094 458.765625 722.546875 458.675781 C 723.320312 458.511719 724.25 458.121094 725.238281 457.546875 C 725.929688 457.144531 726.371094 456.839844 726.953125 456.378906 C 727.132812 456.238281 727.363281 456.0625 727.464844 455.988281 C 728.109375 455.53125 728.621094 455.101562 729.078125 454.628906 C 729.363281 454.335938 729.675781 453.980469 729.949219 453.640625 C 730.082031 453.476562 730.144531 453.414062 730.390625 453.1875 C 731.285156 452.375 731.921875 451.933594 732.488281 451.71875 C 732.660156 451.652344 733.0625 451.570312 733.25 451.558594 C 733.625 451.535156 733.964844 451.589844 734.273438 451.714844 C 734.714844 451.894531 735 452.179688 735.238281 452.65625 C 735.320312 452.828125 735.394531 453.011719 735.550781 453.4375 C 735.8125 454.160156 735.964844 454.464844 736.222656 454.785156 C 736.523438 455.164062 736.917969 455.445312 737.355469 455.582031 C 737.484375 455.625 737.652344 455.660156 737.914062 455.695312 C 738.203125 455.738281 738.289062 455.769531 738.359375 455.855469 C 738.535156 456.066406 738.585938 456.644531 738.503906 457.425781 C 738.324219 459.054688 737.753906 460.871094 736.949219 462.382812 C 736.761719 462.730469 736.65625 462.910156 736.398438 463.300781 C 736.085938 463.773438 735.90625 464.015625 735.632812 464.324219 C 735.167969 464.851562 734.738281 465.195312 734.296875 465.390625 C 734.179688 465.441406 734.144531 465.453125 733.925781 465.5 C 733.652344 465.554688 733.589844 465.5625 733.351562 465.535156 C 732.996094 465.496094 732.617188 465.339844 732.148438 465.046875 C 731.773438 464.8125 731.460938 464.582031 730.484375 463.820312 C 729.136719 462.769531 728.535156 462.351562 727.6875 461.863281 C 726.496094 461.179688 724.535156 460.257812 723.484375 459.886719 C 722.414062 459.507812 721.597656 459.386719 721.066406 459.527344 C 720.816406 459.59375 720.664062 459.707031 720.597656 459.871094 C 720.46875 460.203125 720.726562 460.582031 721.332031 460.949219 C 721.539062 461.074219 721.695312 461.160156 722.175781 461.410156 C 722.597656 461.628906 722.96875 461.824219 723.167969 461.9375 C 724.328125 462.597656 725.378906 463.394531 726.101562 464.160156 C 726.640625 464.734375 727.015625 465.292969 727.085938 465.640625 L 727.105469 465.726562 L 727.074219 465.734375 C 726.960938 465.757812 726.605469 465.648438 726.289062 465.488281 C 725.609375 465.152344 724.824219 464.585938 723.84375 463.734375 C 723.191406 463.164062 721.667969 461.753906 720.925781 461.03125 C 720.386719 460.503906 720.121094 460.21875 719.75 459.773438 C 719.585938 459.574219 719.5 459.464844 718.988281 458.804688 C 718.773438 458.519531 718.578125 458.289062 718.4375 458.140625 C 718.027344 457.710938 717.703125 457.550781 717.324219 457.589844 L 717.261719 457.597656 L 717.128906 457.5 C 716.898438 457.328125 716.644531 457.199219 716.324219 457.089844 C 716.234375 457.058594 715.917969 456.96875 715.621094 456.890625 C 714.933594 456.710938 714.6875 456.632812 714.378906 456.496094 C 713.96875 456.316406 713.5625 456.046875 713.269531 455.761719 C 712.816406 455.324219 712.386719 454.6875 712.0625 453.972656 C 711.902344 453.617188 711.808594 453.34375 711.742188 453.03125 C 711.671875 452.699219 711.664062 452.441406 711.703125 452.144531 C 711.753906 451.804688 711.753906 451.8125 711.734375 451.753906 C 711.664062 451.535156 711.398438 451.515625 711.28125 451.722656 C 711.191406 451.871094 711.140625 452.355469 711.175781 452.75 C 711.1875 452.925781 711.265625 453.304688 711.324219 453.492188 C 711.574219 454.277344 712.046875 455.140625 712.554688 455.75 C 713.039062 456.328125 713.546875 456.703125 714.265625 457.007812 C 714.503906 457.109375 714.835938 457.214844 715.253906 457.324219 C 715.476562 457.382812 715.65625 457.433594 715.65625 457.4375 C 715.660156 457.445312 715.644531 457.449219 715.628906 457.449219 C 715.609375 457.449219 715.484375 457.46875 715.34375 457.492188 C 714.566406 457.617188 714.347656 457.648438 713.992188 457.667969 C 713.378906 457.703125 712.804688 457.652344 712.246094 457.511719 C 711.980469 457.449219 711.859375 457.410156 711.617188 457.316406 C 711.070312 457.101562 710.5 456.730469 710.167969 456.375 C 709.808594 455.988281 709.625 455.554688 709.628906 455.097656 C 709.628906 454.933594 709.652344 454.804688 709.738281 454.488281 C 709.820312 454.175781 709.832031 454.082031 709.808594 453.914062 C 709.792969 453.808594 709.792969 453.808594 709.765625 453.804688 C 709.726562 453.792969 709.628906 453.839844 709.539062 453.910156 C 709.410156 454.007812 709.265625 454.261719 709.199219 454.511719 C 709.097656 454.882812 709.085938 455.191406 709.160156 455.554688 C 709.238281 455.921875 709.386719 456.226562 709.636719 456.546875 C 710.070312 457.089844 710.816406 457.589844 711.621094 457.867188 C 711.945312 457.980469 712.417969 458.089844 712.78125 458.136719 C 713.527344 458.234375 714.1875 458.207031 715.160156 458.039062 C 715.875 457.917969 716.136719 457.898438 716.519531 457.9375 C 716.617188 457.949219 716.710938 457.957031 716.71875 457.960938 C 716.734375 457.960938 716.734375 457.976562 716.703125 458.039062 C 716.464844 458.535156 716.761719 459.191406 717.285156 459.320312 C 717.410156 459.351562 717.488281 459.351562 717.609375 459.316406 C 717.691406 459.296875 717.714844 459.285156 717.78125 459.234375 C 717.902344 459.136719 717.964844 459 717.964844 458.808594 C 717.96875 458.699219 717.917969 458.496094 717.859375 458.367188 C 717.839844 458.320312 717.824219 458.28125 717.828125 458.277344 C 717.835938 458.269531 717.992188 458.417969 718.105469 458.542969 C 718.242188 458.691406 718.492188 459 718.824219 459.433594 C 719.699219 460.574219 720.148438 461.039062 722.214844 462.953125 C 723.496094 464.136719 724.054688 464.617188 724.742188 465.125 C 724.972656 465.292969 725.554688 465.667969 725.75 465.773438 C 726.222656 466.03125 726.679688 466.199219 727.007812 466.238281 C 727.105469 466.25 727.132812 466.25 727.234375 466.226562 C 727.324219 466.207031 727.359375 466.195312 727.402344 466.167969 C 727.523438 466.089844 727.597656 465.957031 727.613281 465.804688 C 727.628906 465.695312 727.585938 465.46875 727.53125 465.320312 C 727.414062 465.015625 727.238281 464.726562 726.941406 464.34375 C 726.277344 463.496094 725.34375 462.691406 724.113281 461.910156 C 723.609375 461.585938 723.277344 461.398438 722.441406 460.964844 C 721.855469 460.664062 721.695312 460.574219 721.4375 460.40625 C 721.210938 460.257812 721.109375 460.179688 721.050781 460.097656 C 721 460.03125 721 460.007812 721.0625 459.96875 C 721.136719 459.921875 721.417969 459.867188 721.585938 459.867188 C 722.347656 459.867188 723.410156 460.199219 724.988281 460.925781 C 726.125 461.453125 727.03125 461.9375 727.847656 462.46875 C 728.523438 462.90625 729.066406 463.300781 730.269531 464.242188 C 731.125 464.910156 731.386719 465.105469 731.753906 465.347656 C 732.027344 465.527344 732.21875 465.640625 732.421875 465.738281 C 733.53125 466.277344 734.527344 466.089844 735.554688 465.140625 C 736.195312 464.546875 736.839844 463.675781 737.390625 462.648438 C 738.050781 461.417969 738.585938 459.914062 738.859375 458.507812 C 738.941406 458.085938 739.015625 457.546875 739.042969 457.171875 C 739.121094 456.132812 738.929688 455.511719 738.472656 455.304688 C 738.363281 455.253906 738.242188 455.226562 737.992188 455.1875 C 737.75 455.152344 737.621094 455.125 737.515625 455.09375 C 737.015625 454.9375 736.609375 454.558594 736.332031 453.996094 C 736.246094 453.824219 736.171875 453.640625 736.035156 453.25 C 735.78125 452.554688 735.652344 452.285156 735.433594 451.980469 C 734.960938 451.324219 734.101562 450.972656 733.160156 451.050781 C 732.550781 451.101562 731.972656 451.359375 731.226562 451.917969 C 731.128906 451.992188 731.050781 452.050781 731.046875 452.046875 C 731.046875 452.042969 731.09375 451.960938 731.148438 451.859375 C 731.996094 450.300781 732.316406 448.703125 732.074219 447.253906 C 731.949219 446.515625 731.683594 445.863281 731.226562 445.175781 C 731.0625 444.925781 730.917969 444.734375 730.445312 444.144531 C 730.203125 443.84375 729.960938 443.535156 729.902344 443.457031 C 729.402344 442.792969 729.164062 442.261719 728.984375 441.40625 C 728.867188 440.851562 728.816406 440.414062 728.738281 439.28125 C 728.667969 438.222656 728.546875 437.511719 728.347656 436.976562 C 728.015625 436.058594 727.347656 435.480469 726.535156 435.394531 C 726.265625 435.367188 726.058594 435.382812 725.75 435.449219 C 724.84375 435.640625 723.875 436.257812 722.855469 437.292969 C 721.765625 438.398438 720.980469 439.617188 720.371094 441.136719 C 719.796875 442.566406 719.449219 444.089844 719.199219 446.25 C 718.921875 448.636719 718.890625 450.847656 719.105469 453.167969 C 719.203125 454.222656 719.289062 454.789062 719.585938 456.335938 C 719.664062 456.734375 719.730469 457.101562 719.738281 457.148438 C 719.742188 457.199219 719.746094 457.242188 719.746094 457.246094 C 719.753906 457.28125 719.644531 457.234375 719.472656 457.125 C 718.941406 456.796875 717.828125 455.824219 716.894531 454.875 C 715.382812 453.335938 714.046875 451.613281 713.058594 449.9375 C 712.121094 448.347656 711.484375 446.824219 710.96875 444.929688 C 710.886719 444.621094 710.671875 443.609375 710.632812 443.328125 C 710.507812 442.46875 710.453125 441.710938 710.460938 440.964844 C 710.480469 439.019531 710.914062 437.453125 711.570312 436.949219 C 711.703125 436.84375 711.800781 436.796875 711.945312 436.765625 C 712.15625 436.722656 712.300781 436.753906 712.515625 436.890625 C 712.71875 437.023438 712.882812 437.199219 713.089844 437.515625 C 713.246094 437.746094 713.378906 437.976562 713.828125 438.804688 C 714.246094 439.570312 714.296875 439.664062 714.421875 439.816406 C 714.546875 439.964844 714.628906 440.035156 714.777344 440.128906 C 715.003906 440.277344 715.164062 440.324219 715.675781 440.386719 C 716.238281 440.460938 716.523438 440.539062 716.910156 440.71875 C 717.320312 440.910156 717.605469 441.136719 717.90625 441.5 C 718.300781 441.988281 718.542969 442.503906 718.753906 443.316406 C 718.859375 443.722656 718.921875 444.136719 718.910156 444.382812 C 718.90625 444.449219 718.910156 444.496094 718.921875 444.527344 C 718.976562 444.675781 719.132812 444.742188 719.269531 444.667969 C 719.417969 444.589844 719.453125 444.433594 719.410156 444.015625 C 719.390625 443.804688 719.265625 443.1875 719.191406 442.945312 C 718.976562 442.222656 718.726562 441.710938 718.359375 441.242188 C 717.957031 440.730469 717.539062 440.414062 716.925781 440.167969 C 716.546875 440.011719 716.269531 439.945312 715.765625 439.882812 C 715.347656 439.832031 715.191406 439.789062 715.050781 439.699219 C 714.933594 439.625 714.84375 439.53125 714.707031 439.335938 C 714.507812 439.050781 714.421875 438.90625 714.039062 438.207031 C 713.65625 437.511719 713.453125 437.199219 713.207031 436.9375 C 713.039062 436.757812 712.832031 436.601562 712.644531 436.515625 C 712.535156 436.464844 712.320312 436.414062 712.207031 436.410156 C 712.109375 436.410156 711.933594 436.433594 711.855469 436.457031 Z M 717.246094 458.335938 C 717.386719 458.535156 717.527344 458.820312 717.527344 458.898438 C 717.527344 458.949219 717.515625 458.964844 717.472656 458.972656 C 717.339844 459 717.15625 458.859375 717.085938 458.671875 C 717.035156 458.542969 717.042969 458.363281 717.109375 458.253906 C 717.144531 458.199219 717.15625 458.203125 717.246094 458.335938 Z M 717.246094 458.335938 " fill-opacity="1" fill-rule="nonzero"/></g></g></g></g><g clip-path="url(#7bf7bacc17)"><path fill="#000000" d="M 463.792969 511.511719 C 467.449219 511.84375 469.707031 512.851562 471.988281 515.171875 L 472.816406 516.011719 L 472.625 516.367188 C 472.34375 516.886719 471.375 517.738281 470.648438 518.109375 C 468.671875 519.109375 466.570312 519.21875 464.957031 518.402344 C 462.847656 517.332031 461.394531 514.808594 461.390625 512.195312 L 461.390625 511.363281 L 462.046875 511.386719 C 462.410156 511.398438 463.1875 511.453125 463.792969 511.511719 Z M 455.15625 505.050781 C 456.796875 505.820312 458.707031 507.738281 460.128906 510.050781 L 460.757812 511.066406 L 460.765625 512.242188 C 460.792969 515.347656 462.238281 517.941406 464.617188 519.144531 C 465.632812 519.65625 466.242188 519.769531 467.710938 519.714844 C 468.742188 519.671875 469.054688 519.621094 469.78125 519.367188 C 470.917969 518.96875 471.605469 518.542969 472.386719 517.757812 C 472.855469 517.285156 473.09375 516.953125 473.226562 516.582031 L 473.417969 516.0625 L 474.867188 515.308594 C 475.664062 514.894531 477.648438 513.949219 479.273438 513.214844 C 481.5 512.203125 482.265625 511.894531 482.382812 511.96875 C 482.585938 512.097656 482.878906 513.074219 482.949219 513.867188 L 483.003906 514.515625 L 481.042969 515.527344 C 478.707031 516.726562 477.296875 517.628906 476.441406 518.472656 C 475.726562 519.175781 475.46875 519.636719 474.855469 521.3125 C 472.839844 526.824219 468.953125 529.882812 463.421875 530.304688 C 462.140625 530.402344 461.824219 530.363281 461.929688 530.125 C 463.675781 526.101562 463.699219 522.128906 461.992188 519.292969 C 461.480469 518.445312 460.417969 517.367188 459.511719 516.785156 C 459.082031 516.507812 458.179688 516.019531 457.519531 515.703125 C 454.925781 514.472656 454.765625 514.152344 455.253906 511.195312 C 455.5 509.695312 455.523438 507.984375 455.308594 507.160156 C 455.117188 506.425781 454.742188 505.632812 454.320312 505.074219 L 453.980469 504.625 L 454.257812 504.691406 C 454.410156 504.730469 454.816406 504.894531 455.15625 505.050781 Z M 453.039062 504.707031 C 453.683594 505.121094 454.300781 506.101562 454.640625 507.257812 C 454.875 508.046875 454.855469 509.480469 454.59375 510.980469 C 454.480469 511.636719 454.390625 512.554688 454.390625 513.035156 C 454.390625 514.664062 454.816406 515.160156 457.285156 516.394531 C 458.949219 517.226562 459.664062 517.699219 460.402344 518.460938 C 461.289062 519.378906 461.855469 520.460938 462.28125 522.054688 C 462.554688 523.066406 462.574219 525.277344 462.328125 526.441406 C 462.101562 527.511719 461.722656 528.75 461.363281 529.617188 L 461.070312 530.332031 L 460.574219 530.265625 C 457.664062 529.886719 453.980469 528.5 451.570312 526.871094 C 449.285156 525.332031 447.988281 523.535156 446.65625 520.078125 C 446.15625 518.773438 445.894531 517.863281 445.574219 516.277344 C 445.242188 514.640625 445.148438 511.707031 445.382812 510.332031 C 445.667969 508.648438 446.164062 507.445312 446.941406 506.542969 C 447.800781 505.542969 449.710938 504.644531 451.355469 504.460938 C 452.257812 504.363281 452.570312 504.40625 453.039062 504.707031 Z M 450.820312 503.910156 C 448.835938 504.292969 447.21875 505.175781 446.285156 506.378906 L 445.859375 506.925781 L 444.507812 506.964844 C 443.769531 506.984375 442.9375 507.035156 442.671875 507.078125 C 442.242188 507.140625 442.183594 507.179688 442.15625 507.394531 C 442.121094 507.691406 442.292969 507.863281 443.742188 508.96875 C 444.394531 509.464844 444.800781 509.847656 444.785156 509.941406 C 444.183594 513.910156 444.96875 518.421875 446.988281 522.59375 C 448.203125 525.101562 449.476562 526.488281 451.957031 528.015625 C 453.863281 529.1875 456.625 530.269531 458.910156 530.746094 L 459.980469 530.96875 L 460.039062 532.230469 C 460.070312 532.925781 460.128906 534.046875 460.167969 534.722656 L 460.242188 535.953125 L 458.902344 536.066406 C 457.507812 536.1875 457.066406 536.335938 457.128906 536.65625 C 457.167969 536.847656 457.277344 536.851562 458.570312 536.738281 L 459.394531 536.667969 L 458.714844 537.039062 C 457.753906 537.566406 457.527344 537.734375 457.46875 537.949219 C 457.445312 538.046875 457.492188 538.195312 457.570312 538.257812 C 457.6875 538.355469 457.875 538.296875 458.554688 537.945312 C 459.023438 537.703125 459.609375 537.410156 459.875 537.289062 L 460.347656 537.066406 L 460.289062 537.992188 C 460.242188 538.777344 460.257812 538.945312 460.394531 539.082031 C 460.546875 539.234375 460.5625 539.230469 460.71875 539.035156 C 460.972656 538.71875 461.042969 537.527344 460.910156 535.746094 C 460.65625 532.300781 460.613281 531.640625 460.613281 531.347656 L 460.613281 531.046875 L 462.140625 531.078125 C 463.460938 531.109375 464.65625 531.023438 465.589844 530.828125 L 465.863281 530.769531 L 465.863281 535.863281 L 464.308594 535.8125 C 462.683594 535.761719 462.460938 535.808594 462.460938 536.1875 C 462.460938 536.441406 462.644531 536.480469 463.800781 536.492188 L 464.839844 536.5 L 464.355469 536.707031 C 464.085938 536.820312 463.566406 537.066406 463.1875 537.257812 C 462.625 537.546875 462.507812 537.648438 462.507812 537.851562 C 462.507812 537.996094 462.574219 538.109375 462.667969 538.125 C 462.757812 538.140625 463.386719 537.917969 464.078125 537.621094 C 464.769531 537.324219 465.421875 537.058594 465.542969 537.023438 C 465.800781 536.945312 465.808594 536.988281 465.667969 537.988281 C 465.585938 538.574219 465.59375 538.695312 465.726562 538.828125 C 465.980469 539.078125 466.214844 538.664062 466.398438 537.625 C 466.535156 536.875 466.558594 536.1875 466.527344 533.667969 L 466.496094 530.625 L 467.273438 530.363281 C 471.09375 529.074219 474.007812 525.984375 475.539062 521.59375 C 476.019531 520.214844 476.300781 519.667969 476.78125 519.167969 C 477.6875 518.226562 479.039062 517.363281 481.730469 515.996094 C 483.734375 514.980469 483.816406 514.894531 483.703125 513.964844 C 483.59375 513.074219 483.285156 511.980469 483.035156 511.597656 C 482.609375 510.949219 482.519531 510.964844 479.652344 512.246094 C 478.242188 512.875 476.210938 513.828125 475.125 514.367188 L 473.15625 515.347656 L 472.414062 514.554688 C 471.40625 513.472656 470.597656 512.875 469.21875 512.191406 C 467.429688 511.308594 465.542969 510.882812 462.886719 510.769531 C 462.011719 510.730469 461.359375 510.65625 461.242188 510.582031 C 461.136719 510.515625 460.882812 510.15625 460.675781 509.773438 C 459.933594 508.402344 458.214844 506.335938 457.113281 505.484375 C 456.273438 504.832031 455.207031 504.289062 454.332031 504.0625 C 453.328125 503.804688 451.730469 503.734375 450.820312 503.910156 " fill-opacity="1" fill-rule="nonzero"/></g><path fill="#000000" d="M 450.625 507.742188 C 450.511719 507.820312 450.367188 508.042969 450.304688 508.238281 C 450.199219 508.550781 450.207031 508.617188 450.375 508.84375 C 450.660156 509.238281 451.28125 509.265625 451.613281 508.902344 C 451.914062 508.582031 451.945312 507.996094 451.675781 507.753906 C 451.457031 507.554688 450.898438 507.546875 450.625 507.742188 " fill-opacity="1" fill-rule="nonzero"/><path fill="#000000" d="M 464.148438 514.007812 C 464.046875 514.277344 464.410156 515.023438 464.878906 515.515625 C 465.441406 516.09375 466.367188 516.554688 467.273438 516.703125 C 468.410156 516.886719 469.089844 516.671875 468.808594 516.21875 C 468.734375 516.101562 468.488281 516.046875 467.828125 516.003906 C 467.097656 515.957031 466.832031 515.890625 466.320312 515.640625 C 465.730469 515.347656 465.121094 514.789062 464.664062 514.113281 C 464.472656 513.828125 464.234375 513.78125 464.148438 514.007812 " fill-opacity="1" fill-rule="nonzero"/><g clip-path="url(#e11add3e32)"><path fill="#000000" d="M 422.835938 510.398438 C 424.28125 510.890625 425.117188 511.746094 425.628906 513.261719 C 426.46875 515.738281 426.101562 518.953125 424.617188 522.074219 C 423.511719 524.414062 422.273438 525.726562 419.703125 527.289062 C 417.199219 528.8125 414.890625 529.488281 411.808594 529.609375 C 410 529.679688 408.703125 529.542969 406.96875 529.09375 C 405.089844 528.613281 403.671875 527.949219 402.4375 526.984375 C 402.144531 526.753906 401.898438 526.5625 401.882812 526.546875 C 401.820312 526.503906 402.582031 524.957031 402.90625 524.464844 C 404.15625 522.566406 406.441406 521.023438 409.105469 520.28125 C 409.539062 520.15625 410.480469 519.960938 411.203125 519.84375 C 411.921875 519.726562 412.644531 519.570312 412.8125 519.503906 C 413.257812 519.316406 413.542969 518.863281 414.113281 517.445312 C 414.761719 515.816406 415.085938 515.167969 415.6875 514.292969 C 417.0625 512.285156 420.140625 510.175781 421.726562 510.152344 C 421.933594 510.152344 422.429688 510.261719 422.835938 510.398438 Z M 402.628906 506.832031 C 404.792969 507.382812 406.644531 508.152344 410.574219 510.125 C 411.421875 510.550781 412.429688 511.027344 412.800781 511.183594 C 413.179688 511.335938 413.515625 511.488281 413.558594 511.523438 C 413.671875 511.617188 412.964844 512.46875 412.304688 513.042969 C 410.089844 514.964844 408.289062 515.917969 406.324219 516.214844 C 404.757812 516.453125 403.105469 515.871094 401.804688 514.628906 C 400.601562 513.476562 400.082031 512.136719 400.082031 510.199219 C 400.082031 509.296875 400.371094 506.976562 400.550781 506.445312 C 400.597656 506.308594 400.566406 506.300781 402.628906 506.832031 Z M 396.511719 496.257812 C 396.632812 496.535156 397.109375 497.90625 397.582031 499.316406 C 398.523438 502.128906 399.800781 505.734375 399.914062 505.890625 C 399.953125 505.941406 399.855469 506.601562 399.699219 507.359375 C 399.335938 509.089844 399.277344 511.253906 399.5625 512.292969 C 400.121094 514.320312 401.769531 516.074219 403.71875 516.714844 C 404.335938 516.921875 404.621094 516.953125 405.75 516.949219 C 406.929688 516.945312 407.144531 516.914062 407.84375 516.671875 C 409.953125 515.933594 412.46875 514.113281 413.816406 512.351562 C 414.199219 511.851562 414.261719 511.8125 414.644531 511.8125 C 414.957031 511.8125 415.203125 511.71875 415.660156 511.421875 C 416.953125 510.582031 418.132812 510.121094 419.285156 509.996094 L 419.898438 509.933594 L 419.082031 510.40625 C 417.972656 511.050781 416.332031 512.410156 415.605469 513.28125 C 414.878906 514.15625 414.1875 515.386719 413.574219 516.90625 C 413.054688 518.1875 412.796875 518.730469 412.664062 518.8125 C 412.609375 518.847656 411.828125 519.003906 410.933594 519.15625 C 408.699219 519.546875 407.832031 519.816406 406.316406 520.582031 C 405.292969 521.101562 404.558594 521.628906 403.691406 522.46875 C 402.734375 523.390625 402.320312 523.957031 401.753906 525.113281 L 401.308594 526.023438 L 400.476562 525.140625 C 400.015625 524.652344 399.402344 523.894531 399.101562 523.4375 C 397.695312 521.308594 396.644531 518.257812 396.308594 515.339844 C 396.105469 513.539062 396.3125 510.238281 396.753906 508.335938 C 396.949219 507.515625 396.945312 507.179688 396.746094 506.789062 C 396.550781 506.398438 395.636719 505.066406 394.25 503.144531 C 393.164062 501.648438 391.953125 499.683594 391.679688 498.984375 C 391.539062 498.621094 391.539062 498.578125 391.710938 498.386719 C 392.140625 497.90625 395.796875 495.761719 396.191406 495.753906 C 396.25 495.753906 396.398438 495.984375 396.511719 496.257812 Z M 394.472656 495.832031 C 392.859375 496.710938 392.734375 496.785156 391.789062 497.484375 C 390.992188 498.070312 390.796875 498.433594 390.960938 499.035156 C 391.195312 499.875 392.363281 501.746094 394.632812 504.910156 C 395.25 505.769531 395.863281 506.664062 395.996094 506.898438 L 396.242188 507.316406 L 396.039062 508.316406 C 395.714844 509.921875 395.636719 510.667969 395.574219 512.742188 C 395.480469 515.847656 395.871094 518.210938 396.910156 520.824219 C 397.828125 523.132812 398.804688 524.625 400.539062 526.359375 C 402.378906 528.203125 404.253906 529.277344 406.753906 529.925781 C 407.382812 530.089844 408 530.222656 408.121094 530.222656 C 408.328125 530.222656 408.367188 530.375 408.949219 533.382812 C 409.472656 536.074219 409.628906 536.703125 410 537.636719 C 410.242188 538.246094 410.5 538.824219 410.582031 538.941406 C 410.730469 539.15625 411.042969 539.207031 411.148438 539.039062 C 411.179688 538.984375 411.03125 538.503906 410.8125 537.964844 C 410.59375 537.425781 410.417969 536.972656 410.417969 536.945312 C 410.417969 536.921875 410.808594 537.050781 411.273438 537.222656 C 412.878906 537.828125 413.433594 537.894531 413.433594 537.46875 C 413.433594 537.203125 413.023438 536.964844 411.898438 536.574219 C 410.859375 536.214844 410.855469 536.21875 412.394531 536 C 413.296875 535.871094 413.707031 535.660156 413.601562 535.375 C 413.554688 535.257812 413.414062 535.21875 413.054688 535.21875 C 412.601562 535.21875 410.855469 535.445312 410.371094 535.566406 C 410.179688 535.613281 410.148438 535.570312 410.089844 535.199219 C 410.03125 534.832031 409.242188 531.15625 409.097656 530.574219 C 409.050781 530.378906 409.078125 530.371094 409.902344 530.425781 C 410.886719 530.492188 413.425781 530.375 414.203125 530.226562 C 415.046875 530.070312 415.058594 530.074219 415.132812 530.597656 C 415.230469 531.242188 415.890625 533.816406 416.25 534.925781 C 416.414062 535.433594 416.519531 535.917969 416.492188 536.011719 C 416.4375 536.179688 416.898438 537.753906 417.242188 538.566406 C 417.378906 538.890625 417.496094 539.039062 417.625 539.039062 C 417.949219 539.039062 417.941406 538.734375 417.589844 537.648438 C 417.402344 537.070312 417.273438 536.589844 417.308594 536.589844 C 417.34375 536.589844 417.839844 536.816406 418.410156 537.09375 C 419.492188 537.617188 419.753906 537.644531 419.753906 537.234375 C 419.753906 536.960938 419.433594 536.695312 418.800781 536.441406 C 418.578125 536.351562 418.390625 536.242188 418.390625 536.203125 C 418.390625 536.160156 418.664062 536.101562 418.996094 536.066406 C 419.742188 535.988281 420.191406 535.746094 420.191406 535.414062 C 420.191406 535.226562 420.144531 535.171875 419.996094 535.183594 C 419.828125 535.191406 417.507812 535.503906 417.285156 535.542969 C 417.140625 535.570312 415.878906 531.390625 415.707031 530.3125 L 415.648438 529.96875 L 416.730469 529.609375 C 418.136719 529.140625 419.511719 528.441406 421.054688 527.410156 C 423.160156 526.007812 424.292969 524.699219 425.34375 522.457031 C 425.820312 521.449219 426.464844 519.636719 426.464844 519.316406 C 426.464844 519.230469 426.871094 519.035156 427.511719 518.816406 C 429 518.300781 430.519531 517.550781 430.601562 517.289062 C 430.699219 516.964844 430.46875 516.820312 429.671875 516.707031 C 429.269531 516.648438 428.484375 516.480469 427.921875 516.328125 L 426.898438 516.054688 L 426.789062 515.035156 C 426.433594 511.8125 425.226562 510.203125 422.601562 509.4375 C 421.945312 509.246094 421.621094 509.21875 420.191406 509.21875 C 418.734375 509.21875 418.453125 509.246094 417.808594 509.449219 C 417 509.703125 416.203125 510.089844 415.308594 510.65625 L 414.707031 511.039062 L 414.046875 510.796875 C 413.027344 510.425781 412.792969 510.316406 409.933594 508.921875 C 405.742188 506.878906 404.359375 506.363281 401.695312 505.847656 C 401.152344 505.742188 400.621094 505.609375 400.519531 505.554688 C 400.410156 505.496094 400.253906 505.191406 400.132812 504.792969 C 399.59375 503.007812 396.984375 495.578125 396.820312 495.363281 C 396.691406 495.183594 396.53125 495.109375 396.261719 495.09375 C 395.945312 495.070312 395.648438 495.195312 394.472656 495.832031 " fill-opacity="1" fill-rule="nonzero"/></g><path fill="#000000" d="M 402.933594 509.511719 C 402.75 509.738281 402.898438 510.453125 403.246094 510.980469 C 403.882812 511.945312 404.867188 512.378906 406.054688 512.214844 C 406.832031 512.105469 407.128906 511.921875 406.925781 511.675781 C 406.832031 511.5625 406.601562 511.535156 405.960938 511.546875 C 405.261719 511.566406 405.054688 511.53125 404.730469 511.359375 C 404.152344 511.046875 403.703125 510.519531 403.507812 509.933594 C 403.328125 509.394531 403.144531 509.257812 402.933594 509.511719 " fill-opacity="1" fill-rule="nonzero"/><path fill="#000000" d="M 421.488281 514.535156 C 421.082031 515.023438 420.992188 515.800781 421.308594 516.121094 C 421.5625 516.378906 421.824219 516.367188 422.144531 516.09375 C 422.351562 515.917969 422.417969 515.753906 422.457031 515.351562 C 422.5 514.914062 422.472656 514.804688 422.285156 514.605469 C 422.019531 514.320312 421.695312 514.292969 421.488281 514.535156 " fill-opacity="1" fill-rule="nonzero"/><g fill="#0a3757" fill-opacity="1"><g transform="translate(268.207441, 311.428456)"><g><path d="M 1.421875 2.296875 C 1.023438 2.296875 0.707031 2.078125 0.46875 1.640625 C 0.238281 1.210938 0.0976562 0.820312 0.046875 0.46875 C 0.015625 0.332031 0 0.191406 0 0.046875 C 0 -0.0976562 0 -0.226562 0 -0.34375 C 0 -0.488281 0 -0.609375 0 -0.703125 C 0 -0.804688 0 -0.890625 0 -0.953125 C 0.03125 -2.046875 0.109375 -3.066406 0.234375 -4.015625 C 0.367188 -4.972656 0.535156 -5.914062 0.734375 -6.84375 C 0.796875 -7.070312 0.847656 -7.3125 0.890625 -7.5625 C 0.929688 -7.820312 0.851562 -8.070312 0.65625 -8.3125 C 0.5625 -8.425781 0.535156 -8.539062 0.578125 -8.65625 C 0.628906 -8.769531 0.695312 -8.867188 0.78125 -8.953125 C 1.09375 -9.359375 1.335938 -9.785156 1.515625 -10.234375 C 1.691406 -10.679688 1.847656 -11.148438 1.984375 -11.640625 C 2.304688 -12.617188 2.695312 -13.726562 3.15625 -14.96875 C 3.613281 -16.207031 4.128906 -17.460938 4.703125 -18.734375 C 5.285156 -20.003906 5.910156 -21.191406 6.578125 -22.296875 C 7.242188 -23.410156 7.953125 -24.34375 8.703125 -25.09375 C 8.929688 -25.269531 9.128906 -25.359375 9.296875 -25.359375 C 9.328125 -25.359375 9.363281 -25.347656 9.40625 -25.328125 C 9.445312 -25.316406 9.515625 -25.296875 9.609375 -25.265625 C 9.804688 -25.179688 9.925781 -25.054688 9.96875 -24.890625 C 10.007812 -24.734375 10.019531 -24.570312 10 -24.40625 C 9.789062 -23.539062 9.429688 -22.535156 8.921875 -21.390625 C 8.421875 -20.253906 7.847656 -19.085938 7.203125 -17.890625 C 6.554688 -16.691406 5.898438 -15.550781 5.234375 -14.46875 C 4.566406 -13.382812 3.988281 -12.46875 3.5 -11.71875 C 2.976562 -10.96875 2.566406 -10 2.265625 -8.8125 C 1.960938 -7.632812 1.722656 -6.429688 1.546875 -5.203125 C 1.378906 -3.984375 1.253906 -2.925781 1.171875 -2.03125 C 1.109375 -1.601562 1.066406 -1.164062 1.046875 -0.71875 C 1.035156 -0.269531 1.101562 0.171875 1.25 0.609375 C 1.3125 0.835938 1.441406 0.953125 1.640625 0.953125 C 1.847656 0.953125 2.109375 0.765625 2.421875 0.390625 C 2.742188 0.015625 2.960938 -0.242188 3.078125 -0.390625 C 4.085938 -1.691406 5.125 -3.066406 6.1875 -4.515625 C 7.25 -5.972656 8.257812 -7.367188 9.21875 -8.703125 C 9.269531 -8.816406 9.382812 -8.992188 9.5625 -9.234375 C 9.738281 -9.484375 9.894531 -9.609375 10.03125 -9.609375 C 10.0625 -9.609375 10.164062 -9.578125 10.34375 -9.515625 C 10.539062 -9.429688 10.613281 -9.273438 10.5625 -9.046875 C 10.5625 -8.816406 10.503906 -8.640625 10.390625 -8.515625 C 10.296875 -8.347656 10.191406 -8.171875 10.078125 -7.984375 C 9.960938 -7.796875 9.847656 -7.613281 9.734375 -7.4375 C 9.273438 -6.863281 8.8125 -6.265625 8.34375 -5.640625 C 7.882812 -5.023438 7.425781 -4.382812 6.96875 -3.71875 C 6.507812 -3.050781 6.039062 -2.398438 5.5625 -1.765625 C 5.082031 -1.140625 4.613281 -0.519531 4.15625 0.09375 C 4.007812 0.320312 3.769531 0.613281 3.4375 0.96875 C 3.101562 1.332031 2.753906 1.644531 2.390625 1.90625 C 2.035156 2.164062 1.710938 2.296875 1.421875 2.296875 Z M 4.9375 -15.53125 C 4.9375 -15.5625 4.945312 -15.578125 4.96875 -15.578125 C 4.96875 -15.578125 4.96875 -15.5625 4.96875 -15.53125 C 5.375 -16.34375 5.785156 -17.15625 6.203125 -17.96875 C 6.628906 -18.789062 7.054688 -19.609375 7.484375 -20.421875 L 8.65625 -22.75 L 8.65625 -22.796875 C 8.625 -22.828125 8.609375 -22.859375 8.609375 -22.890625 C 8.609375 -22.828125 8.625 -22.78125 8.65625 -22.75 C 8.476562 -22.8125 8.390625 -22.84375 8.390625 -22.84375 C 8.273438 -22.84375 8.128906 -22.726562 7.953125 -22.5 C 7.378906 -21.519531 6.835938 -20.53125 6.328125 -19.53125 C 5.828125 -18.539062 5.375 -17.507812 4.96875 -16.4375 C 4.832031 -16.0625 4.820312 -15.757812 4.9375 -15.53125 Z M 4.9375 -15.53125 "/></g></g></g><g fill="#0a3757" fill-opacity="1"><g transform="translate(276.599661, 311.428456)"><g><path d="M 1.8125 -2.15625 C 1.289062 -2.15625 0.828125 -2.3125 0.421875 -2.625 C 0.0234375 -2.945312 -0.226562 -3.398438 -0.34375 -3.984375 C -0.425781 -4.410156 -0.457031 -4.785156 -0.4375 -5.109375 C -0.375 -5.710938 -0.203125 -6.410156 0.078125 -7.203125 C 0.367188 -7.992188 0.757812 -8.734375 1.25 -9.421875 C 1.738281 -10.117188 2.257812 -10.566406 2.8125 -10.765625 C 2.988281 -10.859375 3.175781 -10.90625 3.375 -10.90625 C 3.632812 -10.875 3.789062 -10.726562 3.84375 -10.46875 C 3.90625 -10.125 3.820312 -9.9375 3.59375 -9.90625 C 3.101562 -9.820312 2.726562 -9.617188 2.46875 -9.296875 C 2.207031 -8.984375 1.960938 -8.640625 1.734375 -8.265625 C 1.328125 -7.484375 1.035156 -6.75 0.859375 -6.0625 C 0.742188 -5.738281 0.6875 -5.316406 0.6875 -4.796875 C 0.6875 -3.960938 0.976562 -3.472656 1.5625 -3.328125 C 1.90625 -3.328125 2.191406 -3.367188 2.421875 -3.453125 C 2.648438 -3.546875 2.867188 -3.765625 3.078125 -4.109375 C 3.359375 -4.566406 3.523438 -5.023438 3.578125 -5.484375 C 3.640625 -5.953125 3.515625 -6.429688 3.203125 -6.921875 C 3.023438 -7.210938 2.878906 -7.5 2.765625 -7.78125 C 2.710938 -7.925781 2.734375 -8.0625 2.828125 -8.1875 C 2.929688 -8.320312 3.054688 -8.40625 3.203125 -8.4375 L 4.546875 -8.4375 C 5.347656 -8.4375 6.15625 -8.566406 6.96875 -8.828125 C 7.164062 -8.878906 7.363281 -8.945312 7.5625 -9.03125 C 7.769531 -9.125 7.972656 -9.203125 8.171875 -9.265625 C 8.378906 -9.316406 8.578125 -9.382812 8.765625 -9.46875 C 8.953125 -9.5625 9.144531 -9.632812 9.34375 -9.6875 L 10.03125 -9.859375 C 10.269531 -9.859375 10.457031 -9.742188 10.59375 -9.515625 C 10.738281 -9.171875 10.625 -8.941406 10.25 -8.828125 C 9.84375 -8.679688 9.4375 -8.535156 9.03125 -8.390625 C 8.632812 -8.242188 8.234375 -8.097656 7.828125 -7.953125 C 7.421875 -7.816406 7.007812 -7.695312 6.59375 -7.59375 C 6.175781 -7.488281 5.738281 -7.410156 5.28125 -7.359375 C 4.875 -7.296875 4.648438 -7.226562 4.609375 -7.15625 C 4.566406 -7.082031 4.570312 -6.859375 4.625 -6.484375 C 4.800781 -5.648438 4.703125 -4.832031 4.328125 -4.03125 C 4.035156 -3.414062 3.601562 -2.910156 3.03125 -2.515625 C 2.625 -2.273438 2.21875 -2.15625 1.8125 -2.15625 Z M 1.8125 -2.15625 "/></g></g></g><g fill="#0a3757" fill-opacity="1"><g transform="translate(285.078395, 311.428456)"><g><path d="M 1.25 0.265625 C 0.707031 0.265625 0.347656 -0.109375 0.171875 -0.859375 C 0.140625 -1.003906 0.117188 -1.140625 0.109375 -1.265625 C 0.0976562 -1.398438 0.09375 -1.523438 0.09375 -1.640625 C 0.0625 -1.753906 0.046875 -1.867188 0.046875 -1.984375 C 0.046875 -2.097656 0.03125 -2.21875 0 -2.34375 C 0.144531 -3.894531 0.367188 -5.40625 0.671875 -6.875 C 0.972656 -8.34375 1.425781 -9.785156 2.03125 -11.203125 C 2.0625 -11.285156 2.101562 -11.363281 2.15625 -11.4375 C 2.21875 -11.507812 2.28125 -11.578125 2.34375 -11.640625 C 2.394531 -11.691406 2.476562 -11.71875 2.59375 -11.71875 C 2.707031 -11.71875 2.796875 -11.691406 2.859375 -11.640625 C 2.972656 -11.609375 3.054688 -11.503906 3.109375 -11.328125 C 3.140625 -11.191406 3.132812 -11.054688 3.09375 -10.921875 C 3.050781 -10.796875 3 -10.660156 2.9375 -10.515625 C 2.394531 -9.210938 1.960938 -7.8125 1.640625 -6.3125 C 1.328125 -4.8125 1.171875 -3.359375 1.171875 -1.953125 C 1.171875 -1.804688 1.175781 -1.660156 1.1875 -1.515625 C 1.207031 -1.367188 1.285156 -1.269531 1.421875 -1.21875 C 1.453125 -1.1875 1.523438 -1.171875 1.640625 -1.171875 C 1.785156 -1.171875 1.898438 -1.226562 1.984375 -1.34375 C 2.015625 -1.394531 2.050781 -1.441406 2.09375 -1.484375 C 2.132812 -1.535156 2.171875 -1.585938 2.203125 -1.640625 C 2.546875 -1.984375 2.925781 -2.472656 3.34375 -3.109375 C 3.769531 -3.742188 4.144531 -4.398438 4.46875 -5.078125 C 4.800781 -5.753906 5.015625 -6.328125 5.109375 -6.796875 C 5.304688 -7.546875 5.632812 -8.09375 6.09375 -8.4375 C 6.5625 -8.78125 7.171875 -8.992188 7.921875 -9.078125 C 8.492188 -9.140625 9.066406 -9.234375 9.640625 -9.359375 C 10.222656 -9.492188 10.800781 -9.632812 11.375 -9.78125 C 11.488281 -9.8125 11.585938 -9.832031 11.671875 -9.84375 C 11.765625 -9.851562 11.835938 -9.859375 11.890625 -9.859375 C 11.921875 -9.859375 12.023438 -9.832031 12.203125 -9.78125 C 12.398438 -9.664062 12.5 -9.503906 12.5 -9.296875 C 12.5 -9.066406 12.414062 -8.910156 12.25 -8.828125 C 12.132812 -8.742188 11.957031 -8.703125 11.71875 -8.703125 L 8.265625 -7.953125 C 8.203125 -7.929688 8.128906 -7.921875 8.046875 -7.921875 C 7.960938 -7.921875 7.875 -7.90625 7.78125 -7.875 C 7.695312 -7.84375 7.609375 -7.828125 7.515625 -7.828125 C 7.429688 -7.828125 7.363281 -7.8125 7.3125 -7.78125 C 6.851562 -7.695312 6.550781 -7.441406 6.40625 -7.015625 L 6.015625 -5.921875 C 5.898438 -5.523438 5.664062 -4.984375 5.3125 -4.296875 C 4.96875 -3.617188 4.566406 -2.925781 4.109375 -2.21875 C 3.648438 -1.519531 3.164062 -0.929688 2.65625 -0.453125 C 2.15625 0.0234375 1.6875 0.265625 1.25 0.265625 Z M 1.25 0.265625 "/></g></g></g><g fill="#0a3757" fill-opacity="1"><g transform="translate(295.417263, 311.428456)"><g><path d="M 2.03125 -1.8125 C 0.851562 -1.8125 0.117188 -2.347656 -0.171875 -3.421875 C -0.253906 -3.648438 -0.320312 -3.894531 -0.375 -4.15625 C -0.4375 -4.414062 -0.457031 -4.660156 -0.4375 -4.890625 C -0.457031 -5.265625 -0.429688 -5.609375 -0.359375 -5.921875 C -0.296875 -6.242188 -0.21875 -6.5625 -0.125 -6.875 C 0.132812 -7.570312 0.484375 -8.316406 0.921875 -9.109375 C 1.367188 -9.898438 1.90625 -10.597656 2.53125 -11.203125 C 3.15625 -11.804688 3.84375 -12.164062 4.59375 -12.28125 C 4.675781 -12.28125 4.734375 -12.296875 4.765625 -12.328125 C 4.785156 -12.328125 4.8125 -12.328125 4.84375 -12.328125 C 4.875 -12.328125 4.90625 -12.328125 4.9375 -12.328125 C 5.363281 -12.328125 5.695312 -12.179688 5.9375 -11.890625 C 6.1875 -11.609375 6.285156 -11.222656 6.234375 -10.734375 C 6.117188 -10.035156 5.78125 -9.316406 5.21875 -8.578125 C 4.65625 -7.847656 4 -7.226562 3.25 -6.71875 C 2.5 -6.21875 1.773438 -5.925781 1.078125 -5.84375 C 0.878906 -5.78125 0.765625 -5.648438 0.734375 -5.453125 C 0.617188 -4.992188 0.660156 -4.488281 0.859375 -3.9375 C 0.953125 -3.445312 1.117188 -3.15625 1.359375 -3.0625 C 1.609375 -2.976562 1.9375 -2.9375 2.34375 -2.9375 C 3.207031 -3.113281 4.09375 -3.492188 5 -4.078125 C 5.90625 -4.671875 6.675781 -5.257812 7.3125 -5.84375 C 7.570312 -6.070312 7.832031 -6.316406 8.09375 -6.578125 C 8.351562 -6.835938 8.613281 -7.082031 8.875 -7.3125 C 9.101562 -7.539062 9.347656 -7.773438 9.609375 -8.015625 C 9.867188 -8.265625 10.128906 -8.503906 10.390625 -8.734375 C 10.441406 -8.796875 10.507812 -8.863281 10.59375 -8.9375 C 10.6875 -9.007812 10.757812 -9.070312 10.8125 -9.125 C 10.875 -9.1875 10.941406 -9.253906 11.015625 -9.328125 C 11.085938 -9.398438 11.148438 -9.460938 11.203125 -9.515625 C 11.347656 -9.597656 11.460938 -9.640625 11.546875 -9.640625 C 11.660156 -9.640625 11.765625 -9.597656 11.859375 -9.515625 C 12.085938 -9.316406 12.128906 -9.101562 11.984375 -8.875 C 11.953125 -8.78125 11.835938 -8.632812 11.640625 -8.4375 C 11.117188 -7.882812 10.46875 -7.234375 9.6875 -6.484375 C 8.90625 -5.734375 8.066406 -5.003906 7.171875 -4.296875 C 6.285156 -3.597656 5.394531 -3.007812 4.5 -2.53125 C 3.601562 -2.050781 2.78125 -1.8125 2.03125 -1.8125 Z M 1.640625 -7.140625 C 2.015625 -7.335938 2.46875 -7.640625 3 -8.046875 C 3.539062 -8.453125 4.019531 -8.890625 4.4375 -9.359375 C 4.851562 -9.835938 5.0625 -10.304688 5.0625 -10.765625 C 5.03125 -11.054688 4.898438 -11.175781 4.671875 -11.125 C 4.210938 -11.0625 3.75 -10.8125 3.28125 -10.375 C 2.820312 -9.945312 2.421875 -9.457031 2.078125 -8.90625 C 1.734375 -8.363281 1.472656 -7.859375 1.296875 -7.390625 C 1.296875 -7.253906 1.328125 -7.1875 1.390625 -7.1875 C 1.523438 -7.125 1.609375 -7.109375 1.640625 -7.140625 Z M 1.640625 -7.140625 "/></g></g></g></svg>