<svg xmlns="http://www.w3.org/2000/svg" xmlns:xlink="http://www.w3.org/1999/xlink" width="1280" zoomAndPan="magnify" viewBox="0 0 960 540.000001" height="720" preserveAspectRatio="xMidYMid meet" version="1.0"><defs><g/><clipPath id="ff35bd74db"><path d="M 868.152344 0 L 940.765625 0 L 940.765625 121 L 868.152344 121 Z M 868.152344 0 " clip-rule="nonzero"/></clipPath><clipPath id="74077fe1da"><path d="M 709 435 L 739 435 L 739 467 L 709 467 Z M 709 435 " clip-rule="nonzero"/></clipPath><clipPath id="8598976066"><path d="M 705.414062 437.804688 L 733.984375 431.777344 L 740.933594 464.742188 L 712.367188 470.765625 Z M 705.414062 437.804688 " clip-rule="nonzero"/></clipPath><clipPath id="6c2f9c3a21"><path d="M 705.414062 437.804688 L 733.984375 431.777344 L 740.933594 464.742188 L 712.367188 470.765625 Z M 705.414062 437.804688 " clip-rule="nonzero"/></clipPath><clipPath id="1cec16a982"><path d="M 442.238281 503.644531 L 483.738281 503.644531 L 483.738281 538.957031 L 442.238281 538.957031 Z M 442.238281 503.644531 " clip-rule="nonzero"/></clipPath><clipPath id="fa41566ab6"><path d="M 390.910156 495.089844 L 430.707031 495.089844 L 430.707031 538.957031 L 390.910156 538.957031 Z M 390.910156 495.089844 " clip-rule="nonzero"/></clipPath></defs><g clip-path="url(#ff35bd74db)"><path fill="#0a3757" d="M 939.40625 76.808594 C 936.328125 74.820312 932.757812 74.128906 929.847656 74.863281 C 930.121094 73.777344 930.304688 72.660156 930.429688 71.523438 C 930.566406 71.617188 930.6875 71.707031 930.828125 71.785156 C 932.253906 72.660156 933.90625 73.117188 935.5625 73.117188 C 935.992188 73.117188 936.402344 73.085938 936.832031 73.027344 C 937.980469 72.855469 938.945312 72.015625 939.269531 70.894531 C 939.589844 69.792969 939.207031 68.535156 938.320312 67.800781 C 936.050781 65.902344 932.988281 65.105469 930.09375 65.519531 C 930 65.457031 929.894531 65.425781 929.769531 65.425781 C 929.28125 65.425781 928.773438 65.425781 928.285156 65.425781 C 928.101562 64.785156 927.917969 64.15625 927.734375 63.511719 C 930.566406 63.28125 933.277344 61.933594 935.238281 59.695312 C 935.621094 59.269531 935.792969 58.703125 935.730469 58.074219 C 935.667969 57.351562 935.285156 56.648438 934.71875 56.203125 C 933.921875 55.589844 932.789062 55.347656 931.457031 55.515625 C 929.417969 55.773438 927.546875 56.800781 926.167969 58.289062 C 921.847656 44.191406 916.625 30.375 910.589844 17.089844 C 912.671875 16.875 914.570312 15.222656 914.941406 13.121094 C 915.324219 10.855469 913.820312 8.480469 911.644531 7.761719 L 912.472656 0.742188 C 912.519531 0.40625 912.273438 0.101562 911.9375 0.0703125 C 911.601562 0.0234375 911.292969 0.269531 911.261719 0.605469 L 910.449219 7.546875 C 908.230469 7.484375 906.054688 9.078125 905.546875 11.269531 C 905.042969 13.519531 906.40625 15.972656 908.535156 16.800781 C 901.949219 29.394531 896.234375 42.507812 891.5 55.929688 C 890.992188 55.988281 890.488281 56.097656 889.984375 56.21875 C 889.96875 56.1875 889.96875 56.171875 889.953125 56.15625 C 888.160156 52.941406 884.007812 51.253906 880.484375 52.3125 C 879.457031 52.617188 878.753906 53.707031 878.875 54.777344 C 879.011719 55.851562 879.949219 56.726562 881.035156 56.769531 C 883.105469 56.863281 885.234375 56.96875 887.625 57.03125 C 886.214844 57.644531 884.867188 58.472656 883.65625 59.484375 C 883.640625 59.453125 883.640625 59.4375 883.625 59.40625 C 883.53125 59.253906 883.378906 59.144531 883.195312 59.113281 C 879.183594 58.441406 874.953125 59.867188 872.179688 62.851562 C 871.492188 63.589844 871.324219 64.738281 871.75 65.640625 C 872.164062 66.5 873.085938 67.066406 874.019531 67.066406 C 874.082031 67.066406 874.125 67.066406 874.1875 67.066406 C 875.902344 66.945312 877.574219 66.375 879.058594 65.472656 C 878.738281 66.117188 878.460938 66.773438 878.214844 67.433594 C 878.15625 67.433594 878.078125 67.433594 878.015625 67.449219 C 874.464844 68.398438 871.507812 71.15625 870.3125 74.632812 C 870.097656 75.261719 870.296875 76 870.800781 76.410156 C 871.09375 76.65625 871.476562 76.792969 871.859375 76.792969 C 872.132812 76.792969 872.394531 76.734375 872.640625 76.59375 C 874.355469 75.660156 875.8125 74.328125 876.882812 72.765625 C 876.699219 74.066406 876.609375 75.308594 876.59375 76.394531 C 873.054688 77.546875 870.128906 80.273438 868.75 83.71875 C 868.472656 84.410156 868.152344 85.433594 868.488281 86.417969 C 868.703125 87 869.191406 87.503906 869.789062 87.71875 C 869.988281 87.792969 870.203125 87.824219 870.402344 87.824219 C 870.695312 87.824219 870.984375 87.75 871.230469 87.59375 C 873.789062 86.03125 875.71875 83.582031 876.730469 80.703125 C 876.867188 82.402344 877.113281 84.101562 877.390625 85.820312 C 874.003906 87.199219 871.460938 90.398438 870.894531 94.03125 C 870.816406 94.550781 871.078125 95.085938 871.566406 95.394531 C 871.8125 95.546875 872.089844 95.625 872.363281 95.625 C 872.625 95.625 872.871094 95.546875 873.085938 95.410156 C 875.382812 93.847656 877.113281 91.472656 877.910156 88.867188 C 877.972656 89.21875 878.03125 89.570312 878.09375 89.941406 C 878.171875 90.382812 878.246094 90.84375 878.339844 91.289062 C 876.683594 93.738281 876.484375 97.078125 877.863281 99.699219 C 878.171875 100.265625 878.785156 100.617188 879.410156 100.617188 C 879.519531 100.617188 879.625 100.601562 879.734375 100.585938 C 880.46875 100.433594 881.050781 99.789062 881.128906 99.039062 C 881.359375 96.449219 880.820312 93.769531 879.59375 91.472656 C 879.59375 91.425781 879.59375 91.363281 879.59375 91.320312 C 879.503906 90.78125 879.410156 90.246094 879.304688 89.710938 C 879.226562 89.265625 879.152344 88.820312 879.074219 88.390625 C 881.097656 90.109375 883.671875 91.164062 886.320312 91.304688 C 886.351562 91.304688 886.382812 91.304688 886.429688 91.304688 C 887.269531 91.304688 888.066406 90.765625 888.375 89.984375 C 888.695312 89.171875 888.464844 88.191406 887.792969 87.625 C 885.125 85.34375 881.527344 84.53125 878.585938 85.480469 C 878.277344 83.519531 878.015625 81.605469 877.894531 79.675781 C 879.6875 81.683594 882.09375 83.152344 884.699219 83.796875 C 884.851562 83.828125 885.003906 83.859375 885.140625 83.859375 C 886.089844 83.859375 887.042969 83.167969 887.363281 82.203125 C 887.667969 81.285156 887.425781 80.164062 886.734375 79.277344 C 886.089844 78.449219 885.15625 77.929688 884.527344 77.621094 C 882.398438 76.582031 880.054688 76.121094 877.820312 76.320312 C 877.863281 74.589844 878.0625 72.535156 878.585938 70.390625 C 879.335938 71.984375 880.4375 73.410156 881.800781 74.511719 C 882.152344 74.789062 882.597656 74.941406 883.058594 74.941406 C 883.257812 74.941406 883.457031 74.910156 883.65625 74.863281 C 884.421875 74.664062 885.082031 74.097656 885.355469 73.410156 C 885.878906 72.089844 885.265625 70.683594 884.421875 69.855469 C 883.53125 68.996094 882.382812 68.566406 881.359375 68.277344 C 880.667969 68.078125 879.964844 67.910156 879.382812 67.800781 C 880.023438 66.101562 880.898438 64.414062 882.09375 62.867188 C 882.140625 62.808594 882.199219 62.730469 882.246094 62.667969 C 882.199219 64.0625 882.308594 65.457031 882.582031 66.804688 C 882.722656 67.496094 882.949219 68.261719 883.578125 68.765625 C 883.902344 69.027344 884.3125 69.164062 884.726562 69.164062 C 884.851562 69.164062 884.988281 69.148438 885.109375 69.121094 C 885.554688 69.027344 885.90625 68.75 886.105469 68.367188 C 886.261719 68.046875 886.398438 67.695312 886.488281 67.355469 C 886.121094 71.109375 886.75 74.972656 888.375 78.601562 C 890.136719 82.554688 892.894531 85.847656 896.324219 88.117188 C 896.785156 88.421875 897.261719 88.699219 897.734375 88.960938 C 894.960938 89.96875 892.785156 92.421875 892.171875 95.316406 C 892.050781 95.882812 892.328125 96.480469 892.878906 96.820312 C 893.140625 96.972656 893.429688 97.0625 893.691406 97.0625 C 893.996094 97.0625 894.289062 96.972656 894.53125 96.773438 C 895.652344 95.851562 896.585938 94.734375 897.320312 93.464844 C 897 94.964844 896.722656 96.464844 896.507812 97.96875 C 893.199219 98.320312 890.320312 101.015625 889.769531 104.308594 C 889.628906 105.089844 890.027344 105.933594 890.703125 106.332031 C 891.007812 106.515625 891.363281 106.609375 891.699219 106.609375 C 892.144531 106.609375 892.570312 106.46875 892.925781 106.195312 C 894.148438 105.230469 895.191406 103.941406 895.972656 102.457031 C 895.882812 103.558594 895.804688 104.664062 895.773438 105.78125 C 895.683594 105.796875 895.605469 105.828125 895.527344 105.875 C 893.339844 107.359375 891.972656 109.917969 891.988281 112.566406 C 891.988281 113.148438 892.386719 113.640625 892.984375 113.839844 C 893.152344 113.902344 893.324219 113.917969 893.476562 113.917969 C 893.90625 113.917969 894.289062 113.734375 894.53125 113.394531 C 895.023438 112.722656 895.4375 112 895.742188 111.234375 C 895.773438 112.214844 895.835938 113.195312 895.910156 114.175781 C 895.910156 114.269531 895.941406 114.34375 895.988281 114.421875 C 896.125 114.898438 896.234375 115.371094 896.339844 115.878906 C 896.433594 116.335938 896.539062 116.796875 896.664062 117.257812 C 897.03125 118.574219 897.582031 119.523438 898.347656 120.167969 C 898.992188 120.703125 899.789062 120.996094 900.554688 120.996094 C 901.027344 120.996094 901.488281 120.886719 901.886719 120.65625 C 902.515625 120.304688 902.976562 119.617188 903.066406 118.863281 C 903.160156 118.191406 902.960938 117.546875 902.53125 117.101562 C 900.785156 115.339844 899.007812 114.207031 897.089844 113.640625 C 896.878906 110.683594 896.847656 107.726562 897.015625 104.800781 C 897.304688 105.414062 897.644531 105.980469 898.027344 106.53125 C 898.746094 107.527344 899.496094 108.078125 900.324219 108.21875 C 900.429688 108.230469 900.523438 108.246094 900.628906 108.246094 C 901.183594 108.246094 901.75 108.019531 902.148438 107.621094 C 902.546875 107.222656 902.730469 106.699219 902.636719 106.195312 C 902.101562 102.929688 900.21875 100.050781 897.628906 98.488281 C 897.75 97.675781 897.886719 96.863281 898.027344 96.050781 C 898.242188 96.847656 898.53125 97.644531 898.898438 98.441406 C 899.207031 99.070312 899.878906 99.46875 900.570312 99.46875 C 900.644531 99.46875 900.722656 99.46875 900.800781 99.453125 C 901.566406 99.347656 902.207031 98.71875 902.347656 97.953125 C 902.835938 95.101562 901.886719 92.085938 899.878906 90.015625 C 901.597656 90.722656 903.402344 91.195312 905.289062 91.457031 C 905.289062 91.503906 905.289062 91.546875 905.304688 91.609375 C 905.441406 92.300781 905.578125 92.988281 905.730469 93.679688 C 905.640625 93.707031 905.546875 93.769531 905.488281 93.847656 C 903.601562 95.914062 902.789062 98.886719 903.371094 101.628906 C 903.417969 101.8125 903.433594 102.011719 903.464844 102.210938 C 903.511719 102.546875 903.558594 102.886719 903.664062 103.238281 C 903.894531 104.019531 904.382812 104.601562 904.996094 104.832031 C 905.179688 104.90625 905.378906 104.9375 905.5625 104.9375 C 905.839844 104.9375 906.128906 104.863281 906.375 104.722656 C 906.757812 104.507812 907.003906 104.1875 907.082031 103.789062 C 907.355469 102.441406 907.480469 101.078125 907.449219 99.730469 C 907.90625 101.0625 908.398438 102.363281 908.949219 103.667969 C 907.234375 105.429688 906.253906 107.863281 906.253906 110.332031 C 906.253906 110.804688 906.300781 111.527344 906.605469 112.167969 C 906.941406 112.890625 907.554688 113.394531 908.246094 113.519531 C 908.351562 113.535156 908.476562 113.546875 908.582031 113.546875 C 909.332031 113.546875 910.023438 113.089844 910.25 112.382812 C 910.742188 110.804688 910.941406 109.214844 910.835938 107.648438 C 911.429688 108.816406 912.058594 109.964844 912.734375 111.082031 C 912.6875 111.128906 912.625 111.175781 912.597656 111.234375 C 911.324219 113.136719 910.664062 115.433594 910.773438 117.714844 C 910.820312 118.648438 911.601562 119.460938 912.535156 119.539062 C 912.582031 119.539062 912.625 119.539062 912.6875 119.539062 C 913.5625 119.539062 914.386719 118.878906 914.574219 118.023438 C 914.863281 116.675781 914.878906 115.308594 914.648438 114.039062 C 914.800781 114.253906 914.941406 114.46875 915.09375 114.683594 C 915.09375 114.851562 915.15625 115.003906 915.261719 115.113281 C 915.476562 115.324219 915.707031 115.570312 915.90625 115.800781 C 916.257812 116.183594 916.625 116.582031 917.023438 116.949219 C 917.804688 117.683594 918.554688 118.160156 919.320312 118.4375 C 919.796875 118.605469 920.300781 118.695312 920.777344 118.695312 C 921.296875 118.695312 921.789062 118.589844 922.234375 118.390625 C 923.242188 117.929688 923.949219 116.917969 923.964844 115.894531 C 923.980469 114.714844 923.042969 113.625 921.925781 113.535156 C 920.257812 113.378906 918.125 113.304688 916.042969 113.933594 C 914.433594 111.648438 912.996094 109.242188 911.738281 106.730469 C 913.347656 107.863281 915.261719 108.554688 917.207031 108.660156 C 917.238281 108.660156 917.285156 108.660156 917.316406 108.660156 C 918.371094 108.660156 919.367188 107.894531 919.613281 106.867188 C 919.875 105.8125 919.289062 104.632812 918.296875 104.171875 C 915.890625 103.085938 913.222656 102.53125 910.589844 102.546875 C 910.375 102.546875 910.128906 102.59375 909.882812 102.6875 C 909.226562 101.078125 908.628906 99.421875 908.105469 97.753906 C 909.929688 99.316406 912.320312 100.25 914.710938 100.25 C 914.878906 100.25 915.03125 100.25 915.199219 100.234375 C 916.042969 100.1875 916.808594 99.589844 917.054688 98.78125 C 917.300781 97.96875 917.007812 97.046875 916.335938 96.527344 C 913.5625 94.414062 910.207031 93.417969 907.003906 93.707031 C 906.835938 93.003906 906.683594 92.285156 906.542969 91.578125 C 907.082031 91.625 907.617188 91.65625 908.152344 91.65625 C 908.261719 91.65625 908.367188 91.65625 908.488281 91.65625 C 912.703125 91.65625 916.71875 90.539062 920.132812 88.421875 C 923.367188 86.417969 925.957031 83.566406 927.734375 80.226562 C 927.625 81.757812 927.546875 83.304688 927.59375 84.851562 C 927.609375 85.480469 927.65625 86.09375 927.71875 86.691406 C 927.703125 86.691406 927.6875 86.691406 927.671875 86.707031 C 925.265625 87.519531 923.289062 89.433594 922.417969 91.824219 C 922.09375 92.699219 921.988281 93.464844 922.078125 94.167969 C 922.21875 95.117188 922.753906 95.929688 923.519531 96.3125 C 923.839844 96.464844 924.179688 96.542969 924.515625 96.542969 C 925.175781 96.542969 925.800781 96.25 926.183594 95.730469 C 927.363281 94.0625 928.132812 92.238281 928.4375 90.414062 C 928.789062 91.65625 929.265625 92.804688 929.847656 93.863281 C 929.816406 93.953125 929.816406 94.046875 929.832031 94.136719 C 929.113281 96.007812 929.371094 98.257812 930.519531 99.898438 C 930.902344 100.449219 931.5625 100.757812 932.222656 100.757812 C 932.511719 100.757812 932.820312 100.695312 933.09375 100.558594 C 933.96875 100.128906 934.441406 99.054688 934.152344 98.136719 C 933.632812 96.421875 932.589844 94.917969 931.195312 93.816406 C 931.179688 93.753906 931.164062 93.679688 931.117188 93.632812 C 930.460938 92.527344 929.953125 91.320312 929.570312 89.984375 C 930.277344 90.597656 931.074219 91.105469 931.914062 91.441406 C 932.863281 91.824219 933.875 92.023438 934.902344 92.023438 C 935.898438 92.023438 936.894531 91.839844 937.8125 91.472656 C 938.535156 91.179688 939.039062 90.507812 939.117188 89.742188 C 939.191406 88.972656 938.824219 88.207031 938.179688 87.78125 C 935.484375 86.003906 932.007812 85.496094 928.898438 86.371094 C 928.851562 85.863281 928.820312 85.359375 928.804688 84.839844 C 928.742188 82.953125 928.898438 81.007812 929.035156 79.140625 C 929.066406 78.742188 929.097656 78.328125 929.125 77.929688 C 930.566406 79.523438 932.40625 80.746094 934.441406 81.453125 C 935.300781 81.742188 936.050781 81.898438 936.757812 81.898438 C 937 81.898438 937.230469 81.882812 937.460938 81.851562 C 938.671875 81.667969 939.667969 80.992188 940.140625 80.042969 C 940.753906 78.925781 940.402344 77.453125 939.40625 76.808594 Z M 937.539062 68.765625 C 938.042969 69.195312 938.273438 69.945312 938.089844 70.589844 C 937.90625 71.234375 937.324219 71.738281 936.648438 71.847656 C 934.871094 72.089844 932.988281 71.707031 931.457031 70.773438 C 931.132812 70.574219 930.8125 70.34375 930.519531 70.101562 C 930.566406 68.996094 930.535156 67.878906 930.445312 66.761719 C 932.957031 66.4375 935.621094 67.15625 937.539062 68.765625 Z M 870.585938 86.613281 C 870.464844 86.691406 870.3125 86.660156 870.203125 86.628906 C 869.957031 86.539062 869.730469 86.324219 869.636719 86.078125 C 869.421875 85.496094 869.667969 84.746094 869.867188 84.242188 C 871.015625 81.375 873.328125 79.0625 876.164062 77.914062 C 875.65625 81.542969 873.621094 84.761719 870.585938 86.613281 Z M 872.042969 75.570312 C 871.90625 75.644531 871.707031 75.628906 871.582031 75.523438 C 871.460938 75.414062 871.414062 75.230469 871.460938 75.078125 C 872.394531 72.351562 874.648438 70.054688 877.328125 68.996094 C 876.5625 71.738281 874.648438 74.160156 872.042969 75.570312 Z M 872.378906 94.460938 C 872.363281 94.472656 872.289062 94.460938 872.210938 94.414062 C 872.132812 94.367188 872.089844 94.289062 872.105469 94.277344 C 872.5625 91.378906 874.449219 88.773438 877.023438 87.398438 C 876.5 90.183594 874.800781 92.820312 872.378906 94.460938 Z M 886.980469 88.621094 C 887.242188 88.851562 887.347656 89.28125 887.226562 89.601562 C 887.101562 89.925781 886.71875 90.167969 886.382812 90.140625 C 883.59375 90 880.898438 88.730469 879 86.691406 C 881.511719 85.925781 884.683594 86.660156 886.980469 88.621094 Z M 878.875 92.851562 C 879.734375 94.765625 880.101562 96.910156 879.917969 98.992188 C 879.902344 99.207031 879.71875 99.40625 879.503906 99.453125 C 879.289062 99.5 879.042969 99.378906 878.953125 99.191406 C 877.910156 97.246094 877.910156 94.828125 878.875 92.851562 Z M 883.976562 78.769531 C 884.511719 79.03125 885.265625 79.445312 885.753906 80.089844 C 886.199219 80.65625 886.351562 81.328125 886.183594 81.882812 C 886.015625 82.417969 885.433594 82.785156 884.972656 82.679688 C 882.09375 81.972656 879.472656 80.121094 877.804688 77.652344 C 877.804688 77.636719 877.804688 77.621094 877.804688 77.605469 C 879.839844 77.40625 882.015625 77.804688 883.976562 78.769531 Z M 881.019531 69.503906 C 881.894531 69.761719 882.875 70.101562 883.5625 70.773438 C 884.101562 71.292969 884.527344 72.214844 884.207031 72.996094 C 884.070312 73.332031 883.730469 73.625 883.332031 73.714844 C 883.148438 73.761719 882.828125 73.808594 882.550781 73.59375 C 881.097656 72.414062 879.964844 70.835938 879.320312 69.074219 C 879.839844 69.195312 880.421875 69.332031 881.019531 69.503906 Z M 874.09375 65.886719 C 873.589844 65.917969 873.070312 65.609375 872.855469 65.167969 C 872.640625 64.707031 872.730469 64.109375 873.070312 63.742188 C 875.136719 61.519531 878.214844 60.234375 881.265625 60.234375 C 881.585938 60.234375 881.910156 60.25 882.230469 60.277344 C 880.851562 63.28125 877.480469 65.640625 874.09375 65.886719 Z M 893.75 95.851562 C 893.722656 95.882812 893.613281 95.867188 893.507812 95.808594 C 893.398438 95.746094 893.351562 95.652344 893.351562 95.609375 C 893.828125 93.417969 895.328125 91.519531 897.304688 90.507812 C 896.648438 92.636719 895.40625 94.488281 893.75 95.851562 Z M 892.171875 105.277344 C 891.945312 105.460938 891.578125 105.476562 891.332031 105.335938 C 891.085938 105.183594 890.933594 104.863281 890.980469 104.570312 C 891.390625 102.105469 893.476562 99.960938 895.898438 99.378906 C 895.269531 101.765625 893.9375 103.898438 892.171875 105.277344 Z M 893.582031 112.707031 C 893.566406 112.722656 893.492188 112.738281 893.398438 112.707031 C 893.292969 112.675781 893.246094 112.613281 893.246094 112.597656 C 893.230469 110.777344 894.027344 108.953125 895.328125 107.664062 C 895.269531 109.457031 894.65625 111.25 893.582031 112.707031 Z M 901.703125 118.023438 C 901.933594 118.253906 901.933594 118.589844 901.902344 118.757812 C 901.855469 119.140625 901.625 119.492188 901.335938 119.660156 C 900.660156 120.042969 899.742188 119.769531 899.191406 119.308594 C 898.625 118.820312 898.195312 118.066406 897.886719 116.996094 C 897.765625 116.566406 897.671875 116.136719 897.582031 115.679688 C 897.535156 115.496094 897.503906 115.296875 897.460938 115.097656 C 898.914062 115.648438 900.308594 116.613281 901.703125 118.023438 Z M 901.472656 106.425781 C 901.503906 106.578125 901.410156 106.699219 901.320312 106.777344 C 901.121094 106.976562 900.8125 107.082031 900.554688 107.039062 C 900.0625 106.960938 899.574219 106.5625 899.050781 105.84375 C 898.132812 104.570312 897.535156 103.070312 897.289062 101.523438 C 897.351562 100.96875 897.414062 100.417969 897.472656 99.851562 C 899.542969 101.308594 901.027344 103.710938 901.472656 106.425781 Z M 921.863281 114.789062 C 922.355469 114.835938 922.785156 115.371094 922.785156 115.921875 C 922.769531 116.488281 922.355469 117.058594 921.773438 117.332031 C 921.207031 117.59375 920.484375 117.59375 919.78125 117.332031 C 919.167969 117.117188 918.554688 116.703125 917.898438 116.09375 C 917.542969 115.753906 917.207031 115.402344 916.855469 115.035156 C 918.617188 114.589844 920.425781 114.667969 921.863281 114.789062 Z M 913.40625 117.824219 C 913.347656 118.128906 912.996094 118.390625 912.671875 118.375 C 912.351562 118.34375 912.042969 118.039062 912.042969 117.714844 C 911.96875 116.0625 912.335938 114.40625 913.101562 112.9375 C 913.652344 114.421875 913.761719 116.121094 913.40625 117.824219 Z M 910.636719 103.820312 C 913.101562 103.804688 915.582031 104.324219 917.835938 105.335938 C 918.296875 105.550781 918.585938 106.132812 918.464844 106.625 C 918.339844 107.113281 917.820312 107.511719 917.316406 107.480469 C 914.664062 107.359375 912.074219 105.964844 910.480469 103.835938 C 910.527344 103.835938 910.574219 103.820312 910.636719 103.820312 Z M 910.34375 103.667969 C 910.359375 103.667969 910.359375 103.667969 910.34375 103.667969 L 910.328125 103.699219 C 910.328125 103.699219 910.328125 103.683594 910.328125 103.683594 Z M 909.117188 112.0625 C 909.058594 112.261719 908.765625 112.398438 908.519531 112.355469 C 908.230469 112.292969 907.9375 112.046875 907.769531 111.695312 C 907.617188 111.359375 907.539062 110.960938 907.539062 110.378906 C 907.539062 108.570312 908.136719 106.792969 909.226562 105.351562 C 909.855469 107.496094 909.824219 109.796875 909.117188 112.0625 Z M 915.644531 97.570312 C 915.90625 97.769531 916.042969 98.167969 915.9375 98.472656 C 915.84375 98.796875 915.507812 99.039062 915.183594 99.054688 C 912.152344 99.207031 909.101562 97.644531 907.402344 95.148438 C 907.386719 95.085938 907.371094 95.027344 907.355469 94.980469 C 910.191406 94.765625 913.164062 95.683594 915.644531 97.570312 Z M 925.234375 95.070312 C 925.019531 95.363281 924.515625 95.457031 924.132812 95.269531 C 923.734375 95.070312 923.425781 94.597656 923.351562 94.046875 C 923.273438 93.539062 923.367188 92.972656 923.625 92.300781 C 924.285156 90.539062 925.695312 89.019531 927.394531 88.222656 C 927.503906 90.507812 926.753906 92.910156 925.234375 95.070312 Z M 931.609375 56.769531 C 932.3125 56.679688 933.292969 56.679688 933.96875 57.214844 C 934.273438 57.445312 934.472656 57.84375 934.519531 58.226562 C 934.535156 58.425781 934.519531 58.703125 934.320312 58.914062 C 932.496094 60.984375 929.984375 62.195312 927.378906 62.332031 C 927.121094 61.472656 926.875 60.601562 926.613281 59.742188 C 927.824219 58.148438 929.648438 57.015625 931.609375 56.769531 Z M 926.476562 63.574219 C 926.554688 63.816406 926.613281 64.046875 926.691406 64.292969 C 926.507812 64.03125 926.308594 63.789062 926.109375 63.558594 C 926.214844 63.558594 926.355469 63.558594 926.476562 63.574219 Z M 926.445312 67.726562 C 925.113281 71.125 922.003906 73.792969 918.324219 74.648438 C 918.125 74.695312 917.957031 74.605469 917.851562 74.527344 C 917.605469 74.34375 917.421875 74.035156 917.390625 73.730469 C 917.34375 73.195312 917.589844 72.582031 918.140625 71.847656 C 920.042969 69.289062 923.214844 67.742188 926.382812 67.742188 C 926.414062 67.726562 926.429688 67.726562 926.445312 67.726562 Z M 925.757812 61.152344 C 925.878906 61.550781 925.984375 61.933594 926.109375 62.332031 C 925.863281 62.316406 925.601562 62.285156 925.359375 62.242188 C 925.449219 61.855469 925.585938 61.503906 925.757812 61.152344 Z M 925.984375 65.441406 C 922.035156 65.425781 918.035156 65.425781 914.019531 65.441406 C 914.601562 63.050781 917.328125 61.214844 920.058594 61.488281 C 922.355469 61.734375 924.546875 63.207031 925.984375 65.441406 Z M 924.347656 56.527344 C 924.652344 57.523438 924.960938 58.515625 925.265625 59.496094 C 924.804688 60.203125 924.4375 60.984375 924.207031 61.8125 C 923.382812 61.230469 922.476562 60.785156 921.542969 60.523438 C 922.785156 59.820312 923.6875 58.703125 924.164062 57.199219 C 924.222656 56.984375 924.285156 56.753906 924.347656 56.527344 Z M 922.675781 51.992188 C 923.382812 53.492188 923.503906 55.253906 923 56.832031 C 922.460938 58.488281 921.359375 59.542969 919.71875 59.957031 C 918.785156 57.828125 918.832031 55.269531 919.859375 53.1875 C 920.257812 52.375 920.730469 51.851562 921.253906 51.625 C 921.40625 51.5625 921.589844 51.53125 921.757812 51.53125 C 922.140625 51.515625 922.523438 51.667969 922.675781 51.992188 Z M 922.339844 50.367188 C 921.820312 50.246094 921.238281 50.289062 920.761719 50.488281 C 919.949219 50.84375 919.289062 51.53125 918.753906 52.632812 C 917.589844 54.992188 917.515625 57.875 918.539062 60.308594 C 915.707031 60.707031 913.253906 62.808594 912.78125 65.441406 C 911.722656 65.441406 910.664062 65.457031 909.59375 65.457031 L 910.222656 19.25 C 914.742188 29.363281 918.785156 39.765625 922.339844 50.367188 Z M 906.742188 11.589844 C 907.125 9.90625 908.933594 8.664062 910.636719 8.832031 C 910.710938 8.878906 910.804688 8.925781 910.910156 8.941406 C 910.941406 8.941406 910.957031 8.941406 910.988281 8.941406 C 911.035156 8.941406 911.078125 8.941406 911.125 8.925781 C 912.796875 9.382812 914.035156 11.238281 913.746094 12.96875 C 913.46875 14.59375 911.875 15.894531 910.25 15.941406 C 910.207031 15.726562 910.039062 15.542969 909.808594 15.480469 C 909.546875 15.421875 909.257812 15.527344 909.132812 15.773438 C 907.480469 15.207031 906.375 13.277344 906.742188 11.589844 Z M 908.996094 18.621094 L 908.550781 51.53125 C 908.261719 51.039062 907.816406 50.644531 907.296875 50.429688 C 906.46875 50.089844 905.472656 50.199219 904.738281 50.734375 C 902.285156 52.511719 900.785156 55.574219 900.800781 58.609375 C 899.542969 57.566406 898.085938 56.800781 896.570312 56.34375 C 898.378906 55.207031 899.542969 53.0625 899.789062 50.367188 C 899.847656 49.722656 899.621094 49.078125 899.160156 48.542969 C 898.652344 47.960938 897.917969 47.609375 897.183594 47.59375 C 896.722656 47.578125 896.25 47.6875 895.820312 47.886719 C 899.679688 37.878906 904.09375 28.105469 908.996094 18.621094 Z M 897.613281 58.027344 C 900.722656 59.453125 903.097656 62.332031 903.542969 65.503906 C 901.78125 65.519531 900.003906 65.550781 898.226562 65.582031 C 898.5 65.320312 898.699219 64.984375 898.792969 64.613281 C 899.296875 62.410156 898.839844 59.972656 897.613281 58.027344 Z M 897.597656 64.339844 C 897.519531 64.644531 897.214844 64.90625 896.90625 64.90625 C 896.601562 64.921875 896.265625 64.691406 896.171875 64.386719 C 895.5 62.300781 895.46875 60.050781 896.066406 57.949219 C 897.488281 59.710938 898.101562 62.164062 897.597656 64.339844 Z M 905.472656 51.714844 C 905.855469 51.4375 906.40625 51.378906 906.835938 51.5625 C 907.265625 51.746094 907.601562 52.175781 907.679688 52.632812 C 907.9375 54.335938 907.371094 56.171875 906.175781 57.429688 C 905.089844 58.578125 903.511719 59.207031 902.054688 59.113281 C 901.855469 56.296875 903.1875 53.371094 905.472656 51.714844 Z M 902.546875 60.339844 C 904.183594 60.292969 905.855469 59.558594 907.066406 58.273438 C 907.691406 57.613281 908.167969 56.832031 908.488281 55.972656 L 908.367188 65.472656 C 907.171875 65.488281 905.976562 65.488281 904.78125 65.503906 C 904.550781 63.664062 903.785156 61.871094 902.546875 60.339844 Z M 895.144531 50.167969 C 895.527344 49.355469 896.324219 48.804688 897.089844 48.804688 C 897.105469 48.804688 897.121094 48.804688 897.136719 48.804688 C 897.535156 48.820312 897.949219 49.019531 898.242188 49.339844 C 898.484375 49.617188 898.59375 49.9375 898.578125 50.246094 C 898.363281 52.511719 897.445312 54.304688 896.003906 55.253906 C 895.605469 54.503906 895.238281 53.753906 895.039062 52.957031 C 894.746094 51.914062 894.792969 50.917969 895.144531 50.167969 Z M 893.8125 53.15625 C 893.828125 53.1875 893.828125 53.230469 893.84375 53.261719 C 894.105469 54.242188 894.546875 55.117188 895.007812 55.972656 C 894.871094 55.957031 894.71875 55.929688 894.578125 55.914062 C 894.011719 55.851562 893.429688 55.835938 892.863281 55.851562 C 893.167969 54.964844 893.492188 54.058594 893.8125 53.15625 Z M 892.402344 57.109375 C 893.078125 57.0625 893.765625 57.0625 894.441406 57.136719 C 894.625 57.152344 894.824219 57.183594 895.007812 57.214844 C 894.226562 59.652344 894.210938 62.316406 895.007812 64.769531 C 895.113281 65.105469 895.3125 65.394531 895.574219 65.625 C 894.488281 65.640625 893.398438 65.671875 892.3125 65.703125 C 892.695312 65.488281 893.015625 65.195312 893.277344 64.8125 C 893.675781 64.214844 893.796875 63.527344 893.613281 62.898438 C 893.214844 61.457031 892.585938 60.140625 891.773438 58.976562 C 891.972656 58.347656 892.1875 57.734375 892.402344 57.109375 Z M 892.417969 63.234375 C 892.527344 63.617188 892.359375 63.972656 892.234375 64.140625 C 892.003906 64.492188 891.621094 64.753906 891.238281 64.796875 C 890.808594 64.859375 890.351562 64.707031 889.953125 64.429688 C 890.382812 63.113281 890.808594 61.78125 891.253906 60.464844 C 891.746094 61.304688 892.144531 62.242188 892.417969 63.234375 Z M 891.039062 57.292969 C 890.980469 57.476562 890.917969 57.660156 890.855469 57.84375 C 890.71875 57.691406 890.59375 57.550781 890.441406 57.414062 C 890.640625 57.367188 890.839844 57.324219 891.039062 57.292969 Z M 889.984375 58.703125 C 890.121094 58.855469 890.257812 59.023438 890.398438 59.191406 C 889.9375 60.523438 889.492188 61.855469 889.0625 63.207031 C 888.832031 62.515625 888.832031 61.6875 889.0625 60.816406 C 889.261719 60.082031 889.613281 59.375 889.984375 58.703125 Z M 889.828125 65.765625 C 889.722656 65.765625 889.613281 65.765625 889.523438 65.78125 C 889.539062 65.734375 889.554688 65.6875 889.570312 65.640625 C 889.644531 65.6875 889.738281 65.71875 889.828125 65.765625 Z M 881.082031 55.589844 C 880.605469 55.574219 880.148438 55.148438 880.085938 54.671875 C 880.023438 54.195312 880.363281 53.675781 880.820312 53.539062 C 881.417969 53.355469 882.046875 53.277344 882.675781 53.277344 C 884.773438 53.277344 886.902344 54.257812 888.234375 55.882812 C 885.617188 55.804688 883.320312 55.699219 881.082031 55.589844 Z M 885.003906 67.894531 C 884.972656 67.941406 884.910156 67.96875 884.851562 67.984375 C 884.683594 68.015625 884.484375 67.96875 884.359375 67.878906 C 884.039062 67.617188 883.902344 67.113281 883.792969 66.605469 C 883.425781 64.859375 883.363281 63.007812 883.609375 61.230469 C 884.390625 61.8125 885.019531 62.746094 885.324219 63.804688 C 885.722656 65.136719 885.601562 66.621094 885.003906 67.894531 Z M 886.75 66.070312 C 886.828125 65.183594 886.75 64.292969 886.503906 63.433594 C 886.136719 62.195312 885.433594 61.121094 884.542969 60.386719 C 885.921875 59.253906 887.46875 58.378906 889.0625 57.8125 C 888.605469 58.65625 888.144531 59.511719 887.882812 60.476562 C 887.515625 61.8125 887.609375 63.097656 888.113281 64.109375 C 888.234375 64.355469 888.375 64.570312 888.542969 64.769531 C 888.433594 65.105469 888.328125 65.457031 888.222656 65.792969 C 887.882812 65.808594 887.546875 65.808594 887.195312 65.824219 C 887.027344 65.839844 886.859375 65.933594 886.75 66.070312 Z M 901.199219 97.785156 C 901.152344 98.027344 900.921875 98.242188 900.691406 98.273438 C 900.445312 98.304688 900.171875 98.152344 900.0625 97.9375 C 899.3125 96.375 898.59375 94.046875 899.082031 91.394531 C 899.113281 91.273438 899.144531 91.148438 899.175781 91.027344 C 900.828125 92.820312 901.609375 95.363281 901.199219 97.785156 Z M 905.929688 103.589844 C 905.917969 103.636719 905.855469 103.683594 905.839844 103.683594 C 905.730469 103.742188 905.59375 103.757812 905.488281 103.710938 C 905.242188 103.621094 905.011719 103.316406 904.890625 102.917969 C 904.8125 102.65625 904.765625 102.363281 904.722656 102.058594 C 904.691406 101.84375 904.660156 101.613281 904.613281 101.398438 C 904.199219 99.421875 904.628906 97.292969 905.730469 95.609375 C 906.390625 98.257812 906.46875 100.941406 905.929688 103.589844 Z M 928.101562 75.125 C 924.269531 75.492188 920.609375 77.5 918.25 80.546875 C 917.851562 81.070312 917.726562 81.773438 917.914062 82.480469 C 918.140625 83.289062 918.738281 83.980469 919.476562 84.269531 C 919.859375 84.425781 920.226562 84.484375 920.609375 84.484375 C 921.621094 84.484375 922.601562 84.011719 923.273438 83.460938 C 924.421875 82.523438 925.433594 81.484375 926.339844 80.378906 C 924.683594 83.246094 922.371094 85.679688 919.550781 87.441406 C 916.242188 89.496094 912.335938 90.550781 908.246094 90.492188 C 904.15625 90.429688 900.261719 89.265625 897.015625 87.136719 C 893.765625 85.007812 891.164062 81.882812 889.507812 78.144531 C 887.914062 74.558594 887.316406 70.742188 887.777344 67.050781 C 887.808594 67.050781 887.839844 67.050781 887.867188 67.050781 C 887.824219 67.34375 887.992188 67.632812 888.296875 67.726562 C 888.359375 67.742188 888.421875 67.753906 888.480469 67.753906 C 888.742188 67.753906 888.988281 67.585938 889.0625 67.328125 C 889.09375 67.21875 889.125 67.128906 889.15625 67.019531 C 894.179688 66.882812 899.160156 66.789062 904.109375 66.746094 C 904.167969 66.761719 904.214844 66.761719 904.277344 66.761719 C 904.324219 66.761719 904.351562 66.746094 904.398438 66.746094 C 905.871094 66.730469 907.355469 66.714844 908.8125 66.714844 C 908.859375 66.730469 908.917969 66.746094 908.964844 66.746094 C 908.964844 66.746094 908.964844 66.746094 908.980469 66.746094 C 909.042969 66.746094 909.101562 66.730469 909.148438 66.714844 C 914.328125 66.683594 919.460938 66.683594 924.53125 66.699219 C 921.636719 67.1875 918.921875 68.78125 917.160156 71.140625 C 916.6875 71.769531 916.074219 72.75 916.179688 73.867188 C 916.242188 74.511719 916.59375 75.15625 917.128906 75.539062 C 917.46875 75.785156 917.851562 75.90625 918.21875 75.90625 C 918.339844 75.90625 918.480469 75.890625 918.601562 75.859375 C 922.507812 74.957031 925.847656 72.183594 927.410156 68.628906 C 927.933594 70.421875 928.160156 72.550781 928.101562 75.125 Z M 927.425781 76.441406 C 926.292969 78.710938 924.605469 80.777344 922.507812 82.507812 C 921.878906 83.015625 920.839844 83.488281 919.949219 83.121094 C 919.566406 82.96875 919.230469 82.585938 919.105469 82.140625 C 919.0625 81.941406 919 81.589844 919.230469 81.285156 C 921.207031 78.726562 924.222656 76.964844 927.425781 76.441406 Z M 930.859375 95.132812 C 931.867188 96.039062 932.636719 97.21875 933.035156 98.535156 C 933.140625 98.886719 932.941406 99.347656 932.605469 99.5 C 932.265625 99.667969 931.792969 99.546875 931.578125 99.238281 C 930.75 98.074219 930.503906 96.511719 930.859375 95.132812 Z M 937.566406 88.851562 C 937.828125 89.019531 937.980469 89.359375 937.953125 89.664062 C 937.921875 89.96875 937.707031 90.261719 937.414062 90.367188 C 935.820312 90.996094 934.015625 90.996094 932.421875 90.351562 C 931.148438 89.832031 929.953125 88.851562 929.113281 87.65625 C 931.945312 86.785156 935.117188 87.226562 937.566406 88.851562 Z M 929.203125 71.539062 C 929.15625 71.140625 929.113281 70.757812 929.050781 70.375 C 929.125 70.453125 929.203125 70.527344 929.28125 70.605469 C 929.265625 70.910156 929.234375 71.234375 929.203125 71.539062 Z M 928.605469 67.742188 C 928.757812 67.585938 928.835938 67.355469 928.773438 67.144531 C 928.773438 67.128906 928.773438 67.128906 928.773438 67.113281 C 928.941406 67.066406 929.097656 67.003906 929.265625 66.972656 C 929.324219 67.601562 929.339844 68.214844 929.355469 68.84375 C 929.066406 68.492188 928.820312 68.125 928.605469 67.742188 Z M 939.101562 79.523438 C 938.808594 80.105469 938.136719 80.546875 937.339844 80.671875 C 936.648438 80.777344 935.867188 80.671875 934.902344 80.332031 C 932.726562 79.582031 930.8125 78.1875 929.433594 76.351562 C 929.433594 76.320312 929.449219 76.304688 929.449219 76.273438 C 932.113281 75.277344 935.667969 75.859375 938.734375 77.835938 C 939.222656 78.144531 939.390625 78.941406 939.101562 79.523438 Z M 939.101562 79.523438 " fill-opacity="1" fill-rule="nonzero"/></g><g clip-path="url(#74077fe1da)"><g clip-path="url(#8598976066)"><g clip-path="url(#6c2f9c3a21)"><path fill="#0a3757" d="M 711.816406 436.464844 C 711.515625 436.5625 711.273438 436.757812 711.058594 437.074219 C 710.933594 437.261719 710.84375 437.433594 710.738281 437.703125 C 710.441406 438.449219 710.269531 439.390625 710.210938 440.589844 C 710.132812 442.144531 710.265625 443.542969 710.625 444.953125 C 711.207031 447.253906 712.242188 449.554688 713.550781 451.480469 C 713.90625 452.007812 714.195312 452.398438 714.660156 452.980469 C 715.875 454.511719 717.242188 455.945312 718.386719 456.890625 C 718.910156 457.324219 719.324219 457.597656 719.558594 457.675781 C 719.902344 457.789062 720.128906 457.601562 720.148438 457.183594 C 720.15625 456.933594 720.132812 456.75 719.996094 456.054688 C 719.820312 455.15625 719.726562 454.617188 719.652344 454.007812 C 719.480469 452.648438 719.390625 450.9375 719.421875 449.542969 C 719.457031 447.714844 719.675781 445.597656 719.988281 444.042969 C 720.449219 441.710938 721.265625 439.867188 722.484375 438.386719 C 723.238281 437.46875 724.097656 436.714844 724.851562 436.3125 C 725.402344 436.019531 725.914062 435.890625 726.34375 435.933594 C 726.789062 435.976562 727.160156 436.210938 727.449219 436.625 C 727.742188 437.042969 727.917969 437.636719 728.023438 438.570312 C 728.039062 438.691406 728.078125 439.082031 728.113281 439.433594 C 728.207031 440.441406 728.253906 440.785156 728.351562 441.246094 C 728.515625 442.039062 728.753906 442.628906 729.125 443.1875 C 729.253906 443.382812 729.558594 443.761719 729.941406 444.203125 C 730.769531 445.167969 731.082031 445.617188 731.34375 446.234375 C 731.480469 446.542969 731.53125 446.707031 731.613281 447.09375 C 731.691406 447.457031 731.703125 447.566406 731.722656 447.890625 C 731.804688 449.304688 731.421875 450.644531 730.542969 452.023438 C 730.203125 452.558594 729.828125 453.046875 729.507812 453.367188 C 728.707031 454.179688 728.316406 454.5625 728.050781 454.8125 C 727.859375 454.992188 727.511719 455.273438 727.253906 455.460938 C 726.214844 456.222656 724.878906 456.925781 723.703125 457.332031 C 723.289062 457.472656 722.917969 457.578125 722.191406 457.75 C 720.996094 458.027344 720.871094 458.070312 720.765625 458.214844 C 720.714844 458.28125 720.703125 458.34375 720.71875 458.429688 C 720.757812 458.613281 720.988281 458.738281 721.382812 458.78125 C 721.699219 458.816406 722.050781 458.789062 722.476562 458.699219 C 723.246094 458.539062 724.167969 458.148438 725.148438 457.574219 C 725.835938 457.171875 726.277344 456.867188 726.851562 456.410156 C 727.03125 456.265625 727.261719 456.089844 727.359375 456.019531 C 728.003906 455.5625 728.511719 455.132812 728.964844 454.660156 C 729.246094 454.367188 729.558594 454.015625 729.828125 453.675781 C 729.960938 453.511719 730.023438 453.445312 730.269531 453.222656 C 731.15625 452.410156 731.789062 451.96875 732.351562 451.753906 C 732.519531 451.691406 732.921875 451.605469 733.109375 451.59375 C 733.480469 451.574219 733.820312 451.625 734.125 451.753906 C 734.5625 451.933594 734.851562 452.21875 735.085938 452.699219 C 735.167969 452.867188 735.242188 453.050781 735.398438 453.476562 C 735.660156 454.199219 735.8125 454.507812 736.066406 454.828125 C 736.367188 455.207031 736.761719 455.484375 737.195312 455.625 C 737.324219 455.667969 737.492188 455.703125 737.75 455.738281 C 738.039062 455.78125 738.125 455.8125 738.195312 455.898438 C 738.367188 456.113281 738.421875 456.691406 738.335938 457.46875 C 738.160156 459.097656 737.597656 460.914062 736.796875 462.425781 C 736.613281 462.773438 736.507812 462.953125 736.253906 463.34375 C 735.945312 463.816406 735.765625 464.058594 735.496094 464.363281 C 735.03125 464.894531 734.605469 465.234375 734.167969 465.429688 C 734.050781 465.480469 734.015625 465.492188 733.796875 465.539062 C 733.527344 465.59375 733.460938 465.597656 733.226562 465.574219 C 732.875 465.53125 732.496094 465.378906 732.03125 465.082031 C 731.660156 464.851562 731.347656 464.617188 730.375 463.855469 C 729.03125 462.804688 728.433594 462.382812 727.589844 461.894531 C 726.40625 461.210938 724.457031 460.285156 723.40625 459.910156 C 722.34375 459.53125 721.53125 459.410156 721.007812 459.546875 C 720.757812 459.613281 720.605469 459.726562 720.539062 459.894531 C 720.414062 460.226562 720.667969 460.605469 721.269531 460.972656 C 721.476562 461.097656 721.632812 461.183594 722.109375 461.433594 C 722.53125 461.652344 722.898438 461.851562 723.097656 461.960938 C 724.253906 462.625 725.296875 463.421875 726.019531 464.1875 C 726.554688 464.761719 726.925781 465.324219 727 465.671875 L 727.015625 465.757812 L 726.984375 465.765625 C 726.875 465.789062 726.519531 465.675781 726.203125 465.519531 C 725.53125 465.179688 724.746094 464.613281 723.769531 463.757812 C 723.121094 463.191406 721.605469 461.777344 720.867188 461.050781 C 720.332031 460.523438 720.066406 460.238281 719.695312 459.792969 C 719.53125 459.59375 719.445312 459.484375 718.9375 458.824219 C 718.722656 458.539062 718.53125 458.308594 718.390625 458.160156 C 717.980469 457.726562 717.660156 457.566406 717.28125 457.605469 L 717.21875 457.613281 L 717.085938 457.515625 C 716.859375 457.34375 716.605469 457.214844 716.289062 457.105469 C 716.199219 457.074219 715.882812 456.984375 715.589844 456.90625 C 714.90625 456.726562 714.65625 456.648438 714.351562 456.507812 C 713.941406 456.328125 713.539062 456.058594 713.246094 455.773438 C 712.792969 455.335938 712.367188 454.695312 712.046875 453.980469 C 711.886719 453.625 711.792969 453.351562 711.726562 453.039062 C 711.65625 452.710938 711.644531 452.453125 711.6875 452.152344 C 711.734375 451.816406 711.734375 451.824219 711.714844 451.765625 C 711.644531 451.542969 711.382812 451.523438 711.261719 451.730469 C 711.175781 451.878906 711.128906 452.363281 711.160156 452.757812 C 711.175781 452.933594 711.253906 453.3125 711.308594 453.5 C 711.558594 454.285156 712.03125 455.152344 712.535156 455.757812 C 713.019531 456.339844 713.523438 456.714844 714.242188 457.023438 C 714.476562 457.121094 714.808594 457.230469 715.222656 457.339844 C 715.441406 457.398438 715.625 457.449219 715.625 457.453125 C 715.625 457.460938 715.613281 457.464844 715.597656 457.464844 C 715.578125 457.464844 715.449219 457.480469 715.3125 457.503906 C 714.539062 457.632812 714.320312 457.660156 713.964844 457.679688 C 713.359375 457.714844 712.789062 457.660156 712.230469 457.523438 C 711.96875 457.457031 711.847656 457.417969 711.605469 457.324219 C 711.0625 457.109375 710.496094 456.738281 710.164062 456.382812 C 709.808594 455.992188 709.625 455.5625 709.628906 455.101562 C 709.628906 454.941406 709.648438 454.8125 709.734375 454.496094 C 709.816406 454.183594 709.828125 454.089844 709.804688 453.921875 C 709.789062 453.816406 709.789062 453.816406 709.761719 453.808594 C 709.722656 453.800781 709.628906 453.847656 709.535156 453.917969 C 709.410156 454.011719 709.265625 454.265625 709.199219 454.519531 C 709.097656 454.890625 709.085938 455.195312 709.164062 455.5625 C 709.238281 455.925781 709.386719 456.234375 709.636719 456.554688 C 710.070312 457.097656 710.8125 457.597656 711.609375 457.875 C 711.933594 457.988281 712.402344 458.101562 712.761719 458.148438 C 713.507812 458.246094 714.164062 458.21875 715.132812 458.054688 C 715.84375 457.933594 716.101562 457.914062 716.480469 457.953125 C 716.578125 457.964844 716.671875 457.972656 716.679688 457.976562 C 716.695312 457.980469 716.695312 457.992188 716.664062 458.054688 C 716.425781 458.550781 716.726562 459.207031 717.242188 459.335938 C 717.367188 459.367188 717.445312 459.367188 717.566406 459.335938 C 717.648438 459.3125 717.671875 459.300781 717.738281 459.253906 C 717.859375 459.15625 717.917969 459.015625 717.921875 458.824219 C 717.921875 458.71875 717.871094 458.511719 717.816406 458.382812 C 717.796875 458.339844 717.78125 458.300781 717.78125 458.296875 C 717.789062 458.285156 717.945312 458.433594 718.058594 458.558594 C 718.195312 458.710938 718.445312 459.019531 718.773438 459.453125 C 719.644531 460.59375 720.09375 461.0625 722.148438 462.976562 C 723.425781 464.160156 723.980469 464.644531 724.667969 465.148438 C 724.894531 465.320312 725.472656 465.695312 725.667969 465.800781 C 726.136719 466.058594 726.59375 466.226562 726.921875 466.269531 C 727.019531 466.28125 727.046875 466.277344 727.144531 466.257812 C 727.234375 466.238281 727.269531 466.226562 727.3125 466.199219 C 727.429688 466.117188 727.507812 465.988281 727.523438 465.832031 C 727.535156 465.726562 727.496094 465.5 727.4375 465.347656 C 727.320312 465.046875 727.148438 464.757812 726.851562 464.375 C 726.191406 463.527344 725.261719 462.71875 724.039062 461.933594 C 723.535156 461.609375 723.207031 461.425781 722.375 460.988281 C 721.789062 460.6875 721.632812 460.59375 721.375 460.425781 C 721.148438 460.28125 721.050781 460.199219 720.988281 460.121094 C 720.9375 460.054688 720.941406 460.03125 721 459.992188 C 721.074219 459.945312 721.355469 459.886719 721.519531 459.886719 C 722.277344 459.890625 723.335938 460.222656 724.90625 460.953125 C 726.039062 461.480469 726.9375 461.96875 727.75 462.5 C 728.421875 462.9375 728.960938 463.335938 730.160156 464.277344 C 731.011719 464.945312 731.273438 465.140625 731.640625 465.382812 C 731.910156 465.5625 732.101562 465.675781 732.300781 465.773438 C 733.410156 466.316406 734.398438 466.128906 735.414062 465.183594 C 736.054688 464.589844 736.691406 463.714844 737.238281 462.691406 C 737.894531 461.460938 738.421875 459.960938 738.695312 458.554688 C 738.777344 458.132812 738.847656 457.589844 738.875 457.214844 C 738.949219 456.175781 738.761719 455.554688 738.304688 455.347656 C 738.195312 455.296875 738.074219 455.269531 737.824219 455.230469 C 737.585938 455.195312 737.457031 455.167969 737.351562 455.136719 C 736.855469 454.980469 736.453125 454.601562 736.175781 454.039062 C 736.089844 453.863281 736.015625 453.679688 735.878906 453.292969 C 735.625 452.59375 735.5 452.324219 735.28125 452.019531 C 734.808594 451.363281 733.953125 451.011719 733.019531 451.085938 C 732.410156 451.136719 731.835938 451.394531 731.097656 451.953125 C 731 452.027344 730.921875 452.082031 730.917969 452.078125 C 730.917969 452.078125 730.960938 451.992188 731.019531 451.894531 C 731.859375 450.335938 732.175781 448.738281 731.929688 447.289062 C 731.808594 446.550781 731.542969 445.898438 731.089844 445.210938 C 730.925781 444.960938 730.78125 444.769531 730.308594 444.175781 C 730.070312 443.875 729.828125 443.566406 729.769531 443.488281 C 729.273438 442.824219 729.035156 442.292969 728.855469 441.4375 C 728.738281 440.882812 728.6875 440.445312 728.609375 439.3125 C 728.535156 438.253906 728.414062 437.542969 728.21875 437.007812 C 727.882812 436.089844 727.21875 435.507812 726.410156 435.421875 C 726.144531 435.394531 725.9375 435.410156 725.632812 435.472656 C 724.730469 435.664062 723.765625 436.28125 722.753906 437.316406 C 721.671875 438.421875 720.890625 439.636719 720.289062 441.15625 C 719.722656 442.585938 719.375 444.109375 719.128906 446.269531 C 718.855469 448.652344 718.832031 450.863281 719.046875 453.1875 C 719.144531 454.242188 719.230469 454.808594 719.53125 456.355469 C 719.605469 456.753906 719.675781 457.121094 719.679688 457.167969 C 719.683594 457.21875 719.6875 457.261719 719.6875 457.265625 C 719.695312 457.300781 719.585938 457.253906 719.417969 457.144531 C 718.886719 456.8125 717.78125 455.84375 716.847656 454.890625 C 715.347656 453.351562 714.011719 451.625 713.03125 449.949219 C 712.097656 448.359375 711.460938 446.832031 710.945312 444.9375 C 710.863281 444.628906 710.648438 443.613281 710.609375 443.335938 C 710.484375 442.476562 710.429688 441.71875 710.4375 440.972656 C 710.453125 439.027344 710.878906 437.460938 711.53125 436.957031 C 711.667969 436.851562 711.761719 436.804688 711.90625 436.773438 C 712.113281 436.730469 712.261719 436.761719 712.472656 436.898438 C 712.675781 437.035156 712.839844 437.210938 713.046875 437.523438 C 713.199219 437.757812 713.332031 437.988281 713.78125 438.816406 C 714.195312 439.582031 714.25 439.675781 714.375 439.828125 C 714.496094 439.976562 714.578125 440.046875 714.726562 440.144531 C 714.953125 440.289062 715.113281 440.335938 715.621094 440.402344 C 716.179688 440.476562 716.464844 440.550781 716.847656 440.734375 C 717.257812 440.925781 717.542969 441.152344 717.835938 441.519531 C 718.234375 442.007812 718.472656 442.523438 718.6875 443.335938 C 718.789062 443.742188 718.851562 444.15625 718.839844 444.402344 C 718.835938 444.464844 718.839844 444.511719 718.851562 444.542969 C 718.90625 444.695312 719.0625 444.757812 719.199219 444.6875 C 719.34375 444.605469 719.378906 444.449219 719.339844 444.035156 C 719.316406 443.824219 719.191406 443.207031 719.117188 442.960938 C 718.902344 442.238281 718.652344 441.726562 718.289062 441.261719 C 717.890625 440.746094 717.472656 440.429688 716.863281 440.179688 C 716.488281 440.027344 716.210938 439.957031 715.707031 439.894531 C 715.292969 439.84375 715.136719 439.804688 714.996094 439.710938 C 714.882812 439.636719 714.792969 439.542969 714.65625 439.347656 C 714.457031 439.0625 714.371094 438.917969 713.988281 438.21875 C 713.609375 437.523438 713.40625 437.210938 713.160156 436.945312 C 712.996094 436.769531 712.789062 436.613281 712.601562 436.523438 C 712.492188 436.472656 712.28125 436.421875 712.164062 436.421875 C 712.066406 436.417969 711.894531 436.441406 711.816406 436.464844 Z M 717.207031 458.355469 C 717.34375 458.550781 717.484375 458.835938 717.484375 458.917969 C 717.484375 458.96875 717.472656 458.980469 717.429688 458.992188 C 717.296875 459.019531 717.117188 458.878906 717.042969 458.691406 C 716.992188 458.558594 717.003906 458.378906 717.070312 458.273438 C 717.105469 458.214844 717.113281 458.222656 717.207031 458.355469 Z M 717.207031 458.355469 " fill-opacity="1" fill-rule="nonzero"/></g></g></g><g clip-path="url(#1cec16a982)"><path fill="#0a3757" d="M 463.921875 511.421875 C 467.582031 511.753906 469.84375 512.757812 472.128906 515.066406 L 472.960938 515.902344 L 472.769531 516.253906 C 472.488281 516.769531 471.519531 517.617188 470.789062 517.988281 C 468.808594 518.980469 466.703125 519.089844 465.089844 518.277344 C 462.972656 517.214844 461.519531 514.703125 461.515625 512.101562 L 461.515625 511.273438 L 462.171875 511.300781 C 462.535156 511.3125 463.316406 511.367188 463.921875 511.421875 Z M 455.269531 505 C 456.914062 505.765625 458.828125 507.671875 460.253906 509.96875 L 460.882812 510.984375 L 460.890625 512.152344 C 460.914062 515.242188 462.367188 517.820312 464.75 519.015625 C 465.765625 519.527344 466.375 519.636719 467.847656 519.582031 C 468.878906 519.542969 469.195312 519.492188 469.921875 519.238281 C 471.058594 518.839844 471.75 518.417969 472.53125 517.636719 C 473 517.167969 473.238281 516.835938 473.375 516.46875 L 473.5625 515.949219 L 475.015625 515.199219 C 475.8125 514.789062 477.800781 513.851562 479.429688 513.117188 C 481.660156 512.113281 482.425781 511.804688 482.542969 511.878906 C 482.746094 512.007812 483.039062 512.980469 483.109375 513.769531 L 483.167969 514.414062 L 481.199219 515.417969 C 478.863281 516.613281 477.449219 517.511719 476.59375 518.347656 C 475.875 519.050781 475.617188 519.507812 475.003906 521.171875 C 472.984375 526.65625 469.09375 529.699219 463.550781 530.117188 C 462.265625 530.214844 461.949219 530.179688 462.054688 529.9375 C 463.804688 525.9375 463.828125 521.984375 462.117188 519.164062 C 461.605469 518.320312 460.539062 517.25 459.632812 516.671875 C 459.203125 516.394531 458.300781 515.90625 457.636719 515.59375 C 455.039062 514.371094 454.878906 514.050781 455.367188 511.109375 C 455.613281 509.621094 455.636719 507.914062 455.421875 507.097656 C 455.230469 506.367188 454.855469 505.578125 454.433594 505.019531 L 454.089844 504.574219 L 454.371094 504.640625 C 454.519531 504.679688 454.929688 504.839844 455.269531 505 Z M 453.148438 504.65625 C 453.792969 505.066406 454.414062 506.042969 454.753906 507.195312 C 454.988281 507.976562 454.96875 509.40625 454.707031 510.894531 C 454.59375 511.546875 454.5 512.460938 454.5 512.941406 C 454.5 514.558594 454.929688 515.054688 457.402344 516.28125 C 459.070312 517.109375 459.785156 517.578125 460.523438 518.335938 C 461.414062 519.25 461.980469 520.324219 462.410156 521.914062 C 462.679688 522.917969 462.703125 525.117188 462.453125 526.277344 C 462.226562 527.339844 461.847656 528.574219 461.488281 529.433594 L 461.191406 530.144531 L 460.695312 530.078125 C 457.785156 529.703125 454.09375 528.320312 451.675781 526.703125 C 449.390625 525.171875 448.089844 523.382812 446.753906 519.945312 C 446.253906 518.648438 445.992188 517.742188 445.667969 516.164062 C 445.335938 514.539062 445.242188 511.617188 445.476562 510.253906 C 445.765625 508.578125 446.261719 507.378906 447.039062 506.484375 C 447.902344 505.488281 449.816406 504.59375 451.460938 504.414062 C 452.367188 504.3125 452.675781 504.359375 453.148438 504.65625 Z M 450.925781 503.863281 C 448.9375 504.246094 447.320312 505.121094 446.382812 506.316406 L 445.957031 506.863281 L 444.605469 506.902344 C 443.863281 506.921875 443.027344 506.972656 442.761719 507.011719 C 442.335938 507.078125 442.273438 507.117188 442.246094 507.332031 C 442.210938 507.625 442.382812 507.792969 443.832031 508.894531 C 444.488281 509.390625 444.894531 509.769531 444.882812 509.863281 C 444.277344 513.8125 445.0625 518.300781 447.089844 522.449219 C 448.304688 524.941406 449.578125 526.320312 452.066406 527.839844 C 453.972656 529.003906 456.742188 530.085938 459.03125 530.554688 L 460.101562 530.777344 L 460.160156 532.035156 C 460.191406 532.726562 460.25 533.839844 460.292969 534.511719 L 460.363281 535.734375 L 459.019531 535.851562 C 457.628906 535.96875 457.183594 536.117188 457.246094 536.4375 C 457.285156 536.625 457.394531 536.632812 458.6875 536.519531 L 459.515625 536.445312 L 458.835938 536.816406 C 457.871094 537.34375 457.644531 537.507812 457.589844 537.722656 C 457.5625 537.820312 457.609375 537.964844 457.6875 538.027344 C 457.804688 538.128906 457.992188 538.066406 458.675781 537.71875 C 459.144531 537.476562 459.730469 537.1875 459.996094 537.0625 L 460.472656 536.847656 L 460.414062 537.765625 C 460.363281 538.546875 460.378906 538.710938 460.515625 538.847656 C 460.667969 539 460.683594 539 460.839844 538.804688 C 461.097656 538.484375 461.167969 537.304688 461.035156 535.53125 C 460.78125 532.101562 460.734375 531.445312 460.734375 531.15625 L 460.734375 530.855469 L 462.265625 530.886719 C 463.589844 530.917969 464.785156 530.832031 465.722656 530.636719 L 465.996094 530.582031 L 465.996094 535.648438 L 464.4375 535.597656 C 462.808594 535.546875 462.585938 535.589844 462.585938 535.96875 C 462.585938 536.222656 462.769531 536.261719 463.929688 536.273438 L 464.972656 536.28125 L 464.484375 536.484375 C 464.214844 536.597656 463.695312 536.84375 463.316406 537.035156 C 462.75 537.320312 462.632812 537.421875 462.632812 537.625 C 462.632812 537.769531 462.699219 537.878906 462.792969 537.898438 C 462.882812 537.914062 463.515625 537.6875 464.207031 537.394531 C 464.898438 537.101562 465.554688 536.835938 465.671875 536.800781 C 465.933594 536.722656 465.941406 536.769531 465.796875 537.761719 C 465.714844 538.34375 465.726562 538.464844 465.859375 538.597656 C 466.113281 538.847656 466.347656 538.433594 466.53125 537.402344 C 466.667969 536.652344 466.691406 535.96875 466.660156 533.464844 L 466.628906 530.4375 L 467.40625 530.175781 C 471.234375 528.894531 474.15625 525.820312 475.6875 521.453125 C 476.171875 520.082031 476.449219 519.535156 476.933594 519.039062 C 477.839844 518.105469 479.195312 517.242188 481.890625 515.886719 C 483.898438 514.875 483.980469 514.789062 483.867188 513.867188 C 483.757812 512.980469 483.449219 511.890625 483.195312 511.507812 C 482.769531 510.863281 482.679688 510.882812 479.808594 512.15625 C 478.394531 512.78125 476.359375 513.730469 475.273438 514.265625 L 473.300781 515.242188 L 472.558594 514.449219 C 471.546875 513.375 470.738281 512.78125 469.355469 512.101562 C 467.5625 511.21875 465.671875 510.796875 463.015625 510.683594 C 462.136719 510.648438 461.484375 510.574219 461.367188 510.5 C 461.257812 510.433594 461.007812 510.078125 460.800781 509.695312 C 460.054688 508.332031 458.335938 506.277344 457.226562 505.425781 C 456.386719 504.78125 455.320312 504.238281 454.441406 504.015625 C 453.4375 503.757812 451.839844 503.6875 450.925781 503.863281 " fill-opacity="1" fill-rule="nonzero"/></g><path fill="#0a3757" d="M 450.730469 507.671875 C 450.617188 507.753906 450.472656 507.972656 450.410156 508.167969 C 450.304688 508.480469 450.3125 508.546875 450.480469 508.773438 C 450.765625 509.160156 451.386719 509.191406 451.722656 508.832031 C 452.019531 508.507812 452.050781 507.925781 451.78125 507.683594 C 451.566406 507.488281 451.003906 507.480469 450.730469 507.671875 " fill-opacity="1" fill-rule="nonzero"/><path fill="#0a3757" d="M 464.277344 513.90625 C 464.175781 514.175781 464.539062 514.917969 465.011719 515.40625 C 465.570312 515.984375 466.5 516.441406 467.40625 516.589844 C 468.546875 516.769531 469.230469 516.558594 468.945312 516.105469 C 468.875 515.992188 468.625 515.9375 467.964844 515.894531 C 467.230469 515.84375 466.964844 515.78125 466.453125 515.53125 C 465.859375 515.242188 465.253906 514.683594 464.792969 514.011719 C 464.601562 513.730469 464.363281 513.679688 464.277344 513.90625 " fill-opacity="1" fill-rule="nonzero"/><g clip-path="url(#fa41566ab6)"><path fill="#0a3757" d="M 422.890625 510.316406 C 424.339844 510.804688 425.175781 511.65625 425.691406 513.167969 C 426.53125 515.628906 426.160156 518.824219 424.679688 521.933594 C 423.566406 524.257812 422.328125 525.5625 419.753906 527.117188 C 417.246094 528.632812 414.933594 529.308594 411.847656 529.425781 C 410.035156 529.496094 408.734375 529.359375 406.996094 528.914062 C 405.113281 528.433594 403.691406 527.777344 402.457031 526.8125 C 402.164062 526.585938 401.917969 526.394531 401.898438 526.382812 C 401.839844 526.335938 402.605469 524.796875 402.925781 524.308594 C 404.179688 522.421875 406.46875 520.886719 409.136719 520.144531 C 409.570312 520.023438 410.515625 519.828125 411.238281 519.710938 C 411.957031 519.59375 412.683594 519.441406 412.847656 519.375 C 413.296875 519.191406 413.585938 518.738281 414.152344 517.324219 C 414.804688 515.707031 415.128906 515.0625 415.730469 514.1875 C 417.109375 512.191406 420.191406 510.09375 421.78125 510.074219 C 421.988281 510.070312 422.484375 510.179688 422.890625 510.316406 Z M 402.652344 506.769531 C 404.816406 507.320312 406.671875 508.085938 410.609375 510.046875 C 411.457031 510.46875 412.464844 510.945312 412.839844 511.097656 C 413.21875 511.25 413.554688 511.402344 413.601562 511.4375 C 413.710938 511.53125 413.003906 512.375 412.34375 512.945312 C 410.121094 514.859375 408.320312 515.808594 406.351562 516.105469 C 404.785156 516.339844 403.125 515.761719 401.824219 514.523438 C 400.621094 513.378906 400.097656 512.046875 400.097656 510.117188 C 400.097656 509.21875 400.390625 506.914062 400.570312 506.386719 C 400.613281 506.246094 400.585938 506.242188 402.652344 506.769531 Z M 396.523438 496.25 C 396.640625 496.527344 397.121094 497.890625 397.59375 499.296875 C 398.535156 502.089844 399.816406 505.675781 399.929688 505.832031 C 399.96875 505.882812 399.871094 506.542969 399.714844 507.292969 C 399.347656 509.015625 399.289062 511.167969 399.578125 512.203125 C 400.140625 514.21875 401.789062 515.960938 403.742188 516.601562 C 404.359375 516.804688 404.648438 516.839844 405.777344 516.832031 C 406.957031 516.828125 407.171875 516.800781 407.871094 516.558594 C 409.984375 515.824219 412.507812 514.011719 413.859375 512.261719 C 414.242188 511.761719 414.300781 511.722656 414.6875 511.722656 C 415 511.722656 415.246094 511.628906 415.703125 511.335938 C 417 510.5 418.179688 510.039062 419.335938 509.917969 L 419.949219 509.855469 L 419.132812 510.328125 C 418.023438 510.964844 416.375 512.316406 415.648438 513.1875 C 414.917969 514.054688 414.226562 515.28125 413.613281 516.789062 C 413.09375 518.066406 412.835938 518.605469 412.703125 518.6875 C 412.648438 518.71875 411.867188 518.875 410.96875 519.03125 C 408.730469 519.417969 407.863281 519.683594 406.34375 520.449219 C 405.320312 520.960938 404.582031 521.488281 403.710938 522.324219 C 402.753906 523.242188 402.339844 523.804688 401.773438 524.953125 L 401.324219 525.859375 L 400.492188 524.980469 C 400.03125 524.496094 399.417969 523.742188 399.117188 523.285156 C 397.707031 521.167969 396.652344 518.132812 396.320312 515.230469 C 396.113281 513.4375 396.324219 510.15625 396.765625 508.265625 C 396.957031 507.449219 396.957031 507.117188 396.757812 506.726562 C 396.558594 506.335938 395.644531 505.011719 394.253906 503.101562 C 393.171875 501.613281 391.953125 499.65625 391.679688 498.964844 C 391.539062 498.605469 391.539062 498.558594 391.710938 498.371094 C 392.144531 497.890625 395.804688 495.757812 396.203125 495.75 C 396.261719 495.75 396.40625 495.976562 396.523438 496.25 Z M 394.476562 495.828125 C 392.859375 496.699219 392.738281 496.777344 391.789062 497.46875 C 390.992188 498.054688 390.796875 498.414062 390.960938 499.011719 C 391.195312 499.847656 392.363281 501.710938 394.636719 504.855469 C 395.257812 505.714844 395.875 506.605469 396.007812 506.835938 L 396.25 507.253906 L 396.046875 508.246094 C 395.722656 509.84375 395.644531 510.585938 395.582031 512.648438 C 395.492188 515.738281 395.882812 518.085938 396.921875 520.6875 C 397.839844 522.984375 398.820312 524.46875 400.554688 526.195312 C 402.398438 528.027344 404.277344 529.097656 406.78125 529.742188 C 407.414062 529.90625 408.027344 530.039062 408.148438 530.039062 C 408.359375 530.039062 408.398438 530.1875 408.980469 533.179688 C 409.503906 535.859375 409.660156 536.480469 410.035156 537.410156 C 410.277344 538.015625 410.535156 538.59375 410.617188 538.707031 C 410.765625 538.921875 411.078125 538.976562 411.183594 538.804688 C 411.214844 538.75 411.066406 538.273438 410.847656 537.738281 C 410.628906 537.203125 410.453125 536.75 410.453125 536.722656 C 410.453125 536.699219 410.84375 536.828125 411.3125 537 C 412.917969 537.601562 413.472656 537.664062 413.472656 537.246094 C 413.472656 536.980469 413.0625 536.746094 411.933594 536.355469 C 410.894531 535.996094 410.890625 536 412.429688 535.785156 C 413.335938 535.65625 413.746094 535.445312 413.640625 535.160156 C 413.59375 535.046875 413.453125 535.003906 413.09375 535.003906 C 412.640625 535.003906 410.890625 535.230469 410.40625 535.351562 C 410.214844 535.398438 410.183594 535.355469 410.125 534.984375 C 410.066406 534.621094 409.277344 530.964844 409.132812 530.386719 C 409.082031 530.191406 409.109375 530.183594 409.9375 530.238281 C 410.921875 530.304688 413.464844 530.1875 414.242188 530.042969 C 415.089844 529.882812 415.101562 529.886719 415.175781 530.40625 C 415.273438 531.050781 415.933594 533.613281 416.292969 534.714844 C 416.457031 535.21875 416.566406 535.703125 416.535156 535.792969 C 416.480469 535.964844 416.945312 537.527344 417.289062 538.335938 C 417.425781 538.660156 417.542969 538.804688 417.671875 538.804688 C 418 538.804688 417.992188 538.503906 417.636719 537.421875 C 417.449219 536.847656 417.320312 536.371094 417.355469 536.371094 C 417.390625 536.371094 417.886719 536.59375 418.460938 536.871094 C 419.542969 537.390625 419.804688 537.417969 419.804688 537.011719 C 419.804688 536.742188 419.484375 536.472656 418.847656 536.222656 C 418.625 536.132812 418.441406 536.023438 418.441406 535.984375 C 418.441406 535.945312 418.714844 535.882812 419.046875 535.847656 C 419.792969 535.773438 420.242188 535.53125 420.242188 535.199219 C 420.242188 535.015625 420.195312 534.960938 420.046875 534.96875 C 419.878906 534.980469 417.554688 535.289062 417.332031 535.332031 C 417.1875 535.355469 415.921875 531.195312 415.75 530.125 L 415.695312 529.785156 L 416.773438 529.425781 C 418.183594 528.957031 419.5625 528.265625 421.109375 527.238281 C 423.21875 525.84375 424.351562 524.542969 425.40625 522.3125 C 425.878906 521.308594 426.527344 519.507812 426.527344 519.1875 C 426.527344 519.101562 426.933594 518.910156 427.578125 518.6875 C 429.070312 518.179688 430.589844 517.433594 430.667969 517.171875 C 430.769531 516.847656 430.539062 516.703125 429.742188 516.589844 C 429.335938 516.535156 428.550781 516.367188 427.988281 516.214844 L 426.964844 515.941406 L 426.851562 514.929688 C 426.496094 511.722656 425.289062 510.121094 422.660156 509.363281 C 422 509.171875 421.675781 509.144531 420.242188 509.144531 C 418.78125 509.144531 418.5 509.167969 417.855469 509.375 C 417.046875 509.628906 416.25 510.011719 415.351562 510.574219 L 414.75 510.953125 L 414.085938 510.714844 C 413.066406 510.34375 412.828125 510.238281 409.964844 508.847656 C 405.765625 506.816406 404.382812 506.300781 401.714844 505.789062 C 401.171875 505.683594 400.636719 505.554688 400.535156 505.5 C 400.425781 505.441406 400.273438 505.140625 400.148438 504.742188 C 399.609375 502.96875 396.992188 495.578125 396.832031 495.359375 C 396.703125 495.183594 396.542969 495.109375 396.269531 495.089844 C 395.953125 495.070312 395.65625 495.195312 394.476562 495.828125 " fill-opacity="1" fill-rule="nonzero"/></g><path fill="#0a3757" d="M 402.957031 509.4375 C 402.769531 509.660156 402.921875 510.371094 403.269531 510.898438 C 403.90625 511.855469 404.890625 512.289062 406.078125 512.121094 C 406.859375 512.015625 407.160156 511.832031 406.953125 511.589844 C 406.859375 511.476562 406.628906 511.445312 405.988281 511.460938 C 405.285156 511.476562 405.078125 511.445312 404.753906 511.273438 C 404.175781 510.960938 403.722656 510.4375 403.527344 509.855469 C 403.347656 509.320312 403.164062 509.183594 402.957031 509.4375 " fill-opacity="1" fill-rule="nonzero"/><path fill="#0a3757" d="M 421.542969 514.433594 C 421.132812 514.917969 421.046875 515.691406 421.363281 516.011719 C 421.617188 516.265625 421.878906 516.257812 422.199219 515.980469 C 422.40625 515.804688 422.476562 515.644531 422.511719 515.246094 C 422.554688 514.808594 422.527344 514.699219 422.339844 514.5 C 422.074219 514.21875 421.75 514.191406 421.542969 514.433594 " fill-opacity="1" fill-rule="nonzero"/><g fill="#0a3757" fill-opacity="1"><g transform="translate(268.207441, 311.428456)"><g><path d="M 1.421875 2.296875 C 1.023438 2.296875 0.707031 2.078125 0.46875 1.640625 C 0.238281 1.210938 0.0976562 0.820312 0.046875 0.46875 C 0.015625 0.332031 0 0.191406 0 0.046875 C 0 -0.0976562 0 -0.226562 0 -0.34375 C 0 -0.488281 0 -0.609375 0 -0.703125 C 0 -0.804688 0 -0.890625 0 -0.953125 C 0.03125 -2.046875 0.109375 -3.066406 0.234375 -4.015625 C 0.367188 -4.972656 0.535156 -5.914062 0.734375 -6.84375 C 0.796875 -7.070312 0.847656 -7.3125 0.890625 -7.5625 C 0.929688 -7.820312 0.851562 -8.070312 0.65625 -8.3125 C 0.5625 -8.425781 0.535156 -8.539062 0.578125 -8.65625 C 0.628906 -8.769531 0.695312 -8.867188 0.78125 -8.953125 C 1.09375 -9.359375 1.335938 -9.785156 1.515625 -10.234375 C 1.691406 -10.679688 1.847656 -11.148438 1.984375 -11.640625 C 2.304688 -12.617188 2.695312 -13.726562 3.15625 -14.96875 C 3.613281 -16.207031 4.128906 -17.460938 4.703125 -18.734375 C 5.285156 -20.003906 5.910156 -21.191406 6.578125 -22.296875 C 7.242188 -23.410156 7.953125 -24.34375 8.703125 -25.09375 C 8.929688 -25.269531 9.128906 -25.359375 9.296875 -25.359375 C 9.328125 -25.359375 9.363281 -25.347656 9.40625 -25.328125 C 9.445312 -25.316406 9.515625 -25.296875 9.609375 -25.265625 C 9.804688 -25.179688 9.925781 -25.054688 9.96875 -24.890625 C 10.007812 -24.734375 10.019531 -24.570312 10 -24.40625 C 9.789062 -23.539062 9.429688 -22.535156 8.921875 -21.390625 C 8.421875 -20.253906 7.847656 -19.085938 7.203125 -17.890625 C 6.554688 -16.691406 5.898438 -15.550781 5.234375 -14.46875 C 4.566406 -13.382812 3.988281 -12.46875 3.5 -11.71875 C 2.976562 -10.96875 2.566406 -10 2.265625 -8.8125 C 1.960938 -7.632812 1.722656 -6.429688 1.546875 -5.203125 C 1.378906 -3.984375 1.253906 -2.925781 1.171875 -2.03125 C 1.109375 -1.601562 1.066406 -1.164062 1.046875 -0.71875 C 1.035156 -0.269531 1.101562 0.171875 1.25 0.609375 C 1.3125 0.835938 1.441406 0.953125 1.640625 0.953125 C 1.847656 0.953125 2.109375 0.765625 2.421875 0.390625 C 2.742188 0.015625 2.960938 -0.242188 3.078125 -0.390625 C 4.085938 -1.691406 5.125 -3.066406 6.1875 -4.515625 C 7.25 -5.972656 8.257812 -7.367188 9.21875 -8.703125 C 9.269531 -8.816406 9.382812 -8.992188 9.5625 -9.234375 C 9.738281 -9.484375 9.894531 -9.609375 10.03125 -9.609375 C 10.0625 -9.609375 10.164062 -9.578125 10.34375 -9.515625 C 10.539062 -9.429688 10.613281 -9.273438 10.5625 -9.046875 C 10.5625 -8.816406 10.503906 -8.640625 10.390625 -8.515625 C 10.296875 -8.347656 10.191406 -8.171875 10.078125 -7.984375 C 9.960938 -7.796875 9.847656 -7.613281 9.734375 -7.4375 C 9.273438 -6.863281 8.8125 -6.265625 8.34375 -5.640625 C 7.882812 -5.023438 7.425781 -4.382812 6.96875 -3.71875 C 6.507812 -3.050781 6.039062 -2.398438 5.5625 -1.765625 C 5.082031 -1.140625 4.613281 -0.519531 4.15625 0.09375 C 4.007812 0.320312 3.769531 0.613281 3.4375 0.96875 C 3.101562 1.332031 2.753906 1.644531 2.390625 1.90625 C 2.035156 2.164062 1.710938 2.296875 1.421875 2.296875 Z M 4.9375 -15.53125 C 4.9375 -15.5625 4.945312 -15.578125 4.96875 -15.578125 C 4.96875 -15.578125 4.96875 -15.5625 4.96875 -15.53125 C 5.375 -16.34375 5.785156 -17.15625 6.203125 -17.96875 C 6.628906 -18.789062 7.054688 -19.609375 7.484375 -20.421875 L 8.65625 -22.75 L 8.65625 -22.796875 C 8.625 -22.828125 8.609375 -22.859375 8.609375 -22.890625 C 8.609375 -22.828125 8.625 -22.78125 8.65625 -22.75 C 8.476562 -22.8125 8.390625 -22.84375 8.390625 -22.84375 C 8.273438 -22.84375 8.128906 -22.726562 7.953125 -22.5 C 7.378906 -21.519531 6.835938 -20.53125 6.328125 -19.53125 C 5.828125 -18.539062 5.375 -17.507812 4.96875 -16.4375 C 4.832031 -16.0625 4.820312 -15.757812 4.9375 -15.53125 Z M 4.9375 -15.53125 "/></g></g></g><g fill="#0a3757" fill-opacity="1"><g transform="translate(276.599661, 311.428456)"><g><path d="M 1.8125 -2.15625 C 1.289062 -2.15625 0.828125 -2.3125 0.421875 -2.625 C 0.0234375 -2.945312 -0.226562 -3.398438 -0.34375 -3.984375 C -0.425781 -4.410156 -0.457031 -4.785156 -0.4375 -5.109375 C -0.375 -5.710938 -0.203125 -6.410156 0.078125 -7.203125 C 0.367188 -7.992188 0.757812 -8.734375 1.25 -9.421875 C 1.738281 -10.117188 2.257812 -10.566406 2.8125 -10.765625 C 2.988281 -10.859375 3.175781 -10.90625 3.375 -10.90625 C 3.632812 -10.875 3.789062 -10.726562 3.84375 -10.46875 C 3.90625 -10.125 3.820312 -9.9375 3.59375 -9.90625 C 3.101562 -9.820312 2.726562 -9.617188 2.46875 -9.296875 C 2.207031 -8.984375 1.960938 -8.640625 1.734375 -8.265625 C 1.328125 -7.484375 1.035156 -6.75 0.859375 -6.0625 C 0.742188 -5.738281 0.6875 -5.316406 0.6875 -4.796875 C 0.6875 -3.960938 0.976562 -3.472656 1.5625 -3.328125 C 1.90625 -3.328125 2.191406 -3.367188 2.421875 -3.453125 C 2.648438 -3.546875 2.867188 -3.765625 3.078125 -4.109375 C 3.359375 -4.566406 3.523438 -5.023438 3.578125 -5.484375 C 3.640625 -5.953125 3.515625 -6.429688 3.203125 -6.921875 C 3.023438 -7.210938 2.878906 -7.5 2.765625 -7.78125 C 2.710938 -7.925781 2.734375 -8.0625 2.828125 -8.1875 C 2.929688 -8.320312 3.054688 -8.40625 3.203125 -8.4375 L 4.546875 -8.4375 C 5.347656 -8.4375 6.15625 -8.566406 6.96875 -8.828125 C 7.164062 -8.878906 7.363281 -8.945312 7.5625 -9.03125 C 7.769531 -9.125 7.972656 -9.203125 8.171875 -9.265625 C 8.378906 -9.316406 8.578125 -9.382812 8.765625 -9.46875 C 8.953125 -9.5625 9.144531 -9.632812 9.34375 -9.6875 L 10.03125 -9.859375 C 10.269531 -9.859375 10.457031 -9.742188 10.59375 -9.515625 C 10.738281 -9.171875 10.625 -8.941406 10.25 -8.828125 C 9.84375 -8.679688 9.4375 -8.535156 9.03125 -8.390625 C 8.632812 -8.242188 8.234375 -8.097656 7.828125 -7.953125 C 7.421875 -7.816406 7.007812 -7.695312 6.59375 -7.59375 C 6.175781 -7.488281 5.738281 -7.410156 5.28125 -7.359375 C 4.875 -7.296875 4.648438 -7.226562 4.609375 -7.15625 C 4.566406 -7.082031 4.570312 -6.859375 4.625 -6.484375 C 4.800781 -5.648438 4.703125 -4.832031 4.328125 -4.03125 C 4.035156 -3.414062 3.601562 -2.910156 3.03125 -2.515625 C 2.625 -2.273438 2.21875 -2.15625 1.8125 -2.15625 Z M 1.8125 -2.15625 "/></g></g></g><g fill="#0a3757" fill-opacity="1"><g transform="translate(285.078395, 311.428456)"><g><path d="M 1.25 0.265625 C 0.707031 0.265625 0.347656 -0.109375 0.171875 -0.859375 C 0.140625 -1.003906 0.117188 -1.140625 0.109375 -1.265625 C 0.0976562 -1.398438 0.09375 -1.523438 0.09375 -1.640625 C 0.0625 -1.753906 0.046875 -1.867188 0.046875 -1.984375 C 0.046875 -2.097656 0.03125 -2.21875 0 -2.34375 C 0.144531 -3.894531 0.367188 -5.40625 0.671875 -6.875 C 0.972656 -8.34375 1.425781 -9.785156 2.03125 -11.203125 C 2.0625 -11.285156 2.101562 -11.363281 2.15625 -11.4375 C 2.21875 -11.507812 2.28125 -11.578125 2.34375 -11.640625 C 2.394531 -11.691406 2.476562 -11.71875 2.59375 -11.71875 C 2.707031 -11.71875 2.796875 -11.691406 2.859375 -11.640625 C 2.972656 -11.609375 3.054688 -11.503906 3.109375 -11.328125 C 3.140625 -11.191406 3.132812 -11.054688 3.09375 -10.921875 C 3.050781 -10.796875 3 -10.660156 2.9375 -10.515625 C 2.394531 -9.210938 1.960938 -7.8125 1.640625 -6.3125 C 1.328125 -4.8125 1.171875 -3.359375 1.171875 -1.953125 C 1.171875 -1.804688 1.175781 -1.660156 1.1875 -1.515625 C 1.207031 -1.367188 1.285156 -1.269531 1.421875 -1.21875 C 1.453125 -1.1875 1.523438 -1.171875 1.640625 -1.171875 C 1.785156 -1.171875 1.898438 -1.226562 1.984375 -1.34375 C 2.015625 -1.394531 2.050781 -1.441406 2.09375 -1.484375 C 2.132812 -1.535156 2.171875 -1.585938 2.203125 -1.640625 C 2.546875 -1.984375 2.925781 -2.472656 3.34375 -3.109375 C 3.769531 -3.742188 4.144531 -4.398438 4.46875 -5.078125 C 4.800781 -5.753906 5.015625 -6.328125 5.109375 -6.796875 C 5.304688 -7.546875 5.632812 -8.09375 6.09375 -8.4375 C 6.5625 -8.78125 7.171875 -8.992188 7.921875 -9.078125 C 8.492188 -9.140625 9.066406 -9.234375 9.640625 -9.359375 C 10.222656 -9.492188 10.800781 -9.632812 11.375 -9.78125 C 11.488281 -9.8125 11.585938 -9.832031 11.671875 -9.84375 C 11.765625 -9.851562 11.835938 -9.859375 11.890625 -9.859375 C 11.921875 -9.859375 12.023438 -9.832031 12.203125 -9.78125 C 12.398438 -9.664062 12.5 -9.503906 12.5 -9.296875 C 12.5 -9.066406 12.414062 -8.910156 12.25 -8.828125 C 12.132812 -8.742188 11.957031 -8.703125 11.71875 -8.703125 L 8.265625 -7.953125 C 8.203125 -7.929688 8.128906 -7.921875 8.046875 -7.921875 C 7.960938 -7.921875 7.875 -7.90625 7.78125 -7.875 C 7.695312 -7.84375 7.609375 -7.828125 7.515625 -7.828125 C 7.429688 -7.828125 7.363281 -7.8125 7.3125 -7.78125 C 6.851562 -7.695312 6.550781 -7.441406 6.40625 -7.015625 L 6.015625 -5.921875 C 5.898438 -5.523438 5.664062 -4.984375 5.3125 -4.296875 C 4.96875 -3.617188 4.566406 -2.925781 4.109375 -2.21875 C 3.648438 -1.519531 3.164062 -0.929688 2.65625 -0.453125 C 2.15625 0.0234375 1.6875 0.265625 1.25 0.265625 Z M 1.25 0.265625 "/></g></g></g><g fill="#0a3757" fill-opacity="1"><g transform="translate(295.417263, 311.428456)"><g><path d="M 2.03125 -1.8125 C 0.851562 -1.8125 0.117188 -2.347656 -0.171875 -3.421875 C -0.253906 -3.648438 -0.320312 -3.894531 -0.375 -4.15625 C -0.4375 -4.414062 -0.457031 -4.660156 -0.4375 -4.890625 C -0.457031 -5.265625 -0.429688 -5.609375 -0.359375 -5.921875 C -0.296875 -6.242188 -0.21875 -6.5625 -0.125 -6.875 C 0.132812 -7.570312 0.484375 -8.316406 0.921875 -9.109375 C 1.367188 -9.898438 1.90625 -10.597656 2.53125 -11.203125 C 3.15625 -11.804688 3.84375 -12.164062 4.59375 -12.28125 C 4.675781 -12.28125 4.734375 -12.296875 4.765625 -12.328125 C 4.785156 -12.328125 4.8125 -12.328125 4.84375 -12.328125 C 4.875 -12.328125 4.90625 -12.328125 4.9375 -12.328125 C 5.363281 -12.328125 5.695312 -12.179688 5.9375 -11.890625 C 6.1875 -11.609375 6.285156 -11.222656 6.234375 -10.734375 C 6.117188 -10.035156 5.78125 -9.316406 5.21875 -8.578125 C 4.65625 -7.847656 4 -7.226562 3.25 -6.71875 C 2.5 -6.21875 1.773438 -5.925781 1.078125 -5.84375 C 0.878906 -5.78125 0.765625 -5.648438 0.734375 -5.453125 C 0.617188 -4.992188 0.660156 -4.488281 0.859375 -3.9375 C 0.953125 -3.445312 1.117188 -3.15625 1.359375 -3.0625 C 1.609375 -2.976562 1.9375 -2.9375 2.34375 -2.9375 C 3.207031 -3.113281 4.09375 -3.492188 5 -4.078125 C 5.90625 -4.671875 6.675781 -5.257812 7.3125 -5.84375 C 7.570312 -6.070312 7.832031 -6.316406 8.09375 -6.578125 C 8.351562 -6.835938 8.613281 -7.082031 8.875 -7.3125 C 9.101562 -7.539062 9.347656 -7.773438 9.609375 -8.015625 C 9.867188 -8.265625 10.128906 -8.503906 10.390625 -8.734375 C 10.441406 -8.796875 10.507812 -8.863281 10.59375 -8.9375 C 10.6875 -9.007812 10.757812 -9.070312 10.8125 -9.125 C 10.875 -9.1875 10.941406 -9.253906 11.015625 -9.328125 C 11.085938 -9.398438 11.148438 -9.460938 11.203125 -9.515625 C 11.347656 -9.597656 11.460938 -9.640625 11.546875 -9.640625 C 11.660156 -9.640625 11.765625 -9.597656 11.859375 -9.515625 C 12.085938 -9.316406 12.128906 -9.101562 11.984375 -8.875 C 11.953125 -8.78125 11.835938 -8.632812 11.640625 -8.4375 C 11.117188 -7.882812 10.46875 -7.234375 9.6875 -6.484375 C 8.90625 -5.734375 8.066406 -5.003906 7.171875 -4.296875 C 6.285156 -3.597656 5.394531 -3.007812 4.5 -2.53125 C 3.601562 -2.050781 2.78125 -1.8125 2.03125 -1.8125 Z M 1.640625 -7.140625 C 2.015625 -7.335938 2.46875 -7.640625 3 -8.046875 C 3.539062 -8.453125 4.019531 -8.890625 4.4375 -9.359375 C 4.851562 -9.835938 5.0625 -10.304688 5.0625 -10.765625 C 5.03125 -11.054688 4.898438 -11.175781 4.671875 -11.125 C 4.210938 -11.0625 3.75 -10.8125 3.28125 -10.375 C 2.820312 -9.945312 2.421875 -9.457031 2.078125 -8.90625 C 1.734375 -8.363281 1.472656 -7.859375 1.296875 -7.390625 C 1.296875 -7.253906 1.328125 -7.1875 1.390625 -7.1875 C 1.523438 -7.125 1.609375 -7.109375 1.640625 -7.140625 Z M 1.640625 -7.140625 "/></g></g></g></svg>