<svg xmlns="http://www.w3.org/2000/svg" xmlns:xlink="http://www.w3.org/1999/xlink" width="1080" zoomAndPan="magnify" viewBox="0 0 810 1439.999935" height="1920" preserveAspectRatio="xMidYMid meet" version="1.0"><defs><clipPath id="e4ac3b929c"><path d="M 706 1010 L 790.464844 1010 L 790.464844 1054 L 706 1054 Z M 706 1010 " clip-rule="nonzero"/></clipPath><clipPath id="1c70d59f23"><path d="M 715 1056 L 741 1056 L 741 1079.691406 L 715 1079.691406 Z M 715 1056 " clip-rule="nonzero"/></clipPath><clipPath id="d7804c01dd"><path d="M 256.554688 243.015625 L 335.242188 243.015625 L 335.242188 328.898438 L 256.554688 328.898438 Z M 256.554688 243.015625 " clip-rule="nonzero"/></clipPath></defs><g clip-path="url(#e4ac3b929c)"><path fill="#0a3757" d="M 725.539062 1017.746094 C 727.042969 1017.6875 728.347656 1019.042969 729.828125 1019.386719 C 732.304688 1020.371094 734.875 1021.089844 737.371094 1022.015625 C 744.789062 1024.191406 752.144531 1026.660156 759.773438 1028 C 761.703125 1028.324219 763.488281 1029.160156 765.394531 1029.578125 C 766.867188 1030.082031 768.453125 1029.964844 769.902344 1030.542969 C 772.261719 1031.535156 774.707031 1031.949219 777.21875 1032.265625 C 776.054688 1030.085938 774.453125 1030.523438 772.445312 1029.875 C 769.980469 1028.742188 767.277344 1028.851562 764.695312 1028.285156 C 763.777344 1027.972656 762.832031 1027.785156 761.859375 1027.722656 C 759.890625 1027.875 758.707031 1026.375 757.046875 1025.640625 C 755.363281 1026.878906 753.941406 1025.050781 752.460938 1024.503906 C 751.675781 1024.148438 750.785156 1024.296875 750.027344 1023.890625 C 749.0625 1023.417969 748.183594 1022.738281 747.144531 1022.441406 C 746.246094 1022.125 745.210938 1022.277344 744.382812 1021.777344 C 743.496094 1021.136719 742.539062 1020.628906 741.4375 1020.53125 C 737.265625 1021.382812 738.761719 1020.816406 735.105469 1019.355469 C 733.027344 1019.234375 731.710938 1019.300781 729.964844 1017.859375 C 729.132812 1017.339844 728.117188 1017.660156 727.207031 1017.476562 C 726.3125 1017.222656 725.480469 1016.855469 724.542969 1017.152344 C 724.136719 1017.679688 723.183594 1016.953125 722.757812 1016.6875 C 722.972656 1015.757812 724.085938 1017.371094 725.105469 1016.871094 C 724.222656 1016.222656 722.996094 1015.816406 722.273438 1014.859375 C 721.707031 1014.984375 721.136719 1015.058594 720.5625 1015.078125 C 721.160156 1015.503906 721.777344 1015.722656 722.242188 1016.160156 C 722.234375 1016.269531 722.167969 1016.296875 722.097656 1016.273438 C 720.597656 1015.804688 719.328125 1014.734375 717.796875 1014.390625 C 715.289062 1014.335938 715.25 1015.402344 716.660156 1017.144531 C 718.214844 1018.761719 719.785156 1018.589844 721.785156 1018.546875 C 723.125 1018.863281 724.664062 1019.546875 725.171875 1020.882812 C 723.167969 1022.125 720.914062 1020.761719 718.996094 1019.886719 C 716.367188 1018.671875 713.523438 1018.054688 710.800781 1017.109375 C 709.71875 1016.714844 708.53125 1016.417969 707.390625 1016.738281 C 707.191406 1016.789062 707.191406 1016.78125 706.949219 1016.664062 C 707.605469 1015.695312 709.226562 1016.210938 710.21875 1016.320312 C 711.714844 1016.125 713.210938 1015.667969 714.757812 1015.613281 C 714.347656 1016.269531 713.265625 1015.941406 712.640625 1016.386719 C 712.308594 1016.53125 712.09375 1016.53125 711.707031 1016.664062 C 713.269531 1016.972656 714.644531 1017.710938 716.070312 1018.015625 C 714.867188 1016.207031 714.65625 1013.714844 717.492188 1013.800781 C 719.855469 1014.402344 719.261719 1014.984375 722.078125 1014.324219 C 722.976562 1011.890625 726.285156 1012.011719 728.269531 1012.910156 C 729.191406 1013.347656 730.085938 1013.867188 731.117188 1013.976562 C 734.0625 1014.777344 735.480469 1013.414062 738.054688 1012.726562 C 739.957031 1009.191406 747.230469 1011.625 750.335938 1011.917969 C 753.769531 1012.109375 757.058594 1010.011719 760.445312 1010.789062 C 763.078125 1012.132812 764.640625 1014.9375 766.597656 1017.007812 C 768.378906 1017.902344 769.679688 1019.363281 770.972656 1020.816406 C 772.105469 1021.484375 772.570312 1022.566406 773.097656 1023.6875 C 774.125 1024.644531 775.203125 1025.535156 775.875 1026.808594 C 776.003906 1026.972656 776.046875 1027.203125 776.273438 1027.261719 C 778.070312 1028.023438 780.320312 1029.421875 780.011719 1031.664062 C 781.328125 1033.019531 781.332031 1033.558594 783.289062 1034.324219 C 786.46875 1036.304688 787.085938 1039.382812 782.613281 1039.863281 C 786.160156 1042.585938 784.199219 1042.4375 781.15625 1043.019531 C 781.726562 1043.871094 782.105469 1044.800781 782.296875 1045.808594 C 784.382812 1045.222656 788.386719 1045.058594 789.683594 1043.304688 C 788.464844 1041.867188 786.65625 1040.953125 785.832031 1039.183594 C 787.359375 1040.535156 789.554688 1041.894531 790.351562 1043.796875 C 790.53125 1046.644531 790.601562 1049.609375 789.824219 1052.375 C 789.199219 1050.34375 789.898438 1048.160156 789.683594 1046.121094 C 787.234375 1046.671875 784.773438 1047.152344 782.320312 1047.652344 C 781.761719 1047.757812 781.734375 1048.53125 781.40625 1048.921875 C 780.320312 1050.433594 780.410156 1052.347656 779.785156 1053.992188 C 778.46875 1051.867188 780.183594 1049.683594 781.34375 1047.941406 C 782.453125 1044.3125 780.539062 1042.339844 777.046875 1041.796875 C 774.210938 1040.753906 771.257812 1039.820312 768.554688 1038.5 C 770.777344 1038.835938 773.164062 1039.71875 775.355469 1040.476562 C 777.070312 1041.222656 778.953125 1042.0625 780.8125 1041.34375 C 780.980469 1041.839844 779.753906 1041.695312 779.425781 1041.894531 C 779.929688 1042.140625 780.410156 1042.292969 780.78125 1042.625 C 781.855469 1042.304688 782.980469 1042.339844 783.972656 1041.78125 C 783.46875 1041.074219 782.453125 1040.746094 782.230469 1039.851562 C 781.195312 1039.691406 780.230469 1039.195312 779.171875 1039.195312 C 777.207031 1039.289062 775.617188 1038.152344 773.804688 1037.640625 C 772.378906 1037.359375 771.066406 1036.753906 769.730469 1036.207031 C 767.40625 1035.351562 764.964844 1034.8125 762.777344 1033.589844 C 761.285156 1032.695312 759.480469 1033.652344 757.933594 1032.765625 C 755.949219 1031.882812 753.785156 1031.734375 751.660156 1031.480469 C 749.386719 1030.753906 747.0625 1030.257812 744.691406 1030 C 742.507812 1029.589844 740.628906 1028.289062 738.914062 1026.941406 C 737.535156 1025.816406 735.742188 1026.433594 734.1875 1025.882812 C 731.945312 1025.089844 729.644531 1024.78125 727.316406 1025.296875 C 730.808594 1029.054688 736.5 1029.460938 741.046875 1031.503906 C 737.558594 1030.75 733.980469 1029.816406 730.707031 1028.347656 C 727.984375 1027.078125 725.832031 1024.890625 722.925781 1023.964844 C 721.414062 1023.40625 720.0625 1022.328125 718.449219 1022.09375 C 717.335938 1021.652344 713.957031 1021.707031 715.097656 1019.835938 C 716.832031 1019.164062 718.335938 1021.15625 719.785156 1021.867188 C 721.757812 1022.765625 723.816406 1023.488281 725.761719 1024.464844 C 726.621094 1024.683594 727.609375 1024.636719 728.507812 1024.566406 C 730.773438 1024.023438 732.832031 1024.609375 734.984375 1025.320312 C 736.46875 1025.773438 738.167969 1025.300781 739.472656 1026.339844 C 741.78125 1027.449219 743.664062 1029.695312 746.394531 1029.589844 C 749.351562 1030.09375 752.171875 1031.121094 755.199219 1031.285156 C 757.429688 1031.753906 759.542969 1032.535156 761.839844 1032.683594 C 763.882812 1033.164062 765.753906 1034.296875 767.746094 1034.96875 C 769.1875 1035.476562 770.761719 1035.550781 772.121094 1036.300781 C 774.601562 1037.03125 776.925781 1038.445312 779.542969 1038.5625 C 781.234375 1038.550781 782.96875 1039.371094 784.621094 1038.789062 C 787.136719 1037.03125 782.535156 1034.894531 781.195312 1034.046875 C 778.738281 1033.050781 776.085938 1032.671875 773.46875 1032.347656 C 771.179688 1031.851562 769.003906 1030.789062 766.667969 1030.492188 C 758.210938 1028.328125 749.628906 1026.460938 741.285156 1023.808594 C 735.820312 1022.496094 730.335938 1020.734375 725.539062 1017.746094 Z M 717.355469 1021.167969 L 717.390625 1021.222656 L 717.417969 1021.179688 L 717.347656 1021.175781 C 716.851562 1020.785156 716.152344 1020.210938 715.441406 1020.335938 C 715.980469 1020.839844 716.621094 1021.117188 717.355469 1021.167969 Z M 758.648438 1013.214844 C 757.597656 1013.480469 756.535156 1013.671875 755.457031 1013.785156 C 756.53125 1014.316406 757.847656 1013.988281 758.644531 1013.21875 L 758.734375 1013.230469 L 758.738281 1013.222656 Z M 739.664062 1017.195312 C 742.945312 1018.539062 747.007812 1017.863281 749.859375 1020.089844 C 749.601562 1020.148438 749.351562 1019.910156 749.070312 1020.054688 C 748.195312 1019.679688 747.285156 1019.417969 746.34375 1019.261719 C 743.105469 1018.390625 739.8125 1017.785156 736.59375 1016.875 C 732.761719 1016.125 725.777344 1010.597656 722.527344 1014.078125 C 725 1016.945312 728.976562 1016.671875 732.070312 1018.34375 C 732.9375 1018.851562 733.878906 1018.664062 734.824219 1018.683594 C 736.277344 1018.820312 737.375 1019.941406 738.753906 1020.332031 C 741.433594 1020.386719 741.808594 1018.9375 744.8125 1021.25 C 746.328125 1021.957031 748.066406 1022.1875 749.527344 1023.09375 C 750.132812 1023.414062 750.777344 1023.589844 751.460938 1023.617188 C 752.972656 1023.648438 754.046875 1024.738281 755.382812 1025.203125 C 756.007812 1025.261719 756.648438 1025.628906 757.265625 1025.5 C 758.847656 1025.152344 759.59375 1027.195312 761.117188 1027.253906 C 763.140625 1027.246094 765.003906 1027.964844 766.992188 1028.203125 C 770.261719 1028.464844 773.523438 1029.367188 776.617188 1030.394531 C 776.691406 1031.160156 777.714844 1031.199219 778.257812 1031.570312 C 778.769531 1031.804688 779.511719 1031.738281 779.703125 1031.125 C 779.609375 1030.542969 779.101562 1030.285156 778.773438 1029.851562 C 777.296875 1028.132812 775.011719 1027.109375 772.761719 1026.929688 C 770.292969 1026.523438 768.070312 1025.195312 765.527344 1025.101562 C 762.605469 1025 760.019531 1023.570312 757.277344 1022.742188 C 755.925781 1022.03125 754.085938 1022.191406 752.929688 1021.238281 C 755.652344 1021.289062 758.179688 1022.640625 760.730469 1023.511719 C 762.246094 1024.238281 763.914062 1024.34375 765.550781 1024.585938 C 767.933594 1025.050781 770.261719 1025.707031 772.632812 1026.210938 C 771.796875 1025.144531 770.808594 1024.199219 770.128906 1023.011719 C 769.695312 1022.394531 767.667969 1022.625 766.871094 1022.519531 C 765.714844 1022.507812 765.195312 1021.148438 764.050781 1020.984375 C 762.824219 1020.617188 761.597656 1020.03125 760.289062 1020.3125 C 760.027344 1020.363281 759.789062 1020.308594 759.574219 1020.152344 C 758.890625 1019.769531 758.503906 1019.03125 757.769531 1018.722656 C 756.570312 1018.578125 755.851562 1020.023438 754.691406 1018.375 C 753.453125 1017.242188 751.4375 1017.867188 750.019531 1016.957031 C 749.128906 1016.441406 748.171875 1017.101562 747.261719 1016.769531 C 746.496094 1016.460938 745.710938 1016.246094 744.886719 1016.417969 C 743.300781 1016.769531 741.792969 1015.886719 740.355469 1015.566406 C 739.546875 1015.734375 738.722656 1015.933594 737.902344 1015.9375 C 738.613281 1015.664062 739.355469 1015.527344 740.101562 1015.21875 C 739.378906 1014.695312 738.675781 1014.316406 738.171875 1013.570312 C 736.21875 1013.773438 734.300781 1014.65625 732.421875 1014.753906 C 733.277344 1015.070312 734.09375 1015.800781 735.046875 1015.496094 C 736.433594 1015.375 738.105469 1014.472656 739.382812 1014.964844 C 738.128906 1015.546875 736.238281 1015.34375 735.078125 1015.929688 C 736.429688 1016.347656 737.914062 1017.136719 739.335938 1016.925781 C 739.78125 1016.8125 740.292969 1016.613281 740.734375 1016.8125 C 740.414062 1017.054688 740.039062 1017.03125 739.664062 1017.195312 Z M 772.21875 1022.972656 C 772.023438 1022.375 771.65625 1021.910156 771.113281 1021.589844 C 769.960938 1020.859375 769.34375 1019.558594 768.132812 1018.886719 C 765.101562 1016.933594 761.425781 1015.992188 757.933594 1015.152344 C 753.121094 1013.867188 748.457031 1011.972656 743.464844 1011.433594 C 737.035156 1011.136719 737.238281 1013.484375 742.777344 1015.773438 C 744.484375 1016.175781 746.242188 1015.773438 747.980469 1016.117188 C 749.785156 1016.011719 751.292969 1017.183594 753.070312 1017.285156 C 754.648438 1017.261719 754.867188 1018.488281 756.054688 1018.695312 C 757.132812 1018.574219 757.441406 1017.382812 758.796875 1018.664062 C 759.273438 1019.128906 759.8125 1019.777344 760.550781 1019.644531 C 761.582031 1019.515625 762.582031 1020.042969 763.566406 1020.285156 C 764.449219 1020.578125 765.304688 1020.929688 766 1021.578125 C 766.859375 1022.234375 768.09375 1021.8125 769.101562 1022.070312 C 770.191406 1022.195312 771.230469 1022.5 772.21875 1022.972656 Z M 751.6875 1012.558594 C 752.84375 1012.832031 753.871094 1013.566406 755.066406 1013.503906 C 756.996094 1013.554688 759.417969 1011.929688 761.0625 1013.222656 C 762.542969 1014.699219 762.636719 1016.4375 765.113281 1016.527344 C 760.675781 1009.820312 758.765625 1011.488281 751.6875 1012.558594 Z M 782.300781 1046.199219 C 782.269531 1046.644531 782.074219 1047.050781 782.167969 1047.441406 C 784.671875 1047.054688 787.078125 1046.382812 789.519531 1045.722656 C 789.433594 1045.398438 789.257812 1045.128906 788.996094 1044.917969 C 786.769531 1045.410156 784.550781 1045.859375 782.300781 1046.199219 Z M 757.246094 1014.191406 C 759.105469 1014.707031 761.015625 1015.386719 762.761719 1015.773438 C 760.433594 1012.710938 760.824219 1012.46875 757.246094 1014.191406 Z M 770.28125 1022.78125 C 771.007812 1023.996094 772.058594 1025.003906 772.929688 1026.121094 C 773.386719 1026.597656 774.183594 1026.652344 774.804688 1026.703125 C 773.640625 1025.074219 772.4375 1023.085938 770.28125 1022.78125 Z M 719.992188 1019.527344 C 721.320312 1019.96875 722.628906 1020.476562 724.089844 1020.554688 C 723.550781 1020.023438 722.914062 1019.667969 722.179688 1019.484375 C 721.445312 1019.300781 720.71875 1019.316406 719.992188 1019.527344 Z M 779.894531 1032.785156 C 779.75 1032.367188 779.734375 1032.347656 779.441406 1032.121094 C 778.820312 1032.472656 778.144531 1032.167969 777.484375 1032.214844 C 778.164062 1032.628906 779.125 1032.46875 779.894531 1032.785156 Z M 785.632812 1038.089844 L 785.605469 1038.054688 C 785.589844 1038.09375 785.550781 1038.125 785.597656 1038.15625 C 785.609375 1038.132812 785.621094 1038.109375 785.632812 1038.089844 Z M 785.632812 1038.089844 " fill-opacity="1" fill-rule="nonzero"/></g><path fill="#0a3757" d="M 745 1051.339844 C 742.925781 1052.160156 740.257812 1051.707031 737.964844 1051.933594 C 734.601562 1051.894531 731.265625 1052.453125 727.941406 1051.6875 C 727.046875 1052.996094 727.15625 1054.613281 726.757812 1056.074219 C 726.402344 1055.457031 726.707031 1054.601562 726.582031 1053.902344 C 725.394531 1052.011719 723.671875 1050.480469 722.472656 1048.574219 C 724.074219 1049.824219 725.230469 1051.515625 726.574219 1053.027344 C 726.695312 1052.664062 726.550781 1052.371094 726.371094 1052.105469 C 724.652344 1049.519531 722.632812 1047.167969 720.585938 1044.84375 C 720.792969 1044.671875 721.175781 1045.25 721.359375 1045.378906 C 723.09375 1047.234375 724.683594 1049.207031 726.132812 1051.296875 C 724.734375 1045.660156 719.070312 1042.503906 715.839844 1037.929688 C 715.597656 1038.066406 715.40625 1038.25 715.261719 1038.488281 C 716.09375 1039.507812 717.199219 1040.394531 717.640625 1041.660156 C 716.730469 1040.6875 716.046875 1039.722656 715.058594 1038.851562 C 714.15625 1040.585938 715.460938 1042.457031 715.304688 1044.265625 C 715.054688 1046.097656 714.621094 1049.117188 712.476562 1049.523438 C 709.796875 1049.777344 708.558594 1046.484375 708.984375 1044.25 C 708.808594 1041.5625 712.972656 1035.847656 711.28125 1034.902344 C 710.261719 1039.703125 702.375 1036.191406 707.765625 1029.042969 C 706.226562 1026.738281 704.023438 1025.015625 702.074219 1023.078125 C 701.914062 1023.332031 701.707031 1023.539062 701.699219 1023.882812 L 702.039062 1023.761719 C 702.242188 1023.976562 702.421875 1024.207031 702.582031 1024.457031 C 702.320312 1024.574219 702 1024.210938 701.714844 1024.136719 C 701.402344 1025.230469 701.699219 1026.46875 701.210938 1027.527344 C 700.78125 1028.15625 700.9375 1029.03125 700.378906 1029.554688 C 700.109375 1029.089844 700.226562 1028.5625 700.398438 1028.089844 C 700.890625 1026.792969 700.796875 1025.378906 700.933594 1024.019531 C 700.894531 1020.019531 700.992188 1019.078125 705.179688 1018.273438 C 705.21875 1017.515625 705.722656 1016.5625 706.632812 1016.894531 C 703.90625 1019.253906 709.875 1021.601562 711.722656 1022.027344 C 713.8125 1022.578125 715.65625 1023.734375 717.726562 1024.316406 C 719.15625 1024.476562 726.191406 1025.722656 724.511719 1028.050781 C 721.042969 1029.789062 716.003906 1024.945312 711.828125 1026.308594 C 714.296875 1023.640625 720.980469 1028.242188 724.152344 1027.527344 C 722.726562 1025.125 719.269531 1025.625 716.929688 1024.90625 C 715.007812 1024.183594 713.199219 1023.21875 711.199219 1022.703125 C 711.265625 1023.023438 711.523438 1023.179688 711.464844 1023.550781 C 710.71875 1023.476562 710.542969 1022.605469 709.949219 1022.300781 C 708.070312 1021.644531 706.632812 1020.242188 705.359375 1018.757812 C 704.828125 1018.980469 704.238281 1019.058594 703.730469 1019.394531 C 704.476562 1020.3125 705.480469 1021.023438 705.851562 1022.210938 C 704.574219 1022.199219 704.171875 1020.339844 703.019531 1019.910156 C 702.765625 1020.042969 702.621094 1020.25 702.582031 1020.535156 C 704.335938 1022.835938 706.507812 1024.808594 708.316406 1027.070312 C 706.371094 1025.898438 704.648438 1023.78125 703.003906 1022.074219 C 702.796875 1022.226562 702.671875 1022.324219 702.472656 1022.484375 C 704.34375 1024.515625 706.425781 1026.371094 707.972656 1028.683594 C 708.816406 1027.824219 709.808594 1027.195312 710.945312 1026.800781 C 709.066406 1029.210938 705 1032.609375 707.542969 1035.960938 C 708.117188 1036.683594 709.339844 1036.976562 710.035156 1036.28125 C 710.480469 1035.511719 710.351562 1034.496094 711.261719 1034.03125 C 712.355469 1033.835938 712.859375 1035.59375 712.414062 1036.421875 C 711.046875 1039.722656 708.914062 1043.320312 709.960938 1047.003906 C 712.609375 1052.863281 715.421875 1046.078125 714.449219 1042.84375 C 713.867188 1040.996094 713.574219 1038.628906 715.179688 1037.214844 C 714.75 1036.746094 714.355469 1036.253906 713.996094 1035.730469 C 714.363281 1035.660156 715.242188 1036.796875 715.613281 1037.078125 C 716.511719 1037.011719 719.523438 1037.730469 719.335938 1038.902344 C 720.253906 1039.5 721.03125 1040.242188 721.671875 1041.128906 C 722.25 1040.089844 723.3125 1040.488281 722.898438 1041.617188 C 722.71875 1042.859375 723.554688 1042.28125 724.046875 1042.601562 C 723.632812 1043.332031 722 1043.191406 722.28125 1042.097656 C 722.386719 1041.765625 722.542969 1041.28125 722.21875 1041.019531 C 721.953125 1041.273438 721.726562 1041.792969 721.277344 1041.570312 C 721.101562 1041.574219 720.945312 1041.519531 720.808594 1041.410156 C 720.675781 1041.296875 720.59375 1041.152344 720.5625 1040.980469 C 720.445312 1040.292969 720.121094 1039.785156 719.367188 1039.789062 C 719.054688 1039.730469 718.792969 1039.578125 718.589844 1039.332031 C 718.386719 1039.085938 718.285156 1038.804688 718.28125 1038.484375 C 718.152344 1037.707031 716.980469 1037.394531 716.339844 1037.652344 C 718.191406 1039.53125 719.933594 1041.527344 721.710938 1043.492188 C 722.984375 1044.828125 724.414062 1046.054688 725.335938 1047.675781 C 727.097656 1051.035156 728.324219 1051.925781 732.160156 1051.335938 C 736.429688 1051.625 740.71875 1051.28125 745 1051.339844 Z M 745 1051.339844 " fill-opacity="1" fill-rule="nonzero"/><path fill="#0a3757" d="M 727.269531 1033.789062 L 728.640625 1033.96875 C 729.285156 1031.832031 733.746094 1033.773438 734.308594 1035.214844 C 736.257812 1035.425781 738.136719 1035.992188 740.03125 1036.484375 C 741.453125 1036.917969 743 1036.894531 744.300781 1037.679688 C 746.855469 1039.367188 749.816406 1040.242188 752.808594 1040.789062 C 755.046875 1041.066406 757.097656 1042.117188 759.316406 1042.433594 C 760.773438 1042.664062 762.585938 1041.097656 763.871094 1042.082031 C 763.617188 1042.167969 763.324219 1042.054688 763.089844 1042.25 C 762.214844 1042.875 761.148438 1042.976562 760.117188 1043.105469 C 760.066406 1043.195312 760.125 1043.226562 760.167969 1043.253906 C 761.160156 1043.816406 762.0625 1044.5 762.867188 1045.308594 C 764.933594 1045.960938 766.953125 1044.269531 769.085938 1044.710938 C 767.867188 1043.285156 766.882812 1043.925781 765.269531 1044.066406 C 765.847656 1043.6875 766.484375 1043.742188 767.121094 1043.484375 C 766.363281 1042.742188 765.101562 1042.761719 764.445312 1041.984375 C 767.363281 1041.332031 769.800781 1044.339844 771.617188 1046.257812 C 773.542969 1048.488281 773.554688 1051.703125 775.246094 1054.046875 C 775.171875 1054.269531 775.207031 1054.472656 775.355469 1054.652344 C 773.097656 1053.519531 773.398438 1050.066406 771.910156 1048.199219 C 770.082031 1048.507812 768.28125 1048.855469 766.4375 1049.015625 C 766.464844 1049.386719 766.691406 1049.675781 766.757812 1050.046875 C 768.597656 1049.730469 770.4375 1049.367188 772.300781 1049.210938 C 770.699219 1049.828125 768.59375 1049.746094 766.859375 1050.324219 C 767.011719 1051.558594 766.984375 1052.933594 767.640625 1054.023438 C 768.011719 1054.628906 768.417969 1055.324219 768.308594 1056.058594 C 768.234375 1058.1875 767.113281 1060.105469 766.910156 1062.1875 C 766.980469 1063.878906 766.808594 1065.601562 767.171875 1067.265625 C 767.308594 1067.847656 767.386719 1068.472656 767.167969 1069.046875 C 766.949219 1070.347656 765.359375 1070.503906 764.304688 1070.257812 C 763.171875 1069.964844 762.707031 1068.570312 762.746094 1067.503906 C 763.050781 1065.199219 764.207031 1062.894531 763 1060.664062 C 763.394531 1060.265625 763.738281 1060.835938 763.910156 1061.148438 C 764.652344 1063.0625 763.449219 1065.066406 763.527344 1067.027344 C 763.339844 1068.8125 764.925781 1071.324219 766.546875 1069.238281 C 766.921875 1066.859375 766.058594 1064.238281 766.441406 1061.765625 C 766.789062 1059.390625 768.324219 1056.710938 766.996094 1054.421875 C 766.035156 1052.972656 766.574219 1051.117188 765.933594 1049.582031 C 765.554688 1048.847656 765.363281 1047.84375 766.117188 1047.285156 C 766.148438 1047.261719 766.226562 1047.25 766.234375 1047.261719 C 766.335938 1047.441406 766.527344 1047.316406 766.671875 1047.410156 C 766.460938 1047.832031 766.039062 1048.191406 766.296875 1048.722656 C 768.082031 1048.300781 769.898438 1048.125 771.714844 1047.921875 C 771.566406 1047.265625 770.554688 1045.890625 769.667969 1045.125 C 767.796875 1045.226562 766 1045.765625 764.152344 1046.023438 C 764.699219 1046.425781 765.300781 1046.359375 765.898438 1046.585938 C 766.535156 1047.722656 762.566406 1046.425781 762.402344 1045.8125 C 758.917969 1041.707031 753.328125 1041.757812 748.488281 1040.632812 C 746.402344 1040.121094 745.054688 1038.308594 743.082031 1037.628906 C 739.761719 1037 736.515625 1036.132812 733.242188 1035.277344 C 727.699219 1033.398438 721.644531 1035.515625 716.28125 1032.988281 C 714.738281 1032.289062 712.335938 1032.070312 711.804688 1030.203125 C 712.605469 1026.09375 717.6875 1029.464844 720.042969 1030.207031 C 721.589844 1030.960938 727.445312 1031.777344 727.269531 1033.789062 Z M 726.972656 1033.746094 C 726.179688 1032.234375 721.238281 1030.921875 719.507812 1030.648438 C 719.03125 1030.824219 718.730469 1030.386719 718.375 1030.152344 C 717.714844 1029.667969 716.894531 1029.449219 716.09375 1029.300781 C 716.269531 1029.890625 716.8125 1030.234375 716.855469 1030.847656 C 715.691406 1029.980469 715.566406 1028.5625 713.746094 1028.875 C 714.566406 1029.957031 715.539062 1030.894531 716.300781 1032.027344 C 716.433594 1032.214844 716.613281 1032.332031 716.839844 1032.382812 C 720.117188 1033.511719 723.511719 1034.101562 726.972656 1033.746094 Z M 715.429688 1031.867188 C 714.644531 1030.882812 713.96875 1029.699219 713.015625 1028.910156 C 711.398438 1029.871094 714.363281 1031.792969 715.429688 1031.867188 Z M 733.320312 1034.855469 C 732.847656 1034.238281 729.320312 1033.359375 728.992188 1034.019531 C 730.421875 1034.257812 731.898438 1034.742188 733.316406 1034.855469 Z M 733.320312 1034.855469 " fill-opacity="1" fill-rule="nonzero"/><path fill="#0a3757" d="M 738.46875 1044.195312 C 739.285156 1043.855469 740.238281 1044.886719 741.074219 1045.074219 C 742.53125 1045.734375 744.164062 1045.925781 745.507812 1046.84375 C 745.734375 1047.015625 745.980469 1047.058594 746.25 1046.976562 C 747.464844 1046.769531 748.714844 1047.015625 749.960938 1046.933594 C 748.996094 1047.355469 747.75 1047.175781 746.6875 1047.394531 C 746.746094 1047.632812 747.132812 1047.683594 747.308594 1047.832031 C 749.21875 1047.484375 751.152344 1047.972656 753.015625 1047.472656 C 754.390625 1046.878906 755.890625 1047.117188 757.320312 1046.957031 C 754.828125 1045.675781 751.75 1045.933594 749.023438 1045.382812 C 747.460938 1045.148438 746.308594 1043.84375 744.769531 1043.683594 C 740.582031 1043.640625 736.167969 1042.4375 733.132812 1039.476562 C 735.78125 1040.496094 738.28125 1042.175781 741.203125 1042.585938 C 742.226562 1043.117188 747.054688 1042.765625 746.84375 1043.929688 C 751.429688 1045.855469 758.164062 1044.585938 760.914062 1049.65625 C 757.652344 1050.101562 754.4375 1050.683594 751.144531 1050.90625 C 751.742188 1052.421875 753.375 1054.441406 752.261719 1056.007812 C 749.628906 1058.472656 746.957031 1055.539062 746.910156 1052.679688 C 743.554688 1052.953125 742.59375 1052.496094 746.671875 1052.222656 C 745.546875 1050.632812 743.554688 1049.226562 741.621094 1048.941406 C 738.207031 1049.179688 734.789062 1049.585938 731.378906 1049.589844 C 732.496094 1048.140625 738.625 1049.15625 740.535156 1048.589844 C 737.769531 1047.339844 734.550781 1046.824219 732.058594 1045.125 C 730.796875 1044.597656 729.527344 1046.054688 728.1875 1045.792969 C 728.792969 1046.980469 730.261719 1047.726562 730.640625 1049.003906 C 729.691406 1049.082031 728.214844 1046.4375 727.402344 1045.730469 C 726.710938 1044.714844 724.816406 1044.386719 724.34375 1043.375 C 725.402344 1043.308594 726.34375 1044.296875 727.292969 1044.714844 C 729.019531 1046.089844 731.164062 1043.539062 732.574219 1044.851562 L 732.40625 1044.976562 C 733.425781 1045.867188 734.9375 1045.738281 736.105469 1046.378906 C 739.644531 1047.863281 743.558594 1048.628906 746.5625 1051.136719 C 747.726562 1051.847656 747.558594 1053.167969 747.832031 1054.324219 C 748.308594 1055.957031 750.472656 1056.453125 751.914062 1055.871094 C 753.171875 1054.464844 750.804688 1052.148438 750.535156 1050.621094 C 753.839844 1050.320312 757.039062 1049.816406 760.328125 1049.359375 C 758.335938 1046.828125 757.726562 1047.300781 754.789062 1047.726562 C 752.605469 1048.339844 750.394531 1048.398438 748.132812 1048.234375 C 748.261719 1048.777344 750.164062 1049.445312 749.84375 1050.042969 C 746.34375 1047.488281 742.199219 1046.296875 738.46875 1044.195312 Z M 738.46875 1044.195312 " fill-opacity="1" fill-rule="nonzero"/><g clip-path="url(#1c70d59f23)"><path fill="#0a3757" d="M 727.703125 1065.503906 C 727.820312 1068.285156 727.628906 1071.066406 727.734375 1073.847656 C 728.910156 1073.835938 730.042969 1073.664062 731.21875 1073.921875 C 730.113281 1074.222656 728.90625 1074.105469 727.75 1074.085938 C 727.769531 1075.53125 726.738281 1077.644531 728.164062 1078.609375 C 732.195312 1078.8125 736.195312 1077.449219 740.195312 1077.671875 C 737.335938 1078.816406 733.992188 1078.609375 730.945312 1079.128906 C 729.820312 1079.222656 728.460938 1079.554688 727.441406 1079.011719 C 725.714844 1078.023438 724.6875 1076.390625 723.542969 1074.847656 C 720.707031 1071.855469 718.179688 1068.644531 715.21875 1065.769531 C 719.613281 1068.394531 722.417969 1073.144531 725.933594 1076.792969 C 725.457031 1073.992188 723.023438 1072.371094 721.5 1070.179688 C 723.246094 1071.3125 724.863281 1073.277344 725.785156 1075.222656 C 726.839844 1071.164062 722.363281 1068.660156 720.175781 1065.828125 C 721.554688 1066.339844 722.625 1067.949219 723.730469 1068.996094 C 724.613281 1070.011719 725.125 1070.464844 725.867188 1071.796875 C 726.046875 1071.308594 725.902344 1070.539062 725.972656 1069.964844 C 725.375 1069.449219 725.070312 1068.761719 724.769531 1068.054688 C 725.0625 1068.089844 725.0625 1068.089844 725.980469 1068.746094 C 726.164062 1067.050781 725.992188 1065.1875 726.257812 1063.441406 C 726.640625 1061.300781 726.105469 1059.015625 726.550781 1056.933594 C 727.289062 1063.148438 726.191406 1069.515625 726.664062 1075.777344 L 727.003906 1075.859375 C 727.28125 1072.417969 727.105469 1068.898438 727.621094 1065.496094 Z M 727.703125 1065.503906 " fill-opacity="1" fill-rule="nonzero"/></g><path fill="#0a3757" d="M 788.394531 1065.765625 C 787.371094 1066.035156 786.332031 1066.238281 785.28125 1066.363281 C 786.296875 1065.960938 787.375 1065.746094 788.402344 1065.359375 C 788.480469 1061.554688 788.8125 1057.742188 789.242188 1053.964844 L 789.558594 1053.875 C 789.933594 1054.796875 789.511719 1055.933594 789.535156 1056.925781 C 789.324219 1059.332031 789.316406 1061.738281 789.277344 1064.152344 C 789.121094 1070.160156 788.859375 1071.292969 782.566406 1071.914062 C 777.761719 1072.597656 772.964844 1073.222656 768.128906 1073.628906 C 767.796875 1073.660156 767.488281 1073.582031 767.210938 1073.394531 C 772.300781 1072.292969 777.644531 1072.230469 782.769531 1071.207031 C 784.433594 1070.890625 786.507812 1071.105469 787.296875 1069.242188 C 787.859375 1068.105469 788.519531 1067.101562 788.394531 1065.765625 Z M 788.394531 1065.765625 " fill-opacity="1" fill-rule="nonzero"/><path fill="#0a3757" d="M 774.097656 1043.722656 L 774.046875 1043.558594 C 776.804688 1042.34375 778.40625 1044.140625 779.414062 1046.566406 C 779.855469 1047.726562 779.273438 1049.015625 779.128906 1050.199219 C 778.882812 1051.378906 778.632812 1052.554688 778.625 1053.765625 C 778.488281 1054.539062 778.046875 1054.789062 777.433594 1054.953125 C 776.910156 1054.964844 776.800781 1054.152344 776.476562 1053.832031 C 775.25 1052.363281 775.46875 1050.371094 774.726562 1048.710938 C 774.109375 1047.210938 772.761719 1045.175781 774.097656 1043.722656 Z M 777.703125 1054.496094 C 778.308594 1053.578125 777.839844 1052.335938 778.246094 1051.320312 C 778.46875 1050.371094 778.875 1049.433594 778.828125 1048.449219 C 777.738281 1048.75 776.632812 1048.953125 775.507812 1049.058594 C 776.144531 1050.902344 776.632812 1052.832031 777.703125 1054.496094 Z M 778.53125 1046.644531 C 778.207031 1045.804688 777.734375 1045.058594 777.117188 1044.40625 C 776.316406 1044.511719 775.464844 1044.621094 774.722656 1044.9375 C 774.496094 1045.917969 774.507812 1047.066406 774.847656 1047.515625 C 776.050781 1047.011719 777.308594 1047.027344 778.53125 1046.644531 Z M 778.882812 1048.171875 C 778.953125 1047.648438 778.933594 1047.53125 778.761719 1047.210938 C 777.773438 1047.199219 775.539062 1047.570312 774.929688 1047.855469 C 775.082031 1048.179688 775.191406 1048.523438 775.382812 1048.855469 C 776.605469 1048.820312 777.683594 1048.3125 778.882812 1048.171875 Z M 776.757812 1044.089844 C 776.253906 1043.667969 775.828125 1043.570312 775.074219 1043.683594 C 774.914062 1043.847656 774.824219 1044.039062 774.804688 1044.265625 C 775.460938 1044.273438 776.113281 1044.214844 776.757812 1044.089844 Z M 776.757812 1044.089844 " fill-opacity="1" fill-rule="nonzero"/><path fill="#0a3757" d="M 699.914062 1045.261719 C 701.015625 1049.238281 704.578125 1051.714844 707.390625 1054.492188 C 709.351562 1056.199219 709.371094 1059.132812 711.195312 1060.964844 C 711.976562 1062.117188 714.097656 1063.554688 714.238281 1064.839844 C 710.550781 1062.394531 709.023438 1058.164062 706.601562 1054.679688 C 704.1875 1052.433594 701.910156 1050.054688 699.769531 1047.550781 C 699.265625 1047.097656 699.011719 1045.160156 699.914062 1045.261719 Z M 699.914062 1045.261719 " fill-opacity="1" fill-rule="nonzero"/><path fill="#0a3757" d="M 767.488281 1038.296875 C 763.757812 1038.503906 760.058594 1037.109375 756.34375 1036.695312 C 752.113281 1035.484375 747.296875 1034.78125 743.671875 1032.265625 C 743.78125 1032.082031 743.921875 1032.078125 744.097656 1032.152344 C 746.347656 1033.085938 748.671875 1033.839844 750.988281 1034.589844 C 754.550781 1035.628906 758.269531 1036.019531 761.820312 1037.128906 C 763.652344 1037.699219 765.835938 1037.292969 767.488281 1038.296875 Z M 767.488281 1038.296875 " fill-opacity="1" fill-rule="nonzero"/><path fill="#0a3757" d="M 775.328125 1055.527344 C 777.273438 1058.601562 774.078125 1062.695312 776.359375 1065.675781 C 777.523438 1066.730469 778.773438 1064.457031 779.488281 1063.6875 C 781.257812 1061.414062 778.171875 1057.496094 779.367188 1055.125 C 779.34375 1058.1875 781.710938 1061.507812 779.863281 1064.382812 C 779.269531 1065.472656 776.726562 1067.570312 775.761719 1066.113281 C 774.363281 1064.554688 774.683594 1062.378906 775.175781 1060.511719 C 775.621094 1058.839844 775.1875 1057.238281 775.328125 1055.527344 Z M 775.328125 1055.527344 " fill-opacity="1" fill-rule="nonzero"/><path fill="#0a3757" d="M 762.445312 1072.730469 C 757.148438 1074.695312 751.070312 1074.101562 745.496094 1075.042969 C 742.496094 1075.210938 729.835938 1078.496094 728.429688 1076.351562 C 730.53125 1077.246094 733.28125 1076.5625 735.550781 1076.296875 C 738.789062 1075.773438 742.027344 1075.300781 745.261719 1074.734375 C 748.960938 1074.113281 752.714844 1074.050781 756.425781 1073.546875 C 758.390625 1073.1875 760.433594 1072.316406 762.445312 1072.730469 Z M 762.445312 1072.730469 " fill-opacity="1" fill-rule="nonzero"/><path fill="#0a3757" d="M 706.921875 1051.117188 C 704.445312 1048.847656 702.332031 1046.285156 700.050781 1043.824219 C 699.460938 1044.554688 699.273438 1043.855469 699.453125 1043.261719 C 699.519531 1042.410156 699.414062 1041.550781 699.53125 1040.699219 C 699.203125 1038.722656 699.449219 1036.816406 700.261719 1034.984375 C 701.257812 1036.015625 699.691406 1037.617188 699.996094 1038.871094 C 700.238281 1038.992188 700.5625 1039.035156 700.632812 1039.40625 C 700.4375 1039.453125 700.285156 1039.265625 700.105469 1039.332031 C 699.984375 1040.4375 701.078125 1040.917969 701.589844 1041.734375 C 701.175781 1041.757812 700.847656 1041.277344 700.46875 1041.078125 C 700.386719 1041.421875 700.441406 1041.691406 700.429688 1042.019531 C 701.503906 1043.054688 704.332031 1045.820312 704.621094 1046.519531 C 703.035156 1045.433594 701.972656 1043.664062 700.402344 1042.515625 C 700.226562 1042.816406 700.222656 1043.121094 700.113281 1043.441406 C 702.351562 1046.015625 705.183594 1048.148438 706.992188 1051.066406 Z M 706.921875 1051.117188 " fill-opacity="1" fill-rule="nonzero"/><path fill="#0a3757" d="M 785.984375 1069.777344 C 779.222656 1071.390625 772.074219 1071.199219 765.207031 1072.246094 C 765.167969 1071.984375 765.582031 1072.019531 765.746094 1071.957031 C 768.539062 1071.585938 771.34375 1071.304688 774.144531 1070.992188 C 778.09375 1070.714844 782.027344 1069.507812 785.976562 1069.6875 Z M 785.984375 1069.777344 " fill-opacity="1" fill-rule="nonzero"/><path fill="#0a3757" d="M 763.519531 1059.664062 C 763.101562 1059.988281 762.394531 1059.652344 762.316406 1059.167969 C 761.996094 1057.941406 763.621094 1057.855469 763.722656 1056.730469 C 764.179688 1054.5625 763.503906 1051 761.023438 1050.449219 C 764.394531 1049.328125 764.660156 1054.695312 764.261719 1056.890625 C 764.042969 1058.15625 762.417969 1058.054688 763.519531 1059.664062 Z M 763.519531 1059.664062 " fill-opacity="1" fill-rule="nonzero"/><path fill="#0a3757" d="M 737.808594 1043.890625 C 735.691406 1043.378906 733.585938 1042.804688 731.421875 1042.472656 C 730.183594 1041.917969 728.152344 1041.285156 728.003906 1039.726562 C 728.042969 1039.253906 728.175781 1038.371094 728.742188 1038.328125 C 728.863281 1038.371094 728.707031 1038.640625 728.625 1038.726562 C 728.066406 1039.816406 729.710938 1040.644531 730.460938 1041.152344 C 732.648438 1042.800781 735.726562 1042.207031 737.808594 1043.890625 Z M 737.808594 1043.890625 " fill-opacity="1" fill-rule="nonzero"/><path fill="#0a3757" d="M 728.03125 1052.632812 C 729.875 1052.183594 731.886719 1052.648438 733.800781 1052.546875 C 735.765625 1052.589844 737.8125 1052.296875 739.710938 1052.886719 C 735.808594 1053.210938 731.914062 1053.128906 728.03125 1052.632812 Z M 728.03125 1052.632812 " fill-opacity="1" fill-rule="nonzero"/><path fill="#0a3757" d="M 711.097656 1058.140625 C 714.128906 1062.015625 717.765625 1065.550781 720.640625 1069.460938 C 717.019531 1066.058594 713.839844 1062.285156 711.097656 1058.140625 Z M 711.097656 1058.140625 " fill-opacity="1" fill-rule="nonzero"/><path fill="#0a3757" d="M 739.277344 1074.582031 C 744.402344 1073.925781 749.519531 1072.613281 754.710938 1072.824219 C 749.613281 1073.617188 744.410156 1074.117188 739.277344 1074.582031 Z M 739.277344 1074.582031 " fill-opacity="1" fill-rule="nonzero"/><path fill="#0a3757" d="M 753.078125 1075.367188 C 753.210938 1075.523438 753.402344 1075.46875 753.589844 1075.539062 C 750.425781 1076.597656 746.832031 1076.632812 743.492188 1076.800781 C 746.511719 1075.796875 749.921875 1075.882812 753.082031 1075.363281 Z M 753.078125 1075.367188 " fill-opacity="1" fill-rule="nonzero"/><path fill="#0a3757" d="M 775.015625 1069.792969 C 778.652344 1069.230469 782.640625 1068.144531 786.339844 1068.492188 C 782.660156 1069.492188 778.773438 1069.292969 775.011719 1069.792969 Z M 775.015625 1069.792969 " fill-opacity="1" fill-rule="nonzero"/><path fill="#0a3757" d="M 725.671875 1053.898438 C 725.792969 1056.742188 726.070312 1059.75 725.484375 1062.542969 C 724.726562 1059.769531 725.515625 1056.902344 725.480469 1054.097656 C 725.460938 1053.988281 725.496094 1053.902344 725.671875 1053.898438 Z M 725.671875 1053.898438 " fill-opacity="1" fill-rule="nonzero"/><path fill="#0a3757" d="M 744.695312 1054.589844 C 740.339844 1054.703125 736.011719 1054.609375 731.667969 1054.65625 C 735.882812 1054.355469 740.429688 1053.957031 744.695312 1054.589844 Z M 744.695312 1054.589844 " fill-opacity="1" fill-rule="nonzero"/><path fill="#0a3757" d="M 706.449219 1020.40625 C 707.296875 1021.132812 707.808594 1022.128906 708.53125 1022.96875 C 709.152344 1023.921875 710.175781 1024.6875 710.496094 1025.792969 C 709.992188 1025.796875 705.804688 1020.726562 706.449219 1020.40625 Z M 706.449219 1020.40625 " fill-opacity="1" fill-rule="nonzero"/><path fill="#0a3757" d="M 737.722656 1048.171875 C 735.4375 1048.46875 732.273438 1049.125 730.621094 1047.097656 C 732.707031 1048.058594 735.359375 1048.101562 737.726562 1048.085938 Z M 737.722656 1048.171875 " fill-opacity="1" fill-rule="nonzero"/><path fill="#0a3757" d="M 755.28125 1074.988281 C 757.382812 1074.636719 759.644531 1074.324219 761.742188 1074.394531 C 760.039062 1075.234375 757.933594 1074.925781 756.082031 1075.304688 C 755.753906 1075.324219 755.144531 1075.617188 755.28125 1074.988281 Z M 755.28125 1074.988281 " fill-opacity="1" fill-rule="nonzero"/><path fill="#0a3757" d="M 728.175781 1054.917969 C 728.242188 1056.828125 728.242188 1058.753906 728.148438 1060.664062 C 728.183594 1060.910156 727.914062 1060.929688 727.863281 1061.164062 C 727.3125 1059.773438 727.832031 1057.871094 727.878906 1056.328125 C 728.027344 1055.925781 727.65625 1055.019531 728.175781 1054.917969 Z M 728.175781 1054.917969 " fill-opacity="1" fill-rule="nonzero"/><path fill="#0a3757" d="M 715.570312 1061.058594 C 713.246094 1059.546875 711.789062 1056.730469 711.007812 1054.121094 C 712.085938 1055.644531 712.546875 1057.558594 713.839844 1058.9375 C 714.417969 1059.664062 715.128906 1060.226562 715.570312 1061.058594 Z M 715.570312 1061.058594 " fill-opacity="1" fill-rule="nonzero"/><path fill="#0a3757" d="M 700.84375 1030.96875 C 700.765625 1030.605469 700.492188 1030.457031 700.363281 1030.210938 C 700.558594 1029.761719 700.878906 1030.1875 701.128906 1030.308594 C 701.507812 1030.53125 701.347656 1031.019531 701.175781 1031.324219 C 700.398438 1032.136719 701.039062 1033.769531 700.511719 1034.105469 C 699.511719 1033.714844 700.28125 1031.582031 700.84375 1030.96875 Z M 700.84375 1030.96875 " fill-opacity="1" fill-rule="nonzero"/><path fill="#0a3757" d="M 785.179688 1042.328125 C 785.328125 1041.84375 785.148438 1041.359375 785.113281 1040.886719 C 785.6875 1041.054688 786.34375 1042.148438 785.8125 1042.6875 C 785.210938 1043.054688 784.390625 1043.734375 783.664062 1043.359375 C 783.761719 1042.628906 784.726562 1042.75 785.179688 1042.328125 Z M 785.179688 1042.328125 " fill-opacity="1" fill-rule="nonzero"/><path fill="#0a3757" d="M 758.773438 1051.3125 C 756.628906 1051.894531 754.332031 1051.925781 752.125 1052.046875 C 752.597656 1051.683594 753.542969 1051.824219 754.171875 1051.648438 C 755.707031 1051.507812 757.238281 1051.039062 758.773438 1051.3125 Z M 758.773438 1051.3125 " fill-opacity="1" fill-rule="nonzero"/><path fill="#0a3757" d="M 729.117188 1038.542969 C 729.875 1037.523438 731.910156 1038.628906 732.722656 1039.285156 C 732.171875 1039.433594 731.71875 1039.09375 731.1875 1039 C 730.53125 1038.699219 729.746094 1038.8125 729.117188 1038.542969 Z M 729.117188 1038.542969 " fill-opacity="1" fill-rule="nonzero"/><path fill="#0a3757" d="M 728.957031 1074.777344 C 731.359375 1074.421875 733.953125 1074.574219 736.421875 1074.589844 C 733.9375 1074.882812 731.449219 1074.945312 728.957031 1074.777344 Z M 728.957031 1074.777344 " fill-opacity="1" fill-rule="nonzero"/><path fill="#0a3757" d="M 737.035156 1049.925781 C 737.671875 1049.519531 738.492188 1049.925781 739.199219 1049.726562 C 740.199219 1049.527344 741.222656 1049.371094 742.242188 1049.578125 C 740.6875 1050.164062 738.722656 1050.042969 737.035156 1049.925781 Z M 737.035156 1049.925781 " fill-opacity="1" fill-rule="nonzero"/><path fill="#0a3757" d="M 710.832031 1057.234375 C 710.453125 1057.253906 710.328125 1056.359375 710.125 1056.054688 C 709.65625 1054.671875 708.675781 1053.59375 707.925781 1052.375 C 709.542969 1053.230469 710.035156 1055.617188 710.832031 1057.234375 Z M 710.832031 1057.234375 " fill-opacity="1" fill-rule="nonzero"/><path fill="#0a3757" d="M 729.480469 1072.375 C 730.777344 1071.910156 732.101562 1071.800781 733.457031 1072.042969 C 732.34375 1072.417969 730.625 1072.621094 729.480469 1072.375 Z M 729.480469 1072.375 " fill-opacity="1" fill-rule="nonzero"/><path fill="#0a3757" d="M 702.761719 1025.027344 C 703.226562 1024.449219 705.542969 1027.644531 706.097656 1028.097656 C 704.828125 1027.433594 703.800781 1026.074219 702.761719 1025.027344 Z M 702.761719 1025.027344 " fill-opacity="1" fill-rule="nonzero"/><path fill="#0a3757" d="M 724.09375 1051.648438 C 723.148438 1050.785156 721.960938 1049.761719 721.492188 1048.542969 C 722.613281 1049.277344 723.371094 1050.550781 724.085938 1051.652344 Z M 724.09375 1051.648438 " fill-opacity="1" fill-rule="nonzero"/><path fill="#0a3757" d="M 717.105469 1062.585938 C 717.5 1062.878906 719.171875 1064.132812 718.871094 1064.578125 C 718.210938 1064.359375 717.402344 1063.246094 717.105469 1062.585938 Z M 717.105469 1062.585938 " fill-opacity="1" fill-rule="nonzero"/><path fill="#0a3757" d="M 741.597656 1077.433594 C 740.277344 1077.007812 741.929688 1076.605469 742.523438 1076.8125 C 743.082031 1077.203125 741.890625 1077.4375 741.597656 1077.433594 Z M 741.597656 1077.433594 " fill-opacity="1" fill-rule="nonzero"/><path fill="#0a3757" d="M 727.570312 1062.722656 C 727.730469 1062.644531 727.894531 1062.644531 728.058594 1062.714844 C 728.039062 1063.222656 728.015625 1063.777344 727.75 1064.222656 C 727.308594 1064 727.496094 1063.246094 727.570312 1062.722656 Z M 727.570312 1062.722656 " fill-opacity="1" fill-rule="nonzero"/><path fill="#0a3757" d="M 780.410156 1040.847656 C 779.96875 1040.492188 779.710938 1040.03125 779.636719 1039.46875 C 780.214844 1039.230469 780.480469 1040.441406 780.410156 1040.847656 Z M 780.410156 1040.847656 " fill-opacity="1" fill-rule="nonzero"/><path fill="#0a3757" d="M 725.503906 1065.464844 C 725.378906 1064.984375 725.007812 1063.664062 725.816406 1063.9375 C 725.78125 1064.460938 725.679688 1064.96875 725.503906 1065.464844 Z M 725.503906 1065.464844 " fill-opacity="1" fill-rule="nonzero"/><path fill="#0a3757" d="M 784.378906 1065.6875 C 784.980469 1065.226562 785.613281 1065.109375 786.367188 1065.0625 C 785.84375 1065.453125 785.054688 1065.808594 784.378906 1065.6875 Z M 784.378906 1065.6875 " fill-opacity="1" fill-rule="nonzero"/><path fill="#0a3757" d="M 741.765625 1031.910156 C 741.765625 1031.738281 741.882812 1031.640625 742.011719 1031.535156 C 742.390625 1031.617188 742.722656 1031.785156 743.015625 1032.039062 C 742.582031 1032.15625 742.164062 1032.117188 741.765625 1031.910156 Z M 741.765625 1031.910156 " fill-opacity="1" fill-rule="nonzero"/><path fill="#0a3757" d="M 733.648438 1073.582031 C 733.230469 1073.871094 732.425781 1073.914062 732.191406 1073.476562 C 732.605469 1073.304688 733.214844 1073.433594 733.648438 1073.582031 Z M 733.648438 1073.582031 " fill-opacity="1" fill-rule="nonzero"/><path fill="#0a3757" d="M 718.53125 1042.597656 C 719.058594 1042.957031 719.636719 1043.292969 719.695312 1043.890625 C 719.148438 1043.683594 718.871094 1043.070312 718.53125 1042.597656 Z M 718.53125 1042.597656 " fill-opacity="1" fill-rule="nonzero"/><path fill="#0a3757" d="M 761.511719 1050.914062 C 761.0625 1051.160156 760.582031 1051.257812 760.070312 1051.199219 C 760.082031 1050.746094 761.085938 1050.925781 761.511719 1050.914062 Z M 761.511719 1050.914062 " fill-opacity="1" fill-rule="nonzero"/><path fill="#0a3757" d="M 706.492188 1022.914062 C 706.714844 1023.101562 706.859375 1023.339844 706.929688 1023.625 C 706.683594 1023.789062 706.34375 1023.414062 706.199219 1023.203125 C 706.214844 1023.046875 706.300781 1022.953125 706.492188 1022.914062 Z M 706.492188 1022.914062 " fill-opacity="1" fill-rule="nonzero"/><path fill="#0a3757" d="M 705.046875 1047.328125 L 705.265625 1047.089844 C 705.582031 1047.1875 705.726562 1047.542969 705.9375 1047.800781 C 705.589844 1047.761719 705.464844 1047.695312 705.046875 1047.328125 Z M 705.046875 1047.328125 " fill-opacity="1" fill-rule="nonzero"/><path fill="#0a3757" d="M 702.265625 1042.167969 C 702.480469 1042.394531 702.652344 1042.660156 702.886719 1042.949219 C 702.5625 1042.929688 701.597656 1042.484375 702.265625 1042.167969 Z M 702.265625 1042.167969 " fill-opacity="1" fill-rule="nonzero"/><path fill="#0a3757" d="M 782.660156 1065.949219 C 782.8125 1065.824219 782.988281 1065.75 783.1875 1065.730469 C 783.386719 1065.707031 783.574219 1065.742188 783.75 1065.835938 C 783.410156 1066.097656 783.046875 1066.136719 782.660156 1065.949219 Z M 782.660156 1065.949219 " fill-opacity="1" fill-rule="nonzero"/><path fill="#0a3757" d="M 740.898438 1052.675781 L 741.976562 1052.675781 C 741.792969 1052.882812 740.886719 1053.1875 740.898438 1052.675781 Z M 740.898438 1052.675781 " fill-opacity="1" fill-rule="nonzero"/><path fill="#0a3757" d="M 783.316406 1067.703125 C 783.585938 1067.488281 783.902344 1067.449219 784.496094 1067.535156 C 784.277344 1067.796875 783.714844 1067.730469 783.316406 1067.703125 Z M 783.316406 1067.703125 " fill-opacity="1" fill-rule="nonzero"/><path fill="#0a3757" d="M 784.792969 1040.617188 C 784.472656 1040.601562 784.125 1040.113281 784.1875 1039.816406 C 784.492188 1039.835938 784.820312 1040.3125 784.792969 1040.617188 Z M 784.792969 1040.617188 " fill-opacity="1" fill-rule="nonzero"/><path fill="#0a3757" d="M 735.511719 1050.164062 C 735.878906 1049.949219 736.253906 1049.621094 736.445312 1050.144531 C 736.164062 1050.253906 735.890625 1050.21875 735.511719 1050.164062 Z M 735.511719 1050.164062 " fill-opacity="1" fill-rule="nonzero"/><path fill="#0a3757" d="M 757.214844 1072.550781 C 756.921875 1072.679688 756.625 1072.785156 756.316406 1072.863281 C 755.984375 1072.472656 756.917969 1072.429688 757.214844 1072.550781 Z M 757.214844 1072.550781 " fill-opacity="1" fill-rule="nonzero"/><path fill="#0a3757" d="M 712.222656 1024.316406 C 712.1875 1024.5625 711.917969 1024.375 711.800781 1024.296875 C 711.449219 1023.769531 712.230469 1023.742188 712.222656 1024.316406 Z M 712.222656 1024.316406 " fill-opacity="1" fill-rule="nonzero"/><path fill="#0a3757" d="M 766.617188 1073.648438 C 766.261719 1073.828125 765.886719 1073.890625 765.488281 1073.84375 C 765.289062 1073.429688 766.332031 1073.671875 766.617188 1073.648438 Z M 766.617188 1073.648438 " fill-opacity="1" fill-rule="nonzero"/><path fill="#0a3757" d="M 706.640625 1028.867188 C 706.890625 1028.550781 707.414062 1028.964844 707.484375 1029.269531 C 707.171875 1029.195312 706.945312 1029.007812 706.640625 1028.867188 Z M 706.640625 1028.867188 " fill-opacity="1" fill-rule="nonzero"/><path fill="#0a3757" d="M 720.714844 1048.160156 C 720.492188 1048.054688 720.425781 1047.855469 720.265625 1047.65625 C 720.570312 1047.664062 720.960938 1047.886719 720.714844 1048.160156 Z M 720.714844 1048.160156 " fill-opacity="1" fill-rule="nonzero"/><path fill="#0a3757" d="M 751.160156 1046.722656 C 751.359375 1046.597656 751.550781 1046.601562 751.746094 1046.730469 C 751.539062 1046.878906 751.238281 1047.097656 751.160156 1046.722656 Z M 751.160156 1046.722656 " fill-opacity="1" fill-rule="nonzero"/><path fill="#0a3757" d="M 775.011719 1069.792969 L 774.496094 1069.824219 C 774.664062 1069.761719 774.835938 1069.75 775.011719 1069.792969 Z M 775.011719 1069.792969 " fill-opacity="1" fill-rule="nonzero"/><path fill="#0a3757" d="M 724.085938 1051.652344 L 724.242188 1051.789062 L 724.214844 1051.824219 C 724.113281 1051.8125 724.109375 1051.734375 724.09375 1051.648438 Z M 724.085938 1051.652344 " fill-opacity="1" fill-rule="nonzero"/><path fill="#0a3757" d="M 753.082031 1075.363281 L 753.273438 1075.355469 C 753.210938 1075.363281 753.144531 1075.367188 753.082031 1075.363281 Z M 753.082031 1075.363281 " fill-opacity="1" fill-rule="nonzero"/><path fill="#0a3757" d="M 750.957031 1020.332031 C 751.179688 1020.265625 752.75 1020.632812 752.183594 1020.902344 C 751.785156 1020.734375 751.210938 1020.667969 750.957031 1020.332031 Z M 750.957031 1020.332031 " fill-opacity="1" fill-rule="nonzero"/><path fill="#0a3757" d="M 741.128906 1016.53125 C 741.429688 1016.347656 741.480469 1016.339844 741.8125 1016.4375 C 741.613281 1016.695312 741.222656 1016.890625 741.128906 1016.53125 Z M 741.128906 1016.53125 " fill-opacity="1" fill-rule="nonzero"/><path fill="#0a3757" d="M 717.253906 1031.367188 C 717.390625 1031.503906 717.351562 1031.671875 717.441406 1031.8125 C 717.105469 1031.8125 716.945312 1031.5 717.253906 1031.367188 Z M 717.253906 1031.367188 " fill-opacity="1" fill-rule="nonzero"/><g clip-path="url(#d7804c01dd)"><path fill="#0a3757" d="M 305.269531 314.160156 C 305.285156 314.332031 305.296875 314.503906 305.355469 314.648438 C 305.386719 314.449219 305.542969 314.488281 305.574219 314.289062 C 305.371094 314.277344 305.464844 314.039062 305.269531 314.160156 Z M 302.246094 308.015625 C 302.230469 307.769531 302.214844 307.523438 302.066406 307.375 C 301.917969 307.527344 302.183594 307.816406 302.246094 308.015625 Z M 294.558594 305.582031 C 294.417969 305.699219 294.429688 306.035156 294.285156 306.167969 C 294.632812 306.121094 295.457031 305.945312 295.332031 305.691406 C 295.144531 305.777344 294.832031 305.609375 294.558594 305.582031 Z M 292.265625 304.960938 C 291.796875 305.667969 291.378906 306.480469 290.832031 307.058594 C 291.164062 307.230469 291.511719 307.722656 292.324219 307.75 C 292.363281 306.734375 292.859375 305.976562 293.253906 305.269531 C 292.921875 305.171875 292.488281 305.125 292.265625 304.960938 Z M 287.953125 305.847656 C 288.613281 306.210938 289.25 306.585938 290.023438 306.863281 C 290.039062 305.863281 290.566406 305.128906 290.933594 304.457031 C 290.21875 304.246094 289.765625 303.878906 289.15625 303.621094 C 288.769531 304.382812 288.394531 305.171875 287.953125 305.847656 Z M 285.539062 304.023438 C 285.929688 304.488281 286.472656 304.878906 287.039062 305.238281 C 287.308594 304.257812 287.773438 303.644531 288.242188 303.007812 C 287.726562 302.757812 287.425781 302.367188 286.929688 302.101562 C 286.574219 302.890625 285.957031 303.285156 285.539062 304.023438 Z M 301.351562 305.679688 C 301.351562 305.527344 301.535156 305.238281 301.402344 305.167969 C 301.21875 305.308594 301.226562 305.5 301.351562 305.679688 Z M 283.289062 301.828125 C 283.882812 302.378906 284.371094 302.980469 285.015625 303.488281 C 285.378906 302.753906 285.699219 301.957031 286.167969 301.398438 C 285.753906 301.019531 285.46875 300.578125 284.992188 300.238281 C 284.527344 300.929688 283.902344 301.359375 283.289062 301.828125 Z M 281.273438 298.960938 C 281.742188 299.722656 282.085938 300.550781 282.789062 301.183594 C 283.230469 300.433594 283.824219 299.90625 284.355469 299.304688 C 283.8125 298.785156 283.660156 298.019531 283.132812 297.484375 C 282.664062 298.210938 281.945312 298.5625 281.273438 298.960938 Z M 307.875 310.742188 C 307.300781 311.5 306.617188 312.265625 306.296875 313.214844 C 307.082031 312.65625 307.535156 311.777344 308.144531 311.007812 C 309.929688 308.773438 311.949219 306.554688 313.570312 304.371094 C 311.617188 306.382812 309.621094 308.496094 307.875 310.742188 Z M 307.46875 314.144531 C 307.242188 314.316406 307.746094 314.472656 307.496094 314.824219 C 307.289062 315.054688 306.859375 315.0625 306.605469 315.261719 C 305.964844 315.761719 305.359375 316.976562 304.777344 317.9375 C 303.902344 319.328125 302.910156 320.527344 302.773438 322.414062 C 304.277344 321.507812 305.46875 320.019531 306.597656 318.578125 C 307.746094 317.117188 308.902344 315.570312 310.027344 313.976562 C 312.054688 311.03125 314.636719 307.160156 316.101562 303.445312 C 316.109375 303.414062 316.117188 303.378906 316.0625 303.382812 C 313.175781 306.957031 310.246094 310.414062 307.46875 314.144531 Z M 280.96875 298.289062 C 281.503906 297.597656 282.144531 297.101562 282.816406 296.628906 C 282.691406 296.148438 282.621094 295.648438 282.347656 295.246094 C 281.375 295.796875 280.007812 297 280.96875 298.289062 Z M 281.851562 288.515625 C 281.949219 288.257812 282.359375 288.023438 282.289062 287.765625 C 282.03125 287.757812 281.808594 288.300781 281.851562 288.515625 Z M 312.503906 295.582031 C 310.027344 298.773438 307.546875 301.515625 304.882812 304.472656 C 304.480469 304.917969 303.441406 305.824219 303.34375 306.230469 C 303.273438 306.53125 303.582031 307.105469 303.691406 307.503906 C 304.097656 308.925781 304.449219 310.183594 305.1875 311.234375 C 307.78125 307.773438 311.078125 304.277344 314.179688 301.273438 C 314.621094 300.839844 315.40625 300.355469 315.558594 299.945312 C 315.765625 299.398438 315.652344 298.382812 315.679688 297.738281 C 315.777344 295.527344 315.746094 293.246094 315.339844 291.433594 C 315.335938 291.378906 315.304688 291.351562 315.234375 291.335938 C 314.675781 292.972656 313.535156 294.226562 312.503906 295.582031 Z M 266.148438 286.160156 C 267.839844 285.242188 269.324219 283.710938 270.816406 282.375 C 275.28125 278.355469 279.917969 273.6875 284.152344 269.765625 C 284.101562 269.75 284.066406 269.742188 284.03125 269.734375 C 284.085938 269.65625 283.765625 269.671875 283.765625 269.671875 C 281.878906 270.078125 279.734375 271.652344 278.046875 272.867188 C 274.335938 275.523438 271.0625 278.316406 267.714844 281.242188 C 266.890625 281.957031 266.042969 282.707031 265.3125 283.574219 C 264.558594 284.472656 263.554688 285.390625 263.429688 286.703125 C 264.472656 286.855469 265.46875 286.519531 266.148438 286.160156 Z M 279.964844 289.460938 C 279.929688 289.453125 279.898438 289.429688 279.929688 289.378906 C 279.921875 287.234375 281.730469 285.503906 282.976562 284.035156 C 284.222656 282.5625 285.28125 280.949219 286.292969 279.589844 C 287.421875 278.070312 288.476562 276.535156 289.554688 275.078125 C 290.675781 273.578125 291.816406 272.15625 292.792969 270.636719 C 291.75 270.722656 290.53125 270.523438 289.496094 270.632812 C 287.257812 273.300781 284.820312 275.867188 282.460938 278.488281 C 280.683594 280.464844 279 282.597656 277.203125 284.421875 C 276.628906 285.03125 276.035156 285.800781 275.164062 286.003906 C 275.445312 285.230469 276.035156 284.628906 276.519531 284 C 279.953125 279.378906 283.320312 274.652344 286.847656 270.332031 C 286.257812 270.398438 285.660156 270.476562 285.226562 270.804688 C 285.480469 270.84375 285.597656 270.964844 285.523438 271.207031 C 281.367188 276.347656 276.847656 280.910156 272.28125 285.371094 C 273.949219 286.347656 275.761719 287.246094 277.574219 288.164062 C 278.316406 286.308594 279.757812 284.960938 280.988281 283.558594 C 283.457031 280.703125 285.808594 277.800781 288.242188 275.027344 C 289.464844 273.660156 290.617188 272.183594 292.066406 271.191406 C 289.851562 274.070312 287.570312 277.140625 285.246094 280.070312 C 283.15625 282.734375 281.074219 286 278.691406 288.167969 C 278.578125 288.253906 278.253906 288.289062 278.34375 288.535156 C 278.828125 288.835938 279.542969 289.285156 279.964844 289.460938 Z M 320.613281 253.867188 C 320.621094 253.832031 320.628906 253.796875 320.574219 253.800781 C 320.554688 253.871094 320.4375 253.828125 320.421875 253.898438 C 317.328125 255.300781 314.261719 256.820312 311.210938 258.367188 C 308.242188 259.875 305.082031 261.558594 302.722656 264.011719 C 300.941406 265.859375 299.476562 268.171875 297.789062 270.246094 C 292.761719 276.386719 287.871094 282.816406 283.214844 289.4375 C 283.980469 289.898438 283.464844 291.042969 283.417969 291.925781 C 283.382812 292.476562 283.429688 293.046875 283.480469 293.542969 C 284.214844 299.046875 289.480469 304.144531 297.21875 304.429688 C 298.160156 304.46875 299.640625 304.582031 300.382812 304.199219 C 300.851562 303.957031 301.335938 303.253906 301.863281 302.6875 C 303.398438 301.097656 304.777344 299.304688 306.125 297.632812 C 309.867188 292.976562 313.617188 288.433594 317.234375 283.820312 C 319.066406 281.464844 321.15625 279.113281 322.140625 275.996094 C 321.367188 276.515625 320.929688 277.402344 320.359375 278.15625 C 319.226562 279.695312 318.035156 281.179688 316.78125 282.59375 C 316.222656 283.226562 315.589844 284.152344 314.632812 284.1875 C 314.542969 283.773438 314.53125 283.136719 314.699219 282.75 C 314.9375 282.210938 315.8125 281.972656 316.183594 281.519531 C 316.722656 280.902344 317.15625 280.019531 317.664062 279.226562 C 319.203125 276.839844 320.40625 274.292969 321.847656 271.695312 C 323.820312 268.125 324.65625 263.851562 326.207031 259.769531 C 323.167969 258.539062 321.113281 256.6875 320.613281 253.867188 Z M 328.625 250.828125 C 326.007812 251.246094 323.867188 252.410156 321.589844 253.375 C 322.457031 255.503906 324.359375 256.980469 326.734375 258.183594 C 327.296875 255.765625 328.4375 253.316406 328.625 250.828125 Z M 300.253906 301.390625 C 300.285156 300.5625 300.972656 299.867188 301.445312 299.214844 C 302.90625 297.164062 304.429688 295.457031 306.066406 293.445312 C 307.65625 291.480469 309.054688 289.671875 310.726562 287.742188 C 311.203125 287.222656 312.320312 285.757812 312.910156 286.085938 C 313.570312 286.449219 312.265625 288.089844 312.027344 288.386719 C 308.996094 292.5625 305.519531 296.203125 302.132812 299.921875 C 301.632812 300.453125 301.1875 301.464844 300.253906 301.390625 Z M 275.808594 300.765625 C 275.84375 301.648438 274.941406 302.066406 274.4375 302.617188 C 273.84375 303.292969 273.125 304.128906 272.777344 305.199219 C 272.273438 306.683594 272.390625 307.902344 272.066406 309.257812 C 271.644531 311.023438 270.953125 312.273438 269.976562 313.25 C 269.179688 314.085938 267.933594 314.382812 267.160156 315.355469 C 266.574219 316.109375 266.222656 317.496094 266.066406 318.539062 C 268.03125 313.660156 273.195312 313.890625 276.214844 310.457031 C 276.605469 309.992188 277.171875 309.175781 277.535156 308.515625 C 277.714844 308.152344 278.25 306.453125 278.949219 306.730469 C 279.59375 307 278.839844 308.828125 278.6875 309.78125 C 278.5 310.871094 278.546875 311.609375 278.1875 312.640625 C 276.660156 317.160156 271.242188 317.464844 270.742188 322.507812 C 271.480469 321.0625 272.230469 320.105469 273.34375 319.421875 C 274.996094 318.363281 277.121094 318.199219 278.847656 317.363281 C 279.710938 316.957031 280.664062 316.085938 281.261719 315.296875 C 281.875 314.511719 281.953125 313.335938 282.773438 312.546875 C 283.554688 313.179688 283.320312 314.390625 283.152344 315.414062 C 282.40625 319.78125 276.800781 321.253906 277.789062 326.238281 C 279.132812 324.195312 279.539062 322.113281 281.328125 320.863281 C 282.804688 319.835938 284.800781 319.421875 285.921875 318.253906 C 286.390625 317.769531 287.382812 316.347656 287.792969 315.402344 C 288.136719 314.59375 288.160156 313.796875 288.871094 313.929688 C 289.902344 314.140625 289.148438 316.605469 288.859375 317.578125 C 288.382812 319.179688 287.757812 320.464844 286.882812 321.390625 C 285.605469 322.761719 284.082031 323.292969 283.390625 325.792969 C 284.882812 324.230469 287.339844 323.625 289.199219 322.222656 C 290.546875 321.1875 292.046875 319.828125 292.804688 317.664062 C 293.578125 315.445312 293.585938 311.742188 295.9375 311.726562 C 296.167969 312.171875 295.664062 312.796875 295.527344 313.210938 C 294.910156 314.945312 295.609375 316.304688 294.878906 318.347656 C 294.515625 319.394531 293.703125 320.375 293.003906 321.269531 C 292.316406 322.128906 291.421875 322.90625 290.699219 323.441406 C 288.925781 324.691406 286.703125 325.035156 285.136719 326.207031 C 284.886719 326.390625 284.242188 327.058594 283.9375 327.636719 C 283.503906 328.445312 283.316406 329.070312 282.660156 328.855469 C 281.988281 328.621094 281.964844 326.457031 282.050781 325.863281 C 282.492188 322.464844 285.050781 321.660156 286.414062 319.769531 C 284.980469 320.785156 282.089844 321.34375 281.003906 323.300781 C 280.8125 323.648438 280.765625 324.082031 280.597656 324.453125 C 280.167969 325.410156 279.378906 326.601562 278.820312 327.214844 C 278.421875 327.640625 277.019531 328.757812 276.410156 328.425781 C 275.882812 328.132812 276.410156 327.402344 276.523438 326.851562 C 276.683594 326.03125 276.324219 325.035156 276.464844 324.0625 C 276.785156 321.546875 278.433594 320.191406 279.734375 318.957031 C 277.769531 319.621094 275.339844 319.878906 273.503906 321.171875 C 272.828125 321.664062 272.222656 322.636719 271.742188 323.863281 C 271.402344 324.730469 271.179688 325.910156 270.492188 325.820312 C 269.808594 325.710938 269.605469 324.546875 269.492188 323.847656 C 268.519531 317.542969 275.128906 316.25 277.125 311.867188 C 276.507812 312.261719 276.105469 312.851562 275.472656 313.242188 C 273.804688 314.296875 271.574219 314.75 269.941406 315.886719 C 268.683594 316.78125 267.742188 318.0625 266.941406 319.867188 C 266.683594 320.476562 266.417969 321.269531 266.015625 321.246094 C 265.488281 321.195312 265.148438 319.808594 265.101562 319.296875 C 265.019531 318.625 265.167969 317.691406 265.246094 317.28125 C 266.140625 312.855469 269.832031 313.066406 270.738281 308.738281 C 269.769531 309.4375 268.890625 309.992188 267.433594 310.332031 C 266.9375 310.457031 265.105469 310.707031 265.054688 309.835938 C 264.996094 308.910156 266.46875 308.59375 266.910156 308.15625 C 268.441406 306.566406 268.875 303.355469 270.78125 301.613281 C 272.09375 300.417969 273.484375 299.59375 275.152344 299.078125 C 275.632812 298.933594 276.488281 298.636719 276.75 299.332031 C 276.363281 299.628906 276.074219 299.578125 275.734375 299.683594 C 273.667969 300.382812 271.5625 301.78125 270.4375 303.914062 C 269.703125 305.265625 269.273438 306.914062 268.164062 308.664062 C 268.152344 308.714844 268.101562 308.703125 268.082031 308.773438 C 269.164062 308.304688 270.613281 307.3125 271.160156 305.800781 C 271.734375 304.261719 272.046875 303.332031 272.992188 302.347656 C 273.71875 301.570312 274.597656 300.625 275.808594 300.765625 Z M 260.351562 302.621094 C 261.054688 302.566406 261.488281 303.078125 261.285156 303.703125 C 261.007812 304.621094 259.605469 304.25 259.632812 303.4375 C 259.632812 302.972656 259.820312 302.664062 260.351562 302.621094 Z M 257.425781 320.703125 C 258.605469 320.835938 257.957031 322.691406 256.886719 322.101562 C 256.292969 321.773438 256.515625 320.613281 257.425781 320.703125 Z M 292.558594 290.480469 C 293.195312 291.320312 293.875 292.152344 294.917969 292.773438 C 293.882812 290.011719 293.601562 286.816406 293.261719 283.640625 C 292.707031 286.117188 292.894531 288.136719 292.558594 290.480469 Z M 291.914062 288.742188 C 291.804688 287.019531 291.917969 285.144531 292.179688 283.179688 C 291.125 284.863281 291.46875 287.480469 291.914062 288.742188 Z M 296.480469 293.410156 C 297.28125 293.640625 298.003906 293.738281 298.660156 293.726562 C 297.019531 290.371094 296.234375 286.496094 296.664062 281.882812 C 296.664062 281.808594 296.617188 281.761719 296.574219 281.714844 C 295.574219 286.207031 296.867188 289.292969 296.480469 293.410156 Z M 301.652344 285.648438 C 301.972656 287.886719 302.203125 289.972656 302.625 292.101562 C 302.980469 291.777344 303.3125 291.410156 303.652344 291.082031 C 302.683594 288.1875 302.128906 285.054688 301.539062 281.914062 C 301.550781 281.859375 301.449219 281.816406 301.414062 281.882812 C 301.15625 283.347656 301.476562 284.503906 301.652344 285.648438 Z M 293.878906 281.070312 C 294.71875 282.460938 294.464844 284.527344 294.914062 286.160156 C 294.800781 284.308594 295.128906 281.910156 295.816406 279.894531 C 295.140625 280.234375 294.460938 280.574219 293.878906 281.070312 Z M 303.082031 282.152344 C 303.273438 282.140625 303.457031 282.074219 303.636719 282.023438 C 303.351562 281.804688 303.148438 281.253906 302.835938 281.234375 C 302.957031 281.507812 302.988281 281.851562 303.082031 282.152344 Z M 298.976562 279.382812 C 298.90625 279.363281 298.90625 279.289062 298.796875 279.28125 C 298.285156 279.308594 297.75 279.292969 297.261719 279.382812 C 298.277344 280.910156 298.066406 283.1875 298.707031 284.945312 C 298.683594 283.183594 298.59375 281.210938 298.976562 279.382812 Z M 300.605469 280.050781 C 300.644531 279.890625 300.675781 279.75 300.710938 279.609375 C 300.605469 279.582031 300.5 279.558594 300.394531 279.53125 C 300.398438 279.742188 300.425781 279.933594 300.605469 280.050781 Z M 296.925781 277.976562 C 298.132812 278.003906 299.3125 277.746094 300.6875 278.074219 C 302.078125 278.410156 303.292969 279.164062 304.171875 280.101562 C 306.171875 282.238281 307.929688 285.339844 306.859375 289.277344 C 306.324219 291.273438 304.007812 293.550781 302.59375 294.40625 C 298.519531 296.878906 292.921875 294.496094 291.132812 291.144531 C 290.355469 289.652344 290.210938 288.296875 290.296875 286.378906 C 290.324219 285.808594 290.492188 285.179688 290.484375 284.503906 C 290.472656 284.09375 290.195312 284.15625 290.289062 283.601562 C 290.367188 283.210938 290.890625 282.890625 291.222656 282.503906 C 292.199219 281.300781 292.878906 280.175781 294.019531 279.386719 C 294.910156 278.78125 295.988281 278.480469 296.925781 277.976562 Z M 307.324219 276.03125 C 307.84375 276.339844 308.214844 276.746094 308.878906 276.996094 C 307.894531 274.265625 307.316406 271.296875 306.9375 268.207031 C 306.386719 271.222656 306.964844 273.558594 307.324219 276.03125 Z M 306.511719 274.980469 C 305.902344 272.691406 305.730469 270.152344 306.1875 267.226562 C 304.265625 269.800781 304.792969 273.449219 306.511719 274.980469 Z M 314.328125 276.566406 C 314.703125 276.324219 314.960938 275.878906 315.300781 275.550781 C 314.5 273.367188 314.226562 270.84375 313.757812 268.4375 C 313.59375 271.378906 314.070312 273.914062 314.328125 276.566406 Z M 310.441406 277.632812 C 311.121094 277.832031 311.769531 277.929688 312.339844 277.957031 C 310.929688 274.824219 310.367188 271.167969 309.898438 267.441406 C 309.28125 271.335938 310.117188 274.3125 310.441406 277.632812 Z M 319.085938 272.414062 C 319.359375 270.652344 318.945312 269.027344 318.144531 268.089844 C 318.648438 269.421875 318.734375 271.007812 319.085938 272.414062 Z M 308.375 269.128906 C 308.496094 268.242188 308.699219 266.371094 308.945312 265.035156 C 308.496094 265.207031 308.046875 265.359375 307.730469 265.75 C 308.144531 266.742188 308.140625 268.007812 308.375 269.128906 Z M 315.359375 267.03125 C 315.417969 266.320312 315.742188 265.988281 316.078125 265.675781 C 315.644531 265.460938 315.242188 265.199219 314.789062 264.976562 C 314.9375 265.683594 315.175781 266.335938 315.359375 267.03125 Z M 312.226562 271.574219 C 312.175781 269.753906 312.113281 266.984375 312.742188 264.433594 C 312.089844 264.351562 311.488281 264.375 310.949219 264.449219 C 311.625 266.457031 311.730469 269.277344 312.226562 271.574219 Z M 313.847656 279.433594 C 307.71875 279.980469 303.585938 275.917969 303.683594 271.0625 C 303.6875 270.742188 303.777344 270.355469 303.785156 270.023438 C 303.992188 266.980469 306.3125 264.664062 308.472656 263.730469 C 309.71875 263.207031 311.453125 262.875 313.179688 263.140625 C 317.960938 263.875 320.449219 267.261719 320.730469 270.832031 C 321.105469 275.65625 317.359375 278.539062 313.847656 279.433594 Z M 282.257812 273.800781 C 282.375 273.625 282.347656 273.578125 282.199219 273.730469 C 278.433594 277.097656 274.59375 281.152344 270.570312 284.496094 C 269.289062 285.570312 267.734375 286.78125 266.320312 287.390625 C 264.804688 288.035156 261.09375 288.527344 262.257812 285.285156 C 262.628906 284.199219 263.648438 283.214844 264.480469 282.3125 C 265.328125 281.417969 266.207031 280.621094 267.039062 279.945312 C 268.820312 278.488281 270.574219 277.007812 272.375 275.539062 C 275.101562 273.339844 277.742188 271.324219 280.851562 269.699219 C 281.703125 269.253906 283.296875 268.441406 284.214844 268.644531 C 284.746094 268.769531 284.902344 269.367188 285.34375 269.453125 C 285.8125 269.527344 286.71875 269.167969 287.355469 269.078125 C 288.070312 268.96875 288.792969 268.75 289.363281 268.699219 C 290.398438 268.574219 291.542969 268.699219 292.628906 268.605469 C 293.707031 268.527344 294.597656 268.238281 295.535156 268.050781 C 297.917969 265.65625 299.8125 263.019531 302.269531 260.921875 C 305.785156 257.90625 310.339844 255.921875 314.644531 253.96875 C 317.511719 252.660156 320.269531 251.253906 323.375 250.113281 C 325.441406 249.339844 327.136719 248.476562 329.546875 248.605469 C 330.960938 247.289062 332.328125 245.621094 333.734375 244.113281 C 334.132812 243.6875 334.570312 242.953125 335.242188 243.019531 C 334.894531 244.167969 334.070312 245.125 333.394531 246.078125 C 332.710938 247.054688 332.066406 248.039062 331.285156 248.816406 C 331.472656 249.441406 331.21875 250.8125 330.699219 251.269531 C 330.046875 254.855469 329.429688 258.527344 328.570312 262.125 C 327.699219 265.773438 326.957031 269.414062 325.914062 272.929688 C 325.429688 274.5625 324.570312 275.902344 323.859375 277.394531 C 321.796875 281.652344 319.101562 285.367188 316.425781 288.527344 C 316.867188 292.0625 317.527344 295.460938 317.179688 299.476562 C 318.691406 300.097656 318.617188 302.203125 317.933594 304.351562 C 317.257812 306.554688 315.875 308.441406 314.664062 310.3125 C 312.355469 313.898438 309.960938 317.445312 307.226562 320.703125 C 306.109375 322.019531 303.894531 324.582031 302.257812 324.023438 C 301.140625 323.625 301.261719 322.109375 301.511719 321.070312 C 302.035156 318.882812 303.589844 317.449219 304.464844 315.886719 C 303.144531 312.683594 301.652344 309.570312 300.570312 306.21875 C 299.800781 306.089844 299.449219 306.621094 298.65625 306.433594 C 298.207031 307.609375 297.875 309.394531 296.890625 309.699219 C 296.222656 309.910156 294.734375 309.667969 293.933594 309.585938 C 292.875 309.5 291.699219 309.277344 290.726562 308.894531 C 288.667969 308.085938 286.488281 306.988281 284.871094 305.5 C 282.433594 303.296875 280.105469 301.269531 279.476562 298.136719 C 278.992188 297.59375 278.726562 296.898438 279.046875 296.117188 C 279.527344 294.871094 281.46875 294.554688 282.183594 293.753906 C 282.175781 293.308594 282.167969 292.875 282.164062 292.429688 C 281.980469 292.179688 281.597656 292.070312 281.539062 291.757812 C 279.417969 290.972656 277.878906 289.933594 275.738281 288.917969 C 274.816406 288.472656 273.898438 287.957031 272.851562 287.425781 C 272.203125 287.101562 270.632812 286.261719 270.664062 285.503906 C 270.679688 284.96875 271.601562 284.390625 272.085938 284 C 273.714844 282.640625 275.054688 281.414062 276.445312 279.882812 C 278.46875 277.644531 280.300781 275.753906 282.257812 273.800781 " fill-opacity="1" fill-rule="evenodd"/></g></svg>