<svg xmlns="http://www.w3.org/2000/svg" xmlns:xlink="http://www.w3.org/1999/xlink" width="1080" zoomAndPan="magnify" viewBox="0 0 810 1439.999935" height="1920" preserveAspectRatio="xMidYMid meet" version="1.0"><defs><clipPath id="702d6f26db"><path d="M 73 186 L 169 186 L 169 248 L 73 248 Z M 73 186 " clip-rule="nonzero"/></clipPath><clipPath id="3960ad468e"><path d="M 56.777344 178.65625 L 186.949219 152.625 L 214.746094 291.621094 L 84.574219 317.652344 Z M 56.777344 178.65625 " clip-rule="nonzero"/></clipPath><clipPath id="cf1ffabc29"><path d="M 56.777344 178.65625 L 186.949219 152.625 L 214.746094 291.621094 L 84.574219 317.652344 Z M 56.777344 178.65625 " clip-rule="nonzero"/></clipPath><clipPath id="a38822951f"><path d="M 160 167 L 175 167 L 175 183 L 160 183 Z M 160 167 " clip-rule="nonzero"/></clipPath><clipPath id="1b08a7b13d"><path d="M 56.777344 178.65625 L 186.949219 152.625 L 214.746094 291.621094 L 84.574219 317.652344 Z M 56.777344 178.65625 " clip-rule="nonzero"/></clipPath><clipPath id="7c50cddacd"><path d="M 56.777344 178.65625 L 186.949219 152.625 L 214.746094 291.621094 L 84.574219 317.652344 Z M 56.777344 178.65625 " clip-rule="nonzero"/></clipPath><clipPath id="c523390f64"><path d="M 149 244 L 158 244 L 158 254 L 149 254 Z M 149 244 " clip-rule="nonzero"/></clipPath><clipPath id="337f4f1c5c"><path d="M 56.777344 178.65625 L 186.949219 152.625 L 214.746094 291.621094 L 84.574219 317.652344 Z M 56.777344 178.65625 " clip-rule="nonzero"/></clipPath><clipPath id="e15273954d"><path d="M 56.777344 178.65625 L 186.949219 152.625 L 214.746094 291.621094 L 84.574219 317.652344 Z M 56.777344 178.65625 " clip-rule="nonzero"/></clipPath><clipPath id="92c09bdcc1"><path d="M 142 264 L 156 264 L 156 270 L 142 270 Z M 142 264 " clip-rule="nonzero"/></clipPath><clipPath id="f22cf4d29c"><path d="M 56.777344 178.65625 L 186.949219 152.625 L 214.746094 291.621094 L 84.574219 317.652344 Z M 56.777344 178.65625 " clip-rule="nonzero"/></clipPath><clipPath id="a365a0d484"><path d="M 56.777344 178.65625 L 186.949219 152.625 L 214.746094 291.621094 L 84.574219 317.652344 Z M 56.777344 178.65625 " clip-rule="nonzero"/></clipPath><clipPath id="f459a07d43"><path d="M 63 160 L 191 160 L 191 306 L 63 306 Z M 63 160 " clip-rule="nonzero"/></clipPath><clipPath id="b58045c934"><path d="M 56.777344 178.65625 L 186.949219 152.625 L 214.746094 291.621094 L 84.574219 317.652344 Z M 56.777344 178.65625 " clip-rule="nonzero"/></clipPath><clipPath id="9c61470ade"><path d="M 56.777344 178.65625 L 186.949219 152.625 L 214.746094 291.621094 L 84.574219 317.652344 Z M 56.777344 178.65625 " clip-rule="nonzero"/></clipPath><clipPath id="cf8a1e349a"><path d="M 77 210 L 86 210 L 86 236 L 77 236 Z M 77 210 " clip-rule="nonzero"/></clipPath><clipPath id="de5a648c17"><path d="M 56.777344 178.65625 L 186.949219 152.625 L 214.746094 291.621094 L 84.574219 317.652344 Z M 56.777344 178.65625 " clip-rule="nonzero"/></clipPath><clipPath id="5fd3e9e325"><path d="M 56.777344 178.65625 L 186.949219 152.625 L 214.746094 291.621094 L 84.574219 317.652344 Z M 56.777344 178.65625 " clip-rule="nonzero"/></clipPath><clipPath id="f922428ba5"><path d="M 84 235 L 88 235 L 88 240 L 84 240 Z M 84 235 " clip-rule="nonzero"/></clipPath><clipPath id="3f3184b396"><path d="M 56.777344 178.65625 L 186.949219 152.625 L 214.746094 291.621094 L 84.574219 317.652344 Z M 56.777344 178.65625 " clip-rule="nonzero"/></clipPath><clipPath id="49c44db0ca"><path d="M 56.777344 178.65625 L 186.949219 152.625 L 214.746094 291.621094 L 84.574219 317.652344 Z M 56.777344 178.65625 " clip-rule="nonzero"/></clipPath><clipPath id="6335e151c3"><path d="M 183 195 L 193 195 L 193 206 L 183 206 Z M 183 195 " clip-rule="nonzero"/></clipPath><clipPath id="bb4bf01abd"><path d="M 56.777344 178.65625 L 186.949219 152.625 L 214.746094 291.621094 L 84.574219 317.652344 Z M 56.777344 178.65625 " clip-rule="nonzero"/></clipPath><clipPath id="19e22df564"><path d="M 56.777344 178.65625 L 186.949219 152.625 L 214.746094 291.621094 L 84.574219 317.652344 Z M 56.777344 178.65625 " clip-rule="nonzero"/></clipPath><clipPath id="c12167ff2f"><path d="M 193 223 L 203 223 L 203 239 L 193 239 Z M 193 223 " clip-rule="nonzero"/></clipPath><clipPath id="7eddfc8b35"><path d="M 56.777344 178.65625 L 186.949219 152.625 L 214.746094 291.621094 L 84.574219 317.652344 Z M 56.777344 178.65625 " clip-rule="nonzero"/></clipPath><clipPath id="1568a49a10"><path d="M 56.777344 178.65625 L 186.949219 152.625 L 214.746094 291.621094 L 84.574219 317.652344 Z M 56.777344 178.65625 " clip-rule="nonzero"/></clipPath><clipPath id="ba22d6b1e5"><path d="M 469 1246 L 516 1246 L 516 1295 L 469 1295 Z M 469 1246 " clip-rule="nonzero"/></clipPath><clipPath id="76e9d944d1"><path d="M 463.597656 1250.226562 L 507.628906 1240.9375 L 518.464844 1292.308594 L 474.433594 1301.597656 Z M 463.597656 1250.226562 " clip-rule="nonzero"/></clipPath><clipPath id="3d18f94d01"><path d="M 463.597656 1250.226562 L 507.628906 1240.9375 L 518.464844 1292.308594 L 474.433594 1301.597656 Z M 463.597656 1250.226562 " clip-rule="nonzero"/></clipPath><clipPath id="f8b8de5df4"><path d="M 49 550 L 116 550 L 116 638 L 49 638 Z M 49 550 " clip-rule="nonzero"/></clipPath><clipPath id="746dd659d3"><path d="M 37.089844 561.546875 L 106.074219 546.996094 L 122.945312 626.984375 L 53.960938 641.535156 Z M 37.089844 561.546875 " clip-rule="nonzero"/></clipPath><clipPath id="6ed27fc9c4"><path d="M 106.199219 546.96875 L 37.21875 561.519531 L 54.089844 641.507812 L 123.070312 626.960938 Z M 106.199219 546.96875 " clip-rule="nonzero"/></clipPath></defs><g clip-path="url(#702d6f26db)"><g clip-path="url(#3960ad468e)"><g clip-path="url(#cf1ffabc29)"><path fill="#0a3757" d="M 168.164062 208.230469 C 138.128906 206.796875 101.007812 226.886719 80.992188 247.605469 C 79.210938 242.667969 77.5625 237.675781 76.085938 232.648438 C 74.351562 226.773438 72.832031 220.5 74.355469 214.5625 C 78.070312 200.304688 104.488281 182.144531 133.277344 187.515625 C 147.152344 190.097656 159.675781 197.886719 168.164062 208.230469 Z M 168.164062 208.230469 " fill-opacity="1" fill-rule="nonzero"/></g></g></g><g clip-path="url(#a38822951f)"><g clip-path="url(#1b08a7b13d)"><g clip-path="url(#7c50cddacd)"><path fill="#0a3757" d="M 172.21875 181.019531 C 169.71875 183.371094 168.945312 183.042969 166.828125 181.765625 C 163.707031 179.890625 161.285156 176.703125 160.421875 173 C 160.234375 172.207031 160.476562 171.375 161.046875 170.730469 C 161.511719 170.203125 162.027344 169.726562 162.59375 169.296875 C 169.421875 164.203125 176.9375 170.773438 174.378906 177.703125 C 173.925781 178.957031 173.183594 180.101562 172.21875 181.019531 Z M 172.21875 181.019531 " fill-opacity="1" fill-rule="nonzero"/></g></g></g><g clip-path="url(#c523390f64)"><g clip-path="url(#337f4f1c5c)"><g clip-path="url(#e15273954d)"><path fill="#0a3757" d="M 150.9375 244.722656 C 150.363281 244.550781 149.761719 244.878906 149.589844 245.453125 C 149.421875 246.027344 149.746094 246.628906 150.320312 246.800781 C 151.773438 247.234375 153.125 247.914062 154.335938 248.828125 C 155.242188 249.507812 155.613281 250.09375 154.710938 250.84375 C 154.261719 251.222656 153.613281 251.453125 152.984375 251.679688 C 152.421875 251.882812 152.128906 252.503906 152.328125 253.066406 C 152.535156 253.640625 153.171875 253.921875 153.714844 253.722656 C 154.488281 253.445312 155.359375 253.132812 156.101562 252.511719 C 157.761719 251.125 158.054688 248.914062 155.640625 247.09375 C 154.21875 246.027344 152.640625 245.226562 150.9375 244.722656 Z M 150.9375 244.722656 " fill-opacity="1" fill-rule="nonzero"/></g></g></g><g clip-path="url(#92c09bdcc1)"><g clip-path="url(#f22cf4d29c)"><g clip-path="url(#a365a0d484)"><path fill="#0a3757" d="M 154.015625 265.160156 C 151.273438 267.984375 146.597656 267.675781 144.269531 264.449219 C 143.921875 263.964844 143.242188 263.855469 142.757812 264.207031 C 142.269531 264.554688 142.160156 265.234375 142.511719 265.71875 C 145.605469 270.003906 151.867188 270.488281 155.570312 266.667969 C 155.988281 266.238281 155.976562 265.550781 155.546875 265.136719 C 155.117188 264.71875 154.429688 264.730469 154.015625 265.160156 Z M 154.015625 265.160156 " fill-opacity="1" fill-rule="nonzero"/></g></g></g><g clip-path="url(#f459a07d43)"><g clip-path="url(#b58045c934)"><g clip-path="url(#9c61470ade)"><path fill="#0a3757" d="M 184.238281 219.992188 C 183.945312 217.613281 184.960938 214.84375 183.917969 212.09375 C 183.398438 210.726562 182.382812 209.679688 181.058594 209.136719 C 178.042969 207.917969 174.382812 207.648438 171.132812 207.359375 C 170.316406 207.285156 169.5 207.226562 168.6875 207.183594 C 163.1875 200.59375 156.125 195.058594 147.964844 191.1875 C 149.796875 187.480469 152.558594 184.175781 155.832031 181.863281 C 155.859375 181.855469 155.890625 181.855469 155.921875 181.851562 C 154.730469 183.609375 153.597656 185.953125 153.933594 188.042969 C 154.210938 189.761719 155.480469 191.121094 157.019531 191.351562 C 158.253906 191.539062 159.386719 190.980469 160.128906 190.546875 C 161.082031 189.992188 161.976562 189.332031 162.792969 188.582031 C 162.710938 189.351562 162.761719 189.789062 162.765625 190.425781 C 162.804688 192.363281 162.839844 194.191406 164.050781 196.15625 C 164.929688 197.546875 166.078125 198.234375 167.304688 198.085938 C 169.21875 197.816406 170.257812 196.027344 170.792969 194.285156 C 172.351562 196.210938 175.175781 198.523438 177.605469 197.929688 C 179.183594 197.535156 180.367188 195.996094 180.484375 194.191406 C 180.601562 192.628906 180 191.179688 179.460938 190.09375 C 177.890625 186.933594 175.5625 184.1875 172.671875 182.070312 C 177.914062 177.273438 176.464844 169.632812 171.082031 167.179688 C 167.851562 165.648438 164.34375 166.472656 161.578125 168.734375 C 160.191406 166.046875 158.316406 163.757812 155.660156 161.976562 C 154.113281 160.953125 151.75 159.691406 149.085938 160.621094 C 146.382812 161.582031 145.339844 164.269531 146.847656 166.757812 C 147.886719 168.535156 151.171875 170.78125 152.9375 171.816406 C 150.492188 172.3125 147.976562 173.96875 147.515625 176.734375 C 147.214844 178.496094 147.953125 180.3125 149.332031 181.246094 C 150.203125 181.855469 151.195312 182.054688 152.097656 182.113281 C 149.601562 184.402344 147.5 187.222656 145.984375 190.300781 C 131.035156 183.855469 115.253906 184.15625 100.988281 189.566406 C 101.324219 185.464844 98.089844 182.265625 94.410156 181.699219 C 91.597656 181.25 88.421875 182.234375 85.925781 184.335938 C 84.375 185.640625 83.046875 187.34375 81.898438 189.5 C 78.445312 185.238281 71.316406 185.949219 67.761719 192.175781 C 65.851562 195.5 65.648438 200.40625 68.203125 203.535156 C 64.933594 205.242188 63.011719 209.28125 64.003906 212.847656 C 65 216.378906 68.765625 218.96875 72.695312 218.570312 C 72.457031 223.523438 73.734375 228.511719 75.046875 232.953125 C 76.425781 237.644531 78.015625 242.480469 79.75 247.328125 C 78.503906 248.617188 78.835938 248.296875 78.042969 249.085938 C 76.148438 250.972656 73.285156 253.824219 75.828125 257.125 C 76.796875 258.410156 78.179688 259.183594 79.285156 260.003906 C 82.820312 262.667969 80.597656 264.085938 80.050781 267.035156 C 79.503906 269.964844 81.351562 272.914062 83.597656 274.78125 C 84.410156 275.449219 84.886719 275.734375 86.246094 276.726562 C 85.738281 288.398438 97.375 297.121094 108.617188 293.183594 C 114.183594 298.902344 121.09375 303.472656 128.855469 305.035156 C 135.875 306.449219 143.035156 306.003906 149.074219 304.125 C 161.777344 300.210938 174.949219 292.722656 180.671875 280.660156 C 181.359375 279.222656 181.957031 277.742188 182.496094 276.128906 C 185.808594 266.183594 185.429688 254.296875 181.660156 242.777344 C 182.082031 242.785156 182.519531 242.707031 182.957031 242.527344 C 184.300781 241.976562 185.855469 241.269531 187.21875 240.1875 C 189.695312 238.242188 191 235.40625 190.617188 232.789062 C 190.277344 230.421875 188.664062 228.582031 187.242188 226.960938 C 185.585938 225.074219 184.703125 223.859375 184.238281 219.992188 Z M 177.515625 191.054688 C 177.933594 191.894531 178.398438 192.992188 178.320312 194.039062 C 178.265625 194.894531 177.734375 195.664062 177.085938 195.824219 C 176.570312 195.976562 175.921875 195.753906 175.070312 195.238281 C 172.417969 193.617188 171.324219 191.09375 171.078125 190.792969 L 169.984375 186.597656 C 169.832031 186.019531 169.238281 185.652344 168.660156 185.824219 C 168.082031 185.976562 167.734375 186.566406 167.886719 187.148438 C 167.921875 187.289062 169.1875 192.113281 169.109375 191.8125 C 168.828125 193.820312 168.082031 195.746094 167.027344 195.9375 C 166.714844 195.972656 166.265625 195.605469 165.890625 195.011719 C 164.886719 193.382812 164.960938 191.765625 164.917969 189.664062 C 164.859375 187.933594 165.621094 186.34375 166.152344 184.511719 C 166.480469 183.378906 165 182.609375 164.261719 183.535156 C 164.007812 183.851562 163.753906 184.03125 163.429688 184.519531 C 162.308594 186.222656 160.789062 187.65625 159.035156 188.671875 C 157.199219 189.75 156.277344 188.945312 156.074219 187.695312 C 155.953125 186.945312 156.136719 186.078125 156.640625 184.96875 C 157.558594 183.019531 158.710938 181.542969 160.160156 180.464844 C 160.453125 180.296875 161.613281 179.625 161.472656 179.703125 C 161.804688 179.515625 161.980469 179.171875 161.996094 178.8125 C 163.976562 181.453125 166.28125 182.679688 166.441406 182.800781 C 167.492188 183.4375 168.585938 184.039062 169.828125 183.789062 C 170.265625 183.703125 170.515625 183.550781 170.792969 183.414062 C 173.675781 185.375 176 188 177.515625 191.054688 Z M 170.167969 169.148438 C 174.324219 171.039062 175.050781 176.832031 171.472656 180.230469 C 170.914062 180.753906 170.261719 181.335938 169.488281 181.636719 C 169.015625 181.800781 168.304688 181.414062 167.386719 180.835938 C 164.375 179.027344 162.242188 176.015625 161.476562 172.753906 C 161.375 172.3125 161.515625 171.839844 161.863281 171.445312 C 163.824219 169.203125 167.125 167.703125 170.167969 169.148438 Z M 149.652344 177.09375 C 149.964844 175.234375 151.988281 174.132812 153.742188 173.875 C 154.910156 173.703125 156.253906 173.890625 157.75 174.046875 C 158.289062 174.097656 158.785156 173.742188 158.90625 173.210938 C 159.027344 172.683594 158.742188 172.148438 158.234375 171.953125 C 155.324219 170.851562 152.648438 169.285156 150.265625 167.292969 C 149.679688 166.816406 149.085938 166.289062 148.710938 165.648438 C 147.894531 164.300781 148.433594 163.15625 149.804688 162.667969 C 151.152344 162.203125 152.589844 162.546875 154.460938 163.78125 C 156.867188 165.398438 158.703125 167.613281 159.957031 170.402344 C 159.367188 171.257812 159.136719 172.265625 159.367188 173.246094 C 159.820312 175.199219 160.464844 176.433594 161.296875 177.757812 C 161.007812 177.65625 160.679688 177.660156 160.394531 177.824219 L 158.953125 178.652344 C 157.09375 179.480469 155.050781 179.9375 153.027344 179.964844 C 151.863281 179.992188 151.105469 179.839844 150.558594 179.460938 C 149.878906 179 149.5 178.003906 149.652344 177.09375 Z M 165.738281 207.070312 C 158.523438 206.96875 151.847656 207.910156 145.097656 209.539062 C 144.648438 203.964844 145.058594 198.382812 147.085938 193.171875 C 154.351562 196.625 160.695312 201.449219 165.738281 207.070312 Z M 145.109375 192.285156 C 142.886719 197.910156 142.445312 203.96875 142.976562 210.066406 C 120.914062 215.886719 96.546875 230.476562 81.433594 245.609375 C 79.847656 241.132812 78.398438 236.675781 77.125 232.339844 C 75.765625 227.738281 74.441406 222.535156 74.949219 217.558594 C 75.003906 217.386719 75.03125 217.210938 74.992188 217.023438 C 74.992188 217.019531 74.988281 217.015625 74.988281 217.015625 C 75.796875 210.785156 79.84375 205.832031 84.574219 201.742188 C 99.945312 188.429688 123.800781 183.105469 145.109375 192.285156 Z M 66.089844 212.265625 C 65.253906 209.257812 67.398438 205.683594 70.433594 205.003906 C 71.335938 204.800781 71.585938 203.625 70.839844 203.070312 C 67.964844 200.957031 67.898438 196.285156 69.640625 193.253906 C 70.996094 190.878906 73.160156 189.292969 75.421875 189.007812 C 77.816406 188.695312 80.285156 190.117188 80.925781 192.179688 C 81.222656 193.140625 82.558594 193.210938 82.957031 192.292969 C 84.171875 189.507812 85.597656 187.445312 87.320312 185.992188 C 89.34375 184.292969 91.867188 183.488281 94.074219 183.839844 C 96.433594 184.203125 98.457031 186.070312 98.789062 188.1875 C 98.910156 188.945312 98.84375 189.71875 98.609375 190.535156 C 92.992188 192.933594 87.738281 196.136719 83.15625 200.101562 C 78.035156 204.527344 73.890625 209.75 72.910156 216.34375 C 69.910156 216.910156 66.839844 214.910156 66.089844 212.265625 Z M 178.714844 279.730469 C 173.265625 291.214844 160.480469 298.339844 148.429688 302.050781 C 142.804688 303.808594 135.996094 304.261719 129.285156 302.910156 C 122.152344 301.472656 115.964844 297.398438 110.78125 292.246094 C 111.46875 291.894531 112.140625 291.511719 112.769531 291.066406 C 113.253906 290.71875 113.371094 290.039062 113.019531 289.554688 C 112.671875 289.066406 111.996094 288.949219 111.507812 289.300781 C 105.277344 293.742188 95.832031 292.820312 90.925781 285.492188 C 87.050781 279.695312 88.035156 272.855469 91.253906 269.699219 C 94.65625 266.367188 100.402344 267.40625 103.898438 270.597656 C 104.339844 271 105.027344 270.96875 105.429688 270.527344 C 105.835938 270.085938 105.804688 269.398438 105.359375 268.996094 C 103.394531 267.203125 100.867188 266.03125 98.328125 265.636719 C 99.488281 264.609375 100.464844 263.496094 101.507812 262.765625 C 108.027344 258.132812 118.769531 252.386719 125.773438 248.832031 C 126.914062 250.742188 129.167969 251.816406 131.460938 251.355469 C 134.726562 250.703125 136.664062 247.285156 135.464844 244.136719 C 141.441406 241.421875 146.941406 239.25 153.398438 237.304688 C 154 240.21875 156.84375 242.105469 159.765625 241.523438 C 162.773438 240.921875 164.796875 237.902344 163.910156 234.742188 C 168.003906 233.960938 171.738281 233.546875 175.328125 233.363281 C 182.804688 247.582031 185.464844 265.597656 178.714844 279.730469 Z M 188.472656 233.097656 C 188.738281 234.921875 187.71875 237.035156 185.875 238.488281 C 184.71875 239.402344 183.335938 240.027344 182.132812 240.519531 C 181.625 240.726562 181.1875 240.632812 180.871094 239.761719 C 180.433594 238.566406 180.308594 238.78125 181.398438 238.214844 C 182.152344 237.824219 183.011719 237.382812 183.578125 236.457031 C 184.496094 234.992188 184.21875 232.992188 182.957031 231.996094 C 181.910156 231.167969 180.535156 231.0625 179.328125 231.070312 C 155.6875 231.136719 134.835938 241.269531 114.070312 252.585938 C 109.859375 254.882812 104.925781 257.675781 100.257812 260.992188 C 98.492188 262.226562 97.03125 264.238281 95.417969 265.097656 C 94.789062 265.425781 93.550781 265.652344 92.703125 265.980469 C 92.703125 265.980469 92.699219 265.984375 92.695312 265.984375 C 92.691406 265.988281 92.6875 265.988281 92.683594 265.988281 C 89.816406 267.175781 87.074219 270.179688 86.375 274.148438 C 85.300781 273.394531 84.863281 273.058594 84.234375 272.40625 C 83.097656 271.207031 81.820312 269.375 82.179688 267.429688 C 82.453125 265.957031 83.613281 264.332031 83.382812 262.375 C 83.375 262.28125 83.332031 262.191406 83.316406 262.097656 C 90.164062 255.039062 98.507812 249.179688 107.476562 245.152344 C 108.023438 244.90625 108.265625 244.265625 108.019531 243.71875 C 107.777344 243.175781 107.136719 242.929688 106.585938 243.175781 C 97.625 247.199219 89.277344 253.011719 82.351562 260 C 81.539062 258.929688 80.671875 258.3125 79.714844 257.648438 C 78.878906 257.070312 78.089844 256.523438 77.550781 255.808594 C 75.929688 253.703125 78.402344 251.910156 80.421875 249.757812 C 81.191406 248.976562 83.695312 246.222656 87.765625 242.628906 C 88.128906 242.332031 94.410156 236.542969 103.953125 230.402344 C 116.269531 222.453125 129.179688 216.015625 143.222656 212.261719 C 143.59375 215.28125 144.179688 218.476562 145.039062 221.917969 C 145.179688 222.480469 145.738281 222.832031 146.304688 222.71875 C 146.320312 222.714844 146.335938 222.710938 146.355469 222.707031 C 146.933594 222.5625 147.289062 221.972656 147.144531 221.390625 C 146.277344 217.921875 145.699219 214.726562 145.339844 211.707031 C 160.449219 208 171.03125 209.582031 171.632812 209.578125 C 174.480469 209.832031 177.703125 210.121094 180.242188 211.144531 C 181 211.457031 181.585938 212.066406 181.886719 212.863281 C 182.699219 214.996094 181.761719 217.625 182.085938 220.253906 C 182.417969 223.03125 183.019531 225.332031 184.875 227.542969 C 186.367188 229.304688 188.171875 231.027344 188.472656 233.097656 Z M 188.472656 233.097656 " fill-opacity="1" fill-rule="nonzero"/></g></g></g><g clip-path="url(#cf8a1e349a)"><g clip-path="url(#de5a648c17)"><g clip-path="url(#5fd3e9e325)"><path fill="#0a3757" d="M 85.304688 233.535156 C 82.25 226.652344 80.511719 219.351562 80.136719 211.832031 C 80.105469 211.234375 79.597656 210.773438 79 210.804688 C 78.398438 210.824219 77.941406 211.34375 77.96875 211.941406 C 78.359375 219.726562 80.160156 227.289062 83.320312 234.414062 C 83.53125 234.886719 84.035156 235.136719 84.523438 235.039062 C 85.207031 234.902344 85.585938 234.167969 85.304688 233.535156 Z M 85.304688 233.535156 " fill-opacity="1" fill-rule="nonzero"/></g></g></g><g clip-path="url(#f922428ba5)"><g clip-path="url(#3f3184b396)"><g clip-path="url(#49c44db0ca)"><path fill="#0a3757" d="M 86.464844 236.488281 C 86.214844 235.941406 85.570312 235.699219 85.027344 235.953125 C 84.480469 236.199219 84.242188 236.84375 84.492188 237.386719 L 85.160156 238.855469 C 85.410156 239.402344 86.054688 239.636719 86.597656 239.390625 C 87.140625 239.140625 87.378906 238.496094 87.132812 237.953125 Z M 86.464844 236.488281 " fill-opacity="1" fill-rule="nonzero"/></g></g></g><g clip-path="url(#6335e151c3)"><g clip-path="url(#bb4bf01abd)"><g clip-path="url(#19e22df564)"><path fill="#0a3757" d="M 192.792969 202.949219 C 193.128906 201.523438 192.5625 198.789062 191.25 197.132812 C 190.316406 195.957031 188.28125 194.941406 186.492188 195.277344 C 185.367188 195.449219 184.460938 196.265625 184.09375 197.441406 C 183.320312 199.917969 186 202.933594 187.527344 204.183594 C 189.96875 206.1875 192.277344 205.144531 192.792969 202.949219 Z M 188.902344 202.507812 C 187.5625 201.410156 185.816406 199.203125 186.164062 198.089844 C 186.289062 197.6875 186.5 197.488281 186.875 197.410156 C 186.878906 197.410156 186.886719 197.410156 186.890625 197.40625 C 187.777344 197.242188 189.046875 197.847656 189.550781 198.480469 C 190.480469 199.652344 190.851562 201.726562 190.683594 202.453125 C 190.613281 202.742188 190.441406 202.992188 190.265625 203.0625 C 189.980469 203.171875 189.457031 202.960938 188.902344 202.507812 Z M 188.902344 202.507812 " fill-opacity="1" fill-rule="nonzero"/></g></g></g><g clip-path="url(#c12167ff2f)"><g clip-path="url(#7eddfc8b35)"><g clip-path="url(#1568a49a10)"><path fill="#0a3757" d="M 199.542969 225.382812 C 197.042969 222.910156 193.203125 223.808594 193.15625 227.511719 C 193.113281 230.464844 194.753906 234.105469 195.257812 235.152344 C 195.570312 235.800781 195.972656 236.542969 196.617188 237.132812 C 198.550781 238.898438 201.4375 238.214844 202.246094 234.722656 C 203 231.429688 201.941406 227.765625 199.542969 225.382812 Z M 200.132812 234.234375 C 199.957031 234.996094 199.566406 235.753906 199 235.894531 C 198.734375 235.9375 198.371094 235.796875 198.082031 235.53125 C 196.839844 234.390625 194.121094 226.992188 195.945312 226.246094 C 196.433594 226.046875 197.300781 226.21875 198.015625 226.925781 C 199.894531 228.789062 200.722656 231.65625 200.132812 234.234375 Z M 200.132812 234.234375 " fill-opacity="1" fill-rule="nonzero"/></g></g></g><g clip-path="url(#ba22d6b1e5)"><g clip-path="url(#76e9d944d1)"><g clip-path="url(#3d18f94d01)"><path fill="#0a3757" d="M 473.59375 1248.132812 C 473.125 1248.285156 472.746094 1248.589844 472.414062 1249.082031 C 472.210938 1249.378906 472.074219 1249.644531 471.90625 1250.066406 C 471.449219 1251.230469 471.179688 1252.703125 471.085938 1254.574219 C 470.964844 1257.003906 471.167969 1259.183594 471.730469 1261.390625 C 472.644531 1264.988281 474.257812 1268.578125 476.300781 1271.585938 C 476.859375 1272.40625 477.3125 1273.019531 478.035156 1273.929688 C 479.933594 1276.320312 482.066406 1278.558594 483.859375 1280.035156 C 484.671875 1280.710938 485.320312 1281.140625 485.683594 1281.261719 C 486.226562 1281.4375 486.578125 1281.144531 486.605469 1280.492188 C 486.625 1280.101562 486.585938 1279.8125 486.371094 1278.730469 C 486.09375 1277.328125 485.949219 1276.484375 485.832031 1275.535156 C 485.5625 1273.410156 485.425781 1270.738281 485.472656 1268.558594 C 485.53125 1265.703125 485.871094 1262.398438 486.355469 1259.964844 C 487.078125 1256.328125 488.351562 1253.449219 490.253906 1251.132812 C 491.433594 1249.699219 492.777344 1248.523438 493.953125 1247.898438 C 494.816406 1247.433594 495.613281 1247.230469 496.285156 1247.300781 C 496.976562 1247.371094 497.558594 1247.734375 498.015625 1248.382812 C 498.472656 1249.035156 498.746094 1249.960938 498.910156 1251.421875 C 498.929688 1251.613281 498.992188 1252.21875 499.046875 1252.769531 C 499.195312 1254.34375 499.265625 1254.878906 499.417969 1255.601562 C 499.679688 1256.835938 500.050781 1257.761719 500.628906 1258.632812 C 500.832031 1258.933594 501.308594 1259.527344 501.902344 1260.21875 C 503.199219 1261.726562 503.683594 1262.429688 504.097656 1263.390625 C 504.308594 1263.875 504.386719 1264.132812 504.511719 1264.730469 C 504.636719 1265.300781 504.65625 1265.46875 504.6875 1265.980469 C 504.8125 1268.1875 504.214844 1270.28125 502.84375 1272.433594 C 502.308594 1273.273438 501.726562 1274.03125 501.226562 1274.535156 C 499.972656 1275.800781 499.367188 1276.402344 498.953125 1276.789062 C 498.648438 1277.066406 498.109375 1277.507812 497.710938 1277.800781 C 496.085938 1278.992188 494 1280.09375 492.164062 1280.722656 C 491.511719 1280.949219 490.933594 1281.105469 489.796875 1281.375 C 487.933594 1281.8125 487.734375 1281.878906 487.570312 1282.105469 C 487.492188 1282.210938 487.472656 1282.308594 487.5 1282.4375 C 487.5625 1282.730469 487.921875 1282.921875 488.535156 1282.988281 C 489.027344 1283.042969 489.578125 1283 490.242188 1282.859375 C 491.445312 1282.609375 492.886719 1282 494.417969 1281.101562 C 495.488281 1280.472656 496.179688 1280 497.082031 1279.28125 C 497.359375 1279.0625 497.714844 1278.785156 497.871094 1278.675781 C 498.875 1277.960938 499.667969 1277.289062 500.375 1276.554688 C 500.820312 1276.09375 501.304688 1275.542969 501.730469 1275.011719 C 501.933594 1274.753906 502.03125 1274.65625 502.414062 1274.304688 C 503.800781 1273.039062 504.789062 1272.347656 505.667969 1272.011719 C 505.933594 1271.914062 506.558594 1271.78125 506.851562 1271.765625 C 507.433594 1271.730469 507.960938 1271.8125 508.441406 1272.011719 C 509.125 1272.292969 509.570312 1272.734375 509.941406 1273.484375 C 510.070312 1273.753906 510.183594 1274.035156 510.429688 1274.707031 C 510.835938 1275.832031 511.074219 1276.3125 511.46875 1276.8125 C 511.941406 1277.40625 512.554688 1277.839844 513.234375 1278.058594 C 513.433594 1278.125 513.695312 1278.179688 514.101562 1278.238281 C 514.550781 1278.304688 514.6875 1278.351562 514.796875 1278.484375 C 515.066406 1278.820312 515.148438 1279.722656 515.019531 1280.9375 C 514.742188 1283.484375 513.863281 1286.320312 512.613281 1288.679688 C 512.324219 1289.222656 512.160156 1289.503906 511.761719 1290.117188 C 511.28125 1290.851562 511 1291.230469 510.578125 1291.710938 C 509.855469 1292.535156 509.1875 1293.066406 508.503906 1293.371094 C 508.320312 1293.453125 508.265625 1293.46875 507.929688 1293.542969 C 507.503906 1293.632812 507.402344 1293.636719 507.039062 1293.597656 C 506.484375 1293.535156 505.894531 1293.292969 505.164062 1292.832031 C 504.585938 1292.46875 504.101562 1292.105469 502.578125 1290.914062 C 500.484375 1289.273438 499.546875 1288.613281 498.230469 1287.851562 C 496.382812 1286.78125 493.335938 1285.335938 491.699219 1284.753906 C 490.039062 1284.160156 488.769531 1283.96875 487.949219 1284.183594 C 487.558594 1284.289062 487.320312 1284.464844 487.21875 1284.726562 C 487.019531 1285.242188 487.421875 1285.835938 488.359375 1286.410156 C 488.679688 1286.605469 488.925781 1286.742188 489.671875 1287.128906 C 490.328125 1287.472656 490.902344 1287.78125 491.210938 1287.957031 C 493.019531 1288.988281 494.652344 1290.238281 495.777344 1291.433594 C 496.613281 1292.332031 497.195312 1293.207031 497.308594 1293.75 L 497.335938 1293.882812 L 497.285156 1293.894531 C 497.113281 1293.933594 496.558594 1293.757812 496.066406 1293.511719 C 495.011719 1292.980469 493.789062 1292.097656 492.265625 1290.761719 C 491.253906 1289.875 488.882812 1287.664062 487.734375 1286.535156 C 486.894531 1285.710938 486.480469 1285.265625 485.902344 1284.566406 C 485.644531 1284.257812 485.511719 1284.085938 484.71875 1283.054688 C 484.378906 1282.613281 484.078125 1282.25 483.859375 1282.019531 C 483.21875 1281.339844 482.722656 1281.09375 482.128906 1281.15625 L 482.03125 1281.164062 L 481.828125 1281.011719 C 481.46875 1280.742188 481.074219 1280.542969 480.578125 1280.371094 C 480.4375 1280.320312 479.945312 1280.179688 479.484375 1280.058594 C 478.417969 1279.777344 478.03125 1279.65625 477.550781 1279.441406 C 476.914062 1279.15625 476.285156 1278.734375 475.828125 1278.292969 C 475.121094 1277.605469 474.453125 1276.609375 473.953125 1275.492188 C 473.703125 1274.9375 473.554688 1274.507812 473.453125 1274.023438 C 473.34375 1273.503906 473.328125 1273.101562 473.390625 1272.636719 C 473.46875 1272.109375 473.464844 1272.121094 473.4375 1272.03125 C 473.324219 1271.683594 472.917969 1271.652344 472.730469 1271.976562 C 472.59375 1272.210938 472.519531 1272.964844 472.570312 1273.582031 C 472.589844 1273.855469 472.710938 1274.449219 472.804688 1274.738281 C 473.195312 1275.964844 473.929688 1277.320312 474.714844 1278.269531 C 475.472656 1279.175781 476.257812 1279.757812 477.378906 1280.242188 C 477.75 1280.398438 478.265625 1280.566406 478.914062 1280.738281 C 479.257812 1280.828125 479.539062 1280.910156 479.542969 1280.914062 C 479.542969 1280.921875 479.523438 1280.929688 479.496094 1280.929688 C 479.46875 1280.929688 479.269531 1280.960938 479.054688 1280.996094 C 477.84375 1281.191406 477.507812 1281.238281 476.953125 1281.269531 C 476.003906 1281.320312 475.113281 1281.238281 474.242188 1281.023438 C 473.832031 1280.921875 473.640625 1280.863281 473.265625 1280.714844 C 472.414062 1280.378906 471.53125 1279.800781 471.015625 1279.242188 C 470.457031 1278.636719 470.171875 1277.960938 470.175781 1277.242188 C 470.175781 1276.988281 470.210938 1276.789062 470.34375 1276.296875 C 470.472656 1275.804688 470.492188 1275.660156 470.453125 1275.398438 C 470.429688 1275.234375 470.429688 1275.234375 470.382812 1275.222656 C 470.324219 1275.210938 470.175781 1275.28125 470.03125 1275.390625 C 469.832031 1275.542969 469.609375 1275.9375 469.503906 1276.332031 C 469.347656 1276.910156 469.328125 1277.386719 469.449219 1277.960938 C 469.566406 1278.53125 469.796875 1279.011719 470.191406 1279.507812 C 470.867188 1280.359375 472.023438 1281.136719 473.269531 1281.574219 C 473.773438 1281.75 474.507812 1281.925781 475.074219 1281.996094 C 476.238281 1282.148438 477.261719 1282.109375 478.773438 1281.851562 C 479.882812 1281.664062 480.289062 1281.636719 480.878906 1281.695312 C 481.03125 1281.710938 481.175781 1281.726562 481.191406 1281.730469 C 481.21875 1281.734375 481.214844 1281.753906 481.167969 1281.855469 C 480.796875 1282.628906 481.261719 1283.65625 482.070312 1283.855469 C 482.265625 1283.90625 482.386719 1283.902344 482.574219 1283.855469 C 482.707031 1283.820312 482.738281 1283.804688 482.839844 1283.726562 C 483.03125 1283.574219 483.128906 1283.355469 483.128906 1283.058594 C 483.128906 1282.890625 483.054688 1282.566406 482.964844 1282.367188 C 482.933594 1282.296875 482.910156 1282.234375 482.914062 1282.230469 C 482.921875 1282.214844 483.167969 1282.449219 483.34375 1282.640625 C 483.558594 1282.878906 483.945312 1283.359375 484.460938 1284.035156 C 485.820312 1285.820312 486.519531 1286.550781 489.734375 1289.539062 C 491.726562 1291.390625 492.59375 1292.144531 493.664062 1292.9375 C 494.023438 1293.199219 494.925781 1293.789062 495.230469 1293.953125 C 495.964844 1294.355469 496.675781 1294.621094 497.183594 1294.683594 C 497.339844 1294.699219 497.378906 1294.699219 497.535156 1294.667969 C 497.679688 1294.636719 497.730469 1294.617188 497.796875 1294.574219 C 497.984375 1294.449219 498.101562 1294.246094 498.125 1294.003906 C 498.144531 1293.835938 498.082031 1293.480469 497.992188 1293.246094 C 497.8125 1292.777344 497.542969 1292.324219 497.078125 1291.726562 C 496.046875 1290.398438 494.59375 1289.140625 492.683594 1287.914062 C 491.898438 1287.410156 491.382812 1287.117188 490.082031 1286.4375 C 489.171875 1285.964844 488.925781 1285.824219 488.523438 1285.558594 C 488.167969 1285.332031 488.015625 1285.207031 487.917969 1285.078125 C 487.84375 1284.976562 487.847656 1284.941406 487.941406 1284.878906 C 488.054688 1284.804688 488.492188 1284.714844 488.753906 1284.71875 C 489.933594 1284.71875 491.585938 1285.238281 494.039062 1286.382812 C 495.804688 1287.203125 497.210938 1287.96875 498.484375 1288.796875 C 499.53125 1289.480469 500.375 1290.101562 502.246094 1291.570312 C 503.574219 1292.613281 503.984375 1292.921875 504.554688 1293.300781 C 504.980469 1293.582031 505.277344 1293.757812 505.589844 1293.910156 C 507.320312 1294.757812 508.863281 1294.464844 510.453125 1292.988281 C 511.453125 1292.058594 512.449219 1290.695312 513.300781 1289.097656 C 514.324219 1287.175781 515.152344 1284.832031 515.578125 1282.632812 C 515.703125 1281.976562 515.816406 1281.128906 515.859375 1280.542969 C 515.976562 1278.921875 515.679688 1277.949219 514.96875 1277.625 C 514.796875 1277.546875 514.609375 1277.503906 514.21875 1277.445312 C 513.847656 1277.386719 513.644531 1277.347656 513.480469 1277.292969 C 512.707031 1277.050781 512.074219 1276.460938 511.640625 1275.578125 C 511.511719 1275.308594 511.394531 1275.019531 511.175781 1274.414062 C 510.78125 1273.324219 510.582031 1272.902344 510.242188 1272.429688 C 509.503906 1271.402344 508.167969 1270.851562 506.710938 1270.972656 C 505.761719 1271.050781 504.867188 1271.453125 503.707031 1272.324219 C 503.554688 1272.4375 503.433594 1272.527344 503.433594 1272.523438 C 503.429688 1272.519531 503.5 1272.386719 503.585938 1272.230469 C 504.898438 1269.796875 505.394531 1267.300781 505.011719 1265.039062 C 504.816406 1263.886719 504.402344 1262.867188 503.699219 1261.792969 C 503.4375 1261.398438 503.214844 1261.101562 502.476562 1260.175781 C 502.101562 1259.707031 501.722656 1259.222656 501.636719 1259.105469 C 500.859375 1258.066406 500.488281 1257.234375 500.207031 1255.898438 C 500.023438 1255.035156 499.945312 1254.347656 499.820312 1252.578125 C 499.703125 1250.925781 499.515625 1249.8125 499.210938 1248.980469 C 498.6875 1247.542969 497.652344 1246.636719 496.390625 1246.503906 C 495.972656 1246.460938 495.648438 1246.480469 495.171875 1246.585938 C 493.765625 1246.882812 492.257812 1247.847656 490.679688 1249.460938 C 488.988281 1251.1875 487.769531 1253.089844 486.824219 1255.460938 C 485.941406 1257.691406 485.402344 1260.070312 485.015625 1263.445312 C 484.589844 1267.171875 484.550781 1270.621094 484.886719 1274.25 C 485.039062 1275.898438 485.171875 1276.78125 485.640625 1279.195312 C 485.761719 1279.820312 485.867188 1280.394531 485.875 1280.472656 C 485.882812 1280.546875 485.890625 1280.613281 485.890625 1280.621094 C 485.902344 1280.675781 485.730469 1280.601562 485.464844 1280.433594 C 484.636719 1279.917969 482.910156 1278.398438 481.457031 1276.910156 C 479.109375 1274.507812 477.023438 1271.8125 475.488281 1269.191406 C 474.03125 1266.707031 473.042969 1264.324219 472.234375 1261.363281 C 472.105469 1260.882812 471.773438 1259.300781 471.707031 1258.863281 C 471.515625 1257.519531 471.429688 1256.339844 471.4375 1255.171875 C 471.464844 1252.132812 472.132812 1249.6875 473.152344 1248.898438 C 473.359375 1248.738281 473.507812 1248.664062 473.734375 1248.617188 C 474.058594 1248.546875 474.289062 1248.597656 474.617188 1248.8125 C 474.9375 1249.019531 475.191406 1249.292969 475.515625 1249.789062 C 475.757812 1250.152344 475.960938 1250.511719 476.660156 1251.804688 C 477.3125 1253.003906 477.394531 1253.148438 477.589844 1253.382812 C 477.78125 1253.613281 477.90625 1253.726562 478.136719 1253.875 C 478.492188 1254.105469 478.742188 1254.175781 479.535156 1254.28125 C 480.410156 1254.398438 480.851562 1254.515625 481.453125 1254.800781 C 482.09375 1255.101562 482.535156 1255.453125 483 1256.023438 C 483.617188 1256.789062 483.992188 1257.59375 484.324219 1258.863281 C 484.488281 1259.496094 484.582031 1260.144531 484.5625 1260.53125 C 484.558594 1260.628906 484.566406 1260.703125 484.582031 1260.75 C 484.667969 1260.984375 484.914062 1261.085938 485.125 1260.972656 C 485.355469 1260.851562 485.40625 1260.605469 485.34375 1259.957031 C 485.3125 1259.625 485.113281 1258.660156 485 1258.28125 C 484.664062 1257.152344 484.273438 1256.351562 483.707031 1255.621094 C 483.078125 1254.816406 482.425781 1254.324219 481.480469 1253.9375 C 480.890625 1253.695312 480.457031 1253.589844 479.671875 1253.492188 C 479.023438 1253.410156 478.78125 1253.347656 478.5625 1253.203125 C 478.382812 1253.085938 478.242188 1252.9375 478.03125 1252.632812 C 477.714844 1252.1875 477.585938 1251.964844 476.988281 1250.871094 C 476.394531 1249.785156 476.078125 1249.296875 475.695312 1248.882812 C 475.433594 1248.605469 475.113281 1248.363281 474.824219 1248.226562 C 474.652344 1248.144531 474.316406 1248.066406 474.140625 1248.0625 C 473.988281 1248.058594 473.71875 1248.09375 473.59375 1248.132812 Z M 482.011719 1282.320312 C 482.226562 1282.628906 482.445312 1283.078125 482.445312 1283.199219 C 482.445312 1283.277344 482.429688 1283.300781 482.359375 1283.316406 C 482.15625 1283.359375 481.871094 1283.140625 481.757812 1282.847656 C 481.679688 1282.640625 481.695312 1282.363281 481.796875 1282.195312 C 481.851562 1282.105469 481.867188 1282.113281 482.011719 1282.320312 Z M 482.011719 1282.320312 " fill-opacity="1" fill-rule="nonzero"/></g></g></g><g clip-path="url(#f8b8de5df4)"><g clip-path="url(#746dd659d3)"><g clip-path="url(#6ed27fc9c4)"><path fill="#0a3757" d="M 90.628906 550.277344 C 91.398438 550.199219 92.128906 550.394531 92.914062 550.886719 C 93.386719 551.183594 93.75 551.480469 94.253906 551.972656 C 95.640625 553.34375 96.949219 555.269531 98.261719 557.882812 C 99.964844 561.269531 101.042969 564.507812 101.632812 568 C 102.589844 573.703125 102.554688 579.839844 101.53125 585.414062 C 101.253906 586.9375 100.992188 588.089844 100.535156 589.84375 C 99.332031 594.445312 97.699219 598.976562 96.078125 602.214844 C 95.339844 603.6875 94.691406 604.707031 94.246094 605.109375 C 93.585938 605.699219 92.898438 605.503906 92.449219 604.59375 C 92.179688 604.050781 92.050781 603.609375 91.675781 601.9375 C 91.1875 599.761719 90.859375 598.464844 90.433594 597.039062 C 89.480469 593.84375 87.992188 589.949219 86.558594 586.871094 C 84.675781 582.835938 82.109375 578.335938 79.886719 575.175781 C 76.566406 570.445312 72.941406 567.140625 68.769531 565.039062 C 66.191406 563.734375 63.535156 562.90625 61.464844 562.75 C 59.941406 562.640625 58.679688 562.847656 57.765625 563.367188 C 56.820312 563.90625 56.222656 564.789062 55.980469 566.003906 C 55.738281 567.222656 55.933594 568.710938 56.613281 570.898438 C 56.707031 571.183594 57 572.085938 57.269531 572.902344 C 58.046875 575.242188 58.28125 576.050781 58.519531 577.175781 C 58.925781 579.097656 58.980469 580.648438 58.703125 582.257812 C 58.601562 582.816406 58.300781 583.960938 57.886719 585.320312 C 56.988281 588.285156 56.734375 589.589844 56.753906 591.21875 C 56.757812 592.046875 56.808594 592.460938 57.003906 593.394531 C 57.191406 594.285156 57.261719 594.539062 57.542969 595.285156 C 58.753906 598.511719 60.921875 601.117188 64.230469 603.324219 C 65.519531 604.183594 66.828125 604.894531 67.855469 605.300781 C 70.441406 606.316406 71.683594 606.792969 72.515625 607.082031 C 73.125 607.289062 74.171875 607.578125 74.929688 607.746094 C 77.992188 608.417969 81.65625 608.675781 84.671875 608.417969 C 85.742188 608.328125 86.667969 608.191406 88.457031 607.859375 C 91.390625 607.308594 91.710938 607.277344 92.085938 607.496094 C 92.265625 607.601562 92.355469 607.726562 92.398438 607.925781 C 92.496094 608.382812 92.101562 608.886719 91.273438 609.363281 C 90.601562 609.753906 89.789062 610.039062 88.753906 610.257812 C 86.882812 610.652344 84.445312 610.695312 81.695312 610.378906 C 79.773438 610.15625 78.492188 609.917969 76.757812 609.460938 C 76.21875 609.320312 75.539062 609.152344 75.246094 609.09375 C 73.367188 608.703125 71.8125 608.246094 70.34375 607.644531 C 69.417969 607.269531 68.382812 606.789062 67.441406 606.296875 C 66.988281 606.0625 66.785156 605.980469 66.023438 605.722656 C 63.246094 604.789062 61.40625 604.421875 59.9375 604.5 C 59.5 604.523438 58.527344 604.734375 58.097656 604.890625 C 57.246094 605.210938 56.546875 605.660156 55.988281 606.246094 C 55.191406 607.074219 54.832031 607.988281 54.777344 609.289062 C 54.761719 609.753906 54.777344 610.226562 54.851562 611.335938 C 54.976562 613.199219 54.941406 614.03125 54.691406 614.996094 C 54.394531 616.136719 53.792969 617.140625 52.964844 617.882812 C 52.714844 618.101562 52.378906 618.34375 51.835938 618.683594 C 51.238281 619.054688 51.074219 619.210938 51.003906 619.472656 C 50.824219 620.117188 51.277344 621.457031 52.230469 623.109375 C 54.222656 626.5625 57.265625 630.054688 60.527344 632.628906 C 61.28125 633.222656 61.695312 633.519531 62.644531 634.140625 C 63.796875 634.886719 64.433594 635.25 65.335938 635.667969 C 66.890625 636.390625 68.171875 636.730469 69.339844 636.730469 C 69.652344 636.734375 69.738281 636.71875 70.269531 636.613281 C 70.925781 636.472656 71.078125 636.417969 71.570312 636.128906 C 72.320312 635.691406 73.007812 634.976562 73.757812 633.859375 C 74.355469 632.976562 74.820312 632.152344 76.238281 629.5 C 78.191406 625.839844 79.113281 624.3125 80.511719 622.398438 C 82.472656 619.710938 85.90625 615.730469 87.871094 613.871094 C 89.867188 611.984375 91.550781 610.910156 92.859375 610.699219 C 93.480469 610.601562 93.929688 610.703125 94.238281 611.011719 C 94.847656 611.625 94.648438 612.722656 93.671875 614.128906 C 93.339844 614.609375 93.070312 614.960938 92.253906 615.980469 C 91.53125 616.886719 90.910156 617.6875 90.582031 618.132812 C 88.65625 620.742188 87.109375 623.546875 86.265625 625.960938 C 85.632812 627.765625 85.359375 629.378906 85.535156 630.226562 L 85.582031 630.433594 L 85.660156 630.417969 C 85.929688 630.359375 86.613281 629.761719 87.15625 629.105469 C 88.324219 627.6875 89.511719 625.65625 90.84375 622.796875 C 91.726562 620.894531 93.714844 616.25 94.644531 613.914062 C 95.324219 612.210938 95.632812 611.316406 96.015625 609.957031 C 96.1875 609.355469 96.269531 609.023438 96.75 607.054688 C 96.953125 606.210938 97.15625 605.507812 97.320312 605.042969 C 97.8125 603.671875 98.363281 603.003906 99.246094 602.71875 L 99.394531 602.671875 L 99.589844 602.324219 C 99.929688 601.714844 100.367188 601.183594 100.964844 600.625 C 101.132812 600.46875 101.746094 599.957031 102.324219 599.496094 C 103.671875 598.421875 104.144531 598.003906 104.691406 597.394531 C 105.421875 596.585938 106.058594 595.59375 106.425781 594.675781 C 107 593.25 107.328125 591.40625 107.339844 589.5 C 107.347656 588.554688 107.285156 587.851562 107.125 587.09375 C 106.957031 586.285156 106.726562 585.703125 106.339844 585.078125 C 105.902344 584.371094 105.910156 584.390625 105.894531 584.242188 C 105.835938 583.679688 106.398438 583.378906 106.867188 583.71875 C 107.207031 583.96875 107.792969 584.996094 108.109375 585.910156 C 108.25 586.3125 108.449219 587.234375 108.503906 587.707031 C 108.71875 589.699219 108.523438 592.09375 107.996094 593.941406 C 107.492188 595.707031 106.734375 597.035156 105.441406 598.429688 C 105.011719 598.886719 104.382812 599.449219 103.566406 600.101562 C 103.132812 600.445312 102.78125 600.738281 102.785156 600.75 C 102.785156 600.761719 102.820312 600.757812 102.855469 600.742188 C 102.898438 600.726562 103.199219 600.644531 103.53125 600.554688 C 105.378906 600.078125 105.886719 599.929688 106.695312 599.621094 C 108.082031 599.101562 109.300781 598.425781 110.40625 597.566406 C 110.929688 597.164062 111.164062 596.960938 111.601562 596.515625 C 112.605469 595.5 113.503906 594.121094 113.886719 593 C 114.300781 591.78125 114.28125 590.640625 113.824219 589.621094 C 113.664062 589.261719 113.488281 588.996094 112.992188 588.375 C 112.5 587.761719 112.378906 587.5625 112.269531 587.167969 C 112.199219 586.917969 112.199219 586.914062 112.257812 586.871094 C 112.332031 586.816406 112.589844 586.824219 112.863281 586.890625 C 113.242188 586.980469 113.804688 587.402344 114.207031 587.898438 C 114.796875 588.625 115.121094 589.296875 115.3125 590.183594 C 115.5 591.070312 115.476562 591.902344 115.226562 592.859375 C 114.800781 594.5 113.640625 596.335938 112.140625 597.746094 C 111.53125 598.3125 110.59375 599.023438 109.835938 599.480469 C 108.273438 600.429688 106.789062 601.015625 104.472656 601.601562 C 102.773438 602.035156 102.171875 602.246094 101.371094 602.707031 C 101.160156 602.824219 100.96875 602.9375 100.945312 602.949219 C 100.910156 602.972656 100.929688 602.996094 101.058594 603.109375 C 102.078125 603.980469 102.058594 605.738281 101.03125 606.535156 C 100.78125 606.726562 100.613281 606.800781 100.3125 606.847656 C 100.101562 606.878906 100.042969 606.878906 99.847656 606.832031 C 99.480469 606.734375 99.210938 606.484375 99.019531 606.0625 C 98.910156 605.820312 98.820312 605.316406 98.820312 604.972656 C 98.816406 604.855469 98.8125 604.753906 98.804688 604.746094 C 98.78125 604.730469 98.578125 605.21875 98.449219 605.605469 C 98.292969 606.078125 98.046875 607.007812 97.734375 608.296875 C 96.917969 611.695312 96.382812 613.171875 93.683594 619.457031 C 92.011719 623.351562 91.242188 624.972656 90.21875 626.773438 C 89.875 627.375 88.957031 628.78125 88.628906 629.207031 C 87.832031 630.242188 86.984375 631.070312 86.296875 631.476562 C 86.09375 631.601562 86.03125 631.625 85.785156 631.675781 C 85.566406 631.722656 85.476562 631.726562 85.359375 631.707031 C 85.015625 631.648438 84.714844 631.429688 84.527344 631.101562 C 84.394531 630.875 84.261719 630.328125 84.242188 629.941406 C 84.203125 629.152344 84.304688 628.339844 84.59375 627.191406 C 85.226562 624.65625 86.503906 621.949219 88.457031 618.996094 C 89.257812 617.78125 89.808594 617.042969 91.234375 615.253906 C 92.230469 614.007812 92.496094 613.648438 92.90625 613.019531 C 93.265625 612.472656 93.40625 612.199219 93.460938 611.957031 C 93.507812 611.761719 93.480469 611.714844 93.308594 611.6875 C 93.097656 611.648438 92.417969 611.800781 92.046875 611.964844 C 90.363281 612.714844 88.339844 614.492188 85.558594 617.667969 C 83.558594 619.949219 82.035156 621.921875 80.742188 623.902344 C 79.679688 625.539062 78.871094 626.953125 77.125 630.226562 C 75.890625 632.550781 75.496094 633.25 74.921875 634.144531 C 74.496094 634.8125 74.179688 635.253906 73.832031 635.667969 C 71.898438 637.960938 69.515625 638.511719 66.320312 637.410156 C 64.308594 636.71875 62.03125 635.402344 59.808594 633.65625 C 57.140625 631.5625 54.488281 628.738281 52.5 625.875 C 51.90625 625.015625 51.210938 623.886719 50.78125 623.074219 C 49.597656 620.835938 49.40625 619.265625 50.214844 618.355469 C 50.40625 618.136719 50.652344 617.953125 51.167969 617.625 C 51.664062 617.308594 51.929688 617.125 52.128906 616.945312 C 53.078125 616.109375 53.609375 614.871094 53.667969 613.34375 C 53.6875 612.875 53.671875 612.390625 53.601562 611.390625 C 53.476562 609.585938 53.492188 608.863281 53.683594 607.972656 C 54.085938 606.046875 55.644531 604.417969 57.800781 603.671875 C 59.203125 603.1875 60.734375 603.199219 62.929688 603.710938 C 63.21875 603.777344 63.449219 603.828125 63.449219 603.820312 C 63.445312 603.8125 63.265625 603.667969 63.046875 603.5 C 59.640625 600.859375 57.363281 597.613281 56.484375 594.144531 C 56.039062 592.378906 55.988281 590.667969 56.316406 588.691406 C 56.4375 587.972656 56.570312 587.40625 57.039062 585.621094 C 57.277344 584.714844 57.511719 583.789062 57.5625 583.5625 C 58.019531 581.59375 58.023438 580.175781 57.585938 578.09375 C 57.300781 576.746094 56.980469 575.71875 56.046875 573.121094 C 55.171875 570.691406 54.738281 568.984375 54.648438 567.605469 C 54.492188 565.230469 55.398438 563.28125 57.113281 562.304688 C 57.683594 561.976562 58.15625 561.804688 58.898438 561.648438 C 61.09375 561.191406 63.847656 561.617188 67.113281 562.921875 C 70.609375 564.316406 73.546875 566.261719 76.382812 569.050781 C 79.046875 571.671875 81.3125 574.726562 83.984375 579.292969 C 86.9375 584.335938 89.167969 589.230469 90.972656 594.613281 C 91.792969 597.058594 92.15625 598.402344 93.007812 602.140625 C 93.226562 603.105469 93.4375 603.988281 93.476562 604.101562 C 93.515625 604.214844 93.546875 604.316406 93.550781 604.328125 C 93.566406 604.410156 93.765625 604.195312 94.035156 603.792969 C 94.890625 602.53125 96.402344 599.28125 97.535156 596.246094 C 99.367188 591.34375 100.644531 586.191406 101.183594 581.488281 C 101.695312 577.03125 101.609375 573.007812 100.894531 568.28125 C 100.777344 567.519531 100.257812 565.046875 100.074219 564.386719 C 99.503906 562.351562 98.882812 560.613281 98.132812 558.953125 C 96.183594 554.636719 93.695312 551.574219 91.746094 551.089844 C 91.34375 550.992188 91.089844 550.984375 90.738281 551.054688 C 90.230469 551.160156 89.933594 551.375 89.601562 551.890625 C 89.277344 552.386719 89.089844 552.9375 88.933594 553.84375 C 88.820312 554.515625 88.753906 555.160156 88.570312 557.4375 C 88.398438 559.558594 88.371094 559.820312 88.242188 560.277344 C 88.117188 560.726562 88.007812 560.96875 87.773438 561.324219 C 87.410156 561.875 87.097656 562.132812 86.03125 562.78125 C 84.855469 563.496094 84.300781 563.945312 83.621094 564.726562 C 82.902344 565.558594 82.492188 566.339844 82.191406 567.445312 C 81.792969 568.921875 81.765625 570.308594 82.089844 572.324219 C 82.253906 573.332031 82.527344 574.3125 82.796875 574.851562 C 82.867188 574.992188 82.902344 575.101562 82.90625 575.179688 C 82.9375 575.566406 82.648438 575.867188 82.277344 575.835938 C 81.871094 575.804688 81.644531 575.492188 81.324219 574.527344 C 81.164062 574.035156 80.835938 572.535156 80.757812 571.917969 C 80.53125 570.101562 80.582031 568.714844 80.933594 567.316406 C 81.316406 565.777344 81.9375 564.660156 83.046875 563.511719 C 83.734375 562.800781 84.285156 562.371094 85.339844 561.738281 C 86.214844 561.214844 86.519531 560.972656 86.742188 560.628906 C 86.921875 560.351562 87.027344 560.050781 87.140625 559.484375 C 87.308594 558.652344 87.355469 558.25 87.519531 556.3125 C 87.675781 554.394531 87.824219 553.5 88.109375 552.671875 C 88.308594 552.109375 88.609375 551.5625 88.941406 551.183594 C 89.132812 550.960938 89.558594 550.636719 89.808594 550.519531 C 90.027344 550.417969 90.433594 550.300781 90.628906 550.277344 Z M 100.148438 604.308594 C 100.035156 604.882812 100.003906 605.65625 100.082031 605.835938 C 100.128906 605.945312 100.171875 605.96875 100.277344 605.945312 C 100.597656 605.878906 100.863281 605.386719 100.839844 604.898438 C 100.820312 604.554688 100.625 604.167969 100.371094 603.992188 C 100.238281 603.898438 100.222656 603.921875 100.148438 604.308594 Z M 100.148438 604.308594 " fill-opacity="1" fill-rule="nonzero"/></g></g></g><path fill="#0a3757" d="M 161.277344 979.210938 C 161.277344 979.210938 167.300781 966.515625 177.398438 975.027344 C 188.570312 984.449219 172.21875 995.828125 167.777344 998.90625 C 165.023438 1000.8125 159.164062 1004.273438 159.164062 1004.273438 C 159.164062 1004.273438 153.539062 999.046875 150.664062 995.742188 C 146.964844 991.496094 140.875 981.953125 143.015625 976.335938 C 144.8125 971.625 150.382812 971.710938 154.867188 973.734375 C 157.492188 974.917969 161.277344 979.210938 161.277344 979.210938 Z M 161.277344 979.210938 " fill-opacity="1" fill-rule="evenodd"/><path fill="#0a3757" d="M 166.933594 1017.472656 C 166.933594 1017.472656 166.414062 1001.960938 181.0625 1005.046875 C 197.28125 1008.464844 186.664062 1028.035156 183.773438 1033.339844 C 181.980469 1036.625 177.855469 1043.035156 177.855469 1043.035156 C 177.855469 1043.035156 169.4375 1040.839844 164.808594 1039.105469 C 158.851562 1036.871094 147.714844 1030.707031 146.953125 1024.117188 C 146.316406 1018.585938 152 1015.789062 157.59375 1015.441406 C 160.867188 1015.242188 166.933594 1017.472656 166.933594 1017.472656 Z M 166.933594 1017.472656 " fill-opacity="1" fill-rule="evenodd"/><path fill="#0a3757" d="M 179.492188 946.578125 C 179.492188 946.578125 188.351562 940.753906 192.035156 950.613281 C 196.105469 961.527344 180.703125 962.132812 176.527344 962.289062 C 173.9375 962.382812 168.648438 962.195312 168.648438 962.195312 C 168.648438 962.195312 166.78125 956.378906 166.0625 952.992188 C 165.136719 948.636719 164.570312 939.785156 168.132812 936.988281 C 171.125 934.644531 174.886719 937.046875 177.179688 940.269531 C 178.523438 942.15625 179.492188 946.578125 179.492188 946.578125 Z M 179.492188 946.578125 " fill-opacity="1" fill-rule="evenodd"/><path fill="#0a3757" d="M 211.660156 939.820312 C 211.660156 939.820312 220.519531 933.996094 224.203125 943.855469 C 228.273438 954.769531 212.871094 955.375 208.695312 955.53125 C 206.105469 955.625 200.816406 955.4375 200.816406 955.4375 C 200.816406 955.4375 198.949219 949.621094 198.230469 946.234375 C 197.304688 941.878906 196.738281 933.027344 200.300781 930.230469 C 203.292969 927.886719 207.054688 930.289062 209.347656 933.511719 C 210.691406 935.398438 211.660156 939.820312 211.660156 939.820312 Z M 211.660156 939.820312 " fill-opacity="1" fill-rule="evenodd"/><path fill="#0a3757" d="M 242.617188 947.578125 C 242.617188 947.578125 249.019531 943.449219 251.925781 950.8125 C 255.140625 958.964844 243.820312 959.105469 240.75 959.132812 C 238.847656 959.152344 234.953125 958.90625 234.953125 958.90625 C 234.953125 958.90625 233.460938 954.570312 232.863281 952.050781 C 232.09375 948.8125 231.5 942.253906 234.066406 940.257812 C 236.21875 938.585938 239.035156 940.4375 240.789062 942.867188 C 241.816406 944.289062 242.617188 947.578125 242.617188 947.578125 Z M 242.617188 947.578125 " fill-opacity="1" fill-rule="evenodd"/><path fill="#0a3757" d="M 269.929688 955.367188 C 269.929688 955.367188 276.332031 951.242188 279.238281 958.605469 C 282.453125 966.757812 271.132812 966.894531 268.0625 966.925781 C 266.160156 966.945312 262.261719 966.699219 262.261719 966.699219 C 262.261719 966.699219 260.773438 962.363281 260.175781 959.84375 C 259.40625 956.605469 258.8125 950.046875 261.378906 948.050781 C 263.53125 946.375 266.347656 948.230469 268.101562 950.660156 C 269.125 952.082031 269.929688 955.367188 269.929688 955.367188 Z M 269.929688 955.367188 " fill-opacity="1" fill-rule="evenodd"/><path fill="#0a3757" d="M 292.886719 949.742188 C 292.886719 949.742188 296.339844 943.832031 300.78125 948.359375 C 305.695312 953.371094 297.367188 958.234375 295.101562 959.550781 C 293.703125 960.363281 290.742188 961.808594 290.742188 961.808594 C 290.742188 961.808594 288.292969 959.050781 287.066406 957.335938 C 285.488281 955.128906 283.011719 950.261719 284.289062 947.625 C 285.359375 945.410156 288.019531 945.675781 290.070312 946.835938 C 291.273438 947.511719 292.886719 949.742188 292.886719 949.742188 Z M 292.886719 949.742188 " fill-opacity="1" fill-rule="evenodd"/><path fill="#0a3757" d="M 308.253906 934.683594 C 308.253906 934.683594 309.449219 927.941406 315.183594 930.652344 C 321.527344 933.65625 315.390625 941.101562 313.722656 943.117188 C 312.691406 944.367188 310.414062 946.746094 310.414062 946.746094 C 310.414062 946.746094 307.160156 945.003906 305.417969 943.816406 C 303.175781 942.292969 299.164062 938.582031 299.453125 935.667969 C 299.691406 933.21875 302.28125 932.546875 304.605469 932.925781 C 305.96875 933.148438 308.253906 934.683594 308.253906 934.683594 Z M 308.253906 934.683594 " fill-opacity="1" fill-rule="evenodd"/><path fill="#0a3757" d="M 315.238281 912.085938 C 315.238281 912.085938 315.21875 906.433594 319.207031 908.082031 C 323.621094 909.910156 320.5625 916.636719 319.730469 918.460938 C 319.210938 919.589844 318.03125 921.769531 318.03125 921.769531 C 318.03125 921.769531 315.742188 920.667969 314.488281 919.871094 C 312.875 918.847656 309.871094 916.203125 309.714844 913.78125 C 309.582031 911.75 311.160156 910.9375 312.695312 911.015625 C 313.59375 911.058594 315.238281 912.085938 315.238281 912.085938 Z M 315.238281 912.085938 " fill-opacity="1" fill-rule="evenodd"/><path fill="#0a3757" d="M 311.964844 894.007812 C 311.964844 894.007812 310.683594 890.347656 313.769531 890.441406 C 317.179688 890.542969 316.605469 895.652344 316.445312 897.039062 C 316.347656 897.894531 316.03125 899.597656 316.03125 899.597656 C 316.03125 899.597656 314.230469 899.445312 313.199219 899.234375 C 311.871094 898.964844 309.238281 897.988281 308.585938 896.457031 C 308.042969 895.171875 308.933594 894.257812 309.996094 893.933594 C 310.617188 893.742188 311.964844 894.007812 311.964844 894.007812 Z M 311.964844 894.007812 " fill-opacity="1" fill-rule="evenodd"/></svg>