<svg xmlns="http://www.w3.org/2000/svg" xmlns:xlink="http://www.w3.org/1999/xlink" width="1080" zoomAndPan="magnify" viewBox="0 0 810 1439.999935" height="1920" preserveAspectRatio="xMidYMid meet" version="1.0"><defs><g/></defs><g fill="#0a3757" fill-opacity="1"><g transform="translate(384.973286, 372.118058)"><g><path d="M -18.03125 32.75 C -19.175781 32.75 -19.847656 32.078125 -20.046875 30.734375 C -20.179688 30.191406 -20.25 29.820312 -20.25 29.625 C -20.1875 29.414062 -20.15625 29.210938 -20.15625 29.015625 C -20.15625 28.816406 -20.15625 28.613281 -20.15625 28.40625 C -20.019531 26.394531 -19.378906 24.078125 -18.234375 21.453125 C -17.085938 18.835938 -15.675781 16.171875 -14 13.453125 C -12.320312 10.734375 -10.59375 8.179688 -8.8125 5.796875 C -7.03125 3.410156 -5.503906 1.476562 -4.234375 0 C -3.765625 -0.539062 -3.34375 -1.144531 -2.96875 -1.8125 C -2.601562 -2.488281 -2.253906 -3.191406 -1.921875 -3.921875 C -0.773438 -7.015625 0.234375 -10.191406 1.109375 -13.453125 C 1.984375 -16.710938 2.722656 -20.019531 3.328125 -23.375 C 3.390625 -23.644531 3.453125 -23.929688 3.515625 -24.234375 C 3.585938 -24.535156 3.660156 -24.820312 3.734375 -25.09375 C 3.796875 -25.425781 3.84375 -25.742188 3.875 -26.046875 C 3.90625 -26.347656 3.957031 -26.632812 4.03125 -26.90625 C 4.164062 -27.4375 4.566406 -27.703125 5.234375 -27.703125 C 5.910156 -27.640625 6.25 -27.304688 6.25 -26.703125 C 6.25 -26.429688 6.25 -26.191406 6.25 -25.984375 C 6.25 -25.785156 6.25 -25.585938 6.25 -25.390625 C 6.25 -25.117188 6.226562 -24.878906 6.1875 -24.671875 C 6.15625 -24.472656 6.109375 -24.273438 6.046875 -24.078125 C 5.710938 -21.929688 5.289062 -19.78125 4.78125 -17.625 C 4.28125 -15.476562 3.757812 -13.332031 3.21875 -11.1875 C 3.15625 -10.914062 3.085938 -10.675781 3.015625 -10.46875 C 2.953125 -10.269531 2.890625 -10.035156 2.828125 -9.765625 C 2.617188 -9.367188 2.582031 -8.800781 2.71875 -8.0625 C 3.394531 -8.394531 3.898438 -8.726562 4.234375 -9.0625 C 4.429688 -9.269531 4.628906 -9.472656 4.828125 -9.671875 C 5.035156 -9.867188 5.238281 -10.035156 5.4375 -10.171875 C 6.113281 -10.773438 7.171875 -11.695312 8.609375 -12.9375 C 10.054688 -14.1875 11.632812 -15.53125 13.34375 -16.96875 C 15.0625 -18.414062 16.65625 -19.691406 18.125 -20.796875 C 19.601562 -21.910156 20.679688 -22.601562 21.359375 -22.875 C 21.421875 -22.875 21.488281 -22.90625 21.5625 -22.96875 C 21.5625 -22.96875 21.59375 -22.96875 21.65625 -22.96875 C 22.0625 -22.96875 22.429688 -22.703125 22.765625 -22.171875 C 23.035156 -21.691406 23.003906 -21.285156 22.671875 -20.953125 L 21.65625 -20.046875 C 20.050781 -18.835938 18.085938 -17.328125 15.765625 -15.515625 C 13.453125 -13.703125 11.101562 -11.753906 8.71875 -9.671875 C 6.332031 -7.585938 4.210938 -5.519531 2.359375 -3.46875 C 0.515625 -1.425781 -0.738281 0.429688 -1.40625 2.109375 C -3.15625 6.878906 -5.019531 11.582031 -7 16.21875 C -8.976562 20.851562 -11.3125 25.320312 -14 29.625 C -14.40625 30.289062 -14.957031 30.976562 -15.65625 31.6875 C -16.363281 32.394531 -17.15625 32.75 -18.03125 32.75 Z M -17.03125 28.609375 C -16.6875 28.609375 -16.484375 28.507812 -16.421875 28.3125 C -14.472656 25.757812 -12.742188 22.800781 -11.234375 19.4375 C -9.722656 16.082031 -8.394531 12.894531 -7.25 9.875 C -7.1875 9.738281 -7.15625 9.617188 -7.15625 9.515625 C -7.15625 9.421875 -7.117188 9.335938 -7.046875 9.265625 C -6.910156 8.992188 -6.976562 8.796875 -7.25 8.671875 C -7.65625 8.796875 -7.890625 8.960938 -7.953125 9.171875 C -9.972656 11.992188 -11.851562 14.945312 -13.59375 18.03125 C -15.34375 21.125 -16.585938 24.382812 -17.328125 27.8125 C -17.460938 28.207031 -17.363281 28.472656 -17.03125 28.609375 Z M 5.546875 -33.140625 C 5.003906 -33.078125 4.582031 -33.242188 4.28125 -33.640625 C 3.976562 -34.046875 3.828125 -34.519531 3.828125 -35.0625 C 3.765625 -36.269531 4.335938 -36.875 5.546875 -36.875 C 6.078125 -36.875 6.546875 -36.722656 6.953125 -36.421875 C 7.359375 -36.117188 7.5625 -35.734375 7.5625 -35.265625 C 7.5625 -34.722656 7.359375 -34.234375 6.953125 -33.796875 C 6.546875 -33.359375 6.078125 -33.140625 5.546875 -33.140625 Z M 5.546875 -33.140625 "/></g></g></g><g fill="#0a3757" fill-opacity="1"><g transform="translate(402.805999, 372.118058)"><g><path d="M 4.234375 -5.03125 C 3.023438 -5.03125 1.945312 -5.398438 1 -6.140625 C 0.0625 -6.878906 -0.539062 -7.921875 -0.8125 -9.265625 C -1.007812 -10.273438 -1.070312 -11.148438 -1 -11.890625 C -0.875 -13.296875 -0.476562 -14.921875 0.1875 -16.765625 C 0.863281 -18.617188 1.773438 -20.347656 2.921875 -21.953125 C 4.066406 -23.566406 5.273438 -24.613281 6.546875 -25.09375 C 6.953125 -25.289062 7.390625 -25.390625 7.859375 -25.390625 C 8.460938 -25.316406 8.832031 -24.976562 8.96875 -24.375 C 9.101562 -23.570312 8.898438 -23.140625 8.359375 -23.078125 C 7.222656 -22.867188 6.351562 -22.394531 5.75 -21.65625 C 5.144531 -20.914062 4.570312 -20.113281 4.03125 -19.25 C 3.09375 -17.425781 2.421875 -15.710938 2.015625 -14.109375 C 1.742188 -13.367188 1.609375 -12.394531 1.609375 -11.1875 C 1.609375 -9.238281 2.28125 -8.09375 3.625 -7.75 C 4.4375 -7.75 5.109375 -7.847656 5.640625 -8.046875 C 6.179688 -8.253906 6.6875 -8.765625 7.15625 -9.578125 C 7.820312 -10.648438 8.222656 -11.722656 8.359375 -12.796875 C 8.492188 -13.867188 8.191406 -14.976562 7.453125 -16.125 C 7.046875 -16.789062 6.710938 -17.460938 6.453125 -18.140625 C 6.316406 -18.472656 6.363281 -18.789062 6.59375 -19.09375 C 6.832031 -19.394531 7.117188 -19.578125 7.453125 -19.640625 L 10.578125 -19.640625 C 12.460938 -19.640625 14.34375 -19.941406 16.21875 -20.546875 C 16.6875 -20.679688 17.15625 -20.847656 17.625 -21.046875 C 18.101562 -21.253906 18.578125 -21.425781 19.046875 -21.5625 C 19.515625 -21.695312 19.96875 -21.863281 20.40625 -22.0625 C 20.84375 -22.257812 21.296875 -22.425781 21.765625 -22.5625 L 23.375 -22.96875 C 23.914062 -22.96875 24.351562 -22.703125 24.6875 -22.171875 C 25.019531 -21.359375 24.75 -20.816406 23.875 -20.546875 C 22.9375 -20.210938 21.992188 -19.878906 21.046875 -19.546875 C 20.109375 -19.210938 19.171875 -18.875 18.234375 -18.53125 C 17.296875 -18.195312 16.335938 -17.910156 15.359375 -17.671875 C 14.390625 -17.441406 13.367188 -17.257812 12.296875 -17.125 C 11.347656 -16.988281 10.820312 -16.835938 10.71875 -16.671875 C 10.625 -16.503906 10.644531 -15.984375 10.78125 -15.109375 C 11.1875 -13.160156 10.953125 -11.25 10.078125 -9.375 C 9.398438 -7.957031 8.390625 -6.78125 7.046875 -5.84375 C 6.109375 -5.300781 5.171875 -5.03125 4.234375 -5.03125 Z M 4.234375 -5.03125 "/></g></g></g><g fill="#0a3757" fill-opacity="1"><g transform="translate(422.552945, 372.118058)"><g><path d="M 13.59375 19.953125 C 12.726562 19.953125 12.023438 19.445312 11.484375 18.4375 C 10.609375 16.894531 10.472656 15.382812 11.078125 13.90625 C 11.890625 11.488281 12.898438 9.1875 14.109375 7 C 15.316406 4.820312 16.625 2.65625 18.03125 0.5 C 18.707031 -0.570312 19.175781 -1.78125 19.4375 -3.125 C 19.570312 -4.269531 19.707031 -5.394531 19.84375 -6.5 C 19.976562 -7.601562 20.113281 -8.691406 20.25 -9.765625 C 20.382812 -10.910156 20.535156 -12.035156 20.703125 -13.140625 C 20.867188 -14.253906 21.019531 -15.378906 21.15625 -16.515625 L 22.0625 -23.671875 C 22.132812 -23.804688 22.171875 -24.144531 22.171875 -24.6875 C 22.171875 -24.957031 22.066406 -25.09375 21.859375 -25.09375 C 21.660156 -25.21875 21.460938 -25.179688 21.265625 -24.984375 L 19.140625 -22.46875 C 17.460938 -20.382812 15.71875 -18.46875 13.90625 -16.71875 C 12.09375 -14.976562 10.078125 -13.367188 7.859375 -11.890625 C 7.453125 -11.617188 7.046875 -11.429688 6.640625 -11.328125 C 6.242188 -11.234375 5.84375 -11.148438 5.4375 -11.078125 C 4.09375 -11.078125 3.1875 -11.460938 2.71875 -12.234375 C 2.25 -13.015625 2.015625 -14.007812 2.015625 -15.21875 C 2.015625 -17.425781 2.332031 -19.753906 2.96875 -22.203125 C 3.601562 -24.660156 4.660156 -26.765625 6.140625 -28.515625 C 6.484375 -28.847656 6.851562 -29.015625 7.25 -29.015625 C 7.320312 -29.015625 7.40625 -29 7.5 -28.96875 C 7.601562 -28.9375 7.753906 -28.882812 7.953125 -28.8125 C 8.628906 -28.40625 8.695312 -27.835938 8.15625 -27.109375 C 7.21875 -25.828125 6.53125 -24.460938 6.09375 -23.015625 C 5.65625 -21.578125 5.269531 -20.082031 4.9375 -18.53125 C 4.800781 -18 4.71875 -17.460938 4.6875 -16.921875 C 4.65625 -16.390625 4.640625 -15.851562 4.640625 -15.3125 C 4.503906 -14.375 4.804688 -13.90625 5.546875 -13.90625 C 5.804688 -13.90625 6.140625 -14.003906 6.546875 -14.203125 C 6.816406 -14.335938 7.066406 -14.503906 7.296875 -14.703125 C 7.535156 -14.910156 7.789062 -15.082031 8.0625 -15.21875 C 8.332031 -15.351562 8.582031 -15.519531 8.8125 -15.71875 C 9.050781 -15.914062 9.304688 -16.082031 9.578125 -16.21875 C 10.847656 -17.15625 12.035156 -18.226562 13.140625 -19.4375 C 14.253906 -20.65625 15.347656 -21.929688 16.421875 -23.265625 C 16.890625 -23.804688 17.359375 -24.378906 17.828125 -24.984375 C 18.296875 -25.585938 18.769531 -26.191406 19.25 -26.796875 C 19.71875 -27.335938 20.171875 -27.910156 20.609375 -28.515625 C 21.046875 -29.117188 21.5 -29.6875 21.96875 -30.21875 C 22.101562 -30.351562 22.253906 -30.519531 22.421875 -30.71875 C 22.585938 -30.925781 22.738281 -31.097656 22.875 -31.234375 C 23.207031 -31.566406 23.578125 -31.734375 23.984375 -31.734375 C 24.046875 -31.734375 24.078125 -31.734375 24.078125 -31.734375 C 24.078125 -31.734375 24.113281 -31.734375 24.1875 -31.734375 C 24.25 -31.671875 24.3125 -31.640625 24.375 -31.640625 C 25.25 -31.429688 25.550781 -30.488281 25.28125 -28.8125 C 25.15625 -27.539062 25.003906 -26.265625 24.828125 -24.984375 C 24.660156 -23.710938 24.507812 -22.4375 24.375 -21.15625 C 24.25 -19.882812 24.082031 -18.59375 23.875 -17.28125 C 23.675781 -15.96875 23.507812 -14.675781 23.375 -13.40625 L 22.765625 -7.5625 C 22.835938 -7.5625 23.070312 -7.492188 23.46875 -7.359375 C 24.414062 -8.566406 25.375 -9.773438 26.34375 -10.984375 C 27.320312 -12.191406 28.28125 -13.398438 29.21875 -14.609375 C 30.15625 -15.753906 31.109375 -16.929688 32.078125 -18.140625 C 33.054688 -19.347656 34.082031 -20.519531 35.15625 -21.65625 C 35.5 -22.0625 35.867188 -22.429688 36.265625 -22.765625 C 36.609375 -22.972656 36.878906 -23.078125 37.078125 -23.078125 C 37.347656 -23.078125 37.582031 -22.972656 37.78125 -22.765625 C 38.25 -22.296875 38.347656 -21.828125 38.078125 -21.359375 C 37.816406 -20.890625 37.5 -20.453125 37.125 -20.046875 C 36.757812 -19.640625 36.40625 -19.203125 36.0625 -18.734375 C 33.914062 -16.253906 31.816406 -13.71875 29.765625 -11.125 C 27.722656 -8.539062 25.726562 -5.90625 23.78125 -3.21875 C 22.226562 -1.269531 21.253906 0.875 20.859375 3.21875 C 20.722656 4.164062 20.453125 5.5625 20.046875 7.40625 C 19.640625 9.25 19.132812 11.128906 18.53125 13.046875 C 17.925781 14.960938 17.203125 16.59375 16.359375 17.9375 C 15.523438 19.28125 14.601562 19.953125 13.59375 19.953125 Z M 14 16.125 C 14.269531 16.125 14.441406 16.019531 14.515625 15.8125 C 14.578125 15.613281 14.675781 15.378906 14.8125 15.109375 L 16.328125 10.78125 C 16.660156 9.84375 16.625 9.035156 16.21875 8.359375 C 16.019531 8.828125 15.800781 9.328125 15.5625 9.859375 C 15.332031 10.398438 15.082031 10.941406 14.8125 11.484375 L 13.59375 14.515625 C 13.46875 14.773438 13.382812 15.054688 13.34375 15.359375 C 13.3125 15.660156 13.429688 15.878906 13.703125 16.015625 C 13.765625 16.085938 13.863281 16.125 14 16.125 Z M 14 16.125 "/></g></g></g></svg>