<svg xmlns="http://www.w3.org/2000/svg" xmlns:xlink="http://www.w3.org/1999/xlink" width="1080" zoomAndPan="magnify" viewBox="0 0 810 1439.999935" height="1920" preserveAspectRatio="xMidYMid meet" version="1.0"><defs><clipPath id="52fbf7ed8b"><path d="M 256.554688 243.015625 L 335.242188 243.015625 L 335.242188 328.898438 L 256.554688 328.898438 Z M 256.554688 243.015625 " clip-rule="nonzero"/></clipPath><clipPath id="45c641770f"><path d="M 639 1006 L 722.730469 1006 L 722.730469 1050 L 639 1050 Z M 639 1006 " clip-rule="nonzero"/></clipPath><clipPath id="ddec85763c"><path d="M 631.230469 1040 L 647 1040 L 647 1061 L 631.230469 1061 Z M 631.230469 1040 " clip-rule="nonzero"/></clipPath><clipPath id="95a4daaacd"><path d="M 631.230469 1030 L 640 1030 L 640 1047 L 631.230469 1047 Z M 631.230469 1030 " clip-rule="nonzero"/></clipPath></defs><g clip-path="url(#52fbf7ed8b)"><path fill="#0a3757" d="M 305.269531 314.160156 C 305.285156 314.332031 305.296875 314.503906 305.355469 314.648438 C 305.386719 314.449219 305.542969 314.488281 305.574219 314.289062 C 305.371094 314.277344 305.464844 314.039062 305.269531 314.160156 Z M 302.246094 308.015625 C 302.230469 307.769531 302.214844 307.523438 302.066406 307.375 C 301.917969 307.527344 302.183594 307.816406 302.246094 308.015625 Z M 294.558594 305.582031 C 294.417969 305.699219 294.429688 306.035156 294.285156 306.167969 C 294.632812 306.121094 295.457031 305.945312 295.332031 305.691406 C 295.144531 305.777344 294.832031 305.609375 294.558594 305.582031 Z M 292.265625 304.960938 C 291.796875 305.667969 291.378906 306.480469 290.832031 307.058594 C 291.164062 307.230469 291.511719 307.722656 292.324219 307.75 C 292.363281 306.734375 292.859375 305.976562 293.253906 305.269531 C 292.921875 305.171875 292.488281 305.125 292.265625 304.960938 Z M 287.953125 305.847656 C 288.613281 306.210938 289.25 306.585938 290.023438 306.863281 C 290.039062 305.863281 290.566406 305.128906 290.933594 304.457031 C 290.21875 304.246094 289.765625 303.878906 289.15625 303.621094 C 288.769531 304.382812 288.394531 305.171875 287.953125 305.847656 Z M 285.539062 304.023438 C 285.929688 304.488281 286.472656 304.878906 287.039062 305.238281 C 287.308594 304.257812 287.773438 303.644531 288.242188 303.007812 C 287.726562 302.757812 287.425781 302.367188 286.929688 302.101562 C 286.574219 302.890625 285.957031 303.285156 285.539062 304.023438 Z M 301.351562 305.679688 C 301.351562 305.527344 301.535156 305.238281 301.402344 305.167969 C 301.21875 305.308594 301.226562 305.5 301.351562 305.679688 Z M 283.289062 301.828125 C 283.882812 302.378906 284.371094 302.980469 285.015625 303.488281 C 285.378906 302.753906 285.699219 301.957031 286.167969 301.398438 C 285.753906 301.019531 285.46875 300.578125 284.992188 300.238281 C 284.527344 300.929688 283.902344 301.359375 283.289062 301.828125 Z M 281.273438 298.960938 C 281.742188 299.722656 282.085938 300.550781 282.789062 301.183594 C 283.230469 300.433594 283.824219 299.90625 284.355469 299.304688 C 283.8125 298.785156 283.660156 298.019531 283.132812 297.484375 C 282.664062 298.210938 281.945312 298.5625 281.273438 298.960938 Z M 307.875 310.742188 C 307.300781 311.5 306.617188 312.265625 306.296875 313.214844 C 307.082031 312.65625 307.535156 311.777344 308.144531 311.007812 C 309.929688 308.773438 311.949219 306.554688 313.570312 304.371094 C 311.617188 306.382812 309.621094 308.496094 307.875 310.742188 Z M 307.46875 314.144531 C 307.242188 314.316406 307.746094 314.472656 307.496094 314.824219 C 307.289062 315.054688 306.859375 315.0625 306.605469 315.261719 C 305.964844 315.761719 305.359375 316.976562 304.777344 317.9375 C 303.902344 319.328125 302.910156 320.527344 302.773438 322.414062 C 304.277344 321.507812 305.46875 320.019531 306.597656 318.578125 C 307.746094 317.117188 308.902344 315.570312 310.027344 313.976562 C 312.054688 311.03125 314.636719 307.160156 316.101562 303.445312 C 316.109375 303.414062 316.117188 303.378906 316.0625 303.382812 C 313.175781 306.957031 310.246094 310.414062 307.46875 314.144531 Z M 280.96875 298.289062 C 281.503906 297.597656 282.144531 297.101562 282.816406 296.628906 C 282.691406 296.148438 282.621094 295.648438 282.347656 295.246094 C 281.375 295.796875 280.007812 297 280.96875 298.289062 Z M 281.851562 288.515625 C 281.949219 288.257812 282.359375 288.023438 282.289062 287.765625 C 282.03125 287.757812 281.808594 288.300781 281.851562 288.515625 Z M 312.503906 295.582031 C 310.027344 298.773438 307.546875 301.515625 304.882812 304.472656 C 304.480469 304.917969 303.441406 305.824219 303.34375 306.230469 C 303.273438 306.53125 303.582031 307.105469 303.691406 307.503906 C 304.097656 308.925781 304.449219 310.183594 305.1875 311.234375 C 307.78125 307.773438 311.078125 304.277344 314.179688 301.273438 C 314.621094 300.839844 315.40625 300.355469 315.558594 299.945312 C 315.765625 299.398438 315.652344 298.382812 315.679688 297.738281 C 315.777344 295.527344 315.746094 293.246094 315.339844 291.433594 C 315.335938 291.378906 315.304688 291.351562 315.234375 291.335938 C 314.675781 292.972656 313.535156 294.226562 312.503906 295.582031 Z M 266.148438 286.160156 C 267.839844 285.242188 269.324219 283.710938 270.816406 282.375 C 275.28125 278.355469 279.917969 273.6875 284.152344 269.765625 C 284.101562 269.75 284.066406 269.742188 284.03125 269.734375 C 284.085938 269.65625 283.765625 269.671875 283.765625 269.671875 C 281.878906 270.078125 279.734375 271.652344 278.046875 272.867188 C 274.335938 275.523438 271.0625 278.316406 267.714844 281.242188 C 266.890625 281.957031 266.042969 282.707031 265.3125 283.574219 C 264.558594 284.472656 263.554688 285.390625 263.429688 286.703125 C 264.472656 286.855469 265.46875 286.519531 266.148438 286.160156 Z M 279.964844 289.460938 C 279.929688 289.453125 279.898438 289.429688 279.929688 289.378906 C 279.921875 287.234375 281.730469 285.503906 282.976562 284.035156 C 284.222656 282.5625 285.28125 280.949219 286.292969 279.589844 C 287.421875 278.070312 288.476562 276.535156 289.554688 275.078125 C 290.675781 273.578125 291.816406 272.15625 292.792969 270.636719 C 291.75 270.722656 290.53125 270.523438 289.496094 270.632812 C 287.257812 273.300781 284.820312 275.867188 282.460938 278.488281 C 280.683594 280.464844 279 282.597656 277.203125 284.421875 C 276.628906 285.03125 276.035156 285.800781 275.164062 286.003906 C 275.445312 285.230469 276.035156 284.628906 276.519531 284 C 279.953125 279.378906 283.320312 274.652344 286.847656 270.332031 C 286.257812 270.398438 285.660156 270.476562 285.226562 270.804688 C 285.480469 270.84375 285.597656 270.964844 285.523438 271.207031 C 281.367188 276.347656 276.847656 280.910156 272.28125 285.371094 C 273.949219 286.347656 275.761719 287.246094 277.574219 288.164062 C 278.316406 286.308594 279.757812 284.960938 280.988281 283.558594 C 283.457031 280.703125 285.808594 277.800781 288.242188 275.027344 C 289.464844 273.660156 290.617188 272.183594 292.066406 271.191406 C 289.851562 274.070312 287.570312 277.140625 285.246094 280.070312 C 283.15625 282.734375 281.074219 286 278.691406 288.167969 C 278.578125 288.253906 278.253906 288.289062 278.34375 288.535156 C 278.828125 288.835938 279.542969 289.285156 279.964844 289.460938 Z M 320.613281 253.867188 C 320.621094 253.832031 320.628906 253.796875 320.574219 253.800781 C 320.554688 253.871094 320.4375 253.828125 320.421875 253.898438 C 317.328125 255.300781 314.261719 256.820312 311.210938 258.367188 C 308.242188 259.875 305.082031 261.558594 302.722656 264.011719 C 300.941406 265.859375 299.476562 268.171875 297.789062 270.246094 C 292.761719 276.386719 287.871094 282.816406 283.214844 289.4375 C 283.980469 289.898438 283.464844 291.042969 283.417969 291.925781 C 283.382812 292.476562 283.429688 293.046875 283.480469 293.542969 C 284.214844 299.046875 289.480469 304.144531 297.21875 304.429688 C 298.160156 304.46875 299.640625 304.582031 300.382812 304.199219 C 300.851562 303.957031 301.335938 303.253906 301.863281 302.6875 C 303.398438 301.097656 304.777344 299.304688 306.125 297.632812 C 309.867188 292.976562 313.617188 288.433594 317.234375 283.820312 C 319.066406 281.464844 321.15625 279.113281 322.140625 275.996094 C 321.367188 276.515625 320.929688 277.402344 320.359375 278.15625 C 319.226562 279.695312 318.035156 281.179688 316.78125 282.59375 C 316.222656 283.226562 315.589844 284.152344 314.632812 284.1875 C 314.542969 283.773438 314.53125 283.136719 314.699219 282.75 C 314.9375 282.210938 315.8125 281.972656 316.183594 281.519531 C 316.722656 280.902344 317.15625 280.019531 317.664062 279.226562 C 319.203125 276.839844 320.40625 274.292969 321.847656 271.695312 C 323.820312 268.125 324.65625 263.851562 326.207031 259.769531 C 323.167969 258.539062 321.113281 256.6875 320.613281 253.867188 Z M 328.625 250.828125 C 326.007812 251.246094 323.867188 252.410156 321.589844 253.375 C 322.457031 255.503906 324.359375 256.980469 326.734375 258.183594 C 327.296875 255.765625 328.4375 253.316406 328.625 250.828125 Z M 300.253906 301.390625 C 300.285156 300.5625 300.972656 299.867188 301.445312 299.214844 C 302.90625 297.164062 304.429688 295.457031 306.066406 293.445312 C 307.65625 291.480469 309.054688 289.671875 310.726562 287.742188 C 311.203125 287.222656 312.320312 285.757812 312.910156 286.085938 C 313.570312 286.449219 312.265625 288.089844 312.027344 288.386719 C 308.996094 292.5625 305.519531 296.203125 302.132812 299.921875 C 301.632812 300.453125 301.1875 301.464844 300.253906 301.390625 Z M 275.808594 300.765625 C 275.84375 301.648438 274.941406 302.066406 274.4375 302.617188 C 273.84375 303.292969 273.125 304.128906 272.777344 305.199219 C 272.273438 306.683594 272.390625 307.902344 272.066406 309.257812 C 271.644531 311.023438 270.953125 312.273438 269.976562 313.25 C 269.179688 314.085938 267.933594 314.382812 267.160156 315.355469 C 266.574219 316.109375 266.222656 317.496094 266.066406 318.539062 C 268.03125 313.660156 273.195312 313.890625 276.214844 310.457031 C 276.605469 309.992188 277.171875 309.175781 277.535156 308.515625 C 277.714844 308.152344 278.25 306.453125 278.949219 306.730469 C 279.59375 307 278.839844 308.828125 278.6875 309.78125 C 278.5 310.871094 278.546875 311.609375 278.1875 312.640625 C 276.660156 317.160156 271.242188 317.464844 270.742188 322.507812 C 271.480469 321.0625 272.230469 320.105469 273.34375 319.421875 C 274.996094 318.363281 277.121094 318.199219 278.847656 317.363281 C 279.710938 316.957031 280.664062 316.085938 281.261719 315.296875 C 281.875 314.511719 281.953125 313.335938 282.773438 312.546875 C 283.554688 313.179688 283.320312 314.390625 283.152344 315.414062 C 282.40625 319.78125 276.800781 321.253906 277.789062 326.238281 C 279.132812 324.195312 279.539062 322.113281 281.328125 320.863281 C 282.804688 319.835938 284.800781 319.421875 285.921875 318.253906 C 286.390625 317.769531 287.382812 316.347656 287.792969 315.402344 C 288.136719 314.59375 288.160156 313.796875 288.871094 313.929688 C 289.902344 314.140625 289.148438 316.605469 288.859375 317.578125 C 288.382812 319.179688 287.757812 320.464844 286.882812 321.390625 C 285.605469 322.761719 284.082031 323.292969 283.390625 325.792969 C 284.882812 324.230469 287.339844 323.625 289.199219 322.222656 C 290.546875 321.1875 292.046875 319.828125 292.804688 317.664062 C 293.578125 315.445312 293.585938 311.742188 295.9375 311.726562 C 296.167969 312.171875 295.664062 312.796875 295.527344 313.210938 C 294.910156 314.945312 295.609375 316.304688 294.878906 318.347656 C 294.515625 319.394531 293.703125 320.375 293.003906 321.269531 C 292.316406 322.128906 291.421875 322.90625 290.699219 323.441406 C 288.925781 324.691406 286.703125 325.035156 285.136719 326.207031 C 284.886719 326.390625 284.242188 327.058594 283.9375 327.636719 C 283.503906 328.445312 283.316406 329.070312 282.660156 328.855469 C 281.988281 328.621094 281.964844 326.457031 282.050781 325.863281 C 282.492188 322.464844 285.050781 321.660156 286.414062 319.769531 C 284.980469 320.785156 282.089844 321.34375 281.003906 323.300781 C 280.8125 323.648438 280.765625 324.082031 280.597656 324.453125 C 280.167969 325.410156 279.378906 326.601562 278.820312 327.214844 C 278.421875 327.640625 277.019531 328.757812 276.410156 328.425781 C 275.882812 328.132812 276.410156 327.402344 276.523438 326.851562 C 276.683594 326.03125 276.324219 325.035156 276.464844 324.0625 C 276.785156 321.546875 278.433594 320.191406 279.734375 318.957031 C 277.769531 319.621094 275.339844 319.878906 273.503906 321.171875 C 272.828125 321.664062 272.222656 322.636719 271.742188 323.863281 C 271.402344 324.730469 271.179688 325.910156 270.492188 325.820312 C 269.808594 325.710938 269.605469 324.546875 269.492188 323.847656 C 268.519531 317.542969 275.128906 316.25 277.125 311.867188 C 276.507812 312.261719 276.105469 312.851562 275.472656 313.242188 C 273.804688 314.296875 271.574219 314.75 269.941406 315.886719 C 268.683594 316.78125 267.742188 318.0625 266.941406 319.867188 C 266.683594 320.476562 266.417969 321.269531 266.015625 321.246094 C 265.488281 321.195312 265.148438 319.808594 265.101562 319.296875 C 265.019531 318.625 265.167969 317.691406 265.246094 317.28125 C 266.140625 312.855469 269.832031 313.066406 270.738281 308.738281 C 269.769531 309.4375 268.890625 309.992188 267.433594 310.332031 C 266.9375 310.457031 265.105469 310.707031 265.054688 309.835938 C 264.996094 308.910156 266.46875 308.59375 266.910156 308.15625 C 268.441406 306.566406 268.875 303.355469 270.78125 301.613281 C 272.09375 300.417969 273.484375 299.59375 275.152344 299.078125 C 275.632812 298.933594 276.488281 298.636719 276.75 299.332031 C 276.363281 299.628906 276.074219 299.578125 275.734375 299.683594 C 273.667969 300.382812 271.5625 301.78125 270.4375 303.914062 C 269.703125 305.265625 269.273438 306.914062 268.164062 308.664062 C 268.152344 308.714844 268.101562 308.703125 268.082031 308.773438 C 269.164062 308.304688 270.613281 307.3125 271.160156 305.800781 C 271.734375 304.261719 272.046875 303.332031 272.992188 302.347656 C 273.71875 301.570312 274.597656 300.625 275.808594 300.765625 Z M 260.351562 302.621094 C 261.054688 302.566406 261.488281 303.078125 261.285156 303.703125 C 261.007812 304.621094 259.605469 304.25 259.632812 303.4375 C 259.632812 302.972656 259.820312 302.664062 260.351562 302.621094 Z M 257.425781 320.703125 C 258.605469 320.835938 257.957031 322.691406 256.886719 322.101562 C 256.292969 321.773438 256.515625 320.613281 257.425781 320.703125 Z M 292.558594 290.480469 C 293.195312 291.320312 293.875 292.152344 294.917969 292.773438 C 293.882812 290.011719 293.601562 286.816406 293.261719 283.640625 C 292.707031 286.117188 292.894531 288.136719 292.558594 290.480469 Z M 291.914062 288.742188 C 291.804688 287.019531 291.917969 285.144531 292.179688 283.179688 C 291.125 284.863281 291.46875 287.480469 291.914062 288.742188 Z M 296.480469 293.410156 C 297.28125 293.640625 298.003906 293.738281 298.660156 293.726562 C 297.019531 290.371094 296.234375 286.496094 296.664062 281.882812 C 296.664062 281.808594 296.617188 281.761719 296.574219 281.714844 C 295.574219 286.207031 296.867188 289.292969 296.480469 293.410156 Z M 301.652344 285.648438 C 301.972656 287.886719 302.203125 289.972656 302.625 292.101562 C 302.980469 291.777344 303.3125 291.410156 303.652344 291.082031 C 302.683594 288.1875 302.128906 285.054688 301.539062 281.914062 C 301.550781 281.859375 301.449219 281.816406 301.414062 281.882812 C 301.15625 283.347656 301.476562 284.503906 301.652344 285.648438 Z M 293.878906 281.070312 C 294.71875 282.460938 294.464844 284.527344 294.914062 286.160156 C 294.800781 284.308594 295.128906 281.910156 295.816406 279.894531 C 295.140625 280.234375 294.460938 280.574219 293.878906 281.070312 Z M 303.082031 282.152344 C 303.273438 282.140625 303.457031 282.074219 303.636719 282.023438 C 303.351562 281.804688 303.148438 281.253906 302.835938 281.234375 C 302.957031 281.507812 302.988281 281.851562 303.082031 282.152344 Z M 298.976562 279.382812 C 298.90625 279.363281 298.90625 279.289062 298.796875 279.28125 C 298.285156 279.308594 297.75 279.292969 297.261719 279.382812 C 298.277344 280.910156 298.066406 283.1875 298.707031 284.945312 C 298.683594 283.183594 298.59375 281.210938 298.976562 279.382812 Z M 300.605469 280.050781 C 300.644531 279.890625 300.675781 279.75 300.710938 279.609375 C 300.605469 279.582031 300.5 279.558594 300.394531 279.53125 C 300.398438 279.742188 300.425781 279.933594 300.605469 280.050781 Z M 296.925781 277.976562 C 298.132812 278.003906 299.3125 277.746094 300.6875 278.074219 C 302.078125 278.410156 303.292969 279.164062 304.171875 280.101562 C 306.171875 282.238281 307.929688 285.339844 306.859375 289.277344 C 306.324219 291.273438 304.007812 293.550781 302.59375 294.40625 C 298.519531 296.878906 292.921875 294.496094 291.132812 291.144531 C 290.355469 289.652344 290.210938 288.296875 290.296875 286.378906 C 290.324219 285.808594 290.492188 285.179688 290.484375 284.503906 C 290.472656 284.09375 290.195312 284.15625 290.289062 283.601562 C 290.367188 283.210938 290.890625 282.890625 291.222656 282.503906 C 292.199219 281.300781 292.878906 280.175781 294.019531 279.386719 C 294.910156 278.78125 295.988281 278.480469 296.925781 277.976562 Z M 307.324219 276.03125 C 307.84375 276.339844 308.214844 276.746094 308.878906 276.996094 C 307.894531 274.265625 307.316406 271.296875 306.9375 268.207031 C 306.386719 271.222656 306.964844 273.558594 307.324219 276.03125 Z M 306.511719 274.980469 C 305.902344 272.691406 305.730469 270.152344 306.1875 267.226562 C 304.265625 269.800781 304.792969 273.449219 306.511719 274.980469 Z M 314.328125 276.566406 C 314.703125 276.324219 314.960938 275.878906 315.300781 275.550781 C 314.5 273.367188 314.226562 270.84375 313.757812 268.4375 C 313.59375 271.378906 314.070312 273.914062 314.328125 276.566406 Z M 310.441406 277.632812 C 311.121094 277.832031 311.769531 277.929688 312.339844 277.957031 C 310.929688 274.824219 310.367188 271.167969 309.898438 267.441406 C 309.28125 271.335938 310.117188 274.3125 310.441406 277.632812 Z M 319.085938 272.414062 C 319.359375 270.652344 318.945312 269.027344 318.144531 268.089844 C 318.648438 269.421875 318.734375 271.007812 319.085938 272.414062 Z M 308.375 269.128906 C 308.496094 268.242188 308.699219 266.371094 308.945312 265.035156 C 308.496094 265.207031 308.046875 265.359375 307.730469 265.75 C 308.144531 266.742188 308.140625 268.007812 308.375 269.128906 Z M 315.359375 267.03125 C 315.417969 266.320312 315.742188 265.988281 316.078125 265.675781 C 315.644531 265.460938 315.242188 265.199219 314.789062 264.976562 C 314.9375 265.683594 315.175781 266.335938 315.359375 267.03125 Z M 312.226562 271.574219 C 312.175781 269.753906 312.113281 266.984375 312.742188 264.433594 C 312.089844 264.351562 311.488281 264.375 310.949219 264.449219 C 311.625 266.457031 311.730469 269.277344 312.226562 271.574219 Z M 313.847656 279.433594 C 307.71875 279.980469 303.585938 275.917969 303.683594 271.0625 C 303.6875 270.742188 303.777344 270.355469 303.785156 270.023438 C 303.992188 266.980469 306.3125 264.664062 308.472656 263.730469 C 309.71875 263.207031 311.453125 262.875 313.179688 263.140625 C 317.960938 263.875 320.449219 267.261719 320.730469 270.832031 C 321.105469 275.65625 317.359375 278.539062 313.847656 279.433594 Z M 282.257812 273.800781 C 282.375 273.625 282.347656 273.578125 282.199219 273.730469 C 278.433594 277.097656 274.59375 281.152344 270.570312 284.496094 C 269.289062 285.570312 267.734375 286.78125 266.320312 287.390625 C 264.804688 288.035156 261.09375 288.527344 262.257812 285.285156 C 262.628906 284.199219 263.648438 283.214844 264.480469 282.3125 C 265.328125 281.417969 266.207031 280.621094 267.039062 279.945312 C 268.820312 278.488281 270.574219 277.007812 272.375 275.539062 C 275.101562 273.339844 277.742188 271.324219 280.851562 269.699219 C 281.703125 269.253906 283.296875 268.441406 284.214844 268.644531 C 284.746094 268.769531 284.902344 269.367188 285.34375 269.453125 C 285.8125 269.527344 286.71875 269.167969 287.355469 269.078125 C 288.070312 268.96875 288.792969 268.75 289.363281 268.699219 C 290.398438 268.574219 291.542969 268.699219 292.628906 268.605469 C 293.707031 268.527344 294.597656 268.238281 295.535156 268.050781 C 297.917969 265.65625 299.8125 263.019531 302.269531 260.921875 C 305.785156 257.90625 310.339844 255.921875 314.644531 253.96875 C 317.511719 252.660156 320.269531 251.253906 323.375 250.113281 C 325.441406 249.339844 327.136719 248.476562 329.546875 248.605469 C 330.960938 247.289062 332.328125 245.621094 333.734375 244.113281 C 334.132812 243.6875 334.570312 242.953125 335.242188 243.019531 C 334.894531 244.167969 334.070312 245.125 333.394531 246.078125 C 332.710938 247.054688 332.066406 248.039062 331.285156 248.816406 C 331.472656 249.441406 331.21875 250.8125 330.699219 251.269531 C 330.046875 254.855469 329.429688 258.527344 328.570312 262.125 C 327.699219 265.773438 326.957031 269.414062 325.914062 272.929688 C 325.429688 274.5625 324.570312 275.902344 323.859375 277.394531 C 321.796875 281.652344 319.101562 285.367188 316.425781 288.527344 C 316.867188 292.0625 317.527344 295.460938 317.179688 299.476562 C 318.691406 300.097656 318.617188 302.203125 317.933594 304.351562 C 317.257812 306.554688 315.875 308.441406 314.664062 310.3125 C 312.355469 313.898438 309.960938 317.445312 307.226562 320.703125 C 306.109375 322.019531 303.894531 324.582031 302.257812 324.023438 C 301.140625 323.625 301.261719 322.109375 301.511719 321.070312 C 302.035156 318.882812 303.589844 317.449219 304.464844 315.886719 C 303.144531 312.683594 301.652344 309.570312 300.570312 306.21875 C 299.800781 306.089844 299.449219 306.621094 298.65625 306.433594 C 298.207031 307.609375 297.875 309.394531 296.890625 309.699219 C 296.222656 309.910156 294.734375 309.667969 293.933594 309.585938 C 292.875 309.5 291.699219 309.277344 290.726562 308.894531 C 288.667969 308.085938 286.488281 306.988281 284.871094 305.5 C 282.433594 303.296875 280.105469 301.269531 279.476562 298.136719 C 278.992188 297.59375 278.726562 296.898438 279.046875 296.117188 C 279.527344 294.871094 281.46875 294.554688 282.183594 293.753906 C 282.175781 293.308594 282.167969 292.875 282.164062 292.429688 C 281.980469 292.179688 281.597656 292.070312 281.539062 291.757812 C 279.417969 290.972656 277.878906 289.933594 275.738281 288.917969 C 274.816406 288.472656 273.898438 287.957031 272.851562 287.425781 C 272.203125 287.101562 270.632812 286.261719 270.664062 285.503906 C 270.679688 284.96875 271.601562 284.390625 272.085938 284 C 273.714844 282.640625 275.054688 281.414062 276.445312 279.882812 C 278.46875 277.644531 280.300781 275.753906 282.257812 273.800781 " fill-opacity="1" fill-rule="evenodd"/></g><g clip-path="url(#45c641770f)"><path fill="#0a3757" d="M 657.804688 1013.207031 C 659.308594 1013.144531 660.617188 1014.5 662.09375 1014.84375 C 664.570312 1015.832031 667.140625 1016.546875 669.636719 1017.476562 C 677.054688 1019.652344 684.410156 1022.117188 692.039062 1023.457031 C 693.96875 1023.78125 695.753906 1024.621094 697.660156 1025.035156 C 699.132812 1025.542969 700.71875 1025.425781 702.167969 1026.003906 C 704.527344 1026.996094 706.972656 1027.410156 709.484375 1027.726562 C 708.320312 1025.542969 706.71875 1025.980469 704.710938 1025.335938 C 702.246094 1024.199219 699.542969 1024.308594 696.964844 1023.742188 C 696.042969 1023.433594 695.097656 1023.242188 694.128906 1023.179688 C 692.160156 1023.332031 690.972656 1021.832031 689.3125 1021.097656 C 687.632812 1022.335938 686.207031 1020.507812 684.726562 1019.960938 C 683.941406 1019.605469 683.050781 1019.753906 682.296875 1019.351562 C 681.332031 1018.875 680.449219 1018.199219 679.410156 1017.898438 C 678.511719 1017.582031 677.476562 1017.734375 676.652344 1017.234375 C 675.765625 1016.59375 674.808594 1016.089844 673.703125 1015.988281 C 669.53125 1016.839844 671.027344 1016.277344 667.371094 1014.8125 C 665.292969 1014.691406 663.976562 1014.757812 662.230469 1013.316406 C 661.398438 1012.796875 660.382812 1013.121094 659.472656 1012.933594 C 658.578125 1012.679688 657.746094 1012.3125 656.808594 1012.609375 C 656.402344 1013.140625 655.449219 1012.410156 655.023438 1012.148438 C 655.238281 1011.21875 656.355469 1012.828125 657.371094 1012.328125 C 656.488281 1011.679688 655.261719 1011.273438 654.539062 1010.320312 C 653.976562 1010.445312 653.40625 1010.515625 652.828125 1010.535156 C 653.425781 1010.960938 654.046875 1011.179688 654.507812 1011.621094 C 654.5 1011.730469 654.433594 1011.753906 654.363281 1011.730469 C 652.867188 1011.265625 651.59375 1010.195312 650.0625 1009.847656 C 647.554688 1009.792969 647.515625 1010.859375 648.929688 1012.601562 C 650.480469 1014.222656 652.050781 1014.046875 654.054688 1014.007812 C 655.390625 1014.320312 656.933594 1015.007812 657.4375 1016.34375 C 655.433594 1017.582031 653.179688 1016.222656 651.261719 1015.34375 C 648.632812 1014.132812 645.789062 1013.511719 643.066406 1012.570312 C 641.984375 1012.171875 640.796875 1011.875 639.65625 1012.195312 C 639.460938 1012.246094 639.457031 1012.242188 639.214844 1012.125 C 639.871094 1011.15625 641.492188 1011.667969 642.484375 1011.78125 C 643.984375 1011.582031 645.476562 1011.125 647.023438 1011.070312 C 646.613281 1011.730469 645.53125 1011.398438 644.90625 1011.847656 C 644.574219 1011.988281 644.359375 1011.988281 643.972656 1012.121094 C 645.535156 1012.429688 646.910156 1013.167969 648.335938 1013.472656 C 647.132812 1011.667969 646.921875 1009.175781 649.757812 1009.257812 C 652.121094 1009.859375 651.527344 1010.445312 654.347656 1009.78125 C 655.242188 1007.351562 658.550781 1007.46875 660.535156 1008.371094 C 661.457031 1008.808594 662.351562 1009.328125 663.382812 1009.433594 C 666.328125 1010.234375 667.75 1008.875 670.320312 1008.1875 C 672.222656 1004.648438 679.496094 1007.082031 682.601562 1007.375 C 686.035156 1007.566406 689.324219 1005.472656 692.714844 1006.25 C 695.34375 1007.589844 696.90625 1010.398438 698.867188 1012.464844 C 700.644531 1013.359375 701.945312 1014.820312 703.238281 1016.273438 C 704.371094 1016.941406 704.835938 1018.023438 705.363281 1019.148438 C 706.390625 1020.105469 707.46875 1020.992188 708.140625 1022.265625 C 708.269531 1022.433594 708.3125 1022.660156 708.542969 1022.71875 C 710.335938 1023.480469 712.589844 1024.882812 712.277344 1027.121094 C 713.59375 1028.480469 713.597656 1029.019531 715.558594 1029.785156 C 718.734375 1031.761719 719.351562 1034.839844 714.878906 1035.320312 C 718.425781 1038.042969 716.464844 1037.894531 713.421875 1038.476562 C 713.992188 1039.328125 714.371094 1040.261719 714.5625 1041.265625 C 716.648438 1040.679688 720.652344 1040.515625 721.953125 1038.761719 C 720.730469 1037.324219 718.921875 1036.414062 718.097656 1034.644531 C 719.625 1035.996094 721.820312 1037.351562 722.617188 1039.253906 C 722.796875 1042.101562 722.867188 1045.066406 722.089844 1047.832031 C 721.464844 1045.800781 722.167969 1043.617188 721.949219 1041.578125 C 719.5 1042.132812 717.042969 1042.609375 714.585938 1043.109375 C 714.03125 1043.214844 714 1043.988281 713.671875 1044.378906 C 712.585938 1045.890625 712.675781 1047.808594 712.054688 1049.449219 C 710.734375 1047.324219 712.449219 1045.140625 713.609375 1043.398438 C 714.722656 1039.773438 712.804688 1037.796875 709.316406 1037.257812 C 706.480469 1036.214844 703.523438 1035.277344 700.820312 1033.957031 C 703.046875 1034.292969 705.429688 1035.175781 707.621094 1035.933594 C 709.339844 1036.683594 711.21875 1037.523438 713.078125 1036.804688 C 713.246094 1037.296875 712.019531 1037.152344 711.691406 1037.355469 C 712.199219 1037.597656 712.675781 1037.753906 713.046875 1038.082031 C 714.121094 1037.761719 715.246094 1037.800781 716.242188 1037.238281 C 715.734375 1036.53125 714.722656 1036.207031 714.496094 1035.308594 C 713.460938 1035.152344 712.5 1034.65625 711.4375 1034.652344 C 709.472656 1034.746094 707.882812 1033.613281 706.070312 1033.097656 C 704.648438 1032.816406 703.332031 1032.210938 701.996094 1031.664062 C 699.671875 1030.808594 697.230469 1030.269531 695.042969 1029.046875 C 693.550781 1028.15625 691.75 1029.113281 690.199219 1028.222656 C 688.214844 1027.339844 686.050781 1027.195312 683.925781 1026.9375 C 681.652344 1026.210938 679.328125 1025.71875 676.957031 1025.457031 C 674.773438 1025.050781 672.898438 1023.746094 671.179688 1022.402344 C 669.800781 1021.277344 668.007812 1021.894531 666.453125 1021.339844 C 664.210938 1020.550781 661.910156 1020.238281 659.582031 1020.753906 C 663.074219 1024.511719 668.769531 1024.921875 673.3125 1026.960938 C 669.824219 1026.207031 666.246094 1025.273438 662.972656 1023.804688 C 660.253906 1022.539062 658.097656 1020.347656 655.191406 1019.425781 C 653.679688 1018.863281 652.328125 1017.785156 650.714844 1017.550781 C 649.601562 1017.109375 646.222656 1017.167969 647.367188 1015.296875 C 649.097656 1014.621094 650.601562 1016.613281 652.050781 1017.324219 C 654.027344 1018.222656 656.082031 1018.949219 658.027344 1019.925781 C 658.890625 1020.140625 659.875 1020.09375 660.773438 1020.023438 C 663.039062 1019.480469 665.101562 1020.070312 667.25 1020.78125 C 668.734375 1021.230469 670.4375 1020.757812 671.742188 1021.796875 C 674.046875 1022.910156 675.929688 1025.15625 678.660156 1025.046875 C 681.617188 1025.550781 684.4375 1026.578125 687.46875 1026.746094 C 689.695312 1027.214844 691.808594 1027.992188 694.105469 1028.144531 C 696.148438 1028.625 698.019531 1029.753906 700.015625 1030.429688 C 701.453125 1030.933594 703.027344 1031.011719 704.386719 1031.761719 C 706.871094 1032.492188 709.191406 1033.902344 711.8125 1034.019531 C 713.503906 1034.007812 715.234375 1034.828125 716.886719 1034.246094 C 719.402344 1032.488281 714.800781 1030.351562 713.464844 1029.503906 C 711.003906 1028.511719 708.351562 1028.128906 705.738281 1027.808594 C 703.445312 1027.3125 701.269531 1026.25 698.933594 1025.953125 C 690.480469 1023.785156 681.894531 1021.921875 673.550781 1019.265625 C 668.085938 1017.953125 662.601562 1016.191406 657.804688 1013.207031 Z M 649.621094 1016.625 L 649.65625 1016.683594 L 649.683594 1016.640625 L 649.613281 1016.632812 C 649.117188 1016.242188 648.417969 1015.667969 647.707031 1015.796875 C 648.25 1016.296875 648.886719 1016.574219 649.621094 1016.625 Z M 690.914062 1008.675781 C 689.863281 1008.941406 688.800781 1009.128906 687.726562 1009.246094 C 688.796875 1009.773438 690.113281 1009.445312 690.910156 1008.675781 L 691.003906 1008.691406 L 691.003906 1008.679688 Z M 671.933594 1012.65625 C 675.210938 1013.996094 679.273438 1013.324219 682.125 1015.550781 C 681.867188 1015.605469 681.617188 1015.371094 681.335938 1015.515625 C 680.460938 1015.140625 679.550781 1014.875 678.609375 1014.722656 C 675.375 1013.847656 672.078125 1013.246094 668.859375 1012.332031 C 665.027344 1011.582031 658.042969 1006.058594 654.792969 1009.535156 C 657.265625 1012.402344 661.242188 1012.128906 664.335938 1013.800781 C 665.203125 1014.308594 666.144531 1014.121094 667.089844 1014.140625 C 668.542969 1014.277344 669.640625 1015.398438 671.019531 1015.792969 C 673.699219 1015.84375 674.074219 1014.394531 677.078125 1016.710938 C 678.59375 1017.417969 680.332031 1017.644531 681.792969 1018.550781 C 682.398438 1018.871094 683.042969 1019.046875 683.726562 1019.078125 C 685.238281 1019.109375 686.3125 1020.195312 687.648438 1020.660156 C 688.273438 1020.71875 688.914062 1021.085938 689.535156 1020.960938 C 691.113281 1020.609375 691.859375 1022.65625 693.382812 1022.710938 C 695.40625 1022.703125 697.273438 1023.425781 699.257812 1023.660156 C 702.527344 1023.925781 705.789062 1024.828125 708.882812 1025.855469 C 708.957031 1026.621094 709.980469 1026.660156 710.523438 1027.027344 C 711.035156 1027.261719 711.777344 1027.195312 711.96875 1026.585938 C 711.875 1026.003906 711.367188 1025.742188 711.039062 1025.3125 C 709.5625 1023.589844 707.277344 1022.566406 705.027344 1022.386719 C 702.558594 1021.980469 700.339844 1020.652344 697.796875 1020.558594 C 694.871094 1020.457031 692.285156 1019.03125 689.542969 1018.203125 C 688.191406 1017.492188 686.351562 1017.652344 685.195312 1016.699219 C 687.917969 1016.746094 690.449219 1018.097656 693 1018.96875 C 694.515625 1019.699219 696.183594 1019.804688 697.816406 1020.046875 C 700.199219 1020.507812 702.527344 1021.164062 704.898438 1021.667969 C 704.0625 1020.601562 703.074219 1019.65625 702.394531 1018.472656 C 701.960938 1017.851562 699.933594 1018.082031 699.136719 1017.976562 C 697.984375 1017.96875 697.460938 1016.609375 696.316406 1016.441406 C 695.089844 1016.074219 693.863281 1015.492188 692.554688 1015.769531 C 692.292969 1015.820312 692.054688 1015.769531 691.839844 1015.613281 C 691.15625 1015.226562 690.769531 1014.488281 690.039062 1014.183594 C 688.835938 1014.035156 688.117188 1015.480469 686.957031 1013.832031 C 685.71875 1012.703125 683.703125 1013.324219 682.289062 1012.417969 C 681.394531 1011.898438 680.4375 1012.5625 679.527344 1012.230469 C 678.761719 1011.917969 677.980469 1011.707031 677.152344 1011.875 C 675.566406 1012.226562 674.058594 1011.347656 672.621094 1011.027344 C 671.816406 1011.195312 670.992188 1011.390625 670.167969 1011.394531 C 670.878906 1011.121094 671.621094 1010.988281 672.367188 1010.675781 C 671.644531 1010.15625 670.941406 1009.773438 670.4375 1009.027344 C 668.488281 1009.230469 666.566406 1010.117188 664.6875 1010.210938 C 665.542969 1010.527344 666.359375 1011.257812 667.316406 1010.953125 C 668.699219 1010.835938 670.371094 1009.929688 671.648438 1010.421875 C 670.394531 1011.003906 668.507812 1010.800781 667.34375 1011.386719 C 668.695312 1011.804688 670.179688 1012.59375 671.605469 1012.382812 C 672.046875 1012.269531 672.558594 1012.070312 673 1012.273438 C 672.679688 1012.511719 672.304688 1012.492188 671.933594 1012.65625 Z M 704.488281 1018.433594 C 704.289062 1017.832031 703.921875 1017.371094 703.378906 1017.046875 C 702.226562 1016.320312 701.609375 1015.015625 700.402344 1014.34375 C 697.367188 1012.390625 693.691406 1011.449219 690.199219 1010.609375 C 685.386719 1009.324219 680.722656 1007.429688 675.730469 1006.890625 C 669.300781 1006.59375 669.503906 1008.945312 675.042969 1011.230469 C 676.753906 1011.636719 678.507812 1011.234375 680.246094 1011.574219 C 682.050781 1011.46875 683.558594 1012.640625 685.335938 1012.742188 C 686.914062 1012.722656 687.132812 1013.945312 688.320312 1014.152344 C 689.398438 1014.03125 689.707031 1012.84375 691.0625 1014.125 C 691.539062 1014.589844 692.078125 1015.238281 692.816406 1015.105469 C 693.847656 1014.976562 694.847656 1015.5 695.835938 1015.742188 C 696.714844 1016.035156 697.570312 1016.390625 698.265625 1017.039062 C 699.128906 1017.691406 700.359375 1017.273438 701.371094 1017.527344 C 702.457031 1017.65625 703.496094 1017.957031 704.488281 1018.433594 Z M 683.953125 1008.019531 C 685.109375 1008.289062 686.140625 1009.027344 687.332031 1008.960938 C 689.265625 1009.015625 691.683594 1007.386719 693.328125 1008.679688 C 694.8125 1010.15625 694.902344 1011.894531 697.378906 1011.988281 C 692.941406 1005.277344 691.035156 1006.945312 683.953125 1008.019531 Z M 714.566406 1041.65625 C 714.535156 1042.101562 714.339844 1042.507812 714.433594 1042.898438 C 716.9375 1042.515625 719.34375 1041.84375 721.785156 1041.179688 C 721.699219 1040.855469 721.523438 1040.589844 721.261719 1040.378906 C 719.035156 1040.871094 716.820312 1041.316406 714.566406 1041.65625 Z M 689.511719 1009.652344 C 691.375 1010.164062 693.28125 1010.847656 695.03125 1011.230469 C 692.699219 1008.167969 693.089844 1007.925781 689.511719 1009.652344 Z M 702.546875 1018.242188 C 703.273438 1019.453125 704.324219 1020.460938 705.199219 1021.578125 C 705.652344 1022.054688 706.449219 1022.109375 707.070312 1022.164062 C 705.90625 1020.53125 704.707031 1018.542969 702.546875 1018.238281 Z M 652.257812 1014.984375 C 653.585938 1015.425781 654.894531 1015.933594 656.355469 1016.011719 C 655.816406 1015.484375 655.179688 1015.128906 654.445312 1014.945312 C 653.710938 1014.761719 652.984375 1014.773438 652.257812 1014.984375 Z M 712.160156 1028.246094 C 712.015625 1027.824219 712 1027.804688 711.707031 1027.578125 C 711.085938 1027.929688 710.410156 1027.628906 709.753906 1027.671875 C 710.429688 1028.085938 711.390625 1027.929688 712.160156 1028.246094 Z M 717.898438 1033.546875 L 717.875 1033.511719 C 717.855469 1033.550781 717.816406 1033.582031 717.863281 1033.613281 C 717.875 1033.59375 717.886719 1033.570312 717.898438 1033.546875 Z M 717.898438 1033.546875 " fill-opacity="1" fill-rule="nonzero"/></g><path fill="#0a3757" d="M 677.269531 1046.800781 C 675.191406 1047.617188 672.523438 1047.164062 670.234375 1047.394531 C 666.871094 1047.351562 663.535156 1047.910156 660.207031 1047.148438 C 659.3125 1048.453125 659.421875 1050.074219 659.027344 1051.535156 C 658.667969 1050.917969 658.972656 1050.058594 658.847656 1049.359375 C 657.664062 1047.46875 655.9375 1045.941406 654.738281 1044.03125 C 656.339844 1045.28125 657.496094 1046.972656 658.839844 1048.484375 C 658.960938 1048.121094 658.816406 1047.828125 658.636719 1047.566406 C 656.921875 1044.976562 654.898438 1042.625 652.851562 1040.304688 C 653.058594 1040.128906 653.441406 1040.707031 653.628906 1040.835938 C 655.359375 1042.695312 656.949219 1044.667969 658.398438 1046.753906 C 657.003906 1041.117188 651.339844 1037.960938 648.105469 1033.390625 C 647.863281 1033.523438 647.671875 1033.710938 647.53125 1033.945312 C 648.359375 1034.96875 649.464844 1035.851562 649.90625 1037.117188 C 648.996094 1036.148438 648.3125 1035.179688 647.324219 1034.308594 C 646.421875 1036.046875 647.726562 1037.914062 647.570312 1039.726562 C 647.320312 1041.558594 646.886719 1044.574219 644.742188 1044.980469 C 642.0625 1045.234375 640.824219 1041.941406 641.25 1039.710938 C 641.078125 1037.019531 645.242188 1031.308594 643.546875 1030.359375 C 642.527344 1035.160156 634.640625 1031.652344 640.03125 1024.5 C 638.492188 1022.195312 636.292969 1020.472656 634.339844 1018.535156 C 634.179688 1018.789062 633.972656 1019 633.964844 1019.34375 L 634.304688 1019.21875 C 634.507812 1019.433594 634.6875 1019.667969 634.847656 1019.914062 C 634.589844 1020.03125 634.269531 1019.667969 633.980469 1019.59375 C 633.667969 1020.6875 633.964844 1021.925781 633.476562 1022.988281 C 633.046875 1023.613281 633.203125 1024.488281 632.644531 1025.011719 C 632.378906 1024.546875 632.496094 1024.019531 632.664062 1023.546875 C 633.15625 1022.253906 633.0625 1020.835938 633.199219 1019.476562 C 633.160156 1015.476562 633.257812 1014.535156 637.445312 1013.734375 C 637.484375 1012.972656 637.988281 1012.023438 638.898438 1012.351562 C 636.175781 1014.710938 642.144531 1017.0625 643.988281 1017.488281 C 646.078125 1018.039062 647.921875 1019.195312 649.992188 1019.773438 C 651.421875 1019.933594 658.457031 1021.179688 656.777344 1023.507812 C 653.308594 1025.246094 648.269531 1020.402344 644.09375 1021.765625 C 646.5625 1019.097656 653.246094 1023.703125 656.417969 1022.988281 C 654.992188 1020.582031 651.535156 1021.085938 649.195312 1020.367188 C 647.273438 1019.640625 645.464844 1018.675781 643.464844 1018.160156 C 643.535156 1018.480469 643.789062 1018.636719 643.730469 1019.007812 C 642.984375 1018.933594 642.808594 1018.0625 642.214844 1017.757812 C 640.335938 1017.101562 638.898438 1015.703125 637.625 1014.21875 C 637.097656 1014.4375 636.503906 1014.515625 635.996094 1014.851562 C 636.746094 1015.769531 637.746094 1016.480469 638.121094 1017.667969 C 636.84375 1017.660156 636.4375 1015.796875 635.285156 1015.367188 C 635.03125 1015.5 634.886719 1015.710938 634.847656 1015.992188 C 636.601562 1018.292969 638.773438 1020.269531 640.582031 1022.53125 C 638.636719 1021.359375 636.914062 1019.242188 635.269531 1017.53125 C 635.0625 1017.683594 634.9375 1017.78125 634.742188 1017.945312 C 636.609375 1019.976562 638.691406 1021.828125 640.238281 1024.140625 C 641.082031 1023.28125 642.074219 1022.652344 643.210938 1022.257812 C 641.332031 1024.667969 637.265625 1028.066406 639.808594 1031.417969 C 640.386719 1032.140625 641.605469 1032.433594 642.300781 1031.742188 C 642.746094 1030.972656 642.617188 1029.953125 643.527344 1029.492188 C 644.621094 1029.292969 645.125 1031.050781 644.679688 1031.878906 C 643.3125 1035.179688 641.179688 1038.777344 642.226562 1042.460938 C 644.875 1048.320312 647.6875 1041.539062 646.714844 1038.300781 C 646.132812 1036.453125 645.84375 1034.085938 647.445312 1032.671875 C 647.015625 1032.207031 646.621094 1031.710938 646.265625 1031.191406 C 646.628906 1031.121094 647.507812 1032.253906 647.878906 1032.539062 C 648.78125 1032.46875 651.789062 1033.1875 651.605469 1034.363281 C 652.519531 1034.960938 653.296875 1035.703125 653.9375 1036.585938 C 654.515625 1035.550781 655.582031 1035.949219 655.164062 1037.074219 C 654.984375 1038.316406 655.820312 1037.742188 656.316406 1038.058594 C 655.898438 1038.789062 654.265625 1038.648438 654.546875 1037.554688 C 654.652344 1037.226562 654.808594 1036.742188 654.484375 1036.480469 C 654.21875 1036.730469 653.992188 1037.25 653.542969 1037.027344 C 653.367188 1037.035156 653.210938 1036.980469 653.078125 1036.867188 C 652.941406 1036.753906 652.859375 1036.613281 652.832031 1036.4375 C 652.710938 1035.753906 652.386719 1035.246094 651.632812 1035.25 C 651.320312 1035.1875 651.0625 1035.035156 650.855469 1034.789062 C 650.652344 1034.542969 650.550781 1034.261719 650.550781 1033.941406 C 650.417969 1033.167969 649.246094 1032.851562 648.605469 1033.109375 C 650.460938 1034.988281 652.203125 1036.984375 653.976562 1038.949219 C 655.25 1040.285156 656.679688 1041.511719 657.601562 1043.136719 C 659.363281 1046.496094 660.589844 1047.386719 664.425781 1046.792969 C 668.695312 1047.082031 672.984375 1046.738281 677.269531 1046.800781 Z M 677.269531 1046.800781 " fill-opacity="1" fill-rule="nonzero"/><path fill="#0a3757" d="M 659.535156 1029.246094 L 660.90625 1029.425781 C 661.554688 1027.289062 666.011719 1029.230469 666.574219 1030.671875 C 668.523438 1030.882812 670.402344 1031.449219 672.296875 1031.941406 C 673.71875 1032.375 675.265625 1032.351562 676.566406 1033.136719 C 679.121094 1034.824219 682.082031 1035.703125 685.074219 1036.25 C 687.3125 1036.523438 689.363281 1037.574219 691.582031 1037.894531 C 693.039062 1038.125 694.851562 1036.554688 696.140625 1037.539062 C 695.886719 1037.625 695.589844 1037.511719 695.355469 1037.710938 C 694.480469 1038.332031 693.417969 1038.433594 692.382812 1038.5625 C 692.332031 1038.652344 692.390625 1038.683594 692.433594 1038.710938 C 693.425781 1039.273438 694.328125 1039.960938 695.132812 1040.765625 C 697.199219 1041.421875 699.21875 1039.726562 701.355469 1040.167969 C 700.132812 1038.742188 699.148438 1039.382812 697.535156 1039.523438 C 698.113281 1039.144531 698.753906 1039.203125 699.390625 1038.945312 C 698.628906 1038.203125 697.367188 1038.222656 696.710938 1037.441406 C 699.632812 1036.789062 702.070312 1039.800781 703.882812 1041.714844 C 705.808594 1043.945312 705.820312 1047.160156 707.511719 1049.503906 C 707.4375 1049.726562 707.472656 1049.929688 707.621094 1050.113281 C 705.363281 1048.976562 705.664062 1045.523438 704.175781 1043.65625 C 702.347656 1043.96875 700.546875 1044.3125 698.703125 1044.472656 C 698.730469 1044.84375 698.957031 1045.132812 699.023438 1045.503906 C 700.863281 1045.1875 702.703125 1044.824219 704.566406 1044.667969 C 702.964844 1045.285156 700.859375 1045.203125 699.125 1045.78125 C 699.277344 1047.015625 699.25 1048.394531 699.90625 1049.480469 C 700.28125 1050.085938 700.683594 1050.78125 700.574219 1051.515625 C 700.5 1053.648438 699.378906 1055.5625 699.175781 1057.648438 C 699.246094 1059.339844 699.074219 1061.058594 699.4375 1062.722656 C 699.574219 1063.304688 699.652344 1063.929688 699.433594 1064.503906 C 699.214844 1065.804688 697.625 1065.960938 696.570312 1065.714844 C 695.4375 1065.425781 694.972656 1064.027344 695.011719 1062.960938 C 695.316406 1060.660156 696.472656 1058.351562 695.265625 1056.121094 C 695.660156 1055.726562 696.003906 1056.292969 696.175781 1056.609375 C 696.917969 1058.519531 695.714844 1060.523438 695.792969 1062.484375 C 695.605469 1064.269531 697.195312 1066.78125 698.8125 1064.695312 C 699.1875 1062.316406 698.324219 1059.695312 698.707031 1057.222656 C 699.054688 1054.847656 700.59375 1052.171875 699.261719 1049.878906 C 698.300781 1048.433594 698.84375 1046.574219 698.203125 1045.039062 C 697.820312 1044.304688 697.628906 1043.304688 698.382812 1042.742188 C 698.414062 1042.71875 698.492188 1042.707031 698.5 1042.722656 C 698.601562 1042.898438 698.792969 1042.773438 698.9375 1042.867188 C 698.726562 1043.289062 698.304688 1043.648438 698.566406 1044.179688 C 700.347656 1043.757812 702.164062 1043.585938 703.980469 1043.378906 C 703.832031 1042.726562 702.824219 1041.347656 701.933594 1040.582031 C 700.0625 1040.6875 698.265625 1041.222656 696.417969 1041.480469 C 696.964844 1041.882812 697.570312 1041.820312 698.164062 1042.042969 C 698.800781 1043.179688 694.832031 1041.882812 694.667969 1041.273438 C 691.183594 1037.164062 685.59375 1037.214844 680.753906 1036.09375 C 678.667969 1035.578125 677.320312 1033.769531 675.347656 1033.085938 C 672.027344 1032.457031 668.785156 1031.59375 665.507812 1030.738281 C 659.964844 1028.855469 653.910156 1030.972656 648.550781 1028.449219 C 647.003906 1027.746094 644.601562 1027.53125 644.070312 1025.660156 C 644.871094 1021.550781 649.953125 1024.925781 652.308594 1025.667969 C 653.855469 1026.417969 659.710938 1027.234375 659.535156 1029.246094 Z M 659.238281 1029.203125 C 658.445312 1027.691406 653.503906 1026.378906 651.773438 1026.105469 C 651.300781 1026.28125 650.996094 1025.84375 650.644531 1025.609375 C 649.980469 1025.125 649.160156 1024.910156 648.363281 1024.761719 C 648.535156 1025.351562 649.078125 1025.691406 649.125 1026.304688 C 647.957031 1025.4375 647.832031 1024.019531 646.011719 1024.332031 C 646.835938 1025.414062 647.808594 1026.355469 648.566406 1027.484375 C 648.699219 1027.671875 648.882812 1027.792969 649.109375 1027.839844 C 652.382812 1028.972656 655.777344 1029.5625 659.238281 1029.203125 Z M 647.695312 1027.324219 C 646.910156 1026.34375 646.234375 1025.15625 645.28125 1024.367188 C 643.664062 1025.328125 646.628906 1027.25 647.695312 1027.324219 Z M 665.585938 1030.316406 C 665.113281 1029.695312 661.585938 1028.820312 661.257812 1029.476562 C 662.6875 1029.714844 664.164062 1030.199219 665.582031 1030.316406 Z M 665.585938 1030.316406 " fill-opacity="1" fill-rule="nonzero"/><path fill="#0a3757" d="M 670.734375 1039.652344 C 671.550781 1039.3125 672.503906 1040.34375 673.339844 1040.53125 C 674.796875 1041.191406 676.433594 1041.382812 677.773438 1042.304688 C 678 1042.472656 678.246094 1042.515625 678.515625 1042.433594 C 679.734375 1042.230469 680.980469 1042.472656 682.226562 1042.390625 C 681.261719 1042.8125 680.015625 1042.632812 678.953125 1042.851562 C 679.011719 1043.089844 679.398438 1043.144531 679.574219 1043.292969 C 681.484375 1042.945312 683.421875 1043.433594 685.285156 1042.933594 C 686.65625 1042.335938 688.15625 1042.574219 689.589844 1042.414062 C 687.09375 1041.132812 684.015625 1041.390625 681.289062 1040.839844 C 679.730469 1040.609375 678.574219 1039.300781 677.035156 1039.144531 C 672.851562 1039.101562 668.433594 1037.898438 665.398438 1034.9375 C 668.046875 1035.957031 670.546875 1037.636719 673.46875 1038.042969 C 674.492188 1038.578125 679.320312 1038.222656 679.109375 1039.386719 C 683.699219 1041.316406 690.429688 1040.042969 693.179688 1045.113281 C 689.917969 1045.558594 686.703125 1046.144531 683.410156 1046.363281 C 684.007812 1047.878906 685.644531 1049.902344 684.527344 1051.464844 C 681.894531 1053.929688 679.226562 1050.996094 679.175781 1048.136719 C 675.820312 1048.410156 674.859375 1047.957031 678.9375 1047.679688 C 677.8125 1046.089844 675.820312 1044.683594 673.886719 1044.402344 C 670.472656 1044.640625 667.054688 1045.046875 663.644531 1045.046875 C 664.761719 1043.597656 670.894531 1044.613281 672.804688 1044.046875 C 670.035156 1042.800781 666.816406 1042.28125 664.324219 1040.582031 C 663.066406 1040.058594 661.792969 1041.511719 660.457031 1041.25 C 661.058594 1042.4375 662.527344 1043.1875 662.90625 1044.460938 C 661.957031 1044.542969 660.480469 1041.898438 659.667969 1041.191406 C 658.976562 1040.175781 657.082031 1039.84375 656.609375 1038.832031 C 657.671875 1038.765625 658.609375 1039.753906 659.558594 1040.171875 C 661.285156 1041.546875 663.429688 1038.996094 664.839844 1040.308594 L 664.675781 1040.433594 C 665.691406 1041.328125 667.203125 1041.195312 668.375 1041.839844 C 671.910156 1043.324219 675.828125 1044.085938 678.828125 1046.59375 C 679.992188 1047.304688 679.824219 1048.628906 680.097656 1049.78125 C 680.574219 1051.417969 682.738281 1051.910156 684.179688 1051.328125 C 685.4375 1049.921875 683.070312 1047.609375 682.800781 1046.078125 C 686.109375 1045.78125 689.308594 1045.273438 692.597656 1044.820312 C 690.601562 1042.285156 689.996094 1042.761719 687.054688 1043.183594 C 684.871094 1043.796875 682.660156 1043.855469 680.398438 1043.695312 C 680.527344 1044.234375 682.429688 1044.902344 682.109375 1045.503906 C 678.609375 1042.945312 674.464844 1041.753906 670.734375 1039.652344 Z M 670.734375 1039.652344 " fill-opacity="1" fill-rule="nonzero"/><path fill="#0a3757" d="M 659.96875 1060.960938 C 660.085938 1063.742188 659.894531 1066.523438 660.003906 1069.304688 C 661.175781 1069.292969 662.308594 1069.121094 663.488281 1069.382812 C 662.378906 1069.679688 661.171875 1069.5625 660.015625 1069.542969 C 660.039062 1070.988281 659.003906 1073.101562 660.429688 1074.066406 C 664.460938 1074.269531 668.460938 1072.910156 672.460938 1073.128906 C 669.601562 1074.273438 666.257812 1074.070312 663.214844 1074.589844 C 662.089844 1074.679688 660.726562 1075.011719 659.707031 1074.46875 C 657.980469 1073.480469 656.953125 1071.847656 655.808594 1070.304688 C 652.972656 1067.3125 650.445312 1064.105469 647.484375 1061.226562 C 651.878906 1063.851562 654.683594 1068.601562 658.199219 1072.253906 C 657.722656 1069.449219 655.289062 1067.828125 653.765625 1065.636719 C 655.511719 1066.769531 657.128906 1068.738281 658.050781 1070.679688 C 659.105469 1066.621094 654.628906 1064.117188 652.441406 1061.285156 C 653.824219 1061.796875 654.894531 1063.410156 655.996094 1064.457031 C 656.882812 1065.46875 657.394531 1065.921875 658.132812 1067.253906 C 658.316406 1066.769531 658.167969 1065.996094 658.242188 1065.421875 C 657.640625 1064.90625 657.335938 1064.21875 657.039062 1063.511719 C 657.328125 1063.550781 657.328125 1063.550781 658.25 1064.207031 C 658.429688 1062.507812 658.257812 1060.644531 658.523438 1058.902344 C 658.90625 1056.757812 658.371094 1054.472656 658.816406 1052.390625 C 659.554688 1058.605469 658.457031 1064.976562 658.929688 1071.234375 L 659.269531 1071.316406 C 659.546875 1067.875 659.371094 1064.355469 659.886719 1060.957031 Z M 659.96875 1060.960938 " fill-opacity="1" fill-rule="nonzero"/><path fill="#0a3757" d="M 720.660156 1061.222656 C 719.636719 1061.496094 718.597656 1061.695312 717.546875 1061.824219 C 718.5625 1061.417969 719.640625 1061.203125 720.667969 1060.816406 C 720.746094 1057.011719 721.078125 1053.199219 721.507812 1049.425781 L 721.828125 1049.332031 C 722.199219 1050.253906 721.777344 1051.390625 721.800781 1052.382812 C 721.589844 1054.789062 721.582031 1057.199219 721.542969 1059.609375 C 721.386719 1065.621094 721.125 1066.75 714.832031 1067.371094 C 710.027344 1068.058594 705.230469 1068.679688 700.394531 1069.085938 C 700.0625 1069.117188 699.753906 1069.039062 699.476562 1068.855469 C 704.566406 1067.75 709.910156 1067.6875 715.035156 1066.664062 C 716.699219 1066.351562 718.773438 1066.5625 719.5625 1064.699219 C 720.125 1063.5625 720.789062 1062.558594 720.660156 1061.222656 Z M 720.660156 1061.222656 " fill-opacity="1" fill-rule="nonzero"/><path fill="#0a3757" d="M 706.367188 1039.179688 L 706.316406 1039.019531 C 709.070312 1037.804688 710.675781 1039.601562 711.679688 1042.023438 C 712.121094 1043.183594 711.539062 1044.476562 711.394531 1045.65625 C 711.148438 1046.839844 710.898438 1048.011719 710.890625 1049.222656 C 710.753906 1050 710.3125 1050.25 709.699219 1050.410156 C 709.175781 1050.421875 709.066406 1049.609375 708.742188 1049.289062 C 707.515625 1047.820312 707.734375 1045.828125 706.992188 1044.171875 C 706.375 1042.671875 705.027344 1040.636719 706.367188 1039.179688 Z M 709.96875 1049.957031 C 710.574219 1049.035156 710.109375 1047.792969 710.511719 1046.78125 C 710.734375 1045.832031 711.140625 1044.894531 711.09375 1043.90625 C 710.003906 1044.207031 708.898438 1044.410156 707.773438 1044.515625 C 708.410156 1046.359375 708.898438 1048.289062 709.96875 1049.957031 Z M 710.796875 1042.105469 C 710.472656 1041.265625 710.003906 1040.519531 709.382812 1039.863281 C 708.582031 1039.972656 707.730469 1040.082031 706.988281 1040.394531 C 706.761719 1041.378906 706.773438 1042.523438 707.113281 1042.972656 C 708.316406 1042.472656 709.574219 1042.488281 710.796875 1042.105469 Z M 711.152344 1043.628906 C 711.21875 1043.105469 711.199219 1042.988281 711.027344 1042.667969 C 710.039062 1042.65625 707.804688 1043.03125 707.195312 1043.3125 C 707.347656 1043.640625 707.457031 1043.980469 707.648438 1044.3125 C 708.871094 1044.28125 709.949219 1043.769531 711.152344 1043.628906 Z M 709.027344 1039.546875 C 708.519531 1039.125 708.09375 1039.027344 707.339844 1039.144531 C 707.179688 1039.304688 707.089844 1039.5 707.070312 1039.722656 C 707.726562 1039.730469 708.378906 1039.671875 709.027344 1039.546875 Z M 709.027344 1039.546875 " fill-opacity="1" fill-rule="nonzero"/><g clip-path="url(#ddec85763c)"><path fill="#0a3757" d="M 632.179688 1040.71875 C 633.28125 1044.695312 636.84375 1047.175781 639.65625 1049.953125 C 641.617188 1051.65625 641.636719 1054.589844 643.460938 1056.421875 C 644.246094 1057.578125 646.367188 1059.015625 646.503906 1060.296875 C 642.816406 1057.855469 641.289062 1053.621094 638.867188 1050.136719 C 636.453125 1047.890625 634.175781 1045.515625 632.035156 1043.007812 C 631.535156 1042.554688 631.277344 1040.617188 632.179688 1040.71875 Z M 632.179688 1040.71875 " fill-opacity="1" fill-rule="nonzero"/></g><path fill="#0a3757" d="M 699.753906 1033.753906 C 696.023438 1033.960938 692.328125 1032.566406 688.613281 1032.15625 C 684.378906 1030.941406 679.5625 1030.238281 675.9375 1027.726562 C 676.046875 1027.539062 676.1875 1027.535156 676.363281 1027.609375 C 678.613281 1028.546875 680.9375 1029.296875 683.253906 1030.046875 C 686.816406 1031.089844 690.535156 1031.476562 694.085938 1032.589844 C 695.917969 1033.15625 698.101562 1032.75 699.753906 1033.753906 Z M 699.753906 1033.753906 " fill-opacity="1" fill-rule="nonzero"/><path fill="#0a3757" d="M 707.59375 1050.984375 C 709.542969 1054.058594 706.347656 1058.15625 708.625 1061.136719 C 709.789062 1062.1875 711.039062 1059.917969 711.753906 1059.148438 C 713.523438 1056.871094 710.4375 1052.953125 711.632812 1050.582031 C 711.609375 1053.644531 713.976562 1056.964844 712.132812 1059.839844 C 711.539062 1060.933594 708.992188 1063.027344 708.03125 1061.570312 C 706.628906 1060.011719 706.949219 1057.835938 707.441406 1055.96875 C 707.886719 1054.296875 707.453125 1052.695312 707.59375 1050.984375 Z M 707.59375 1050.984375 " fill-opacity="1" fill-rule="nonzero"/><path fill="#0a3757" d="M 694.710938 1068.1875 C 689.414062 1070.15625 683.335938 1069.5625 677.761719 1070.503906 C 674.761719 1070.667969 662.101562 1073.953125 660.695312 1071.808594 C 662.800781 1072.707031 665.546875 1072.019531 667.816406 1071.753906 C 671.054688 1071.230469 674.296875 1070.757812 677.527344 1070.191406 C 681.226562 1069.570312 684.984375 1069.507812 688.691406 1069.003906 C 690.660156 1068.644531 692.699219 1067.777344 694.710938 1068.1875 Z M 694.710938 1068.1875 " fill-opacity="1" fill-rule="nonzero"/><g clip-path="url(#95a4daaacd)"><path fill="#0a3757" d="M 639.191406 1046.578125 C 636.714844 1044.308594 634.597656 1041.742188 632.320312 1039.285156 C 631.730469 1040.011719 631.539062 1039.3125 631.722656 1038.71875 C 631.785156 1037.867188 631.679688 1037.011719 631.796875 1036.160156 C 631.46875 1034.179688 631.714844 1032.273438 632.527344 1030.441406 C 633.523438 1031.476562 631.957031 1033.074219 632.261719 1034.332031 C 632.503906 1034.449219 632.828125 1034.492188 632.898438 1034.863281 C 632.703125 1034.914062 632.550781 1034.722656 632.371094 1034.789062 C 632.25 1035.898438 633.34375 1036.378906 633.855469 1037.195312 C 633.441406 1037.214844 633.113281 1036.738281 632.734375 1036.539062 C 632.652344 1036.878906 632.710938 1037.152344 632.695312 1037.480469 C 633.769531 1038.511719 636.597656 1041.277344 636.886719 1041.980469 C 635.300781 1040.890625 634.238281 1039.125 632.667969 1037.972656 C 632.492188 1038.277344 632.488281 1038.578125 632.382812 1038.898438 C 634.617188 1041.472656 637.449219 1043.605469 639.261719 1046.527344 Z M 639.191406 1046.578125 " fill-opacity="1" fill-rule="nonzero"/></g><path fill="#0a3757" d="M 718.25 1065.234375 C 711.488281 1066.851562 704.339844 1066.65625 697.472656 1067.703125 C 697.433594 1067.441406 697.847656 1067.480469 698.011719 1067.417969 C 700.804688 1067.046875 703.609375 1066.761719 706.410156 1066.449219 C 710.359375 1066.171875 714.292969 1064.96875 718.242188 1065.144531 Z M 718.25 1065.234375 " fill-opacity="1" fill-rule="nonzero"/><path fill="#0a3757" d="M 695.785156 1055.121094 C 695.367188 1055.449219 694.660156 1055.109375 694.585938 1054.625 C 694.261719 1053.402344 695.886719 1053.3125 695.988281 1052.1875 C 696.449219 1050.019531 695.769531 1046.457031 693.289062 1045.90625 C 696.660156 1044.785156 696.925781 1050.152344 696.527344 1052.347656 C 696.308594 1053.613281 694.683594 1053.511719 695.785156 1055.121094 Z M 695.785156 1055.121094 " fill-opacity="1" fill-rule="nonzero"/><path fill="#0a3757" d="M 670.078125 1039.351562 C 667.957031 1038.835938 665.855469 1038.265625 663.691406 1037.933594 C 662.449219 1037.375 660.417969 1036.742188 660.269531 1035.183594 C 660.3125 1034.710938 660.441406 1033.828125 661.007812 1033.789062 C 661.128906 1033.828125 660.972656 1034.097656 660.894531 1034.183594 C 660.332031 1035.273438 661.976562 1036.105469 662.726562 1036.613281 C 664.914062 1038.261719 667.992188 1037.664062 670.078125 1039.351562 Z M 670.078125 1039.351562 " fill-opacity="1" fill-rule="nonzero"/><path fill="#0a3757" d="M 660.296875 1048.089844 C 662.140625 1047.640625 664.15625 1048.105469 666.066406 1048.003906 C 668.03125 1048.046875 670.078125 1047.753906 671.976562 1048.34375 C 668.074219 1048.671875 664.179688 1048.585938 660.296875 1048.089844 Z M 660.296875 1048.089844 " fill-opacity="1" fill-rule="nonzero"/><path fill="#0a3757" d="M 643.363281 1053.597656 C 646.398438 1057.472656 650.035156 1061.007812 652.90625 1064.917969 C 649.285156 1061.515625 646.105469 1057.742188 643.363281 1053.597656 Z M 643.363281 1053.597656 " fill-opacity="1" fill-rule="nonzero"/><path fill="#0a3757" d="M 671.542969 1070.039062 C 676.671875 1069.382812 681.785156 1068.074219 686.976562 1068.285156 C 681.878906 1069.074219 676.675781 1069.578125 671.542969 1070.039062 Z M 671.542969 1070.039062 " fill-opacity="1" fill-rule="nonzero"/><path fill="#0a3757" d="M 685.347656 1070.828125 C 685.476562 1070.980469 685.671875 1070.929688 685.855469 1071 C 682.691406 1072.054688 679.097656 1072.09375 675.757812 1072.261719 C 678.777344 1071.253906 682.1875 1071.339844 685.347656 1070.824219 Z M 685.347656 1070.828125 " fill-opacity="1" fill-rule="nonzero"/><path fill="#0a3757" d="M 707.28125 1065.253906 C 710.917969 1064.691406 714.90625 1063.605469 718.605469 1063.953125 C 714.925781 1064.949219 711.039062 1064.753906 707.277344 1065.253906 Z M 707.28125 1065.253906 " fill-opacity="1" fill-rule="nonzero"/><path fill="#0a3757" d="M 657.9375 1049.355469 C 658.058594 1052.203125 658.335938 1055.207031 657.75 1058.003906 C 656.992188 1055.226562 657.78125 1052.359375 657.746094 1049.554688 C 657.730469 1049.445312 657.761719 1049.359375 657.9375 1049.355469 Z M 657.9375 1049.355469 " fill-opacity="1" fill-rule="nonzero"/><path fill="#0a3757" d="M 676.960938 1050.046875 C 672.605469 1050.164062 668.277344 1050.070312 663.933594 1050.117188 C 668.148438 1049.8125 672.695312 1049.414062 676.960938 1050.046875 Z M 676.960938 1050.046875 " fill-opacity="1" fill-rule="nonzero"/><path fill="#0a3757" d="M 638.714844 1015.867188 C 639.5625 1016.589844 640.074219 1017.585938 640.796875 1018.429688 C 641.417969 1019.378906 642.441406 1020.144531 642.765625 1021.25 C 642.257812 1021.253906 638.070312 1016.183594 638.714844 1015.867188 Z M 638.714844 1015.867188 " fill-opacity="1" fill-rule="nonzero"/><path fill="#0a3757" d="M 669.988281 1043.628906 C 667.707031 1043.929688 664.539062 1044.582031 662.886719 1042.554688 C 664.972656 1043.515625 667.625 1043.5625 669.996094 1043.542969 Z M 669.988281 1043.628906 " fill-opacity="1" fill-rule="nonzero"/><path fill="#0a3757" d="M 687.546875 1070.445312 C 689.648438 1070.097656 691.910156 1069.78125 694.007812 1069.855469 C 692.304688 1070.691406 690.199219 1070.382812 688.347656 1070.765625 C 688.019531 1070.785156 687.410156 1071.078125 687.546875 1070.445312 Z M 687.546875 1070.445312 " fill-opacity="1" fill-rule="nonzero"/><path fill="#0a3757" d="M 660.445312 1050.375 C 660.507812 1052.289062 660.507812 1054.210938 660.414062 1056.125 C 660.449219 1056.371094 660.179688 1056.390625 660.128906 1056.625 C 659.578125 1055.230469 660.097656 1053.332031 660.144531 1051.789062 C 660.292969 1051.386719 659.921875 1050.476562 660.445312 1050.375 Z M 660.445312 1050.375 " fill-opacity="1" fill-rule="nonzero"/><path fill="#0a3757" d="M 647.835938 1056.519531 C 645.511719 1055.003906 644.054688 1052.1875 643.273438 1049.582031 C 644.351562 1051.101562 644.8125 1053.019531 646.105469 1054.398438 C 646.683594 1055.121094 647.398438 1055.683594 647.835938 1056.519531 Z M 647.835938 1056.519531 " fill-opacity="1" fill-rule="nonzero"/><path fill="#0a3757" d="M 633.109375 1026.425781 C 633.035156 1026.066406 632.757812 1025.914062 632.632812 1025.667969 C 632.824219 1025.222656 633.144531 1025.644531 633.394531 1025.765625 C 633.773438 1025.992188 633.617188 1026.476562 633.441406 1026.78125 C 632.664062 1027.597656 633.304688 1029.226562 632.777344 1029.5625 C 631.777344 1029.171875 632.546875 1027.039062 633.109375 1026.425781 Z M 633.109375 1026.425781 " fill-opacity="1" fill-rule="nonzero"/><path fill="#0a3757" d="M 717.445312 1037.789062 C 717.59375 1037.304688 717.414062 1036.820312 717.382812 1036.34375 C 717.953125 1036.511719 718.609375 1037.605469 718.078125 1038.144531 C 717.476562 1038.515625 716.65625 1039.191406 715.929688 1038.816406 C 716.027344 1038.085938 716.992188 1038.207031 717.445312 1037.789062 Z M 717.445312 1037.789062 " fill-opacity="1" fill-rule="nonzero"/><path fill="#0a3757" d="M 691.039062 1046.769531 C 688.894531 1047.351562 686.597656 1047.382812 684.390625 1047.503906 C 684.867188 1047.144531 685.808594 1047.285156 686.4375 1047.105469 C 687.972656 1046.964844 689.503906 1046.496094 691.039062 1046.769531 Z M 691.039062 1046.769531 " fill-opacity="1" fill-rule="nonzero"/><path fill="#0a3757" d="M 661.382812 1034 C 662.140625 1032.984375 664.175781 1034.089844 664.992188 1034.742188 C 664.441406 1034.894531 663.984375 1034.554688 663.453125 1034.460938 C 662.796875 1034.15625 662.011719 1034.273438 661.382812 1034 Z M 661.382812 1034 " fill-opacity="1" fill-rule="nonzero"/><path fill="#0a3757" d="M 661.222656 1070.234375 C 663.625 1069.878906 666.21875 1070.03125 668.6875 1070.046875 C 666.207031 1070.339844 663.71875 1070.40625 661.222656 1070.234375 Z M 661.222656 1070.234375 " fill-opacity="1" fill-rule="nonzero"/><path fill="#0a3757" d="M 669.300781 1045.382812 C 669.9375 1044.976562 670.757812 1045.382812 671.464844 1045.183594 C 672.464844 1044.984375 673.492188 1044.832031 674.511719 1045.039062 C 672.957031 1045.625 670.988281 1045.5 669.300781 1045.382812 Z M 669.300781 1045.382812 " fill-opacity="1" fill-rule="nonzero"/><path fill="#0a3757" d="M 643.097656 1052.691406 C 642.71875 1052.710938 642.59375 1051.816406 642.394531 1051.511719 C 641.921875 1050.128906 640.945312 1049.050781 640.191406 1047.832031 C 641.808594 1048.6875 642.300781 1051.078125 643.097656 1052.691406 Z M 643.097656 1052.691406 " fill-opacity="1" fill-rule="nonzero"/><path fill="#0a3757" d="M 661.746094 1067.832031 C 663.042969 1067.371094 664.367188 1067.257812 665.722656 1067.5 C 664.609375 1067.875 662.890625 1068.078125 661.746094 1067.832031 Z M 661.746094 1067.832031 " fill-opacity="1" fill-rule="nonzero"/><path fill="#0a3757" d="M 635.027344 1020.484375 C 635.492188 1019.910156 637.808594 1023.101562 638.363281 1023.554688 C 637.09375 1022.890625 636.066406 1021.53125 635.027344 1020.484375 Z M 635.027344 1020.484375 " fill-opacity="1" fill-rule="nonzero"/><path fill="#0a3757" d="M 656.359375 1047.105469 C 655.414062 1046.242188 654.226562 1045.21875 653.757812 1044 C 654.882812 1044.734375 655.636719 1046.011719 656.355469 1047.109375 Z M 656.359375 1047.105469 " fill-opacity="1" fill-rule="nonzero"/><path fill="#0a3757" d="M 649.375 1058.042969 C 649.765625 1058.335938 651.441406 1059.589844 651.140625 1060.035156 C 650.476562 1059.816406 649.667969 1058.703125 649.375 1058.042969 Z M 649.375 1058.042969 " fill-opacity="1" fill-rule="nonzero"/><path fill="#0a3757" d="M 673.863281 1072.890625 C 672.542969 1072.464844 674.195312 1072.0625 674.789062 1072.269531 C 675.347656 1072.664062 674.15625 1072.894531 673.863281 1072.890625 Z M 673.863281 1072.890625 " fill-opacity="1" fill-rule="nonzero"/><path fill="#0a3757" d="M 659.835938 1058.179688 C 660 1058.105469 660.160156 1058.101562 660.324219 1058.171875 C 660.304688 1058.679688 660.28125 1059.234375 660.015625 1059.679688 C 659.574219 1059.457031 659.761719 1058.703125 659.835938 1058.179688 Z M 659.835938 1058.179688 " fill-opacity="1" fill-rule="nonzero"/><path fill="#0a3757" d="M 712.675781 1036.304688 C 712.234375 1035.949219 711.976562 1035.488281 711.902344 1034.929688 C 712.484375 1034.6875 712.746094 1035.902344 712.675781 1036.304688 Z M 712.675781 1036.304688 " fill-opacity="1" fill-rule="nonzero"/><path fill="#0a3757" d="M 657.769531 1060.921875 C 657.644531 1060.441406 657.273438 1059.125 658.082031 1059.398438 C 658.046875 1059.917969 657.945312 1060.425781 657.769531 1060.921875 Z M 657.769531 1060.921875 " fill-opacity="1" fill-rule="nonzero"/><path fill="#0a3757" d="M 716.644531 1061.144531 C 717.246094 1060.683594 717.878906 1060.566406 718.632812 1060.523438 C 718.109375 1060.910156 717.320312 1061.269531 716.644531 1061.144531 Z M 716.644531 1061.144531 " fill-opacity="1" fill-rule="nonzero"/><path fill="#0a3757" d="M 674.03125 1027.367188 C 674.03125 1027.199219 674.148438 1027.101562 674.277344 1026.992188 C 674.65625 1027.074219 674.988281 1027.242188 675.28125 1027.496094 C 674.847656 1027.617188 674.429688 1027.574219 674.03125 1027.367188 Z M 674.03125 1027.367188 " fill-opacity="1" fill-rule="nonzero"/><path fill="#0a3757" d="M 665.917969 1069.039062 C 665.5 1069.328125 664.695312 1069.371094 664.457031 1068.933594 C 664.871094 1068.765625 665.480469 1068.890625 665.917969 1069.039062 Z M 665.917969 1069.039062 " fill-opacity="1" fill-rule="nonzero"/><path fill="#0a3757" d="M 650.796875 1038.054688 C 651.328125 1038.414062 651.902344 1038.75 651.964844 1039.347656 C 651.414062 1039.144531 651.136719 1038.527344 650.796875 1038.054688 Z M 650.796875 1038.054688 " fill-opacity="1" fill-rule="nonzero"/><path fill="#0a3757" d="M 693.777344 1046.371094 C 693.328125 1046.617188 692.847656 1046.714844 692.335938 1046.65625 C 692.347656 1046.203125 693.351562 1046.382812 693.777344 1046.371094 Z M 693.777344 1046.371094 " fill-opacity="1" fill-rule="nonzero"/><path fill="#0a3757" d="M 638.757812 1018.371094 C 638.980469 1018.558594 639.128906 1018.796875 639.195312 1019.082031 C 638.949219 1019.246094 638.609375 1018.871094 638.464844 1018.660156 C 638.480469 1018.503906 638.566406 1018.414062 638.757812 1018.371094 Z M 638.757812 1018.371094 " fill-opacity="1" fill-rule="nonzero"/><path fill="#0a3757" d="M 637.316406 1042.789062 L 637.53125 1042.546875 C 637.847656 1042.644531 637.992188 1043 638.203125 1043.257812 C 637.855469 1043.21875 637.730469 1043.152344 637.316406 1042.789062 Z M 637.316406 1042.789062 " fill-opacity="1" fill-rule="nonzero"/><path fill="#0a3757" d="M 634.53125 1037.625 C 634.746094 1037.851562 634.917969 1038.117188 635.152344 1038.410156 C 634.828125 1038.386719 633.867188 1037.941406 634.53125 1037.625 Z M 634.53125 1037.625 " fill-opacity="1" fill-rule="nonzero"/><path fill="#0a3757" d="M 714.925781 1061.410156 C 715.078125 1061.28125 715.253906 1061.207031 715.453125 1061.1875 C 715.652344 1061.164062 715.839844 1061.203125 716.015625 1061.292969 C 715.675781 1061.558594 715.3125 1061.59375 714.925781 1061.410156 Z M 714.925781 1061.410156 " fill-opacity="1" fill-rule="nonzero"/><path fill="#0a3757" d="M 673.164062 1048.136719 L 674.242188 1048.136719 C 674.058594 1048.339844 673.152344 1048.644531 673.164062 1048.136719 Z M 673.164062 1048.136719 " fill-opacity="1" fill-rule="nonzero"/><path fill="#0a3757" d="M 715.582031 1063.160156 C 715.851562 1062.945312 716.167969 1062.910156 716.761719 1062.996094 C 716.546875 1063.253906 715.980469 1063.1875 715.582031 1063.160156 Z M 715.582031 1063.160156 " fill-opacity="1" fill-rule="nonzero"/><path fill="#0a3757" d="M 717.058594 1036.074219 C 716.738281 1036.058594 716.390625 1035.570312 716.453125 1035.273438 C 716.757812 1035.292969 717.085938 1035.769531 717.058594 1036.074219 Z M 717.058594 1036.074219 " fill-opacity="1" fill-rule="nonzero"/><path fill="#0a3757" d="M 667.777344 1045.625 C 668.144531 1045.40625 668.519531 1045.078125 668.710938 1045.601562 C 668.433594 1045.710938 668.15625 1045.675781 667.777344 1045.625 Z M 667.777344 1045.625 " fill-opacity="1" fill-rule="nonzero"/><path fill="#0a3757" d="M 689.480469 1068.011719 C 689.1875 1068.140625 688.890625 1068.242188 688.582031 1068.320312 C 688.25 1067.929688 689.1875 1067.886719 689.480469 1068.011719 Z M 689.480469 1068.011719 " fill-opacity="1" fill-rule="nonzero"/><path fill="#0a3757" d="M 644.488281 1019.777344 C 644.453125 1020.019531 644.183594 1019.832031 644.066406 1019.753906 C 643.714844 1019.226562 644.5 1019.199219 644.488281 1019.777344 Z M 644.488281 1019.777344 " fill-opacity="1" fill-rule="nonzero"/><path fill="#0a3757" d="M 698.882812 1069.105469 C 698.527344 1069.285156 698.152344 1069.351562 697.757812 1069.300781 C 697.554688 1068.886719 698.601562 1069.128906 698.882812 1069.105469 Z M 698.882812 1069.105469 " fill-opacity="1" fill-rule="nonzero"/><path fill="#0a3757" d="M 638.90625 1024.324219 C 639.15625 1024.011719 639.683594 1024.421875 639.753906 1024.730469 C 639.441406 1024.652344 639.210938 1024.464844 638.90625 1024.324219 Z M 638.90625 1024.324219 " fill-opacity="1" fill-rule="nonzero"/><path fill="#0a3757" d="M 652.984375 1043.617188 C 652.761719 1043.511719 652.691406 1043.3125 652.53125 1043.117188 C 652.835938 1043.125 653.226562 1043.347656 652.984375 1043.617188 Z M 652.984375 1043.617188 " fill-opacity="1" fill-rule="nonzero"/><path fill="#0a3757" d="M 683.429688 1042.179688 C 683.625 1042.058594 683.820312 1042.058594 684.011719 1042.1875 C 683.804688 1042.335938 683.507812 1042.554688 683.429688 1042.179688 Z M 683.429688 1042.179688 " fill-opacity="1" fill-rule="nonzero"/><path fill="#0a3757" d="M 707.277344 1065.253906 L 706.761719 1065.28125 C 706.929688 1065.21875 707.101562 1065.210938 707.277344 1065.253906 Z M 707.277344 1065.253906 " fill-opacity="1" fill-rule="nonzero"/><path fill="#0a3757" d="M 656.355469 1047.109375 L 656.507812 1047.246094 L 656.484375 1047.285156 C 656.378906 1047.269531 656.375 1047.191406 656.359375 1047.105469 Z M 656.355469 1047.109375 " fill-opacity="1" fill-rule="nonzero"/><path fill="#0a3757" d="M 685.347656 1070.824219 L 685.539062 1070.8125 C 685.476562 1070.820312 685.410156 1070.824219 685.347656 1070.824219 Z M 685.347656 1070.824219 " fill-opacity="1" fill-rule="nonzero"/><path fill="#0a3757" d="M 683.222656 1015.789062 C 683.445312 1015.722656 685.015625 1016.09375 684.449219 1016.363281 C 684.054688 1016.195312 683.476562 1016.125 683.222656 1015.789062 Z M 683.222656 1015.789062 " fill-opacity="1" fill-rule="nonzero"/><path fill="#0a3757" d="M 673.398438 1011.988281 C 673.695312 1011.804688 673.746094 1011.800781 674.078125 1011.894531 C 673.878906 1012.152344 673.488281 1012.347656 673.398438 1011.988281 Z M 673.398438 1011.988281 " fill-opacity="1" fill-rule="nonzero"/><path fill="#0a3757" d="M 649.519531 1026.828125 C 649.65625 1026.964844 649.617188 1027.128906 649.707031 1027.269531 C 649.371094 1027.273438 649.210938 1026.957031 649.519531 1026.828125 Z M 649.519531 1026.828125 " fill-opacity="1" fill-rule="nonzero"/></svg>